<svg width="18" height="18" viewBox="0 0 18 18" fill="none" xmlns="http://www.w3.org/2000/svg">
<path d="M7.50685 7.3923C7.50685 7.96113 7.92505 8.34295 9.22369 8.6936C10.515 9.05204 11.9017 9.64425 11.909 11.3585C11.9017 12.6131 11.0212 13.291 9.90602 13.517V14.8183H8.18918V13.4936C7.08864 13.252 6.16419 12.504 6.09082 11.1793H7.35277C7.4188 11.8962 7.88103 12.4572 9.05494 12.4572C10.3096 12.4572 10.5957 11.7871 10.5957 11.3741C10.5957 10.8131 10.3096 10.2754 8.87885 9.91697C7.28674 9.51178 6.19354 8.81048 6.19354 7.41567C6.19354 6.23905 7.08131 5.47541 8.18918 5.22606V3.90918H9.89868V5.24165C11.0873 5.55334 11.6889 6.51178 11.7256 7.55593H10.471C10.4416 6.7923 10.0601 6.27801 9.0476 6.27801C8.08646 6.27801 7.50685 6.73775 7.50685 7.3923Z" fill="white"/>
<path d="M9 17C13.4183 17 17 13.4183 17 9C17 4.58172 13.4183 1 9 1C4.58172 1 1 4.58172 1 9C1 13.4183 4.58172 17 9 17Z" stroke="white" stroke-width="1.45455" stroke-linecap="round"/>
</svg>
