<svg width="276" height="127" viewBox="0 0 276 127" fill="none" xmlns="http://www.w3.org/2000/svg">
<g style="mix-blend-mode:multiply">
<path d="M264.282 104.112C264.282 105.599 247.058 106.804 225.811 106.804C204.564 106.804 187.34 105.599 187.34 104.112C187.34 102.626 204.564 101.421 225.811 101.421C247.058 101.421 264.282 102.626 264.282 104.112Z" fill="#E6E7E8"/>
</g>
<path d="M227 23.792H225.811V103.608H227V23.792Z" fill="#414042"/>
<path d="M178.286 25.6305L178.102 25.1657C177.879 25.2542 177.75 25.4886 177.795 25.7243C177.84 25.96 178.046 26.1305 178.286 26.1305V25.6305ZM226.405 6.54492V6.04492C226.342 6.04492 226.279 6.05687 226.22 6.08015L226.405 6.54492ZM274.525 25.6305V26.1305C274.765 26.1305 274.971 25.96 275.016 25.7243C275.061 25.4886 274.932 25.2542 274.709 25.1657L274.525 25.6305ZM226.405 6.54492L226.589 6.08014C226.531 6.05687 226.468 6.04492 226.405 6.04492V6.54492ZM178.47 26.0953L226.589 7.0097L226.22 6.08015L178.102 25.1657L178.47 26.0953ZM214.01 25.1305H178.286V26.1305H214.01V25.1305ZM214.01 26.1305H214.011V25.1305H214.01V26.1305ZM214.011 26.1305H238.799V25.1305H214.011V26.1305ZM274.525 25.1305H238.799V26.1305H274.525V25.1305ZM226.221 7.0097L274.34 26.0953L274.709 25.1657L226.589 6.08014L226.221 7.0097ZM226.405 7.04492H226.405V6.04492H226.405V7.04492Z" fill="#0B2917"/>
<path d="M226.405 6.54492L178.286 25.6305H214.011L226.405 6.54492Z" fill="#254F36"/>
<path d="M226.405 6.54492L274.525 25.6305H238.799L226.405 6.54492Z" fill="#0B2917"/>
<path d="M226.405 6.54492L214.011 25.6305H238.799L226.405 6.54492Z" fill="#1B402A"/>
<path d="M245.814 78.7139H206.996V81.1681H245.814V78.7139Z" fill="#2E2B30"/>
<path d="M207.098 103.609L213.869 79.0513H215.433L208.663 103.609H207.098Z" fill="#2E2B30"/>
<path d="M245.712 103.609L238.941 79.0513H237.377L244.148 103.609H245.712Z" fill="#2E2B30"/>
<path d="M262.249 85.9793C262.249 85.9793 261.341 85.2273 263.045 76.0149C264.885 66.063 267.664 66.063 267.664 66.063L263.045 86.767L262.249 85.9793Z" fill="#FBF8F3"/>
<path d="M241.544 86.767H263.045C263.045 86.767 263.045 84.6968 252.295 84.6968C241.544 84.6968 241.544 86.767 241.544 86.767Z" fill="#FBF8F3"/>
<path d="M248.849 77.2998L246.1 87.0034L246.809 87.2043L249.559 77.5007L248.849 77.2998Z" fill="#495968"/>
<path d="M258.647 78.3765H257.911V86.7668H258.647V78.3765Z" fill="#495968"/>
<path d="M245.249 86.7671L243.026 103.609H243.582L247.367 86.7671H245.249Z" fill="#2E2B30"/>
<path d="M260.006 86.7671L262.228 103.609H261.673L257.888 86.7671H260.006Z" fill="#2E2B30"/>
<path d="M263.045 86.7671H241.544V87.4399H263.045V86.7671Z" fill="#495968"/>
<path d="M244.919 76.933C244.919 76.933 247.511 75.1872 253.871 76.0145C260.233 76.8426 262.58 78.712 262.58 78.712L244.919 76.933Z" fill="#FBF8F3"/>
<path d="M244.289 76.4999L244.215 77.2334L263.454 79.1709L263.528 78.4374L244.289 76.4999Z" fill="#495968"/>
<path d="M187.289 85.9793C187.289 85.9793 188.197 85.2273 186.492 76.0149C184.652 66.063 181.874 66.063 181.874 66.063L186.492 86.767L187.289 85.9793Z" fill="#FBF8F3"/>
<path d="M207.993 86.767H186.492C186.492 86.767 186.492 84.6968 197.243 84.6968C207.993 84.6968 207.993 86.767 207.993 86.767Z" fill="#FBF8F3"/>
<path d="M200.689 77.2997L199.979 77.5005L202.728 87.2046L203.437 87.0038L200.689 77.2997Z" fill="#495968"/>
<path d="M191.627 78.376H190.891V86.7663H191.627V78.376Z" fill="#495968"/>
<path d="M204.29 86.7671L206.512 103.609H205.956L202.171 86.7671H204.29Z" fill="#2E2B30"/>
<path d="M189.531 86.7671L187.309 103.609H187.865L191.65 86.7671H189.531Z" fill="#2E2B30"/>
<path d="M207.993 86.7671H186.492V87.4399H207.993V86.7671Z" fill="#495968"/>
<path d="M204.619 76.933C204.619 76.933 202.027 75.1872 195.666 76.0145C189.305 76.8426 186.957 78.712 186.957 78.712L204.619 76.933Z" fill="#FBF8F3"/>
<path d="M205.248 76.4982L186.01 78.4385L186.084 79.172L205.322 77.2317L205.248 76.4982Z" fill="#495968"/>
<g style="mix-blend-mode:multiply">
<path d="M166.714 123.904C166.714 125.39 147.748 126.596 124.351 126.596C100.954 126.596 81.9878 125.39 81.9878 123.904C81.9878 122.418 100.954 121.212 124.351 121.212C147.748 121.212 166.714 122.418 166.714 123.904Z" fill="#E6E7E8"/>
</g>
<path d="M124.979 41.3291H123.722V125.72H124.979V41.3291Z" fill="#414042"/>
<path d="M123.119 24.5449L75 43.6305H110.724L123.119 24.5449Z" fill="#254F36"/>
<path d="M123.119 24.5449L171.238 43.6305H135.513L123.119 24.5449Z" fill="#0B2917"/>
<path d="M123.119 24.5449L110.725 43.6305H135.513L123.119 24.5449Z" fill="#1B402A"/>
<path d="M144.872 99.3979H103.829V101.993H144.872V99.3979Z" fill="#2E2B30"/>
<path d="M103.937 125.719L111.095 99.7549H112.75L105.592 125.719H103.937Z" fill="#2E2B30"/>
<path d="M144.764 125.719L137.605 99.7549H135.951L143.109 125.719H144.764Z" fill="#2E2B30"/>
<path d="M162.249 107.08C162.249 107.08 161.289 106.285 163.09 96.5445C165.036 86.0225 167.974 86.0225 167.974 86.0225L163.09 107.913L162.249 107.08Z" fill="#FBF8F3"/>
<path d="M140.358 107.913H163.091C163.091 107.913 163.091 105.724 151.724 105.724C140.358 105.724 140.358 107.913 140.358 107.913Z" fill="#FBF8F3"/>
<path d="M148.081 97.9033L145.174 108.163L145.924 108.375L148.831 98.1157L148.081 97.9033Z" fill="#495968"/>
<path d="M158.441 99.042H157.662V107.913H158.441V99.042Z" fill="#495968"/>
<path d="M144.274 107.914L141.925 125.719H142.512L146.513 107.914H144.274Z" fill="#2E2B30"/>
<path d="M159.877 107.914L162.228 125.719H161.639L157.637 107.914H159.877Z" fill="#2E2B30"/>
<path d="M163.091 107.913H140.358V108.624H163.091V107.913Z" fill="#495968"/>
<path d="M143.926 97.5155C143.926 97.5155 146.666 95.6697 153.391 96.5443C160.117 97.4199 162.599 99.3965 162.599 99.3965L143.926 97.5155Z" fill="#FBF8F3"/>
<path d="M143.26 97.0575L143.182 97.833L163.523 99.8815L163.601 99.1059L143.26 97.0575Z" fill="#495968"/>
<path d="M82.9924 107.08C82.9924 107.08 83.9524 106.285 82.1505 96.5445C80.2046 86.0225 77.2671 86.0225 77.2671 86.0225L82.1505 107.913L82.9924 107.08Z" fill="#FBF8F3"/>
<path d="M104.884 107.913H82.1509C82.1509 107.913 82.1509 105.724 93.5178 105.724C104.884 105.724 104.884 107.913 104.884 107.913Z" fill="#FBF8F3"/>
<path d="M97.1603 97.9029L96.4106 98.1152L99.3165 108.375L100.066 108.163L97.1603 97.9029Z" fill="#495968"/>
<path d="M87.5797 99.042H86.8008V107.913H87.5797V99.042Z" fill="#495968"/>
<path d="M100.967 107.914L103.317 125.719H102.73L98.7285 107.914H100.967Z" fill="#2E2B30"/>
<path d="M85.3637 107.914L83.0142 125.719H83.6023L87.6035 107.914H85.3637Z" fill="#2E2B30"/>
<path d="M104.884 107.913H82.1509V108.624H104.884V107.913Z" fill="#495968"/>
<path d="M101.316 97.516C101.316 97.516 98.5754 95.6702 91.8495 96.5448C85.1243 97.4204 82.6416 99.3969 82.6416 99.3969L101.316 97.516Z" fill="#FBF8F3"/>
<path d="M101.981 97.0574L81.6401 99.1069L81.7183 99.8824L102.06 97.8329L101.981 97.0574Z" fill="#495968"/>
<path d="M-8.59521 0.544922L39.5246 19.6305H3.79909L-8.59521 0.544922Z" fill="#0B2917"/>
<path d="M-8.59495 0.544922L-20.9893 19.6305H3.79935L-8.59495 0.544922Z" fill="#1B402A"/>
<path d="M14.808 75.8589H-26.2354V78.4538H14.808V75.8589Z" fill="#2E2B30"/>
<path d="M14.7003 102.181L7.54096 76.2158H5.88721L13.0455 102.181H14.7003Z" fill="#2E2B30"/>
<path d="M32.1841 83.5405C32.1841 83.5405 31.2243 82.7453 33.0261 73.005C34.9719 62.4829 37.9096 62.4829 37.9096 62.4829L33.0261 84.3733L32.1841 83.5405Z" fill="#FBF8F3"/>
<path d="M10.293 84.3735H33.026C33.026 84.3735 33.026 82.1846 21.6595 82.1846C10.293 82.1846 10.293 84.3735 10.293 84.3735Z" fill="#FBF8F3"/>
<path d="M18.0172 74.3638L15.1089 84.623L15.8585 84.8356L18.7669 74.5763L18.0172 74.3638Z" fill="#495968"/>
<path d="M28.3757 75.5024H27.5967V84.3736H28.3757V75.5024Z" fill="#495968"/>
<path d="M14.2099 84.374L11.8594 102.181H12.4475L16.4487 84.374H14.2099Z" fill="#2E2B30"/>
<path d="M29.8126 84.374L32.1632 102.181H31.575L27.5728 84.374H29.8126Z" fill="#2E2B30"/>
<path d="M33.026 84.373H10.293V85.0843H33.026V84.373Z" fill="#495968"/>
<path d="M13.8608 73.9765C13.8608 73.9765 16.6011 72.1306 23.3262 73.0053C30.0522 73.8808 32.5342 75.8573 32.5342 75.8573L13.8608 73.9765Z" fill="#FBF8F3"/>
<path d="M13.1953 73.5179L13.1172 74.2935L33.4586 76.342L33.5368 75.5664L13.1953 73.5179Z" fill="#495968"/>
<g style="mix-blend-mode:multiply">
<path d="M34.9195 101.42C34.9195 102.907 15.9526 104.112 -7.44374 104.112C-30.8403 104.112 -49.8066 102.907 -49.8066 101.42C-49.8066 99.9338 -30.8403 98.7285 -7.44374 98.7285C15.9526 98.7285 34.9195 99.9338 34.9195 101.42Z" fill="#E6E7E8"/>
</g>
</svg>
