<svg width="83" height="227" viewBox="0 0 83 227" fill="none" xmlns="http://www.w3.org/2000/svg">
<path d="M68.6134 219.547L61.2129 222.631L55.0459 202.279L59.3628 196.112L68.6134 219.547Z" fill="#FDBD8E"/>
<path d="M80.4872 218.112C78.6455 217.709 73.0545 217.454 68.6928 215.495C68.2115 215.279 67.6658 215.291 67.1863 215.511C67.1834 215.512 66.9217 215.632 66.9189 215.633C66.9189 215.633 67.0633 218.194 64.5973 219.736C62.9383 220.773 59.8549 219.942 59.8549 219.942L60.9999 226.527L81.8041 221.267C82.1735 220.941 82.1905 220.456 82.1905 220.456C82.1905 220.456 82.8353 218.626 80.4872 218.112Z" fill="#34312E"/>
<path d="M54.6774 130.119C55.127 131.369 57.2979 131.898 57.2979 131.898C57.2979 131.898 59.0778 128.187 60.1092 126.128C60.3833 125.585 60.605 125.157 60.7252 124.941C61.3075 123.919 61.606 117.243 61.606 117.243L55.8545 117.759C55.1448 119.029 56.1286 122.814 56.1286 122.814C55.9444 123.835 55.8556 124.872 55.8632 125.911C55.8605 126.105 55.8594 126.224 55.8594 126.224C55.8426 126.191 55.8232 126.16 55.8012 126.131C55.6983 125.994 55.5522 125.896 55.3874 125.855C55.2226 125.814 55.0489 125.832 54.8953 125.905L54.6774 130.119Z" fill="#FF7D6F"/>
<path d="M60.9451 124.264C60.9019 124.499 60.8283 124.727 60.7265 124.942C60.605 125.154 60.3872 125.586 60.1125 126.128C59.6073 127.146 58.9134 128.559 58.3463 129.732C58.0795 130.274 57.8491 130.759 57.667 131.135C57.4359 131.611 57.2959 131.896 57.2959 131.896C57.2765 131.895 57.2575 131.89 57.2397 131.883C56.8858 131.788 55.0828 131.248 54.6801 130.119L54.892 125.911C55.0458 125.837 55.2197 125.82 55.3847 125.861C55.5497 125.902 55.696 125.999 55.7992 126.136C55.8217 126.162 55.8419 126.189 55.8594 126.218C55.8589 126.195 55.8601 126.172 55.8632 126.149C55.8594 126.096 55.8626 126.017 55.8639 125.911C55.8653 125.805 55.8725 125.672 55.8711 125.522L55.8935 124.993C55.8963 124.261 55.9753 123.531 56.1294 122.817C56.1294 122.817 55.1429 119.03 55.8533 117.758L56.4033 116.313C55.5416 112.756 53.617 104.821 52.1309 98.2147C51.2555 94.8198 50.6021 91.3697 50.1752 87.8868C49.8456 83.8548 49.2877 79.8455 48.5042 75.8789L56.9804 76.4878L57.356 82.2833L57.5877 84.0952C58.566 86.755 59.3362 89.4893 59.8913 92.2726L61.5108 115.853L61.606 117.245C61.5148 119.596 61.2941 121.939 60.9451 124.264ZM59.128 121.612C58.8506 122.245 58.4824 122.833 58.0354 123.356C57.6452 123.811 57.9483 124.614 57.8691 125.245C57.8294 125.867 57.611 126.464 57.241 126.96C57.1981 127.01 57.1506 127.055 57.0991 127.095C56.9623 127.213 56.8012 127.299 56.6276 127.345C56.454 127.391 56.2724 127.397 56.0962 127.362C56.1408 128.022 56.0755 128.685 55.9029 129.323C56.1459 129.419 56.365 129.392 56.608 129.486C56.6872 129.233 56.7816 128.97 56.8767 128.716C56.9916 128.407 57.1222 128.098 57.2616 127.795C57.6103 127.024 58.0627 126.305 58.6058 125.661C58.656 124.298 58.8308 122.942 59.128 121.612Z" fill="#FFA07F"/>
<path d="M61.606 117.246L61.5108 115.853L59.8913 92.2728C59.3362 89.4895 58.566 86.7552 57.5877 84.0954L57.356 82.2836L56.9804 76.488L55.8955 76.4102C56.2798 80.3078 56.4839 85.0148 57.5078 87.7567C57.9258 88.8844 58.4435 89.9691 58.7531 91.133C59.0257 92.3526 59.1853 93.5955 59.2297 94.8454C59.56 100.013 59.8747 105.188 60.174 110.371C60.4201 114.709 60.0049 119.965 60.9451 124.264C61.2941 121.939 61.5148 119.596 61.606 117.246Z" fill="#FFBF90"/>
<path d="M56.1172 85.187C56.1172 85.187 56.092 85.2651 56.0386 85.4076C56.0085 85.4945 55.9709 85.5785 55.9264 85.6588C55.8729 85.7687 55.8113 85.8743 55.7421 85.9747C55.6622 86.0989 55.5718 86.2159 55.472 86.3242C55.3605 86.4499 55.2394 86.5662 55.1096 86.6722C54.8142 86.9083 54.4803 87.0899 54.1232 87.2085C53.7696 87.3157 53.3998 87.3562 53.0318 87.3282C52.8728 87.3134 52.7153 87.2847 52.5611 87.2422C52.4262 87.2086 52.2947 87.1622 52.1683 87.1037C52.0627 87.0584 51.9611 87.004 51.8646 86.941C51.7887 86.8987 51.7173 86.8488 51.6513 86.7918C51.539 86.7018 51.4817 86.6494 51.4817 86.6494C51.4817 86.6494 51.5562 86.6643 51.6896 86.6897C51.7682 86.7085 51.8481 86.7211 51.9285 86.7274C52.0316 86.7429 52.1355 86.7527 52.2396 86.7568C52.3631 86.7652 52.487 86.7661 52.6106 86.7596C52.7427 86.761 52.8827 86.7394 53.0279 86.7274C53.3405 86.6838 53.6493 86.6155 53.9516 86.523C54.2544 86.4239 54.5494 86.3017 54.8342 86.1575C54.9638 86.0835 55.0932 86.019 55.2047 85.9411C55.3138 85.8739 55.4189 85.8003 55.5196 85.7207C55.6074 85.6566 55.6917 85.5875 55.7718 85.5137C55.838 85.461 55.9002 85.4035 55.9581 85.3415L56.1172 85.187Z" fill="#F37C71"/>
<path d="M58.9463 75.5923L52.1398 76.6985L46.7068 77.5842L43.8657 42.8398L43.873 42.8426C44.1747 42.9676 53.7905 46.9609 55.0547 53.1787C56.3382 59.4943 58.9463 75.5923 58.9463 75.5923Z" fill="#264F36"/>
<path d="M50.9248 72.4579L52.1398 76.6985L46.7067 77.5842L43.8657 42.8398L43.8729 42.8426C44.1423 42.9971 52.7988 47.9368 53.2588 52.8452C53.7243 57.8318 50.9248 72.4579 50.9248 72.4579Z" fill="#153A23"/>
<path d="M48.2874 76.5096L59.8099 73.6221L60.5845 77.9546L46.0228 79.7411L48.2874 76.5096Z" fill="#FFF0E7"/>
<path d="M11.5957 212.64L4.59332 208.736L16.7607 191.296L24.2765 190.869L11.5957 212.64Z" fill="#FDBD8E"/>
<path d="M20.0723 221.078C19.2488 219.382 15.9888 214.833 14.8277 210.194C14.6995 209.683 14.3521 209.262 13.8828 209.021C13.8801 209.019 13.624 208.888 13.6213 208.887C13.6213 208.887 11.6996 210.585 8.96208 209.602C7.12021 208.942 5.8648 206.005 5.8648 206.005L1.40156 210.98L18.4095 224.065C18.8946 224.153 19.2854 223.867 19.2854 223.867C19.2854 223.867 21.122 223.24 20.0723 221.078Z" fill="#34312E"/>
<path d="M49.7787 89.7944C49.7787 89.7944 54.4677 103.316 54.3811 111.103C53.4033 129.971 51.5864 155.651 50.9565 157.677C49.972 160.84 15.8571 207.722 15.8571 207.722L7.29119 202.081C7.29119 202.081 25.3546 164.38 27.8826 161.154C31.1447 157.316 34.7011 153.748 38.5183 150.484L30.8615 93.9263L49.7787 89.7944Z" fill="#55250A"/>
<path d="M68.1611 214.417L60.4231 216.073L58.0793 216.576C58.0793 216.576 40.092 172.648 39.0804 171.058C38.0663 169.469 37.2662 154.681 37.2662 154.681C37.2662 154.681 23.7181 125.044 20.7932 120.014C17.8678 114.983 23.6692 90.5718 23.6692 90.5718L25.3615 91.2693L40.3303 92.1672L51.5537 148.95L68.1611 214.417Z" fill="#813D16"/>
<path d="M60.4233 216.073L58.0795 216.576C58.0795 216.576 40.0922 172.648 39.0807 171.058C38.0666 169.469 37.2664 154.681 37.2664 154.681C37.2664 154.681 23.7183 125.044 20.7934 120.014C17.868 114.983 23.6694 90.5718 23.6694 90.5718L25.3617 91.2693C24.3468 99.1886 22.411 115.385 23.3057 117.67C24.496 120.711 40.6447 151.815 40.6447 151.815C40.6447 151.815 41.1248 167.656 42.37 170.302C43.4488 172.597 57.1335 209.032 60.4233 216.073Z" fill="#55250A"/>
<path d="M49.8179 90.232C39.7513 98.8273 23.7181 91.5061 23.7181 91.5061C23.7842 88.9577 21.2027 77.6541 19.0443 67.3827C18.4639 64.6126 17.9127 61.9205 17.4524 59.4917C16.8468 56.2626 16.8019 52.9504 17.3198 49.7055C17.4671 48.593 17.7443 47.5024 18.1457 46.4568C18.6939 45.7345 19.371 45.1239 20.1416 44.6571L20.1587 44.6478C20.3404 44.5226 20.4895 44.4205 20.6045 44.344C20.6289 44.3278 20.6513 44.3131 20.6711 44.2983C20.7345 44.2566 20.7807 44.2245 20.8151 44.2014C20.825 44.1935 20.8349 44.1894 20.8422 44.184C20.8487 44.1777 20.8563 44.1727 20.8646 44.1692C22.4482 43.1007 24.1268 42.186 25.8784 41.4369C25.8911 41.4312 25.9041 41.4262 25.9174 41.4219C26.2771 41.2916 26.6324 41.172 26.9658 41.0645C28.3199 40.6316 29.3683 40.387 29.3683 40.387H37.5368C37.5482 40.385 37.5596 40.3841 37.5711 40.3843C37.5803 40.3846 37.5893 40.3837 37.5982 40.3816C37.6273 40.379 37.6668 40.3764 37.7158 40.3764L37.7276 40.375C38.2302 40.3792 38.73 40.4501 39.2145 40.5859V40.5885C39.5064 40.6638 39.8317 40.7633 40.1968 40.8977C41.4891 41.3983 42.7203 42.0491 43.8658 42.8372C44.9062 43.5385 45.9049 44.302 46.8566 45.1236C52.9797 50.3587 52.6615 60.3989 49.0243 67.6018C47.937 69.7537 49.8179 90.232 49.8179 90.232Z" fill="#264F36"/>
<path d="M47.5762 66.5722C47.5762 66.5722 47.2778 66.5573 46.7383 66.5292C46.2035 66.4955 45.4298 66.4458 44.475 66.3853C42.0918 66.1595 39.6885 66.3192 37.3544 66.8585C36.6849 67.0385 36.0142 67.2509 35.3374 67.4364C34.6777 67.6212 34.0073 67.7644 33.3303 67.8651C32.1843 68.0338 31.0235 68.0716 29.8693 67.978C29.4134 67.9465 28.9627 67.8608 28.5264 67.7227C28.1932 67.617 27.8802 67.4543 27.6007 67.2415C27.4303 67.1069 27.2816 66.9459 27.1603 66.7643C27.0844 66.6366 27.0508 66.5709 27.0508 66.5709L27.2132 66.7147C27.371 66.8386 27.5455 66.9386 27.7314 67.0117C28.4174 67.2306 29.1464 67.2709 29.8516 67.1287C30.9296 66.9764 31.9968 66.7533 33.0465 66.4606C33.6366 66.2979 34.2349 66.1045 34.8719 65.88C35.5103 65.6581 36.1904 65.4136 36.9292 65.2146C38.334 64.847 39.7916 64.7355 41.2346 64.8854C42.3782 65.0017 43.509 65.2234 44.6131 65.5479C45.5473 65.8167 46.284 66.0816 46.7911 66.2697C47.2989 66.4579 47.5762 66.5722 47.5762 66.5722Z" fill="#153A23"/>
<path d="M16.4973 84.0024C16.6472 85.0118 15.8272 90.2886 14.7332 96.552C14.1397 99.9163 13.4708 103.561 12.8284 106.982C12.1861 110.404 11.5754 113.602 11.0986 116.065L11.0023 122.592C11.0023 122.592 13.9502 123.678 13.9053 124.167C14.4174 125.916 15.1767 127.579 16.1594 129.106C16.667 129.553 15.0905 130.882 15.0905 130.882C14.3418 130.574 13.5507 130.385 12.7453 130.323C12.3228 130.415 11.6566 132.396 10.9071 133.373C10.7476 133.632 10.5001 133.822 10.2119 133.906C9.18987 134.061 7.92956 134.234 7.64625 133.608C7.36367 132.98 6.88363 131.8 6.23412 131.604C5.58362 131.408 3.58317 130.097 3.52113 129.21C3.45909 128.325 3.82221 125.546 3.84996 124.816C3.87771 124.084 3.86784 121.658 3.86784 121.658L4.3866 117.204L4.92686 89.8948C4.98027 87.368 7.24417 79.9111 7.24417 79.9111L7.4172 77.7135L7.5386 70.0576C7.57589 66.7302 8.38441 63.4587 9.89837 60.5093C11.1125 57.9704 13.5718 56.9287 16.2063 56.3857C16.941 56.2326 17.689 56.1197 18.4292 56.0228C18.8142 55.9704 19.1905 55.9181 19.5569 55.8764L19.5654 55.875C19.5654 55.875 16.092 81.2619 16.4973 84.0024Z" fill="#FDBD8E"/>
<path d="M16.2061 56.3862C13.9864 58.6202 11.659 60.7773 10.256 63.5878C7.43282 69.2422 8.99096 76.1024 7.70476 82.3094C7.35681 83.9882 6.79822 85.6212 6.50455 87.312C6.25911 89.0012 6.13793 90.7066 6.14203 92.4142C6.04558 96.2245 5.86403 100.032 5.68248 103.84C5.63166 104.888 5.58104 105.936 5.53063 106.982C5.34044 110.974 5.15039 114.968 4.98597 118.962C4.68283 121.952 4.93979 124.972 5.74327 127.864C6.13459 129.122 6.80327 130.273 7.69821 131.227C8.59315 132.182 9.69067 132.916 10.9069 133.373C10.7474 133.632 10.4999 133.822 10.2117 133.907C9.18966 134.061 7.92935 134.235 7.64604 133.609C7.36347 132.981 6.88342 131.801 6.23391 131.605C5.58341 131.408 3.58296 130.098 3.52092 129.211C3.45888 128.325 3.822 125.547 3.84975 124.817C3.8775 124.084 3.86763 121.658 3.86763 121.658L4.38639 117.204L4.92665 89.8953C4.98006 87.3684 7.24396 79.9115 7.24396 79.9115L7.417 77.714L7.53839 70.0581C7.57568 66.7306 8.3842 63.4591 9.89816 60.5098C11.1123 57.9709 13.5716 56.9292 16.2061 56.3862Z" fill="#FFDABA"/>
<path d="M9.10026 81.1284C9.10026 81.1284 9.1353 81.221 9.2093 81.3891C9.25137 81.4919 9.30215 81.5909 9.36111 81.6847C9.43246 81.8138 9.5137 81.937 9.604 82.0531C9.70915 82.197 9.82621 82.3314 9.95391 82.4549C10.097 82.5996 10.2513 82.7322 10.4155 82.8514C10.7902 83.1173 11.2078 83.3142 11.6494 83.4334C12.0867 83.5404 12.5395 83.5659 12.9858 83.5086C13.1785 83.4809 13.3687 83.4368 13.5542 83.377C13.7164 83.3277 13.8736 83.2629 14.0237 83.1834C14.15 83.1235 14.2707 83.052 14.3842 82.9697C14.4736 82.9139 14.5575 82.8495 14.6349 82.7775C14.7657 82.6618 14.833 82.5961 14.833 82.5961C14.833 82.5961 14.7432 82.6175 14.5823 82.6566C14.4876 82.6836 14.3911 82.7038 14.2937 82.717C14.1689 82.7423 14.0428 82.7603 13.916 82.7708C13.7662 82.7899 13.6154 82.7988 13.4644 82.7975C13.3041 82.8097 13.1316 82.7923 12.9548 82.7869C12.5717 82.7536 12.1916 82.6912 11.8177 82.6001C11.4433 82.4992 11.0766 82.3707 10.7205 82.2156C10.5588 82.1337 10.3971 82.0651 10.2564 81.9778C10.1197 81.9039 9.9872 81.8222 9.85955 81.7332C9.74892 81.6617 9.64224 81.5841 9.53998 81.5007C9.45695 81.4413 9.37801 81.3762 9.30367 81.3058C9.17293 81.1915 9.10026 81.1284 9.10026 81.1284Z" fill="#F37C71"/>
<path d="M27.5098 54.1406L19.097 79.4667L19.0964 79.4721L17.2853 84.9238L16.9936 86.8512L7.97798 84.8968L5.39512 84.3364C5.53647 83.6697 5.68299 83.0071 5.8421 82.3432L5.96372 81.8432C6.19252 76.3822 6.84801 70.9483 7.92397 65.5932C9.42454 58.3945 12.0569 50.8918 16.6463 47.9186C17.0644 47.6458 17.5051 47.4106 17.9634 47.2158L19.0825 48.0275L27.5098 54.1406Z" fill="#264F36"/>
<path d="M19.082 48.0275C17.9907 49.0518 16.3955 50.6176 14.1356 52.9603C9.45909 57.8071 8.23307 78.9481 7.97751 84.8968L5.39464 84.3364C5.53599 83.6697 5.68251 83.0071 5.84162 82.3432L5.96324 81.8432C6.19205 76.3822 6.84753 70.9483 7.92349 65.5932C9.42406 58.3945 12.0564 50.8918 16.6458 47.9186C17.0639 47.6458 17.5046 47.4106 17.9629 47.2158L19.082 48.0275Z" fill="#56926D"/>
<path d="M4.78214 80.1323L4.27644 85.8898L17.4431 87.9375L18.3682 84.3607L4.78214 80.1323Z" fill="#FFF0E7"/>
<path d="M50.7894 36.805C49.6344 37.1958 48.4553 37.5087 47.2599 37.7418C39.055 39.3803 28.797 38.1464 22.8549 37.1383C19.8693 36.6302 17.9711 36.1814 17.9711 36.1814C17.9711 36.1814 17.0157 27.992 17.0157 24.8656C17.012 23.0829 17.1429 21.3026 17.4073 19.5404C19.1146 8.26625 25.853 3.13066 26.3304 2.77838L26.3502 2.7637L26.3574 2.7583H39.0036L43.6424 5.18699L44.5707 5.67346L44.9233 5.85767L50.001 8.51494L50.1259 12.9585L50.2237 16.4906L50.7894 36.805Z" fill="#5E2C00"/>
<path d="M48.2322 35.2049C47.9997 36.0842 47.6736 36.9351 47.2598 37.7425C39.0549 39.381 28.7969 38.1471 22.8548 37.139C22.8433 37.1239 22.8327 37.1083 22.823 37.092C20.8627 33.8909 19.8138 30.1988 19.7932 26.4269C19.7793 22.6717 20.3049 18.9346 21.3534 15.3342C22.0223 12.4691 23.1439 9.73367 24.6745 7.23471C25.8812 5.34886 27.5414 3.80821 29.4975 2.75901C29.595 2.70653 29.6936 2.65945 29.7911 2.6125C31.9956 1.73667 34.3652 1.37608 36.725 1.55731C38.2637 1.53873 39.7834 1.9043 41.1511 2.622C42.5188 3.3397 43.6929 4.38764 44.5706 5.67417C46.0693 8.06669 46.2067 11.0519 46.5691 13.8664C47.0273 17.4337 47.9113 20.9349 48.4474 24.4913C49.1119 28.0386 49.0386 31.6882 48.2322 35.2049Z" fill="#944600"/>
<path d="M51.6423 27.0426C51.6054 26.8465 51.5472 26.5656 51.4534 26.2215C51.3443 25.8138 51.2011 25.4163 51.0256 25.0334C50.8069 24.5485 50.514 24.1021 50.158 23.7106C49.7944 23.3218 49.3693 22.9979 48.9004 22.7523C48.5288 22.558 48.1394 22.4014 47.7377 22.2847C47.5911 22.2417 47.4578 22.2067 47.3356 22.1786C47.1871 22.036 47.0985 21.958 47.0985 21.958C47.0985 21.958 47.1264 22.0252 47.1759 22.1422C47.0833 22.122 46.9975 22.1059 46.9262 22.0924C46.7327 22.0588 46.6245 22.0455 46.6245 22.0455C46.6245 22.0455 46.8925 22.2229 47.3323 22.5159C47.4248 22.7376 47.5409 23.0159 47.6776 23.3425C48.1383 24.3842 48.4776 25.4772 48.6884 26.5992C48.8413 27.7377 48.8941 28.8878 48.8461 30.0359C48.8422 30.4998 48.839 30.876 48.837 31.1366C48.8408 31.4002 48.8435 31.5453 48.8435 31.5453C48.8435 31.5453 48.9016 31.4122 49.0054 31.1717C49.1049 30.9285 49.2444 30.5762 49.389 30.13C49.5623 29.6022 49.691 29.0604 49.7739 28.5103C49.8818 27.8157 49.8815 27.1082 49.7732 26.4136C49.6542 25.7173 49.4212 25.0463 49.0838 24.4285C48.8299 23.9629 48.5332 23.5227 48.1979 23.1139C48.6857 23.4602 49.1384 23.8552 49.5493 24.2928C50.1173 24.9461 50.627 25.6495 51.0724 26.3948C51.2614 26.6892 51.4151 26.927 51.5221 27.0937C51.6338 27.2578 51.6957 27.3492 51.6957 27.3492C51.6957 27.3492 51.6767 27.2389 51.6423 27.0426Z" fill="#944600"/>
<path d="M41.2973 43.7865C40.8362 45.4538 42.4918 46.0284 41.2973 47.262C40.1028 48.4956 36.3262 47.61 34.695 48.1035C28.7337 50.1385 27.1092 44.2954 25.8721 41.4232C27.0044 41.0183 28.1565 40.6728 29.3236 40.3882H37.4923C37.5035 40.3862 37.515 40.3853 37.5265 40.3855L37.553 40.3841C37.5826 40.3814 37.6217 40.3787 37.6705 40.3787L37.683 40.376C38.1855 40.381 38.6853 40.4524 39.1698 40.5884V40.5912C39.5021 40.6765 39.3068 41.8168 39.6287 41.9364C40.9211 42.4375 40.1515 42.998 41.2973 43.7865Z" fill="#FDBD8E"/>
<path d="M36.6707 48.7297L29.3223 40.3883C29.3347 39.149 29.4378 38.684 29.5481 35.6168C29.6657 32.207 29.7877 29.0107 29.7877 29.0107L39.2423 32.8145C38.2345 35.2804 37.6623 37.9081 37.5521 40.5765C37.4324 43.3108 37.1379 46.0343 36.6707 48.7297Z" fill="#FDBD8E"/>
<path d="M39.2426 32.8145C38.2348 35.2804 37.6625 37.9081 37.5523 40.5765C37.2539 40.7028 36.9621 40.8198 36.688 40.9178C35.5908 41.3063 32.0638 38.1196 29.5483 35.6168C29.6659 32.207 29.788 29.0107 29.788 29.0107L39.2426 32.8145Z" fill="#FB9988"/>
<path d="M49.1603 21.3811C48.9689 22.2707 48.7222 23.2048 48.4203 24.1833C48.4203 24.1833 48.8442 29.0019 48.347 30.0811C47.8473 31.1632 44.6636 37.8957 41.3175 37.4789C38.5253 37.1322 31.6965 32.9683 29.323 30.4884C28.9451 30.1579 28.6603 29.7312 28.4976 29.2519C28.1715 27.3393 27.0525 18.9052 26.9474 18.1995C26.6629 16.287 25.8746 1.80447 43.0763 5.83411C44.5963 6.18398 45.9884 6.96326 47.0928 8.08238C48.1972 9.20149 48.9689 10.615 49.3194 12.1606C49.9344 15.2085 49.8801 18.357 49.1603 21.3811Z" fill="#FDBD8E"/>
<path d="M48.42 24.1827C48.42 24.1827 48.8439 29.0012 48.3467 30.0804C47.847 31.1625 44.6633 37.895 41.3172 37.4782C38.525 37.1316 31.6962 32.9676 29.3228 30.4877C32.2298 32.5415 39.9822 37.7848 42.2553 36.9795C45.0719 35.9823 48.2562 29.637 48.1949 29.0093C48.1335 28.3789 47.9498 24.2674 47.9498 24.2674C47.9498 24.2674 48.5178 22.9676 49.16 21.3804C48.9686 22.27 48.722 23.2041 48.42 24.1827Z" fill="#FFDABA"/>
<path d="M29.2668 29.0093C28.3726 28.9218 27.5054 28.6488 26.7188 28.207C25.9322 27.7653 25.2429 27.1641 24.6933 26.4408C24.5242 26.223 24.3721 25.992 24.2385 25.75C23.6217 24.6114 23.4443 20.6641 25.0328 19.7461C26.1453 19.1035 26.9554 20.0349 27.3402 20.652V20.6533C27.4351 20.8028 27.5192 20.9591 27.5918 21.121L29.2668 29.0093Z" fill="#FFDABA"/>
<path d="M29.2668 29.0095C28.3725 28.922 27.5053 28.649 26.7187 28.2072C25.9322 27.7655 25.2428 27.1644 24.6933 26.441C24.6207 26.3295 24.5574 26.2233 24.5032 26.1225C23.8865 24.984 23.7089 21.0365 25.2968 20.1199C25.639 19.9231 26.0428 19.8687 26.4236 19.9679C26.8044 20.0671 27.1328 20.3123 27.3402 20.6522V20.6535C27.4351 20.803 27.5191 20.9593 27.5918 21.1212L29.2668 29.0095Z" fill="#FDBD8E"/>
<path d="M24.5316 22.8814C24.4648 23.2009 24.4901 23.5332 24.6043 23.8384C25.2624 25.202 26.2979 26.3401 27.5832 27.1126C27.2188 26.4884 27.0653 25.76 27.1462 25.0386C27.1857 24.7942 27.2127 24.5479 27.2273 24.3007C27.2373 23.3075 25.0016 21.0144 24.5316 22.8814Z" fill="#FB9988"/>
<path d="M28.2076 27.4908L28.1369 27.4493C28.0922 27.4223 28.0195 27.3847 27.9364 27.3284C27.706 27.1714 27.4991 26.9812 27.3223 26.7638C27.0762 26.4575 26.9033 26.0973 26.8172 25.7115C26.7189 25.2422 26.7741 24.7531 26.9743 24.3188C26.9998 24.2586 27.03 24.2007 27.0647 24.1456L27.0899 24.1025C27.0958 24.0918 27.0917 24.0985 27.0931 24.0985C27.1003 24.1108 27.1127 24.1197 27.1263 24.1234C27.1399 24.1272 27.1544 24.1254 27.1667 24.1185C27.179 24.1115 27.1882 24.1 27.1923 24.0863C27.1964 24.0726 27.1952 24.0578 27.1888 24.0451C27.1824 24.0323 27.1714 24.0226 27.1581 24.0179C27.1448 24.0132 27.1302 24.014 27.1174 24.0201C27.1047 24.0261 27.0948 24.037 27.0897 24.0504C27.0847 24.0638 27.085 24.0786 27.0905 24.0918L27.0701 24.0541L27.0279 23.9789C26.9994 23.9291 26.971 23.8794 26.9413 23.8309C26.8265 23.642 26.7013 23.4598 26.5663 23.2853C26.4356 23.1159 26.3003 22.96 26.1662 22.8175C26.0448 22.6828 25.9132 22.5579 25.7727 22.4439C25.6558 22.3498 25.5171 22.2878 25.3699 22.2639C25.2524 22.2497 25.1334 22.2697 25.0267 22.3216C24.9622 22.3501 24.9087 22.3991 24.8741 22.4613C24.8635 22.4825 24.8562 22.5052 24.8524 22.5286C24.8484 22.5049 24.8497 22.4805 24.8562 22.4573C24.876 22.3834 24.9216 22.3193 24.9845 22.2772C25.1005 22.1963 25.2374 22.1524 25.3779 22.1509C25.5659 22.1558 25.7495 22.2095 25.9114 22.3068C26.0823 22.4107 26.2444 22.5289 26.396 22.6603C26.5644 22.8025 26.724 22.9551 26.8739 23.1173C27.0349 23.2917 27.1828 23.4781 27.3164 23.6751C27.3513 23.7262 27.3837 23.7787 27.4168 23.8297L27.4641 23.909L27.5276 24.0219L27.5718 24.0998C27.56 24.1267 27.5427 24.1522 27.5283 24.1792L27.4655 24.2907C27.4357 24.3392 27.4096 24.3899 27.3876 24.4426C27.2117 24.8266 27.1423 25.2524 27.187 25.6737C27.2285 26.0276 27.3403 26.3693 27.5157 26.6778C27.6447 26.9022 27.8029 27.1078 27.9858 27.2892C28.0518 27.3565 28.1125 27.4036 28.1495 27.4385C28.1879 27.4721 28.2076 27.4908 28.2076 27.4908Z" fill="#FD7D6F"/>
<path d="M50.7187 17.9155C50.7187 17.9155 48.5233 14.9237 47.2987 16.1078C46.074 17.292 46.6251 17.4169 46.6251 17.4169L50.7187 17.9155Z" fill="#5E2C00"/>
<path d="M33.3398 18.3733C33.3398 18.3733 37.3911 13.6233 39.0504 15.3101C40.0183 16.2953 39.3455 16.9659 39.3455 16.9659L33.3398 18.3733Z" fill="#5E2C00"/>
<path d="M48.4279 20.103C48.2242 20.4582 47.9098 20.734 47.5347 20.8867C47.4628 20.8086 47.3766 20.7457 47.2808 20.7017C47.1851 20.6576 47.0817 20.6333 46.9767 20.6301C46.3819 20.6301 45.8999 21.4175 45.8999 22.3893C45.8999 23.3624 46.3819 24.1501 46.9767 24.1501C47.5709 24.1501 48.0536 23.3624 48.0536 22.3893C48.0564 22.0502 47.9929 21.7139 47.8667 21.4C48.1475 21.0163 48.3393 20.5729 48.4279 20.103Z" fill="#161818"/>
<path d="M39.0729 19.7344C38.8692 20.0896 38.5549 20.3653 38.1797 20.518C38.1079 20.4399 38.0216 20.3771 37.9258 20.333C37.8301 20.289 37.7267 20.2647 37.6217 20.2614C37.0269 20.2614 36.5449 21.0488 36.5449 22.0207C36.5449 22.9938 37.0269 23.7814 37.6217 23.7814C38.2159 23.7814 38.6986 22.9938 38.6986 22.0207C38.7014 21.6815 38.6379 21.3452 38.5117 21.0314C38.7925 20.6477 38.9844 20.2043 39.0729 19.7344Z" fill="#161818"/>
<path d="M39.6233 21.1669C39.3648 21.5111 39.0203 21.7785 38.6257 21.9411C38.2311 22.1037 37.8009 22.1557 37.3799 22.0915C37.638 21.7467 37.9824 21.4789 38.3771 21.3163C38.7718 21.1536 39.2023 21.102 39.6233 21.1669Z" fill="#FFF0E7"/>
<path d="M48.9778 21.5355C48.7193 21.8798 48.3748 22.1471 47.9802 22.3098C47.5856 22.4724 47.1554 22.5243 46.7344 22.4601C46.9925 22.1154 47.3369 21.8476 47.7316 21.6849C48.1263 21.5222 48.5568 21.4706 48.9778 21.5355Z" fill="#FFF0E7"/>
<path d="M42.107 27.2803C41.7742 27.1045 41.407 27.0062 41.0322 26.9927C41.4109 27.8654 42.1106 28.5521 42.9813 28.9054C43.0462 28.9362 43.1168 28.9531 43.1885 28.9549C43.2756 28.9453 43.3591 28.914 43.4315 28.8636C43.9099 28.5776 44.3283 28.1986 44.6629 27.7481C44.7353 27.6603 44.7893 27.5582 44.8214 27.4483C44.9064 27.0815 44.6582 27.162 44.4437 27.248C44.1939 27.3473 43.9331 27.415 43.6672 27.4497C43.1413 27.521 42.6063 27.4629 42.107 27.2803Z" fill="#FB9988"/>
<path d="M43.0587 28.6947C43.2792 28.4944 43.526 28.3237 43.7519 28.1288C44.0318 27.8893 44.2883 27.6229 44.5178 27.3331C43.344 26.5092 43.3566 25.262 43.4127 23.8478C43.4535 22.8651 43.8385 21.9297 44.498 21.2109C44.6127 21.0862 44.7346 20.9686 44.8631 20.8587C44.9856 20.7611 45.1228 20.684 45.2692 20.6304C45.1972 20.7136 45.1477 20.8116 45.0824 20.8978C44.9049 21.1156 44.7392 21.3431 44.5858 21.5791C44.4388 21.8235 44.3124 22.0803 44.2081 22.3465C43.9976 22.8801 43.879 23.4467 43.8577 24.0213C43.8335 24.5858 43.9231 25.1493 44.121 25.6772C44.3495 26.3012 44.7594 26.8395 45.2962 27.2201C45.3008 27.2229 44.4942 28.1705 44.4156 28.2485C44.2118 28.4486 43.989 28.6278 43.7507 28.7834C43.5231 28.9661 43.2478 29.0768 42.9591 29.1019C42.8685 29.1016 42.7799 29.0745 42.7041 29.024C42.754 28.9915 42.8002 28.9537 42.8421 28.9111C42.8609 28.8932 42.8787 28.8743 42.8955 28.8546C42.9478 28.7981 43.0026 28.7458 43.0587 28.6947Z" fill="#FD7D6F"/>
<path d="M41.0342 32.3662C41.4755 32.5883 41.9586 32.7109 42.4507 32.7257C42.9428 32.7405 43.4322 32.6473 43.8857 32.4522C43.7499 32.6782 43.5577 32.8635 43.3286 32.9894C43.0996 33.1152 42.8419 33.177 42.5817 33.1686C41.9865 33.1041 41.4354 32.8184 41.0342 32.3662Z" fill="#FD7D6F"/>
<path d="M37.7251 29.8281C38.8553 30.6499 40.1648 31.1797 41.5408 31.372C42.9169 31.5642 44.3182 31.4131 45.6241 30.9317C44.1968 31.182 42.7377 31.1789 41.3115 30.9224C40.0579 30.7966 38.84 30.425 37.7251 29.8281Z" fill="#FD7D6F"/>
<path d="M50.272 18.2852C49.8966 18.0326 49.4853 17.8399 49.0526 17.7139C48.6639 17.5998 48.2614 17.5418 47.8569 17.5419C47.7981 17.5419 47.742 17.5419 47.6832 17.5473C47.5124 17.5515 47.342 17.5681 47.1735 17.597C46.2539 17.7474 45.4052 18.1919 44.7505 18.8662C44.0957 19.5404 43.6688 20.4093 43.5317 21.347C42.8507 21.0855 42.0966 21.1023 41.4275 21.3938C41.2941 20.2058 40.7354 19.1094 39.8579 18.3142C38.9805 17.5191 37.8459 17.0809 36.6711 17.0835C35.4854 17.0824 34.342 17.532 33.465 18.3442C32.9071 18.8583 32.475 19.4981 32.2033 20.2125L27.7897 19.4787L27.1089 19.3644H27.099L25.8916 19.1628L25.8717 19.2919L25.8328 19.531L25.7767 19.8833L25.7739 19.9007L25.8643 19.9154L26.5432 20.0271L26.6092 20.0405H26.6119L26.9057 20.0876L26.9083 20.0903L27.2147 20.1399L27.3882 20.1695L27.6233 20.2071L29.4383 20.5083L31.9901 20.933C31.811 21.7824 31.8581 22.6651 32.1265 23.4898C32.3948 24.3145 32.8748 25.0513 33.5166 25.624C34.1585 26.1966 34.9389 26.5844 35.7773 26.7471C36.6158 26.9099 37.4817 26.8418 38.2855 26.5498C39.176 26.2218 39.9514 25.6334 40.5144 24.8584C41.0774 24.0834 41.4029 23.1564 41.4499 22.1937C41.7611 22.0168 42.1114 21.9233 42.4678 21.9222C42.8243 21.921 43.1751 22.0121 43.4874 22.1869C43.497 22.4191 43.5242 22.6501 43.5687 22.8779C43.6334 23.2031 43.7344 23.5196 43.8698 23.8214C44.1893 24.5477 44.6944 25.1736 45.3324 25.6336C45.9704 26.0936 46.7179 26.3711 47.4971 26.4369C47.6166 26.4496 47.7367 26.4555 47.8569 26.4545C47.9235 26.4545 47.987 26.4517 48.053 26.4505C48.223 26.443 48.3924 26.4245 48.5601 26.3952C48.5898 26.3923 48.6194 26.3875 48.6485 26.3805C48.6633 26.3791 48.6779 26.3764 48.6922 26.3724C49.0399 26.3042 49.378 26.1927 49.699 26.0404C49.8451 25.9713 49.9875 25.8941 50.1254 25.8092C50.2449 25.7341 50.3632 25.6546 50.4753 25.5674C50.4905 25.5578 50.5024 25.5472 50.515 25.5378C50.7017 25.3924 50.8761 25.2315 51.0365 25.0567C51.4755 24.585 51.8077 24.0213 52.0097 23.405C52.2117 22.7887 52.2786 22.1349 52.2057 21.4895C52.1328 20.8441 51.9219 20.2227 51.5879 19.6691C51.2538 19.1156 50.8047 18.6432 50.272 18.2852ZM37.7929 25.9235C37.4286 26.0326 37.0508 26.0873 36.6711 26.0861C35.643 26.0877 34.6525 25.6923 33.8995 24.9798C33.1464 24.2673 32.6869 23.2907 32.6135 22.2468C32.54 21.203 32.8582 20.1697 33.5039 19.3552C34.1495 18.5408 35.0746 18.0059 36.0924 17.8584C37.1103 17.7108 38.1452 17.9617 38.9885 18.5603C39.8319 19.159 40.4208 20.0608 40.6365 21.084C40.8522 22.1073 40.6788 23.1757 40.151 24.0738C39.6233 24.9719 38.7806 25.6329 37.7929 25.9235ZM50.6596 24.3631C50.5936 24.446 50.5231 24.5249 50.4483 24.5995C50.335 24.7202 50.2123 24.8313 50.0812 24.9316C49.895 25.0795 49.6949 25.2083 49.4836 25.3159C49.2046 25.4574 48.9091 25.5627 48.6042 25.6291C48.5772 25.6345 48.5508 25.6399 48.5231 25.644C48.5112 25.647 48.499 25.6488 48.4867 25.6492C48.3314 25.6792 48.174 25.6967 48.016 25.7017C47.9631 25.7062 47.91 25.7081 47.8569 25.7071C46.9429 25.7063 46.0626 25.3561 45.3904 24.7257C44.7182 24.0954 44.3032 23.2311 44.2276 22.3039C44.2175 22.203 44.2125 22.1017 44.2124 22.0002C44.2118 21.8392 44.2226 21.6784 44.2447 21.519C44.3477 20.721 44.7027 19.9787 45.2562 19.4039C45.8097 18.8291 46.5317 18.453 47.3135 18.3322C47.4934 18.3047 47.675 18.2908 47.8569 18.2906C48.4644 18.29 49.0624 18.4448 49.5959 18.7407C49.8499 18.8817 50.086 19.0537 50.299 19.2529C50.996 19.8923 51.4229 20.7815 51.4901 21.7341C51.5573 22.6868 51.2597 23.6289 50.6596 24.3631Z" fill="#161818"/>
<path d="M50.4756 13.1027C50.4565 14.2362 50.3723 15.3676 50.2235 16.4911C50.1891 16.7384 50.1674 16.873 50.1674 16.873C44.634 12.9133 44.6147 8.36088 44.7686 6.92539C43.2673 14.9038 26.6582 19.4911 26.6582 19.4911L24.327 20.5247C23.7976 19.9079 23.3735 19.2051 23.0726 18.4454C22.1245 16.225 21.3632 12.2182 23.7929 6.38915C24.3541 5.00281 25.2225 3.76723 26.3303 2.77884L26.35 2.76416C31.6993 -1.93475 41.0336 0.780293 41.0336 0.780293C49.4227 -0.000599695 50.5589 8.10411 50.4756 13.1027Z" fill="#944600"/>
<path d="M31.0711 23.3674C31.0089 23.1778 30.9153 22.9062 30.7772 22.5784C30.6166 22.1887 30.4236 21.8137 30.2003 21.4574C29.92 21.0067 29.572 20.6035 29.1689 20.2626C28.7582 19.9264 28.2952 19.6625 27.799 19.4817C27.4053 19.3388 26.9988 19.2352 26.5854 19.1725C26.4342 19.1496 26.2981 19.1334 26.1733 19.1213C26.0077 19.0005 25.9093 18.9346 25.9093 18.9346C25.9093 18.9346 25.9464 18.9977 26.0098 19.108C25.9159 19.0998 25.8288 19.0945 25.7568 19.0919C25.5607 19.0837 25.4512 19.0851 25.4512 19.0851C25.4512 19.0851 25.7395 19.2262 26.213 19.4575C26.3332 19.6644 26.485 19.9239 26.6627 20.2302C27.2536 21.2013 27.7311 22.2393 28.0855 23.323C28.3838 24.4312 28.5849 25.5642 28.6863 26.7086C28.7418 27.1683 28.7874 27.542 28.819 27.8015C28.8572 28.0609 28.8783 28.206 28.8783 28.206L28.9906 27.8136C29.0579 27.5595 29.1504 27.1912 29.2356 26.7288C29.3396 26.1825 29.3974 25.628 29.4086 25.0716C29.4259 24.3692 29.3343 23.6684 29.1372 22.995C28.9293 22.3199 28.6114 21.6852 28.197 21.1173C27.8846 20.6902 27.5336 20.2937 27.1486 19.9332C27.6766 20.2119 28.1764 20.5428 28.6408 20.9212C29.2883 21.493 29.8846 22.1222 30.4227 22.8015C30.6478 23.0675 30.8314 23.284 30.9581 23.4345C31.0902 23.581 31.1636 23.6631 31.1636 23.6631C31.1636 23.6631 31.1305 23.5582 31.0711 23.3674Z" fill="#944600"/>
<path d="M50.4757 13.1027C50.3561 13.0627 50.2392 13.0146 50.1258 12.959C47.5001 11.7439 45.798 8.20633 44.9232 5.85813C44.6501 5.13379 44.413 4.39588 44.2128 3.64725C44.143 4.19884 43.9477 4.72624 43.6423 5.18745C41.9376 8.08931 36.9898 12.1887 36.9898 12.1887L37.7246 9.87959C37.7246 9.87959 36.3724 12.123 31.2536 15.4093C28.6946 16.8399 25.9357 17.8638 23.0726 18.4454C20.9666 18.9467 18.9355 19.3055 17.4072 19.5408C17.696 17.6068 18.1669 15.7056 18.8134 13.8634C20.2366 9.51821 22.8435 5.67409 26.3303 2.77884L26.3501 2.76416C31.6994 -1.93475 41.0337 0.780293 41.0337 0.780293C41.5913 0.726259 42.1521 0.714591 42.7114 0.74539C49.5773 1.1337 50.5542 8.45903 50.4757 13.1027Z" fill="#CF6302"/>
<path d="M42.7114 0.74539C41.5566 2.73042 39.9293 4.38752 37.9796 5.56384C38.3083 4.94882 38.4538 4.24956 38.3982 3.5517C35.9751 7.12761 32.6063 9.93164 28.682 11.639C29.1477 10.6989 29.3646 9.65147 29.3113 8.60003C26.8892 10.8331 23.9828 12.4519 20.8292 13.3244C20.1668 13.5391 19.494 13.719 18.8135 13.8634C20.2367 9.51821 22.8435 5.67409 26.3304 2.77884L26.3501 2.76416C31.6994 -1.93475 41.0337 0.780293 41.0337 0.780293C41.5913 0.726259 42.1521 0.714591 42.7114 0.74539Z" fill="#EE7203"/>
<path d="M28.2469 39.3376C28.2469 39.3376 35.8438 46.8293 37.7261 47.024C39.6084 47.2186 38.2724 40.0471 38.2724 40.0471C38.2724 40.0471 40.7193 40.8978 44.135 43.7443C44.8853 44.6802 44.3424 51.4474 43.439 51.5968C41.5417 51.9103 39.3318 47.9895 38.2726 48.3865C37.2134 48.7834 31.7524 52.6381 30.818 52.3313C29.8836 52.0245 24.3903 43.5456 24.9906 41.4619C25.5901 39.3781 28.2469 39.3376 28.2469 39.3376Z" fill="#F2E6D7"/>
</svg>
