<svg width="165" height="420" viewBox="0 0 165 420" fill="none" xmlns="http://www.w3.org/2000/svg">
<g filter="url(#filter0_d_377_23158)">
<path d="M90.3315 350.793V376.256H101.565V350.793H90.3315Z" fill="#FDBD8E"/>
<path d="M46.1471 350.793L43.9004 376.256H55.1339L57.3806 350.793H46.1471Z" fill="#FDBD8E"/>
<path d="M108.441 284.851C106.729 289.88 102.273 362.077 102.273 362.077H89.3189C89.3189 362.077 84.2327 305.152 85.2261 299.939C86.5786 292.812 91.0912 279.265 91.0912 279.265C90.6002 276.47 89.8669 221.704 89.8669 221.704L86.4467 221.424C86.4467 221.424 75.6956 281.499 72.5175 288.484C69.3394 295.469 57.1218 359.451 57.1218 359.451H44.4131C44.4131 359.451 46.7922 308.029 47.1036 303.849C47.6973 295.82 57.8546 275.911 57.8546 275.911C57.8546 275.911 57.382 222.529 57.8546 214.439C57.8731 214.153 57.8914 213.861 57.9132 213.574C58.0013 212.358 58.1336 211.137 58.3021 209.91C58.3314 209.675 58.3645 209.443 58.401 209.209C58.4379 208.947 58.478 208.69 58.5183 208.428C58.5698 208.104 58.6209 207.779 58.6796 207.455C58.7236 207.182 58.7713 206.913 58.8225 206.641C59.2515 204.287 59.7937 201.94 60.4025 199.657C60.553 199.09 60.7105 198.526 60.868 197.967C60.9669 197.619 61.0658 197.272 61.1685 196.929C61.2417 196.676 61.3189 196.422 61.3959 196.172C61.7806 194.899 62.1803 193.653 62.5872 192.444C62.6681 192.217 62.7447 191.989 62.8219 191.766C62.9023 191.527 62.9831 191.292 63.0674 191.06C63.1005 190.959 63.1369 190.859 63.17 190.762C63.1847 190.717 63.1993 190.676 63.214 190.635L63.2178 190.631C63.3314 190.31 63.4448 189.989 63.5584 189.676C63.8153 188.971 64.072 188.282 64.3285 187.609C64.5812 186.941 64.8343 186.291 65.0836 185.665H65.0869C65.4356 184.78 65.7837 183.937 66.1173 183.139C66.1868 182.975 66.2564 182.807 66.3225 182.646C66.6523 181.87 66.9712 181.143 67.2682 180.467C67.3453 180.299 67.4187 180.131 67.4882 179.971C68.1188 178.568 68.661 177.419 69.0646 176.587V176.583C69.1487 176.408 69.2292 176.243 69.3025 176.098C69.3394 176.02 69.3721 175.949 69.4089 175.882C69.68 175.333 69.8304 175.042 69.8304 175.042H107.953C107.953 175.042 108.191 176.128 108.584 177.975C108.697 178.512 108.823 179.109 108.961 179.766C109.06 180.236 109.166 180.74 109.277 181.27C109.383 181.784 109.497 182.326 109.61 182.889C110.215 185.81 110.93 189.336 111.655 193.082C113.18 200.937 114.768 209.772 115.526 216.119C117.238 230.368 110.152 279.821 108.441 284.851Z" fill="#813D16"/>
<path d="M76.1822 375.043C73.4631 373.808 64.8265 371.436 58.784 367.085C58.1171 366.605 57.2596 366.426 56.4234 366.566C56.4184 366.566 55.9621 366.643 55.9572 366.644C55.9572 366.644 55.1711 370.335 50.7081 371.64C47.7053 372.519 43.2152 370.229 43.2152 370.229L42.4028 380H76.9937C77.7 379.668 77.9179 378.986 77.9179 378.986C77.9179 378.986 79.6487 376.617 76.1822 375.043Z" fill="#34312E"/>
<path d="M119.798 375.043C117.306 373.808 109.389 371.436 103.85 367.085C103.239 366.605 102.453 366.426 101.686 366.566C101.682 366.566 101.263 366.643 101.259 366.644C101.259 366.644 100.538 370.335 96.4471 371.64C93.6946 372.519 89.5786 370.229 89.5786 370.229L88.834 380H120.542C121.19 379.668 121.389 378.986 121.389 378.986C121.389 378.986 122.976 376.617 119.798 375.043Z" fill="#34312E"/>
<path d="M74.7424 175.274C74.7424 175.274 74.2915 176.602 73.5621 178.721C73.2209 179.714 72.8179 180.878 72.3709 182.161C71.9091 183.486 71.3995 184.934 70.8603 186.448C70.5675 187.277 70.2628 188.124 69.9552 188.982C69.6913 189.72 69.4198 190.467 69.1525 191.213C66.832 197.59 64.3835 203.977 63.0711 206.321C60.1201 211.593 63.0711 273.806 63.0711 273.806C63.0711 273.806 51.7297 301.79 50.6297 302.909C49.7172 303.838 47.2832 345.444 46.4876 359.451H44.4131C44.4131 359.451 46.7922 308.029 47.1036 303.849C47.6973 295.82 57.8546 275.911 57.8546 275.911C57.8546 275.911 57.382 222.529 57.8546 214.439C57.8731 214.153 57.8914 213.861 57.9132 213.574C58.0013 212.358 58.1336 211.137 58.3021 209.91C58.3314 209.675 58.3645 209.443 58.401 209.209C58.4379 208.947 58.478 208.69 58.5183 208.428C58.5698 208.104 58.6209 207.779 58.6796 207.455C58.7236 207.182 58.7713 206.913 58.8225 206.641C59.2515 204.287 59.7937 201.94 60.4025 199.657C60.553 199.09 60.7105 198.526 60.868 197.967C60.9669 197.619 61.0659 197.272 61.1685 196.929C61.2417 196.676 61.3189 196.422 61.3959 196.172C61.7806 194.899 62.1803 193.653 62.5872 192.444C62.6681 192.217 62.7447 191.989 62.8219 191.766C62.9023 191.527 62.9831 191.292 63.0674 191.06C63.1005 190.959 63.1369 190.859 63.17 190.762C63.1847 190.717 63.1993 190.676 63.214 190.635L63.2178 190.631C63.3314 190.31 63.4448 189.989 63.5584 189.676C63.8153 188.971 64.072 188.282 64.3285 187.609C64.5812 186.941 64.8344 186.291 65.0836 185.665H65.0869C65.4356 184.78 65.7837 183.937 66.1173 183.139C66.1868 182.975 66.2564 182.807 66.3225 182.646C66.6523 181.87 66.9712 181.143 67.2682 180.467C67.3453 180.299 67.4187 180.131 67.4882 179.971C68.1188 178.568 68.661 177.419 69.0646 176.587V176.583C69.1487 176.408 69.2292 176.243 69.3025 176.098C69.3394 176.02 69.3721 175.949 69.4089 175.882C69.68 175.333 69.8304 175.042 69.8304 175.042H73.1551L73.4706 175.087L74.7424 175.274Z" fill="#55250A"/>
<path d="M111.656 193.082C100.615 198.008 81.0921 194.291 69.1531 191.213C68.4052 191.023 67.6828 190.832 66.9978 190.646C66.2059 190.43 65.4579 190.221 64.7654 190.023C64.3439 189.903 63.9403 189.788 63.5591 189.676C63.7681 189.105 63.9735 188.542 64.1826 187.993C64.2299 187.863 64.2813 187.736 64.3292 187.609C64.5232 187.098 64.7139 186.598 64.9083 186.113C64.9669 185.964 65.0256 185.814 65.0842 185.665H65.0876C65.4362 184.78 65.7843 183.937 66.1179 183.139C66.1473 183.072 66.1765 183.001 66.2021 182.934C66.2461 182.836 66.283 182.74 66.3231 182.646C66.5981 182.001 66.862 181.392 67.1147 180.818C67.1663 180.699 67.2173 180.583 67.2689 180.467C67.346 180.299 67.4193 180.131 67.4889 179.971C68.1194 178.568 68.6616 177.419 69.0652 176.587V176.583C69.1494 176.408 69.2298 176.243 69.3031 176.098C69.34 176.02 69.3727 175.949 69.4096 175.882C69.6806 175.333 69.8311 175.042 69.8311 175.042H107.954C107.954 175.042 108.192 176.128 108.584 177.975C108.698 178.512 108.824 179.109 108.962 179.766C109.061 180.236 109.167 180.74 109.277 181.27C109.383 181.784 109.497 182.326 109.611 182.889C110.215 185.81 110.93 189.336 111.656 193.082Z" fill="#55250A"/>
<path d="M94.8742 277.787L94.4849 226.546L89.8671 221.704C89.8671 221.704 90.6004 276.47 91.0914 279.264C91.0914 279.264 86.5788 292.812 85.2263 299.938C84.2329 305.151 89.3191 362.077 89.3191 362.077H92.2039L88.3458 303.655L94.8742 277.787Z" fill="#55250A"/>
<path d="M107.953 175.042C92.8873 187.908 68.8916 176.949 68.8916 176.949C68.991 173.136 65.1274 156.219 61.8977 140.846C61.0291 136.701 60.2042 132.671 59.5153 129.037C58.609 124.205 58.5419 119.248 59.3172 114.392C59.5371 112.727 59.9519 111.095 60.5527 109.531C61.3724 108.449 62.3861 107.535 63.5402 106.837C63.5474 106.833 63.5582 106.825 63.5657 106.822C63.8369 106.635 64.0606 106.482 64.2328 106.366C64.2668 106.346 64.2998 106.324 64.3317 106.3C64.4272 106.236 64.4968 106.187 64.5483 106.154C64.5626 106.143 64.5776 106.135 64.5885 106.128C64.5985 106.119 64.6095 106.111 64.6212 106.105C66.9915 104.507 69.5038 103.138 72.1251 102.016C72.143 102.009 72.1652 102.001 72.1837 101.994C72.7225 101.8 73.2539 101.62 73.7524 101.46C75.7795 100.811 77.3488 100.445 77.3488 100.445H89.5734C89.5903 100.442 89.6074 100.441 89.6246 100.441C89.6382 100.442 89.6518 100.441 89.6652 100.438C89.7092 100.434 89.7678 100.43 89.8408 100.43C89.8464 100.427 89.8528 100.426 89.8592 100.426C90.6113 100.434 91.3593 100.541 92.0844 100.744V100.747C92.5818 100.876 93.0724 101.031 93.5543 101.21C95.4884 101.959 97.331 102.933 99.0453 104.113C100.602 105.163 102.097 106.305 103.521 107.535C112.685 115.37 112.209 130.395 106.765 141.175C105.138 144.395 107.953 175.042 107.953 175.042Z" fill="#264F36"/>
<path d="M44.8779 126.583C48.4658 112.342 66.0825 107.025 66.0825 107.025L61.7003 115.089L61.1057 121.176L58.4526 148.345L40.8257 150.623C41.7144 142.536 43.0675 134.509 44.8779 126.583Z" fill="#264F36"/>
<path d="M44.8779 126.583C48.4658 112.342 66.0825 107.025 66.0825 107.025C66.0825 107.025 49.2027 115.975 46.988 125.797C46.4541 128.164 44.864 139.086 43.5555 150.27L40.8257 150.623C41.7144 142.536 43.0675 134.509 44.8779 126.583Z" fill="#56926D"/>
<path d="M104.598 139.635C104.598 139.635 104.151 139.612 103.344 139.57C102.544 139.52 101.386 139.446 99.9563 139.355C97.1201 139.212 93.2326 138.991 89.2998 140.062C88.2976 140.332 87.2937 140.649 86.2818 140.926C85.2944 141.204 84.2909 141.419 83.2772 141.569C81.5624 141.822 79.8252 141.878 78.0979 141.738C77.4158 141.69 76.7415 141.562 76.0884 141.355C75.5894 141.199 75.1208 140.955 74.7033 140.636C74.4477 140.434 74.2251 140.193 74.0437 139.921C73.9307 139.731 73.8799 139.631 73.8799 139.631C73.8799 139.631 73.9637 139.705 74.1229 139.847C74.3595 140.032 74.6208 140.182 74.8989 140.292C75.9255 140.619 77.0162 140.679 78.0715 140.467C79.6848 140.239 81.2818 139.905 82.8527 139.467C83.7359 139.223 84.6314 138.934 85.5855 138.598C86.5399 138.266 87.5581 137.901 88.6643 137.603C90.7663 137.052 92.9475 136.886 95.1068 137.11C96.8184 137.284 98.5109 137.616 100.164 138.101C101.561 138.504 102.664 138.899 103.424 139.181C104.183 139.463 104.598 139.635 104.598 139.635Z" fill="#153A23"/>
<path d="M105.758 163.004L104.613 163.291L94.2413 165.877L92.637 159.265L92.3081 157.909C92.3081 157.909 98.7975 156.312 99.8224 156.392C100.845 156.473 105.758 163.004 105.758 163.004Z" fill="#FDBD8E"/>
<path d="M105.758 163.004L104.613 163.291C102.733 161.442 100.028 158.792 99.6297 158.47C99.1201 158.057 94.3172 158.94 92.637 159.265L92.3081 157.909C92.3081 157.909 98.7975 156.312 99.8224 156.392C100.845 156.473 105.758 163.004 105.758 163.004Z" fill="#FFDABA"/>
<path d="M87.1157 168.735C87.1157 168.735 117.965 177.432 123.976 172.816C125.476 171.665 124.28 161.393 121.965 150.178L110.838 149.628L109.432 149.559L110.315 158.83L105.757 163.004L97.8417 164.978L94.2425 165.877L87.1157 168.735Z" fill="#FDBD8E"/>
<path d="M105.757 143.779L103.427 107.803C103.672 107.897 103.911 108.004 104.145 108.124C105.575 108.83 110.194 113.017 112.798 117.267C115.876 122.29 119.537 136.826 121.966 150.178L105.085 150.176L105.757 143.779Z" fill="#264F36"/>
<path d="M103.427 107.803L104.145 108.124C105.575 108.83 110.194 113.017 112.798 117.267C115.876 122.29 121.025 136.826 123.454 150.178L120.427 150.092C117.014 134.023 112.429 121.104 112.323 119.77C112.165 117.76 103.427 107.803 103.427 107.803Z" fill="#56926D"/>
<path d="M105.758 163.004L111.45 161.901C112.386 163.057 113.463 164.229 114.066 164.335C115.276 164.548 112.968 161.558 112.968 161.558C112.968 161.558 115.542 161.633 116.436 161.131C117.006 160.813 114.523 160.074 112.631 159.572C112.244 157.327 111.678 154.029 110.943 150.177L109.492 150.175L110.316 158.83L105.758 163.004Z" fill="#FB9988"/>
<path d="M44.6108 176.993C46.084 178.49 85.3417 171.007 94.2429 165.877L93.9303 164.588L92.3092 157.908L57.4301 158.83L58.4516 148.345L46.415 149.899L43.5571 150.269C41.93 164.041 42.3348 174.673 44.6108 176.993Z" fill="#FDBD8E"/>
<path d="M44.6108 176.994C45.7819 178.184 78.3071 173.265 94.2429 165.878C98.7282 164.553 102.787 164.343 104.613 163.291L93.9303 164.589C93.9303 164.589 50.6544 176.82 46.6186 175.519C43.1434 174.398 45.6503 155.219 46.415 149.9L43.5571 150.27C41.93 164.042 42.3348 174.674 44.6108 176.994Z" fill="#FB9988"/>
<path d="M61.1055 121.176V148.002L56.9253 148.543L61.1055 121.176Z" fill="#153A23"/>
<path d="M71.7455 158.669L58.6249 158.817L57.4287 158.83C57.4287 158.83 60.0391 153.091 61.7 152.769C63.3358 152.453 71.4924 158.482 71.7392 158.665L71.7455 158.669Z" fill="#FDBD8E"/>
<path d="M71.7392 158.665C71.4672 158.559 62.7948 155.104 61.9376 155.023C61.0958 154.946 58.78 158.569 58.6249 158.817L58.6153 158.83H57.4287C57.4287 158.83 60.0391 153.091 61.7 152.769C63.3358 152.453 71.4924 158.482 71.7392 158.665Z" fill="#FFDABA"/>
<path d="M109.474 95.0819C107.746 95.6679 105.981 96.1367 104.192 96.485C91.9124 98.9365 76.5604 97.0894 67.6675 95.5821C63.1993 94.8209 60.3585 94.1491 60.3585 94.1491C60.3585 94.1491 58.9288 81.8923 58.9288 77.2137C58.9232 74.5458 59.1193 71.8813 59.5155 69.244C62.0702 52.3716 72.1545 44.6851 72.869 44.1593C72.8795 44.1526 72.8895 44.1451 72.8987 44.1366C72.9027 44.1348 72.9064 44.1323 72.9096 44.1294H91.8354L98.7782 47.7635L100.167 48.4911L100.695 48.767L108.294 52.7444L108.481 59.3933L108.628 64.6805L109.474 95.0819Z" fill="#5E2C00"/>
<path d="M105.648 92.6877C105.3 94.0039 104.812 95.2775 104.193 96.486C91.913 98.9375 76.5609 97.0904 67.6681 95.5831C67.6511 95.5602 67.6353 95.5364 67.6208 95.5119C64.6867 90.7212 63.117 85.1954 63.0863 79.5502C63.0655 73.9307 63.8522 68.3382 65.4215 62.9505C66.5578 58.7044 67.9836 54.4804 70.3919 50.8279C72.1971 48.0052 74.6818 45.6996 77.6097 44.1304C77.7559 44.0519 77.9025 43.9811 78.0492 43.9103C81.2973 42.3694 84.86 42.302 88.4269 42.3318C93.0163 42.3694 97.701 44.5483 100.168 48.4921C102.411 52.0741 102.617 56.5403 103.159 60.7528C103.844 66.0919 105.168 71.3305 105.97 76.6548C106.773 81.9795 107.045 87.4939 105.648 92.6877Z" fill="#944600"/>
<path d="M110.752 80.4725C110.696 80.1792 110.609 79.7574 110.469 79.2421C110.305 78.6324 110.091 78.0379 109.829 77.465C109.501 76.7398 109.062 76.0717 108.53 75.4853C107.986 74.9035 107.35 74.4189 106.648 74.0519C106.092 73.7604 105.509 73.5255 104.908 73.3507C104.688 73.2863 104.489 73.2355 104.306 73.1925C104.084 72.9792 103.951 72.8623 103.951 72.8623C103.951 72.8623 103.993 72.963 104.066 73.1383C103.928 73.1089 103.8 73.0833 103.694 73.0645C103.404 73.0125 103.242 72.9929 103.242 72.9929C103.242 72.9929 103.643 73.2598 104.301 73.6979C104.439 74.0284 104.614 74.4454 104.818 74.9342C105.507 76.4932 106.014 78.1288 106.33 79.8077C106.559 81.5121 106.638 83.2338 106.567 84.9524C106.561 85.645 106.556 86.2088 106.553 86.5996L106.563 87.2115C106.563 87.2115 106.649 87.0107 106.805 86.6507C106.954 86.2881 107.162 85.761 107.378 85.0919C107.638 84.3019 107.831 83.491 107.955 82.6677C108.117 81.6287 108.116 80.5703 107.954 79.5314C107.776 78.4887 107.428 77.484 106.922 76.5592C106.542 75.8623 106.098 75.2035 105.596 74.5918C106.326 75.1105 107.004 75.7015 107.619 76.3561C108.469 77.3339 109.232 78.3868 109.898 79.5023C110.182 79.942 110.412 80.2999 110.571 80.5484C110.738 80.7933 110.831 80.9302 110.831 80.9302C110.831 80.9302 110.803 80.766 110.752 80.4725Z" fill="#944600"/>
<path d="M99.0452 104.113C98.3555 106.609 97.0563 108.886 95.2686 110.732C93.4809 112.579 85.2843 111.156 82.843 111.894C73.9212 114.939 74.0347 106.292 72.1836 101.994C73.8781 101.388 75.6021 100.872 77.3486 100.446H89.5732C89.5901 100.443 89.6073 100.441 89.6244 100.442C89.638 100.442 89.6517 100.441 89.6651 100.438C89.709 100.434 89.7677 100.431 89.8406 100.431C89.8463 100.428 89.8527 100.426 89.859 100.427C90.6111 100.434 91.3591 100.541 92.0843 100.744V100.748C92.5816 100.877 93.0722 101.031 93.5542 101.211C95.4883 101.96 97.3308 102.934 99.0452 104.113Z" fill="#FDBD8E"/>
<path d="M88.3447 112.928L77.3477 100.446C77.3661 98.5915 77.5199 97.8942 77.685 93.3048C77.8609 88.2005 78.044 83.417 78.044 83.417L92.1936 89.111C90.6855 92.801 89.8291 96.733 89.6641 100.726C89.4847 104.818 89.0439 108.894 88.3447 112.928Z" fill="#FDBD8E"/>
<path d="M92.1937 89.111C90.6855 92.801 89.8292 96.733 89.6642 100.726C89.2171 100.916 88.7809 101.092 88.3703 101.237C86.7282 101.819 81.4497 97.051 77.6851 93.3048C77.8609 88.2005 78.0441 83.417 78.0441 83.417L92.1937 89.111Z" fill="#FB9988"/>
<path d="M76.3026 99.4572C76.3026 99.4572 86.7154 109.726 89.2954 109.993C91.8754 110.26 90.0442 100.43 90.0442 100.43C90.0442 100.43 94.829 99.9625 99.5108 103.864C100.539 105.147 98.3641 116.056 97.126 116.261C94.5253 116.69 91.4962 111.316 90.0444 111.86C88.5926 112.404 81.1075 117.688 79.8267 117.267C78.546 116.847 71.0165 105.225 71.8392 102.369C72.661 99.5127 76.3026 99.4572 76.3026 99.4572Z" fill="#F2E6D7"/>
<path d="M107.035 71.9986C106.75 73.3305 106.381 74.7285 105.928 76.1926C105.928 76.1926 106.562 83.4049 105.819 85.0205C105.071 86.64 100.306 96.7139 95.298 96.0909C91.1193 95.5722 80.8995 89.3413 77.3477 85.6286C76.7818 85.1343 76.3553 84.4956 76.112 83.7781C75.6248 80.916 73.9496 68.2937 73.7917 67.2377C73.3664 64.376 72.1865 42.7015 97.9302 48.7311C100.205 49.255 102.289 50.4216 103.941 52.0967C105.594 53.7718 106.749 55.8876 107.274 58.2008C108.194 62.7618 108.113 67.4735 107.035 71.9986Z" fill="#FDBD8E"/>
<path d="M105.928 76.193C105.928 76.193 106.562 83.4053 105.819 85.0209C105.071 86.6404 100.306 96.7143 95.2979 96.0913C91.1193 95.5726 80.8995 89.3417 77.3477 85.629C81.6986 88.7036 93.3002 96.5502 96.7021 95.3449C100.918 93.8526 105.683 84.3568 105.591 83.4164C105.5 82.4722 105.224 76.3197 105.224 76.3197C105.224 76.3197 106.075 74.3758 107.035 71.999C106.75 73.3309 106.381 74.7289 105.928 76.193Z" fill="#FFDABA"/>
<path d="M77.2637 83.4158C75.9255 83.2846 74.6278 82.8758 73.4507 82.2146C72.2736 81.5534 71.2419 80.6539 70.4194 79.5715C70.1662 79.2455 69.9386 78.8998 69.7385 78.5376C68.8155 76.8338 68.5502 70.9248 70.9264 69.5515C72.5919 68.5906 73.8041 69.9848 74.3802 70.9078V70.9107C74.522 71.1341 74.6479 71.3676 74.7568 71.6093L77.2637 83.4158Z" fill="#FFDABA"/>
<path d="M77.2643 83.4145C75.926 83.2833 74.6284 82.8745 73.4512 82.2134C72.2741 81.5522 71.2425 80.6527 70.4199 79.5702C70.311 79.4035 70.216 79.2447 70.135 79.0938C69.212 77.39 68.9467 71.481 71.3229 70.109C72.6716 69.3294 73.7233 70.0962 74.3807 70.9066V70.9095C74.5226 71.1329 74.6484 71.3663 74.7574 71.6081L77.2643 83.4145Z" fill="#FDBD8E"/>
<path d="M70.1769 74.2438C70.0773 74.7216 70.1151 75.2185 70.2859 75.675C70.9354 77.6581 72.8812 79.1714 74.7437 80.5763C74.1988 79.6415 73.9694 78.5509 74.0904 77.471C74.1492 77.1055 74.1898 76.7373 74.2119 76.3676C74.2262 74.8809 70.8809 71.4498 70.1769 74.2438Z" fill="#FB9988"/>
<path d="M75.6793 81.1411C75.6793 81.1411 75.6429 81.1197 75.5733 81.0801C75.5058 81.0384 75.3969 80.9833 75.2733 80.8976C74.9278 80.6636 74.6182 80.3789 74.3545 80.0527C73.9858 79.5947 73.727 79.0556 73.5985 78.4781C73.4515 77.7763 73.5339 77.0448 73.8332 76.3952C73.8712 76.3047 73.9165 76.2175 73.9685 76.1346L74.0058 76.0715C74.0151 76.0557 74.0096 76.0655 74.0104 76.0638L74.01 76.0659L74.0117 76.0651C74.0117 76.0651 74.0142 76.068 74.0071 76.0544L73.9765 75.9973L73.9136 75.8846C73.8705 75.8104 73.8282 75.7363 73.7838 75.6641C73.6118 75.3813 73.4244 75.1085 73.2224 74.847C73.0266 74.5937 72.8238 74.36 72.624 74.1471C72.4415 73.9465 72.2446 73.7599 72.0349 73.5889C71.8599 73.4477 71.6523 73.3544 71.4319 73.318C71.2562 73.2979 71.0785 73.3279 70.9186 73.4046C70.8222 73.4479 70.7421 73.5218 70.6904 73.6153C70.6752 73.6468 70.6642 73.6802 70.6576 73.7147C70.6518 73.6794 70.6537 73.6433 70.6631 73.6089C70.6924 73.4981 70.7607 73.4022 70.855 73.3394C71.0282 73.2178 71.2333 73.1521 71.4437 73.1509C71.7251 73.1574 72.0001 73.2374 72.2423 73.3832C72.4986 73.5382 72.7412 73.7153 72.9676 73.9126C73.22 74.125 73.459 74.3534 73.6832 74.5963C73.9243 74.8575 74.1456 75.137 74.3452 75.4322C74.3972 75.5072 74.4457 75.5848 74.4948 75.6629L74.5665 75.7818L74.6611 75.9495L74.7269 76.0672C74.7098 76.1065 74.6838 76.1456 74.6629 76.1849L74.5682 76.3533C74.5235 76.4254 74.4845 76.501 74.4517 76.5794C74.1884 77.154 74.0844 77.791 74.1509 78.4214C74.2133 78.9515 74.3809 79.4631 74.6435 79.9252C74.8368 80.2605 75.0733 80.568 75.3466 80.8395C75.4459 80.9407 75.5364 81.0102 75.5917 81.0627C75.6492 81.1138 75.6793 81.1411 75.6793 81.1411Z" fill="#FD7D6F"/>
<path d="M109.369 66.8098C109.369 66.8098 106.083 62.332 104.25 64.1045C102.417 65.877 103.242 66.0635 103.242 66.0635L109.369 66.8098Z" fill="#55062C"/>
<path d="M83.3604 67.4968C83.3604 67.4968 89.4237 60.3884 91.9063 62.9137C93.3556 64.3876 92.3483 65.3911 92.3483 65.3911L83.3604 67.4968Z" fill="#55062C"/>
<path d="M91.4746 68.2275C91.0287 68.9992 90.342 69.5969 89.5238 69.9253C89.3757 69.7317 89.188 69.5732 88.9738 69.4607C88.7596 69.3482 88.524 69.2844 88.2832 69.2737C87.1023 69.2737 86.145 70.8384 86.145 72.7687C86.145 74.699 87.1023 76.2639 88.2832 76.2639C89.4644 76.2639 90.4217 74.6991 90.4217 72.7687C90.4244 72.2077 90.3386 71.6498 90.1674 71.1165C91.0691 70.3101 91.4746 68.2275 91.4746 68.2275Z" fill="#161818"/>
<path d="M84.104 70.8182C84.5957 71.6001 85.314 72.2071 86.1594 72.5554C87.0048 72.9036 87.9357 72.9759 88.8232 72.7621C88.3316 71.9801 87.6134 71.373 86.7679 71.0248C85.9224 70.6765 84.9915 70.6043 84.104 70.8182Z" fill="#FFF0E7"/>
<path d="M105.94 70.0879C105.635 70.6191 105.165 71.0314 104.603 71.2594C104.386 71.0238 104.085 70.8857 103.768 70.8753C102.878 70.8753 102.156 72.0545 102.156 73.5096C102.156 74.9647 102.878 76.1441 103.768 76.1441C104.658 76.1441 105.38 74.9648 105.38 73.5096C105.384 73.0016 105.289 72.4977 105.1 72.0276C105.52 71.4537 105.807 70.7906 105.94 70.0879Z" fill="#161818"/>
<path d="M106.763 72.2303C106.376 72.7456 105.861 73.1458 105.27 73.389C104.68 73.6323 104.036 73.7098 103.406 73.6134C103.793 73.098 104.308 72.6978 104.899 72.4545C105.489 72.2112 106.133 72.1338 106.763 72.2303Z" fill="#FFF0E7"/>
<path d="M96.4804 80.8259C95.9827 80.562 95.4333 80.4151 94.8726 80.396C95.4396 81.7017 96.4867 82.7293 97.7892 83.2587C97.8866 83.3044 97.9921 83.3294 98.0993 83.332C98.2299 83.3176 98.3551 83.2706 98.4635 83.195C99.1794 82.7672 99.8055 82.1998 100.306 81.5254C100.414 81.3944 100.495 81.2421 100.543 81.078C100.671 80.5278 100.299 80.6485 99.9777 80.7769C98.8556 81.2209 97.614 81.2383 96.4804 80.8259Z" fill="#FB9988"/>
<path d="M97.905 82.9431C98.2343 82.6433 98.6042 82.3892 98.9424 82.0966C99.3616 81.7383 99.7454 81.3392 100.088 80.9049C98.332 79.6728 98.3504 77.8062 98.435 75.6894C98.4958 74.2187 99.0719 72.8188 100.059 71.7432C100.23 71.5568 100.413 71.3811 100.605 71.2173C100.788 71.0703 100.993 70.9543 101.213 70.874C101.105 71.0002 101.031 71.146 100.933 71.2753C100.668 71.6013 100.42 71.9416 100.19 72.2946C99.5277 73.3992 99.1525 74.6574 99.1 75.9504C99.0643 76.7949 99.1987 77.6379 99.495 78.4275C99.8362 79.3616 100.45 80.1672 101.254 80.7361C101.261 80.7407 100.053 82.1601 99.935 82.2757C99.6307 82.5758 99.2973 82.8438 98.9399 83.0754C98.6001 83.3499 98.1882 83.5159 97.7559 83.5526C97.6205 83.5524 97.488 83.5123 97.3745 83.4371C97.4483 83.3878 97.5172 83.3314 97.5803 83.2686C97.6079 83.2409 97.6343 83.2123 97.6607 83.1837C97.7387 83.0997 97.8203 83.0199 97.905 82.9431Z" fill="#FD7D6F"/>
<path d="M99.8682 86.0418C99.0906 87.3907 97.9676 88.4992 96.6192 89.2491C95.4673 89.8712 94.1574 90.1239 92.8617 89.974C91.5522 89.8389 90.3291 89.2463 89.4003 88.2971C88.2604 87.0686 87.4622 85.5535 87.0879 83.9072C95.1129 83.683 99.6796 85.9481 99.8615 86.0367L99.8682 86.0418Z" fill="#FFF0E7"/>
<path d="M89.6934 90.5923C90.5084 91.0025 91.4008 91.2289 92.3097 91.256C93.2186 91.2832 94.1225 91.1105 94.9598 90.7496C94.7092 91.1673 94.3543 91.5098 93.9313 91.7424C93.5083 91.975 93.0322 92.0892 92.5517 92.0735C91.4525 91.9541 90.4349 91.4268 89.6934 90.5923Z" fill="#FD7D6F"/>
<path d="M108.7 67.3645C108.415 67.1701 108.115 67.0004 107.802 66.8573C107.503 66.7151 107.193 66.599 106.875 66.5102C106.293 66.3388 105.691 66.2521 105.086 66.2527C104.998 66.2527 104.914 66.2527 104.826 66.2603C104.57 66.2678 104.316 66.2928 104.063 66.3349C102.687 66.5602 101.417 67.2254 100.437 68.2343C99.4571 69.2432 98.818 70.5434 98.6124 71.9467C97.5932 71.556 96.465 71.5814 95.4637 72.0175C95.2629 70.2399 94.4262 68.5997 93.1132 67.4098C91.8003 66.22 90.1029 65.5638 88.345 65.5664C86.5702 65.5647 84.8589 66.2378 83.5465 67.454C82.7118 68.2231 82.0654 69.1802 81.6589 70.2489L75.0534 69.1519L74.0344 68.98H74.0197L72.2127 68.678L72.1833 68.8721L72.1246 69.2304L72.0405 69.7563L72.0366 69.7823L72.1724 69.8049L73.1876 69.9729L73.2865 69.9912H73.2903L73.7302 70.062L73.7337 70.0659L74.1919 70.1405L74.4522 70.1853L74.8041 70.2411L77.5205 70.6929L81.3401 71.327C81.2308 71.8319 81.1755 72.3474 81.175 72.8645C81.1737 74.7692 81.9046 76.5988 83.2113 77.9622C84.5181 79.3256 86.297 80.1145 88.1677 80.1603C90.0384 80.206 91.8525 79.5051 93.2221 78.2072C94.5917 76.9093 95.4082 75.1176 95.4968 73.215C96.0721 72.9464 97.5093 72.4167 98.5463 73.204C98.5608 73.5511 98.6012 73.8966 98.6674 74.2374C98.7643 74.7247 98.9155 75.1992 99.1182 75.6516C99.5967 76.7384 100.353 77.6748 101.308 78.3632C102.262 79.0516 103.381 79.4668 104.547 79.5655C104.726 79.5837 104.906 79.5923 105.086 79.5914C105.185 79.5914 105.28 79.588 105.379 79.5842C105.634 79.5739 105.887 79.5464 106.138 79.5019C106.183 79.4983 106.227 79.4909 106.27 79.4797C106.292 79.4777 106.314 79.474 106.336 79.4687C106.856 79.366 107.362 79.1993 107.843 78.9722C108.061 78.8685 108.274 78.7526 108.48 78.6251C108.661 78.5137 108.836 78.3929 109.005 78.2634C109.027 78.2484 109.045 78.2336 109.063 78.2186C109.343 78.0014 109.604 77.7605 109.844 77.4983C110.501 76.7925 110.998 75.9488 111.3 75.0265C111.603 74.1043 111.703 73.1258 111.594 72.1599C111.485 71.194 111.169 70.2641 110.669 69.4356C110.169 68.6072 109.497 67.9002 108.7 67.3645ZM90.0238 78.7969C89.4786 78.9596 88.9131 79.0414 88.345 79.0396C86.8068 79.0413 85.3253 78.4492 84.1991 77.3828C83.073 76.3163 82.386 74.8549 82.2768 73.2932C82.1676 71.7315 82.6442 70.1858 83.6106 68.9677C84.577 67.7497 85.9612 66.9499 87.4841 66.7298C89.007 66.5097 90.5552 66.8856 91.8165 67.7817C93.0778 68.6778 93.9584 70.0274 94.2806 71.5583C94.6028 73.0892 94.3427 74.6875 93.5527 76.0309C92.7627 77.3743 91.5016 78.3627 90.0238 78.7969ZM109.279 76.4611C109.181 76.5854 109.076 76.7038 108.964 76.8155C108.794 76.9954 108.61 77.1614 108.415 77.3119C108.136 77.5335 107.836 77.726 107.52 77.8864C107.103 78.0993 106.66 78.2574 106.204 78.3568C106.164 78.3641 106.124 78.3718 106.083 78.379C106.065 78.3833 106.047 78.3857 106.028 78.3862C105.796 78.4319 105.561 78.4582 105.324 78.4647C105.247 78.4724 105.166 78.4724 105.086 78.4724C103.718 78.4715 102.4 77.9474 101.394 77.0041C100.388 76.0607 99.7668 74.7669 99.6537 73.3792C99.639 73.2299 99.6315 73.0769 99.6315 72.9241C99.6306 72.6832 99.6466 72.4424 99.6793 72.2038C99.7935 71.3101 100.12 70.4583 100.63 69.7219C101.14 68.9854 101.819 68.3867 102.608 67.9774C103.397 67.568 104.272 67.3605 105.157 67.3727C106.042 67.3849 106.911 67.6164 107.689 68.0473C108.069 68.2581 108.422 68.515 108.741 68.8124C109.784 69.7695 110.422 71.1005 110.523 72.5263C110.623 73.9522 110.178 75.3622 109.279 76.4611Z" fill="#161818"/>
<path d="M109.005 59.6108C108.976 61.3071 108.85 63.0001 108.627 64.6814C108.576 65.0507 108.543 65.2524 108.543 65.2524C100.262 59.3272 100.233 52.514 100.464 50.365C98.2165 62.3045 73.3598 69.1702 73.3598 69.1702L69.87 70.7182C69.0787 69.7945 68.4444 68.7429 67.9933 67.6066C66.575 64.2822 65.435 58.2862 69.071 49.5628C69.9104 47.4879 71.2101 45.6387 72.8684 44.1601C72.8789 44.1535 72.8889 44.1459 72.8981 44.1374C80.9039 37.1043 94.8734 41.1678 94.8734 41.1678C107.428 39.9996 109.129 52.1298 109.005 59.6108Z" fill="#944600"/>
<path d="M79.9647 74.9714C79.8712 74.6883 79.7308 74.2815 79.5247 73.7897C79.2843 73.207 78.9954 72.6463 78.6611 72.1137C78.2422 71.4386 77.7213 70.8351 77.1175 70.3253C76.5034 69.821 75.8102 69.4257 75.067 69.1559C74.4783 68.9414 73.8701 68.7867 73.2515 68.694C73.0248 68.6595 72.8212 68.6356 72.6343 68.6172C72.3867 68.436 72.2396 68.3379 72.2396 68.3379C72.2396 68.3379 72.2945 68.4317 72.39 68.596C72.2488 68.5853 72.1185 68.5768 72.0108 68.5725C71.7171 68.5597 71.5537 68.5619 71.5537 68.5619C71.5537 68.5619 71.9857 68.773 72.6942 69.1189C72.874 69.4285 73.101 69.8182 73.3671 70.2755C74.2513 71.7288 74.9656 73.2822 75.4956 74.9042C75.9424 76.5631 76.2435 78.2592 76.3952 79.9725C76.4786 80.66 76.5465 81.2196 76.5935 81.6077C76.6509 81.9962 76.6831 82.2129 76.6831 82.2129L76.8503 81.6247C76.9517 81.2448 77.0895 80.6946 77.2173 80.0024C77.3726 79.1846 77.4591 78.3547 77.4758 77.5219C77.5017 76.4703 77.3646 75.421 77.0695 74.4128C76.7587 73.4031 76.2832 72.4539 75.6628 71.6049C75.1962 70.9646 74.6707 70.371 74.0936 69.832C74.8842 70.2486 75.6324 70.7437 76.3274 71.3101C77.2963 72.1657 78.1885 73.1074 78.9934 74.1241C79.3307 74.522 79.6051 74.8462 79.7954 75.0709C79.9928 75.2914 80.1025 75.4147 80.1025 75.4147C80.1025 75.4147 80.0531 75.256 79.9647 74.9714Z" fill="#944600"/>
<path d="M109.005 59.6108C108.826 59.5497 108.651 59.4773 108.481 59.3942C104.551 57.5774 102.003 52.2829 100.695 48.7679C100.286 47.6836 99.931 46.579 99.6317 45.4582C99.5274 46.2841 99.235 47.0738 98.7778 47.7643C96.2266 52.1072 88.8216 58.2414 88.8216 58.2414L89.9215 54.7864C89.9215 54.7864 87.8981 58.1445 80.2367 63.0619C77.1172 65.0622 72.4437 66.5469 67.9936 67.6066C64.8411 68.3564 61.8025 68.8938 59.5151 69.2448C59.9469 66.3506 60.6514 63.5055 61.619 60.7487C65.5047 49.753 72.2862 44.5891 72.8686 44.1601C72.8792 44.1535 72.8891 44.1459 72.8984 44.1374C80.9042 37.1043 94.8736 41.1678 94.8736 41.1678C95.7083 41.0879 96.5475 41.0704 97.3847 41.1153C107.659 41.6975 109.122 52.6595 109.005 59.6108Z" fill="#CF6302"/>
<path d="M97.3849 41.1153C95.9335 44.1413 93.0779 46.3765 90.3029 48.3277C90.795 47.4074 91.0128 46.361 90.9298 45.3167C87.3027 50.6681 82.2609 54.8646 76.388 57.4204C77.0851 56.0135 77.4099 54.446 77.3303 52.8723C73.7052 56.2142 69.3555 58.6368 64.6359 59.9426C63.6444 60.2635 62.6376 60.5325 61.6191 60.7487C65.5049 49.753 72.2864 44.5891 72.8688 44.1601C72.8794 44.1535 72.8893 44.1459 72.8986 44.1374C80.9043 37.1043 94.8738 41.1678 94.8738 41.1678C95.7085 41.0879 96.5477 41.0704 97.3849 41.1153Z" fill="#EE7203"/>
</g>
<defs>
<filter id="filter0_d_377_23158" x="0.825684" y="0" width="163.815" height="420" filterUnits="userSpaceOnUse" color-interpolation-filters="sRGB">
<feFlood flood-opacity="0" result="BackgroundImageFix"/>
<feColorMatrix in="SourceAlpha" type="matrix" values="0 0 0 0 0 0 0 0 0 0 0 0 0 0 0 0 0 0 127 0" result="hardAlpha"/>
<feOffset/>
<feGaussianBlur stdDeviation="20"/>
<feComposite in2="hardAlpha" operator="out"/>
<feColorMatrix type="matrix" values="0 0 0 0 1 0 0 0 0 0.960784 0 0 0 0 0.00392157 0 0 0 1 0"/>
<feBlend mode="normal" in2="BackgroundImageFix" result="effect1_dropShadow_377_23158"/>
<feBlend mode="normal" in="SourceGraphic" in2="effect1_dropShadow_377_23158" result="shape"/>
</filter>
</defs>
</svg>
