<svg width="274" height="134" viewBox="0 0 274 134" fill="none" xmlns="http://www.w3.org/2000/svg">
<g style="mix-blend-mode:multiply">
<path d="M9.92837 126.797L0.0361328 133.794H273.887L264.11 126.797H9.92837Z" fill="#E6E7E8"/>
</g>
<path d="M266 0H12V128H266V0Z" fill="#AB6F3D"/>
<path d="M266 12H12V26H266V12Z" fill="#ED7202"/>
<path d="M266 2H12V3H266V2Z" fill="#918770"/>
<path d="M139.751 36.0879H22.5903V127.996H139.751V36.0879Z" fill="#FBF8F3"/>
<path d="M130.45 45.3887H31.8911V113.245H130.45V45.3887Z" fill="#67C1B8"/>
<path d="M28.3145 127.996V41.8105H134.027V127.996" stroke="#CFCDCB" stroke-width="1.0447" stroke-miterlimit="10"/>
<path d="M24.0205 127.997V37.5186H138.32V127.997" stroke="#CFCDCB" stroke-width="1.0447" stroke-miterlimit="10"/>
<path d="M31.8915 45.389H130.45L132.596 43.2422H29.7446L31.8915 45.389Z" fill="#A9A9A8"/>
<path d="M130.451 127.996H132.597V43.2422L130.451 45.389V127.996Z" fill="#B9B8B7"/>
<path d="M29.7446 127.996H31.8915V45.389L29.7446 43.2422V127.996Z" fill="#CFCDCB"/>
<path d="M52.1067 45.3887H49.5596V113.245H52.1067V45.3887Z" fill="#FBF8F3"/>
<path d="M88.8975 121.945C88.8975 122.909 85.4375 123.69 81.1697 123.69C76.9028 123.69 73.4434 122.909 73.4434 121.945C73.4434 120.98 76.9028 120.199 81.1697 120.199C85.4375 120.199 88.8975 120.98 88.8975 121.945Z" fill="#B9B8B7"/>
<path d="M69.3636 121.945C69.3636 122.683 68.5025 123.282 67.4418 123.282C66.3817 123.282 65.5205 122.683 65.5205 121.945C65.5205 121.206 66.3817 120.607 67.4418 120.607C68.5025 120.607 69.3636 121.206 69.3636 121.945Z" fill="#B9B8B7"/>
<path d="M96.8206 121.945C96.8206 122.683 95.9595 123.282 94.8993 123.282C93.8386 123.282 92.9775 122.683 92.9775 121.945C92.9775 121.206 93.8386 120.607 94.8993 120.607C95.9595 120.607 96.8206 121.206 96.8206 121.945Z" fill="#B9B8B7"/>
<path d="M69.2783 119.92C69.2783 119.92 71.8476 118.88 72.3521 121.53C72.0447 121.628 71.7208 121.664 71.3993 121.636C71.0778 121.607 70.7651 121.516 70.4792 121.366C70.1934 121.217 69.94 121.012 69.7339 120.763C69.5277 120.515 69.3729 120.228 69.2783 119.92Z" fill="#B9B8B7"/>
<path d="M69.4487 124.127C69.4487 124.127 69.943 121.4 72.4498 122.389C72.3687 122.701 72.2264 122.994 72.0311 123.251C71.8359 123.508 71.5916 123.723 71.3125 123.885C71.0333 124.047 70.7248 124.152 70.4049 124.193C70.085 124.235 69.76 124.212 69.4487 124.127Z" fill="#B9B8B7"/>
<path d="M93.0622 119.92C93.0622 119.92 90.4928 118.88 89.9883 121.53C90.2958 121.628 90.6196 121.664 90.9411 121.636C91.2626 121.607 91.5753 121.516 91.8612 121.366C92.1471 121.217 92.4005 121.012 92.6066 120.763C92.8128 120.515 92.9676 120.228 93.0622 119.92Z" fill="#B9B8B7"/>
<path d="M92.8918 124.127C92.8918 124.127 92.3975 121.4 89.8906 122.389C89.9718 122.701 90.1141 122.994 90.3094 123.251C90.5046 123.508 90.7489 123.723 91.0281 123.885C91.3072 124.047 91.6157 124.152 91.9357 124.193C92.2556 124.235 92.5806 124.212 92.8918 124.127Z" fill="#B9B8B7"/>
<path d="M130.45 115.709H31.8911V116.763H130.45V115.709Z" fill="#B9B8B7"/>
<path d="M130.45 126.942H31.8911V127.996H130.45V126.942Z" fill="#B9B8B7"/>
<path d="M72.6623 45.3887H70.1152V113.245H72.6623V45.3887Z" fill="#FBF8F3"/>
<path d="M93.2184 45.3887H90.6714V113.245H93.2184V45.3887Z" fill="#FBF8F3"/>
<path d="M113.774 45.3887H111.227V113.245H113.774V45.3887Z" fill="#FBF8F3"/>
<path d="M225.277 36.0879H168.791V127.996H225.277V36.0879Z" fill="#FBF8F3"/>
<path d="M174.515 127.996V41.8105H219.554V127.996" stroke="#CFCDCB" stroke-width="1.0447" stroke-miterlimit="10"/>
<path d="M170.222 127.997V37.5186H223.846V127.997" stroke="#CFCDCB" stroke-width="1.0447" stroke-miterlimit="10"/>
<path d="M178.092 45.389H215.975L218.122 43.2422H175.946L178.092 45.389Z" fill="#A9A9A8"/>
<path d="M215.976 127.996H218.122V43.2422L215.976 45.389V127.996Z" fill="#B9B8B7"/>
<path d="M175.946 127.996H178.092V45.389L175.946 43.2422V127.996Z" fill="#CFCDCB"/>
<path d="M198.319 114.833C197.354 114.833 196.573 112.138 196.573 108.815C196.573 105.493 197.354 102.8 198.319 102.8C199.283 102.8 200.064 105.493 200.064 108.815C200.064 112.138 199.283 114.833 198.319 114.833Z" fill="#B9B8B7"/>
<path d="M198.318 99.6232C198.015 99.6572 197.709 99.5984 197.44 99.4547C197.171 99.3109 196.953 99.0888 196.813 98.8179C196.673 98.547 196.619 98.24 196.657 97.9376C196.695 97.6351 196.825 97.3514 197.028 97.1241C197.231 96.8968 197.499 96.7366 197.795 96.6646C198.091 96.5927 198.402 96.6123 198.687 96.7211C198.972 96.8298 199.217 97.0225 199.39 97.2736C199.563 97.5247 199.656 97.8224 199.656 98.1273C199.675 98.5027 199.546 98.8707 199.295 99.1509C199.045 99.4312 198.694 99.6009 198.318 99.6232Z" fill="#B9B8B7"/>
<path d="M198.318 121.001C198.015 121.035 197.709 120.977 197.44 120.833C197.172 120.689 196.953 120.467 196.813 120.196C196.673 119.925 196.619 119.618 196.657 119.316C196.695 119.013 196.825 118.729 197.028 118.502C197.231 118.275 197.499 118.115 197.795 118.043C198.091 117.971 198.402 117.99 198.687 118.099C198.972 118.208 199.217 118.4 199.39 118.652C199.563 118.903 199.656 119.2 199.656 119.505C199.675 119.881 199.546 120.249 199.295 120.529C199.045 120.809 198.694 120.979 198.318 121.001Z" fill="#B9B8B7"/>
<path d="M200.343 99.5566C200.343 99.5566 201.383 101.558 198.733 101.95C198.733 101.95 197.977 100.38 200.343 99.5566Z" fill="#B9B8B7"/>
<path d="M196.136 99.6895C196.136 99.6895 198.863 100.075 197.874 102.027C197.603 101.994 197.342 101.907 197.106 101.77C196.871 101.634 196.665 101.451 196.502 101.232C196.34 101.013 196.223 100.764 196.16 100.498C196.097 100.233 196.089 99.958 196.136 99.6895Z" fill="#B9B8B7"/>
<path d="M200.343 118.076C200.343 118.076 201.383 116.075 198.733 115.683C198.733 115.683 197.977 117.253 200.343 118.076Z" fill="#B9B8B7"/>
<path d="M196.136 117.944C196.136 117.944 198.863 117.558 197.874 115.606C197.603 115.639 197.342 115.726 197.106 115.863C196.871 115.999 196.665 116.182 196.502 116.401C196.34 116.62 196.223 116.869 196.16 117.135C196.097 117.4 196.089 117.675 196.136 117.944Z" fill="#B9B8B7"/>
<path d="M212.684 47.9131H184.416V87.0854H212.684V47.9131Z" fill="#67C1B8"/>
<path d="M181.384 74.165H180.138V93.9238H181.384V74.165Z" fill="#58595B"/>
<path d="M212.684 90.1631H184.416V127.469H212.684V90.1631Z" stroke="#CFCDCB" stroke-width="1.0447" stroke-miterlimit="10"/>
<path d="M211.053 91.7832H186.09V127.47H211.053V91.7832Z" stroke="#CFCDCB" stroke-width="0.960181" stroke-miterlimit="10"/>
<path d="M215.976 126.942H178.092V127.996H215.976V126.942Z" fill="#B9B8B7"/>
</svg>
