<svg width="375" height="1080" viewBox="0 0 375 1080" fill="none" xmlns="http://www.w3.org/2000/svg">
<g clip-path="url(#clip0_2036_32431)">
<rect width="375" height="1080" fill="#BFE8FF"/>
<path opacity="0.8" d="M696.483 32.0971C691.449 32.0911 686.436 32.7518 681.576 34.0622C681.694 32.4745 681.773 30.8779 681.773 29.2662C681.773 -14.5114 637.467 -50 582.814 -50C528.161 -50 483.856 -14.5114 483.856 29.2662C483.856 30.2123 483.904 31.1491 483.945 32.0871C464.61 37.7534 450.628 51.3943 449.218 67.6113C437.409 62.7857 424.765 60.3373 412.009 60.4066C383.152 60.4066 358.101 72.2901 345.475 89.7249C342.165 89.0548 338.795 88.7168 335.418 88.7159C312.693 88.7159 293.988 103.593 291.561 122.713C280.734 118.903 269.334 116.979 257.856 117.025C227.617 117.025 201.492 129.778 189.172 148.261C188.446 148.215 187.72 148.166 186.98 148.166C170.732 148.166 157.56 159.573 157.56 173.644C157.56 173.793 157.583 173.937 157.586 174.086C154.523 173.797 151.394 173.649 148.199 173.644C113.487 173.644 85.347 191.388 85.347 213.277C85.3554 216.69 86.0332 220.067 87.3421 223.219C79.6776 227.562 74.6488 234.798 74.6488 243.002C74.6488 244.631 74.8485 246.255 75.2435 247.836C58.1232 250.572 45.2285 262.576 45.2285 276.973C45.2285 293.39 61.9929 306.698 82.6724 306.698C103.352 306.698 120.116 293.39 120.116 276.973C120.098 272.653 118.942 268.415 116.764 264.684C123.206 262.348 128.505 257.627 131.567 251.497C137.061 252.441 142.625 252.914 148.199 252.91C181.615 252.91 208.927 236.464 210.922 215.71C225.304 223.574 241.465 227.61 257.856 227.432C288.462 227.432 314.84 214.362 326.968 195.514C341.558 213.07 366.121 224.601 393.97 224.601C438.732 224.601 475.018 194.824 475.018 158.092C475.011 154.298 474.614 150.515 473.831 146.803C482.213 138.49 487.03 127.241 487.262 115.438C487.258 113.386 487.099 111.338 486.787 109.309C492.393 110.681 498.144 111.37 503.915 111.363C516.856 111.539 529.562 107.904 540.453 100.912C553.995 105.998 568.349 108.581 582.814 108.532C606.662 108.827 629.994 101.585 649.484 87.8391C655.982 104.786 674.562 117.025 696.483 117.025C723.809 117.025 745.962 98.0135 745.962 74.5613C745.962 51.109 723.809 32.0971 696.483 32.0971Z" fill="white"/>
<path d="M562.524 640.834C557.943 638.749 553.105 637.28 548.137 636.465C548.901 635.068 549.632 633.646 550.298 632.179C568.385 592.312 542.701 541.689 492.93 519.109C443.16 496.528 388.15 510.541 370.063 550.407C369.672 551.269 369.329 552.142 368.979 553.013C349.03 550.185 330.661 556.83 322.677 571.016C313.918 561.742 303.414 554.289 291.769 549.081C265.49 537.159 237.768 537.631 219.066 548.291C216.329 546.313 213.4 544.614 210.325 543.217C189.63 533.828 166.449 539.648 156.34 556.058C148.055 548.114 138.467 541.652 127.996 536.952C100.459 524.459 71.3986 525.278 52.5427 537.02C51.9005 536.678 51.2603 536.333 50.5864 536.027C35.7897 529.314 19.0818 534.26 13.2681 547.074C13.2064 547.21 13.1677 547.351 13.109 547.487C10.4394 545.958 7.65087 544.531 4.74346 543.207C-26.8674 528.865 -59.8245 533.398 -68.8681 553.331C-70.2703 556.442 -71.0485 559.798 -71.1586 563.208C-79.933 563.997 -87.502 568.509 -90.8916 575.98C-91.5648 577.464 -92.0536 579.025 -92.3471 580.628C-109.068 576.046 -125.771 581.65 -131.719 594.761C-138.502 609.711 -128.733 628.757 -109.901 637.301C-91.0695 645.845 -70.3046 640.652 -63.5219 625.701C-61.7535 621.76 -61.0551 617.422 -61.497 613.125C-54.6654 613.66 -47.8894 611.55 -42.5683 607.232C-37.9556 610.362 -33.0837 613.091 -28.0061 615.391C2.4243 629.197 34.0914 625.505 44.4829 607.429C54.3308 620.532 67.3806 630.885 82.3804 637.495C110.252 650.14 139.673 649.136 158.506 636.983C164.538 658.999 182.142 679.647 207.504 691.154C248.266 709.647 293.613 697.522 308.789 664.072C310.351 660.615 311.552 657.005 312.373 653.301C323.44 649.194 332.475 640.94 337.563 630.288C338.407 628.418 339.108 626.486 339.662 624.51C344.2 628.075 349.153 631.079 354.411 633.457C366.123 638.964 379.196 640.904 392.003 639.036C402.233 649.263 414.238 657.545 427.431 663.477C449.027 673.598 473.267 676.643 496.694 672.178C495.61 690.296 507.473 709.118 527.436 718.175C552.321 729.465 580.349 721.304 590.039 699.947C599.728 678.59 587.41 652.124 562.524 640.834Z" fill="white"/>
<path d="M12.48 423.097C17.5139 423.091 22.5264 423.752 27.3869 425.062C27.2685 423.474 27.1901 421.878 27.1901 420.266C27.1901 376.489 71.4955 341 126.149 341C180.802 341 225.107 376.489 225.107 420.266C225.107 421.212 225.059 422.149 225.018 423.087C244.353 428.753 258.335 442.394 259.745 458.611C271.553 453.786 284.198 451.337 296.954 451.407C325.811 451.407 350.862 463.29 363.488 480.725C366.798 480.055 370.167 479.717 373.545 479.716C396.27 479.716 414.975 494.593 417.402 513.713C428.229 509.903 439.629 507.979 451.107 508.025C481.346 508.025 507.471 520.778 519.791 539.261C520.517 539.215 521.243 539.166 521.983 539.166C538.231 539.166 551.403 550.573 551.403 564.644C551.403 564.793 551.38 564.937 551.377 565.086C554.44 564.797 557.569 564.649 560.764 564.644C595.476 564.644 623.616 582.388 623.616 604.277C623.608 607.69 622.93 611.067 621.621 614.219C629.285 618.562 634.314 625.798 634.314 634.002C634.314 635.631 634.114 637.255 633.719 638.836C650.84 641.572 663.734 653.576 663.734 667.973C663.734 684.39 646.97 697.698 626.29 697.698C605.611 697.698 588.847 684.39 588.847 667.973C588.865 663.653 590.021 659.415 592.199 655.684C585.757 653.348 580.458 648.627 577.396 642.497C571.902 643.441 566.338 643.914 560.764 643.91C527.348 643.91 500.036 627.464 498.041 606.71C483.659 614.574 467.498 618.61 451.107 618.432C420.501 618.432 394.123 605.362 381.995 586.514C367.405 604.07 342.842 615.601 314.993 615.601C270.231 615.601 233.945 585.824 233.945 549.092C233.952 545.298 234.349 541.515 235.132 537.803C226.75 529.49 221.933 518.241 221.7 506.438C221.705 504.386 221.864 502.338 222.176 500.309C216.57 501.681 210.819 502.37 205.048 502.363C192.107 502.539 179.4 498.904 168.51 491.912C154.968 496.998 140.614 499.581 126.149 499.532C102.301 499.827 78.9686 492.585 59.4785 478.839C52.9811 495.786 34.4013 508.025 12.48 508.025C-14.8465 508.025 -36.9992 489.014 -36.9992 465.561C-36.9992 442.109 -14.8465 423.097 12.48 423.097Z" fill="white"/>
</g>
<defs>
<clipPath id="clip0_2036_32431">
<rect width="375" height="1080" fill="white"/>
</clipPath>
</defs>
</svg>
