<svg width="47" height="46" viewBox="0 0 47 46" fill="none" xmlns="http://www.w3.org/2000/svg">
<path d="M46.0102 22.6448C46.0102 18.1661 44.661 13.7879 42.1331 10.064C39.6053 6.34006 36.0123 3.43763 31.8087 1.72371C27.605 0.00978985 22.9795 -0.438633 18.5169 0.435147C14.0544 1.30893 9.95528 3.46567 6.73798 6.63263C3.52067 9.79959 1.32965 13.8345 0.442015 18.2272C-0.445619 22.6199 0.0100176 27.173 1.75124 31.3108C3.49246 35.4486 6.44107 38.9853 10.2243 41.4735C14.0074 43.9617 18.4552 45.2898 23.0052 45.2898C26.0263 45.2898 29.0178 44.7041 31.8089 43.5661C34.6 42.4281 37.1361 40.76 39.2723 38.6572C41.4085 36.5545 43.1031 34.0581 44.2592 31.3107C45.4152 28.5632 46.0103 25.6186 46.0102 22.6448Z" fill="#264F36"/>
<path d="M27.475 9.79051C26.3167 10.5843 25.5035 11.7773 25.1962 13.1332C24.8889 14.4891 25.1099 15.9092 25.8156 17.1124L35.1894 33.1091C35.2199 33.1604 35.2609 33.2049 35.3098 33.2397C35.3587 33.2745 35.4144 33.299 35.4734 33.3116C35.5325 33.3241 35.5935 33.3244 35.6526 33.3126C35.7118 33.3007 35.7678 33.2769 35.8171 33.2426C36.9754 32.4487 37.7886 31.2557 38.0959 29.8998C38.4032 28.5438 38.1822 27.1237 37.4765 25.9205L28.1027 9.92423C28.0722 9.87294 28.0312 9.82845 27.9823 9.79357C27.9334 9.75869 27.8777 9.73419 27.8187 9.72162C27.7597 9.70905 27.6987 9.70869 27.6395 9.72054C27.5803 9.7324 27.5243 9.75623 27.475 9.79051Z" fill="#F47920"/>
<path d="M18.1019 9.79051C16.9437 10.5844 16.1305 11.7773 15.8232 13.1332C15.5158 14.4891 15.7368 15.9092 16.4424 17.1124L25.8163 33.1091C25.8468 33.1604 25.8878 33.2049 25.9367 33.2397C25.9856 33.2745 26.0414 33.299 26.1004 33.3116C26.1594 33.3241 26.2204 33.3244 26.2795 33.3126C26.3387 33.3007 26.3947 33.2769 26.444 33.2426C27.6023 32.4487 28.4155 31.2557 28.7228 29.8998C29.0301 28.5438 28.8091 27.1237 28.1034 25.9205L18.7298 9.92423C18.6993 9.87294 18.6582 9.82844 18.6093 9.79357C18.5604 9.75869 18.5047 9.73419 18.4457 9.72162C18.3866 9.70905 18.3257 9.70868 18.2665 9.72054C18.2073 9.7324 18.1512 9.75623 18.1019 9.79051Z" fill="#F47920"/>
<path d="M13.3891 22.2764C12.2794 22.2764 11.1946 22.6003 10.2719 23.2072C9.3492 23.814 8.6301 24.6766 8.20543 25.6858C7.78076 26.695 7.66964 27.8055 7.88613 28.8768C8.10262 29.9482 8.63698 30.9323 9.42166 31.7047C10.2063 32.4771 11.2061 33.0031 12.2945 33.2162C13.3829 33.4293 14.511 33.3199 15.5363 32.9019C16.5615 32.4839 17.4378 31.776 18.0544 30.8677C18.6709 29.9595 19 28.8917 19 27.7993C18.9999 26.3346 18.4088 24.9298 17.3565 23.894C16.3043 22.8583 14.8772 22.2764 13.3891 22.2764Z" fill="#F04E23"/>
</svg>
