<svg width="122" height="226" viewBox="0 0 122 226" fill="none" xmlns="http://www.w3.org/2000/svg">
<path d="M92.0481 95.0409C92.0481 95.0409 89.0829 77.8982 88.1779 74.5788C88.1779 74.5788 76.3752 74.3783 77.188 77.2225C77.2308 77.3746 81.6903 90.0523 81.7833 93.7416L92.0481 95.0409Z" fill="#FDBD8E"/>
<path d="M83.1824 100.556C86.0679 101.612 90.7199 99.6949 90.7199 99.6949C94.8255 97.1139 99.1833 94.9056 103.141 92.1057C107.209 89.2273 110.773 86.0791 115.454 84.3186C116.378 83.9713 119.109 82.5407 119.657 81.7187C120.238 80.8483 118.064 80.5004 118.318 79.6123C118.666 78.4006 119.767 78.1785 118.694 76.6803C117.852 75.5073 116.54 74.3559 115.104 75.2098C115.56 74.4357 115.249 73.2797 114.456 72.8031C113.664 72.3266 112.539 72.6191 112.116 73.413C112.055 72.8673 111.816 72.3365 111.445 71.9246C110.967 71.3955 108.382 74.8921 108.196 75.2792C107.41 76.9066 107.614 78.1777 108.194 79.9119C109.82 84.773 90.5939 85.874 83.0535 92.0634C80.2716 94.3467 80.8204 88.2963 80.6803 88.3582C78.0513 89.5074 80.2968 99.5004 83.1824 100.556Z" fill="#FDBD8E"/>
<path d="M80.5457 55.2182C85.3629 57.7549 91.4225 77.3774 91.4225 77.3774C91.4225 77.3774 86.1737 81.8514 79.4947 80.5451C72.8146 79.239 80.5457 55.2182 80.5457 55.2182Z" fill="#D17726"/>
<path d="M79.84 213.33L79.6187 218.197L80.924 221.367L86.5547 219.574L87.7834 215.963L88.1955 210.354L79.84 213.33Z" fill="#FDBD8E"/>
<path d="M100.799 221.598C99.0522 220.725 93.5033 219.05 89.6212 215.976C89.1927 215.637 88.6418 215.511 88.1045 215.609C88.1014 215.61 87.8082 215.664 87.805 215.664C87.805 215.664 87.3 218.272 84.4326 219.194C82.5034 219.815 79.6186 218.197 79.6186 218.197L79.0967 225.099H101.32C101.774 224.865 101.914 224.384 101.914 224.384C101.914 224.384 103.026 222.71 100.799 221.598Z" fill="#34312E"/>
<path d="M8.9447 193.498L5.43056 196.874L4.19269 200.07L9.50884 202.65L12.8872 200.88L17.0509 197.099L8.9447 193.498Z" fill="#FDBD8E"/>
<path d="M18.4379 213.931C17.7728 212.095 14.9059 207.057 14.2103 202.155C14.1335 201.614 13.8212 201.143 13.3638 200.844C13.3611 200.842 13.1115 200.679 13.1088 200.677C13.1088 200.677 10.9462 202.219 8.23259 200.912C6.40675 200.033 5.43052 196.873 5.43052 196.873L0.296479 201.515L16.403 216.828C16.8931 216.971 17.3265 216.718 17.3265 216.718C17.3265 216.718 19.2858 216.271 18.4379 213.931Z" fill="#34312E"/>
<path d="M43.423 109.046C43.423 109.046 39.9925 152.816 39.656 156.794C39.3195 160.771 6.75586 192.892 6.75586 192.892C12.0178 194.949 15.7453 199.18 15.7453 199.18L55.2402 160.771L61.2919 128.919L63.3305 128.354C63.3305 128.354 76.3968 162.778 76.411 162.581C76.4253 162.384 77.2837 214.649 77.2837 214.649C82.3793 217.222 89.46 214.44 89.46 214.44C89.46 214.44 91.6645 163.734 92.2852 160.771C92.9054 157.809 80.7001 105.283 80.7001 105.283L43.423 109.046Z" fill="#365184"/>
<path d="M40.6127 142.986C40.6127 142.986 39.9925 152.816 39.656 156.794C39.3195 160.771 6.75586 192.892 6.75586 192.892C12.0178 194.949 15.7453 199.18 15.7453 199.18L55.2402 160.771L61.2919 128.919L63.3305 128.354C63.3305 128.354 76.3968 162.778 76.411 162.581C76.4253 162.384 77.2837 214.649 77.2837 214.649C82.3793 217.222 89.46 214.44 89.46 214.44C89.46 214.44 91.6645 163.734 92.2852 160.771C92.9054 157.809 80.7001 105.283 80.7001 105.283L90.7779 151.06L89.7016 160.771L81.6277 163.332L65.4801 124.578H61.9276L55.9959 156.794L49.9783 160.771L43.8422 156.794L40.6127 142.986Z" fill="#233D6D"/>
<path opacity="0.4" d="M42.8643 116.798C52.1764 119.323 69.4087 121.545 81.107 114.793C81.127 111.241 81.1418 108.07 81.1524 105.575L43.4881 108.849C43.317 111.033 43.102 113.768 42.8643 116.798Z" fill="#0D244F"/>
<path d="M79.2797 99.6799C78.9881 98.6091 78.752 97.9355 78.752 97.9355L45.4987 99.3006C45.4987 99.3006 45.3814 99.9794 45.2002 101.14C45.3645 101.368 45.4987 101.54 45.4987 101.54C60.3374 107.597 71.0848 107.604 79.2797 99.6799Z" fill="#301601"/>
<path d="M79.5813 54.2931C83.1871 56.0533 86.0641 60.3141 81.4002 69.7193L79.2763 99.8119C79.2763 99.8119 80.9296 104.634 79.8137 105.52C71.2316 112.333 60.1591 111.297 44.9731 104.068C44.9731 104.068 44.1861 103.039 44.0888 102.647C43.567 100.539 45.5415 94.9785 45.5415 94.9785L37.4551 69.4987C37.4551 69.4987 29.2283 58.06 34.8784 54.7195C41.9713 50.5249 62.1956 45.8064 79.5813 54.2931Z" fill="#EB8F3C"/>
<path d="M38.5618 70.2507L43.491 91.8899L39.6953 111.756C39.6953 111.756 65.5804 122.853 82.5363 112.771L81.0128 67.9581L38.5618 70.2507Z" fill="#EB8F3C"/>
<path d="M82.5363 112.771L81.6859 87.7598C80.091 88.6798 77.8443 89.0623 76.145 88.6825C73.3043 88.0478 71.0938 85.1236 71.4871 82.2394C65.0668 90.4915 56.679 97.0493 47.7021 102.409C47.7521 101.214 47.9064 97.5197 47.9946 95.4085L48.1821 90.9222C48.4688 84.0609 47.9701 81.6608 44.8267 84.9164C44.3164 79.9066 42.5403 71.1799 41.3019 66.2988L38.5613 70.2507L39.9495 76.3435L39.9495 76.344L43.4905 91.8899L39.6949 111.756C39.6949 111.756 50.8724 116.401 63.3565 116.973C69.8648 117.193 76.7251 116.227 82.5363 112.771Z" fill="#D17726"/>
<path d="M24.723 67.796C23.8808 70.6475 21.4669 82.654 21.4669 82.654C19.6381 94.6773 18.5795 110.138 19.1268 112.043C19.8562 114.584 20.3697 115.955 22.1725 114.989C23.9749 114.024 24.6207 116.972 25.9524 115.9C27.2845 114.827 28.5158 118.071 29.3899 116.379C30.2639 114.687 27.7754 111.449 27.7754 111.449C27.7754 111.449 29.8671 108.5 25.1488 106.382C20.9325 104.489 31.3802 91.097 31.6047 82.329C31.6875 79.0945 34.3908 72.0799 34.4311 71.9494C35.1873 69.5081 24.723 67.796 24.723 67.796Z" fill="#FDBD8E"/>
<path d="M38.9634 53.1223C32.9028 55.1288 22.1492 72.331 22.1492 72.331C22.1492 72.331 24.876 78.9047 34.1387 80.0153C34.1387 80.0153 49.2925 49.7027 38.9634 53.1223Z" fill="#EB8F3C"/>
<path d="M50.3751 4.7738C47.4078 7.2451 40.7381 19.1718 40.5337 20.649C40.3292 22.1268 48.0098 33.1941 48.0098 33.1941C48.0098 33.1941 47.8594 36.6248 45.5672 36.506C45.5672 36.506 49.9248 41.2916 52.415 35.6286C54.9046 29.9656 50.3751 4.7738 50.3751 4.7738Z" fill="url(#paint0_linear_404_91164)"/>
<path d="M66.2828 51.399C64.726 51.7487 63.5179 51.8339 61.8309 51.456C59.3243 50.8995 58.5044 49.4647 57.684 49.0767L50.7793 31.585L65.0357 40.6535L65.0295 41.1761L66.2828 51.399Z" fill="#FDBD8E"/>
<path d="M62.9025 44.9657C61.3228 44.3836 59.9355 43.6517 58.5165 42.7434C57.1767 41.8858 55.891 40.9718 54.676 39.9997L51.0435 31.584L65.2061 40.5807L65.2074 41.0577L65.9362 46.0241C64.9258 45.6665 63.9107 45.3375 62.9025 44.9657Z" fill="#DF9B7E"/>
<path d="M55.1899 45.5253C55.1899 45.5253 61.1657 51.4182 62.6463 51.5714C64.1269 51.7245 64.6964 47.8172 64.6964 47.8172C64.6964 47.8172 68.7947 49.7098 69.3849 50.4464C69.9751 51.1826 69.548 56.5056 68.8375 56.6232C67.345 56.8698 63.9093 52.3309 63.0761 52.6432C62.243 52.9554 57.9474 55.9875 57.2124 55.7462C56.4774 55.5049 52.1563 48.8353 52.6285 47.1963C53.1001 45.5571 55.1899 45.5253 55.1899 45.5253Z" fill="#F2E6D7"/>
<path d="M75.1016 12.3428C76.0565 14.1015 80.6574 19.6001 80.5743 20.5011C80.4913 21.4015 73.7688 30.0327 73.7688 30.0327L75.1016 12.3428Z" fill="#64332C"/>
<path d="M48.4575 21.6953C48.4575 21.6953 43.9226 19.9788 43.7978 25.6592C43.6731 31.3396 47.7056 32.0117 48.8664 32.4182C48.8664 32.4182 49.7168 42.6828 62.131 43.4284C74.5452 44.1746 73.847 34.3859 74.6298 28.0665C75.4124 21.7475 77.6314 10.8949 69.704 8.97566C61.7064 7.03973 49.9103 5.95087 48.4575 21.6953Z" fill="#FDBD8E"/>
<path d="M49.9365 21.1588C52.6574 16.1677 56.277 11.6689 60.5658 7.93794C62.412 7.8153 64.3056 7.9664 66.1226 8.25089L71.139 9.47033C75.5341 11.4805 75.8214 17.0121 75.3539 22.1673C71.4497 19.7851 67.8877 15.7628 66.348 11.5357C65.4615 14.9557 63.9915 18.4528 61.1583 20.5635C58.3251 22.6742 54.7622 23.7842 51.2315 23.6551C50.6478 23.6341 49.981 23.5311 49.669 23.0379C49.3138 22.4757 49.6184 21.743 49.9365 21.1588Z" fill="url(#paint1_linear_404_91164)"/>
<path d="M65.1524 32.8829C65.152 32.8521 65.2699 32.8498 65.4476 32.7975C65.6249 32.7482 65.8581 32.6231 66.0427 32.3863C66.1337 32.2687 66.2138 32.1241 66.262 31.9594C66.3074 31.7994 66.3244 31.6023 66.3058 31.3996C66.2746 30.9879 66.1082 30.5253 65.9144 30.029C65.1431 28.0328 64.6102 26.3936 64.7243 26.3703C64.8384 26.3471 65.5566 27.9468 66.3283 29.9441C66.5219 30.4431 66.6963 30.9498 66.7096 31.4262C66.7181 31.665 66.6868 31.8844 66.6116 32.0872C66.535 32.2845 66.4217 32.4462 66.294 32.5741C66.0378 32.8317 65.722 32.9397 65.4977 32.9474C65.2731 32.9581 65.1508 32.9049 65.1524 32.8829Z" fill="#DF9B7E"/>
<path d="M62.8977 22.5888C62.8587 22.6249 62.5519 22.4084 62.0127 22.1482C61.4757 21.8871 60.6916 21.5993 59.791 21.5107C59.3557 21.4697 58.9272 21.4774 58.5547 21.5207C58.1796 21.563 57.8521 21.6354 57.5846 21.713C57.317 21.7902 57.1051 21.868 56.9595 21.9208C56.8111 21.975 56.7224 22.0012 56.7046 21.9806C56.6883 21.9615 56.7415 21.8989 56.8636 21.8083C56.988 21.7158 57.1832 21.6024 57.4496 21.491C57.978 21.2673 58.8148 21.0798 59.7966 21.1767C60.0221 21.1994 60.2747 21.2414 60.4951 21.2915C60.7204 21.3411 60.9341 21.4079 61.1341 21.4768C61.5343 21.6185 61.8753 21.7878 62.1434 21.9521C62.6817 22.2811 62.9302 22.5624 62.8977 22.5888Z" fill="#64332C"/>
<path d="M67.6229 22.6888C67.5903 22.656 67.834 22.4227 68.3673 22.199C68.6326 22.0873 68.972 21.9848 69.3704 21.9216C69.5697 21.8917 69.7824 21.867 70.0077 21.8615C70.2278 21.8542 70.4797 21.862 70.7053 21.8835C71.6872 21.9795 72.5282 22.3316 73.0612 22.6597C73.3299 22.8237 73.5274 22.9763 73.6532 23.0928C73.777 23.2077 73.8313 23.2805 73.8155 23.297C73.7985 23.3145 73.7087 23.2703 73.5594 23.1872C73.4131 23.1055 73.1991 22.9858 72.93 22.8562C72.6609 22.7258 72.331 22.5889 71.9552 22.4726C71.5815 22.3561 71.1517 22.2642 70.7168 22.2197C69.8162 22.1315 69.0354 22.2654 68.5017 22.4214C67.9661 22.5762 67.6625 22.7326 67.6229 22.6888Z" fill="#64332C"/>
<path d="M66.0446 5.24297C66.0446 5.24297 55.8182 1.36143 51.7097 3.77029C47.6013 6.17915 44.6111 13.9098 46.7805 18.15C48.5552 21.6193 50.1332 25.5733 51.1606 29.3323C51.0161 27.425 51.0802 25.5545 50.9362 23.6473C57.7891 21.2182 63.2834 18.1287 66.3482 11.5352C69.6016 15.6144 76.2708 17.55 80.5741 20.501C80.5741 20.501 78.2859 6.06652 75.6608 4.30659C73.3719 2.7729 69.9766 3.53923 66.0446 5.24297Z" fill="url(#paint2_linear_404_91164)"/>
<path d="M59.092 32.5623C58.9231 34.3916 57.3034 35.7375 55.4746 35.5687C53.6453 35.3998 52.3 33.7802 52.4682 31.9513C52.637 30.1226 54.2568 28.7762 56.0856 28.945C57.9149 29.1138 59.2608 30.7335 59.092 32.5623Z" fill="url(#paint3_radial_404_91164)"/>
<path d="M74.0871 33.9461C73.9182 35.7754 72.2985 37.1213 70.4697 36.9525C68.6404 36.7836 67.2946 35.1639 67.4634 33.3351C67.6322 31.5058 69.252 30.16 71.0807 30.3287C72.91 30.4976 74.2559 32.1173 74.0871 33.9461Z" fill="url(#paint4_radial_404_91164)"/>
<path d="M61.1302 26.3251C61.0455 27.2414 60.2344 27.9152 59.3182 27.8305C58.402 27.7459 57.7282 26.9348 57.8123 26.0186C57.897 25.1023 58.708 24.4285 59.6243 24.5126C60.541 24.5979 61.2148 25.4089 61.1302 26.3251Z" fill="#64332C"/>
<path d="M70.5843 27.1982C70.4997 28.1144 69.6886 28.7883 68.7723 28.7041C67.8561 28.6195 67.1823 27.8084 67.2664 26.8921C67.351 25.9759 68.1621 25.3021 69.0784 25.3862C69.9946 25.4709 70.669 26.282 70.5843 27.1982Z" fill="#64332C"/>
<path d="M45.6773 23.8524C45.0451 25.2725 45.4357 26.9163 45.8357 28.419C45.9547 28.8653 46.0887 29.3382 46.4309 29.6485C46.773 29.9587 47.3953 30.0048 47.6507 29.6199C47.8979 29.2478 47.6765 28.759 47.5082 28.3454C47.3398 27.9317 47.2938 27.3393 47.699 27.1511C47.8876 27.0636 48.1134 27.1044 48.3089 27.0333C48.7345 26.8789 48.8096 26.3128 48.7679 25.8623C48.7102 25.2389 48.5666 24.6233 48.3419 24.0392C48.1215 23.4658 47.7323 22.8563 47.1223 22.7825C46.484 22.7049 45.9387 23.2657 45.6773 23.8524Z" fill="url(#paint5_linear_404_91164)"/>
<path d="M65.4569 13.2239C64.4727 14.91 63.3048 16.3402 61.9746 17.5747C55.3043 17.7738 48.8699 15.9795 43.8842 13.9948C44.3534 13.1861 44.8474 12.3602 45.351 11.5457C51.3976 13.402 58.567 13.8432 65.4569 13.2239ZM78.4951 10.6631C75.2054 11.7139 71.5344 12.5061 67.7277 12.9808C68.9781 14.0962 70.4874 15.0436 72.0832 15.9167C74.5547 15.2289 76.9492 14.3811 79.1945 13.4668C78.9805 12.5354 78.7462 11.5847 78.4951 10.6631Z" fill="url(#paint6_linear_404_91164)"/>
<path d="M66.3345 36.2376C66.3526 36.275 65.9994 36.4126 65.3595 36.4769C65.279 36.4835 65.1952 36.49 65.1075 36.4971C65.0195 36.5032 64.9264 36.5009 64.8307 36.5026C64.639 36.5091 64.4324 36.4934 64.2143 36.4796C63.7784 36.4388 63.2972 36.3581 62.8038 36.2205C62.3115 36.0779 61.8583 35.8933 61.4639 35.6983C61.2701 35.5948 61.0845 35.4993 60.9234 35.3922C60.8422 35.3401 60.761 35.2929 60.6888 35.2415C60.6173 35.1893 60.5483 35.1389 60.4828 35.0909C59.9593 34.6929 59.7356 34.3963 59.7654 34.3705C59.806 34.3341 60.1172 34.5899 60.6443 34.9149C60.7111 34.9556 60.7815 34.9982 60.8545 35.0422C60.9274 35.0862 61.0084 35.1259 61.0888 35.1707C61.2482 35.2629 61.4299 35.3443 61.6164 35.4355C61.9967 35.6058 62.4257 35.7705 62.8892 35.905C63.3538 36.0343 63.8044 36.119 64.2155 36.174C64.421 36.1944 64.6173 36.2203 64.8003 36.2252C64.8915 36.2293 64.9807 36.238 65.0653 36.2388C65.15 36.2392 65.2319 36.2399 65.3096 36.2403C65.9308 36.2389 66.3126 36.1858 66.3345 36.2376Z" fill="#DC856F"/>
<defs>
<linearGradient id="paint0_linear_404_91164" x1="43.6663" y1="36.3305" x2="51.0808" y2="14.669" gradientUnits="userSpaceOnUse">
<stop stop-color="#522A22"/>
<stop offset="0.0324" stop-color="#532A22"/>
<stop offset="1" stop-color="#64332C"/>
</linearGradient>
<linearGradient id="paint1_linear_404_91164" x1="69.4326" y1="23.0279" x2="59.9309" y2="15.8349" gradientUnits="userSpaceOnUse">
<stop stop-color="#DF9B7E"/>
<stop offset="1" stop-color="#DF9B7E" stop-opacity="0.6"/>
</linearGradient>
<linearGradient id="paint2_linear_404_91164" x1="55.2107" y1="40.2814" x2="62.6251" y2="18.6198" gradientUnits="userSpaceOnUse">
<stop stop-color="#522A22"/>
<stop offset="0.0324" stop-color="#532A22"/>
<stop offset="1" stop-color="#64332C"/>
</linearGradient>
<radialGradient id="paint3_radial_404_91164" cx="0" cy="0" r="1" gradientUnits="userSpaceOnUse" gradientTransform="translate(55.7802 32.257) rotate(-174.73) scale(3.32582)">
<stop stop-color="#DF9B7E" stop-opacity="0.7"/>
<stop offset="1" stop-color="#DF9B7E" stop-opacity="0"/>
</radialGradient>
<radialGradient id="paint4_radial_404_91164" cx="0" cy="0" r="1" gradientUnits="userSpaceOnUse" gradientTransform="translate(70.7752 33.6406) rotate(-174.73) scale(3.32582 3.32582)">
<stop stop-color="#DF9B7E" stop-opacity="0.7"/>
<stop offset="1" stop-color="#DF9B7E" stop-opacity="0"/>
</radialGradient>
<linearGradient id="paint5_linear_404_91164" x1="48.2122" y1="27.2161" x2="45.9405" y2="25.4963" gradientUnits="userSpaceOnUse">
<stop stop-color="#DF9B7E"/>
<stop offset="1" stop-color="#DF9B7E" stop-opacity="0.6"/>
</linearGradient>
<linearGradient id="paint6_linear_404_91164" x1="61.636" y1="17.8938" x2="61.426" y2="8.86449" gradientUnits="userSpaceOnUse">
<stop stop-color="#F2E6D7" stop-opacity="0.2"/>
<stop offset="1" stop-color="#F2E6D7" stop-opacity="0"/>
</linearGradient>
</defs>
</svg>
