<svg width="87" height="226" viewBox="0 0 87 226" fill="none" xmlns="http://www.w3.org/2000/svg">
<path d="M69.3939 78.5905C69.9583 81.8934 71.0541 98.7503 71.0541 98.7503C71.2097 103.593 71.8218 108.451 71.7092 113.284C71.5934 118.253 70.9643 122.936 72.1365 127.832C72.3679 128.798 72.7125 131.868 72.3315 132.767C71.928 133.719 70.4028 132.062 69.7999 132.747C68.9774 133.683 69.4145 134.733 67.5452 134.616C66.0808 134.524 64.3684 134.022 64.2729 132.354C63.8799 133.15 62.7307 133.498 61.8803 133.079C61.0299 132.659 60.6387 131.553 61.0667 130.774C60.5731 131.011 59.991 131.09 59.4337 130.993C58.7178 130.868 60.1949 126.829 60.4147 126.466C61.339 124.94 62.5244 124.441 64.3126 124.015C69.3252 122.82 59.352 105.955 60.2859 96.2945C60.6302 92.7307 58.53 84.4753 58.5027 84.3239C57.9794 81.4894 69.3939 78.5905 69.3939 78.5905Z" fill="#FDBD8E"/>
<path d="M64.4477 55.4804C68.9044 58.5384 72.6118 78.5871 72.6118 78.5871C72.6118 78.5871 66.9193 82.392 60.4845 80.3322C54.0487 78.2723 64.4477 55.4804 64.4477 55.4804Z" fill="#D27726"/>
<path d="M61.7099 213.704L62.7134 218.472L64.7703 221.214L69.7733 218.07L70.0596 214.266L69.055 208.732L61.7099 213.704Z" fill="#FDBD8E"/>
<path d="M84.0713 216.465C82.1617 216.058 76.3702 215.824 71.8424 213.819C71.3427 213.598 70.7777 213.613 70.2823 213.843C70.2793 213.845 70.009 213.97 70.006 213.971C70.006 213.971 70.1694 216.622 67.624 218.233C65.9115 219.316 62.7137 218.472 62.7137 218.472L63.9353 225.285L85.4523 219.725C85.8331 219.385 85.8481 218.883 85.8481 218.883C85.8481 218.883 86.5059 216.984 84.0713 216.465Z" fill="#34312E"/>
<path d="M9.39929 195.041L5.88515 198.416L4.64728 201.613L9.96343 204.193L13.3417 202.423L17.5055 198.642L9.39929 195.041Z" fill="#FDBD8E"/>
<path d="M18.8925 215.474C18.2274 213.638 15.3605 208.6 14.6649 203.698C14.5881 203.157 14.2758 202.686 13.8184 202.387C13.8157 202.385 13.5661 202.222 13.5634 202.22C13.5634 202.22 11.4008 203.762 8.68718 202.455C6.86134 201.576 5.88511 198.416 5.88511 198.416L0.751069 203.058L16.8576 218.371C17.3477 218.514 17.7811 218.261 17.7811 218.261C17.7811 218.261 19.7404 217.814 18.8925 215.474Z" fill="#34312E"/>
<path d="M26.8778 109.046C26.8778 109.046 24.5876 124.377 24.2511 128.354C23.9146 132.332 59.2511 214.232 59.2511 214.232L70.7562 210.641L59.2511 163.423L45.7511 127.232L44.7511 132.232C44.7511 132.232 39.6949 155.732 39.7511 154.232C39.2511 154.232 6.75098 194.732 6.75098 194.732C11.8466 197.305 16.9273 202.523 16.9273 202.523C16.9273 202.523 55.3886 157.695 56.0093 154.732C56.6295 151.769 64.1549 105.283 64.1549 105.283L26.8778 109.046Z" fill="#233D6D"/>
<path d="M70.7563 210.641L64.2511 212.732C64.2511 212.732 55.1639 195.232 48.2511 175.232L26.8779 109.046L37.2511 107.232C37.2511 107.232 41.1921 117.245 45.3354 128.232L59.2513 163.423L70.7563 210.641Z" fill="#365184"/>
<path opacity="0.4" d="M26.3188 116.798C35.631 119.323 52.8633 121.545 64.5616 114.793C64.5816 111.241 64.5964 108.07 64.607 105.575L26.9427 108.849C26.7716 111.033 26.5566 113.768 26.3188 116.798Z" fill="#0D244F"/>
<path d="M62.7348 99.6799C62.4432 98.6091 62.2071 97.9355 62.2071 97.9355L28.9537 99.3006C28.9537 99.3006 28.8365 99.9794 28.6553 101.14C28.8196 101.368 28.9537 101.54 28.9537 101.54C43.7925 107.597 54.5399 107.604 62.7348 99.6799Z" fill="#301601"/>
<path d="M63.0359 54.2931C66.6417 56.0533 69.5187 60.3141 64.8548 69.7193L62.7309 99.8119C62.7309 99.8119 64.3842 104.634 63.2683 105.52C54.6862 112.333 43.6137 111.297 28.4277 104.068C28.4277 104.068 27.6406 103.039 27.5434 102.647C27.0216 100.539 28.9961 94.9785 28.9961 94.9785L20.9097 69.4987C20.9097 69.4987 12.6829 58.06 18.333 54.7195C25.4259 50.5249 45.6501 45.8064 63.0359 54.2931Z" fill="#EB8F3C"/>
<path d="M22.0164 70.2507L26.9456 91.8899L23.1499 111.756C23.1499 111.756 49.035 122.853 65.9909 112.771L64.4674 67.9581L22.0164 70.2507Z" fill="#EB8F3C"/>
<path d="M65.9909 112.771L65.1405 87.7598C63.5455 88.6798 61.2989 89.0623 59.5996 88.6825C56.7589 88.0478 54.5483 85.1236 54.9417 82.2394C48.5214 90.4915 40.1336 97.0493 31.1567 102.409C31.2066 101.214 31.361 97.5197 31.4492 95.4085L31.6367 90.9222C31.9234 84.0609 31.4246 81.6608 28.2812 84.9164C27.771 79.9066 25.9948 71.1799 24.7565 66.2988L22.0159 70.2507L23.4041 76.3435L23.4041 76.344L26.9451 91.8899L23.1494 111.756C23.1494 111.756 34.327 116.401 46.8111 116.973C53.3194 117.193 60.1797 116.227 65.9909 112.771Z" fill="#D17726"/>
<path d="M33.8297 4.7738C30.8624 7.2451 24.1927 19.1718 23.9883 20.649C23.7838 22.1268 31.4644 33.1941 31.4644 33.1941C31.4644 33.1941 31.3139 36.6248 29.0218 36.506C29.0218 36.506 33.3794 41.2916 35.8696 35.6286C38.3592 29.9656 33.8297 4.7738 33.8297 4.7738Z" fill="url(#paint0_linear_404_91270)"/>
<path d="M49.7374 51.399C48.1806 51.7487 46.9725 51.8339 45.2855 51.456C42.7789 50.8995 41.959 49.4647 41.1385 49.0767L34.2339 31.585L48.4903 40.6535L48.4841 41.1761L49.7374 51.399Z" fill="#FDBD8E"/>
<path d="M46.3571 44.9657C44.7774 44.3836 43.3901 43.6517 41.971 42.7434C40.6312 41.8858 39.3456 40.9718 38.1306 39.9997L34.498 31.584L48.6607 40.5807L48.662 41.0577L49.3908 46.0241C48.3804 45.6665 47.3653 45.3375 46.3571 44.9657Z" fill="#DF9B7E"/>
<path d="M38.6445 45.5253C38.6445 45.5253 44.6202 51.4182 46.1009 51.5714C47.5815 51.7245 48.151 47.8172 48.151 47.8172C48.151 47.8172 52.2493 49.7098 52.8395 50.4464C53.4297 51.1826 53.0026 56.5056 52.2921 56.6232C50.7996 56.8698 47.3639 52.3309 46.5307 52.6432C45.6975 52.9554 41.402 55.9875 40.667 55.7462C39.9319 55.5049 35.6109 48.8353 36.083 47.1963C36.5546 45.5571 38.6445 45.5253 38.6445 45.5253Z" fill="#F2E6D7"/>
<path d="M58.5562 12.3428C59.5111 14.1015 64.1119 19.6001 64.0289 20.5011C63.9459 21.4015 57.2234 30.0327 57.2234 30.0327L58.5562 12.3428Z" fill="#64332C"/>
<path d="M31.9121 21.6953C31.9121 21.6953 27.3772 19.9788 27.2524 25.6592C27.1277 31.3396 31.1602 32.0117 32.321 32.4182C32.321 32.4182 33.1713 42.6828 45.5856 43.4284C57.9998 44.1746 57.3016 34.3859 58.0843 28.0665C58.867 21.7475 61.086 10.8949 53.1586 8.97566C45.161 7.03973 33.3649 5.95087 31.9121 21.6953Z" fill="#FDBD8E"/>
<path d="M33.3911 21.1588C36.112 16.1677 39.7316 11.6689 44.0204 7.93794C45.8665 7.8153 47.7602 7.9664 49.5772 8.25089L54.5936 9.47033C58.9887 11.4805 59.276 17.0121 58.8085 22.1673C54.9043 19.7851 51.3423 15.7628 49.8026 11.5357C48.9161 14.9557 47.4461 18.4528 44.6129 20.5635C41.7797 22.6742 38.2168 23.7842 34.6861 23.6551C34.1024 23.6341 33.4356 23.5311 33.1236 23.0379C32.7684 22.4757 33.073 21.743 33.3911 21.1588Z" fill="url(#paint1_linear_404_91270)"/>
<path d="M48.607 32.8829C48.6066 32.8521 48.7245 32.8498 48.9021 32.7975C49.0795 32.7482 49.3127 32.6231 49.4973 32.3863C49.5883 32.2687 49.6684 32.1241 49.7166 31.9594C49.762 31.7994 49.779 31.6023 49.7604 31.3996C49.7291 30.9879 49.5628 30.5253 49.369 30.029C48.5977 28.0328 48.0648 26.3936 48.1789 26.3703C48.293 26.3471 49.0112 27.9468 49.7829 29.9441C49.9765 30.4431 50.1508 30.9498 50.1642 31.4262C50.1727 31.665 50.1414 31.8844 50.0662 32.0872C49.9896 32.2845 49.8763 32.4462 49.7486 32.5741C49.4924 32.8317 49.1765 32.9397 48.9523 32.9474C48.7277 32.9581 48.6054 32.9049 48.607 32.8829Z" fill="#DF9B7E"/>
<path d="M46.3522 22.5888C46.3133 22.6249 46.0065 22.4084 45.4673 22.1482C44.9303 21.8871 44.1462 21.5993 43.2456 21.5107C42.8103 21.4697 42.3817 21.4774 42.0093 21.5207C41.6342 21.563 41.3067 21.6354 41.0391 21.713C40.7716 21.7902 40.5597 21.868 40.4141 21.9208C40.2657 21.975 40.177 22.0012 40.1592 21.9806C40.1429 21.9615 40.1961 21.8989 40.3181 21.8083C40.4426 21.7158 40.6378 21.6024 40.9042 21.491C41.4326 21.2673 42.2694 21.0798 43.2512 21.1767C43.4767 21.1994 43.7293 21.2414 43.9496 21.2915C44.175 21.3411 44.3887 21.4079 44.5887 21.4768C44.9888 21.6185 45.3299 21.7878 45.598 21.9521C46.1363 22.2811 46.3848 22.5624 46.3522 22.5888Z" fill="#64332C"/>
<path d="M51.0775 22.6888C51.0448 22.656 51.2886 22.4227 51.8219 22.199C52.0872 22.0873 52.4266 21.9848 52.825 21.9216C53.0242 21.8917 53.237 21.867 53.4623 21.8615C53.6824 21.8542 53.9343 21.862 54.1599 21.8835C55.1418 21.9795 55.9828 22.3316 56.5158 22.6597C56.7845 22.8237 56.982 22.9763 57.1078 23.0928C57.2316 23.2077 57.2859 23.2805 57.2701 23.297C57.2531 23.3145 57.1633 23.2703 57.014 23.1872C56.8677 23.1055 56.6537 22.9858 56.3846 22.8562C56.1155 22.7258 55.7856 22.5889 55.4098 22.4726C55.0361 22.3561 54.6063 22.2642 54.1714 22.2197C53.2708 22.1315 52.49 22.2654 51.9563 22.4214C51.4207 22.5762 51.1171 22.7326 51.0775 22.6888Z" fill="#64332C"/>
<path d="M49.4991 5.24297C49.4991 5.24297 39.2728 1.36143 35.1643 3.77029C31.0558 6.17915 28.0657 13.9098 30.2351 18.15C32.0097 21.6193 33.5878 25.5733 34.6152 29.3323C34.4707 27.425 34.5348 25.5545 34.3908 23.6473C41.2437 21.2182 46.738 18.1287 49.8028 11.5352C53.0561 15.6144 59.7254 17.55 64.0287 20.501C64.0287 20.501 61.7405 6.06652 59.1154 4.30659C56.8265 2.7729 53.4311 3.53923 49.4991 5.24297Z" fill="url(#paint2_linear_404_91270)"/>
<path d="M42.5466 32.5623C42.3777 34.3916 40.758 35.7375 38.9292 35.5687C37.0999 35.3998 35.7546 33.7802 35.9228 31.9513C36.0916 30.1226 37.7114 28.7762 39.5402 28.945C41.3695 29.1138 42.7154 30.7335 42.5466 32.5623Z" fill="url(#paint3_radial_404_91270)"/>
<path d="M57.5417 33.9461C57.3728 35.7754 55.7531 37.1213 53.9243 36.9525C52.095 36.7836 50.7492 35.1639 50.9179 33.3351C51.0868 31.5058 52.7065 30.16 54.5353 30.3287C56.3646 30.4976 57.7105 32.1173 57.5417 33.9461Z" fill="url(#paint4_radial_404_91270)"/>
<path d="M44.5847 26.3251C44.5001 27.2414 43.689 27.9152 42.7728 27.8305C41.8566 27.7459 41.1828 26.9348 41.2669 26.0186C41.3515 25.1023 42.1626 24.4285 43.0789 24.5126C43.9955 24.5979 44.6694 25.4089 44.5847 26.3251Z" fill="#64332C"/>
<path d="M54.0389 27.1982C53.9543 28.1144 53.1432 28.7883 52.2269 28.7041C51.3107 28.6195 50.6369 27.8084 50.721 26.8921C50.8056 25.9759 51.6167 25.3021 52.533 25.3862C53.4492 25.4709 54.1236 26.282 54.0389 27.1982Z" fill="#64332C"/>
<path d="M29.1319 23.8524C28.4997 25.2725 28.8903 26.9163 29.2903 28.419C29.4093 28.8653 29.5433 29.3382 29.8854 29.6485C30.2275 29.9587 30.8499 30.0048 31.1053 29.6199C31.3525 29.2478 31.1311 28.759 30.9628 28.3454C30.7944 27.9317 30.7484 27.3393 31.1536 27.1511C31.3422 27.0636 31.568 27.1044 31.7635 27.0333C32.1891 26.8789 32.2642 26.3128 32.2225 25.8623C32.1648 25.2389 32.0212 24.6233 31.7965 24.0392C31.5761 23.4658 31.1869 22.8563 30.5769 22.7825C29.9386 22.7049 29.3933 23.2657 29.1319 23.8524Z" fill="url(#paint5_linear_404_91270)"/>
<path d="M48.9115 13.2239C47.9273 14.91 46.7594 16.3402 45.4292 17.5747C38.7589 17.7738 32.3245 15.9795 27.3388 13.9948C27.808 13.1861 28.302 12.3602 28.8056 11.5457C34.8522 13.402 42.0215 13.8432 48.9115 13.2239ZM61.9497 10.6631C58.66 11.7139 54.989 12.5061 51.1823 12.9808C52.4327 14.0962 53.942 15.0436 55.5378 15.9167C58.0093 15.2289 60.4038 14.3811 62.6491 13.4668C62.4351 12.5354 62.2008 11.5847 61.9497 10.6631Z" fill="url(#paint6_linear_404_91270)"/>
<path d="M49.7891 36.2376C49.8072 36.275 49.454 36.4126 48.8141 36.4769C48.7336 36.4835 48.6498 36.49 48.5621 36.4971C48.4741 36.5032 48.381 36.5009 48.2853 36.5026C48.0936 36.5091 47.887 36.4934 47.6689 36.4796C47.233 36.4388 46.7518 36.3581 46.2584 36.2205C45.7661 36.0779 45.3129 35.8933 44.9185 35.6983C44.7247 35.5948 44.5391 35.4993 44.378 35.3922C44.2968 35.3401 44.2156 35.2929 44.1434 35.2415C44.0719 35.1893 44.0029 35.1389 43.9374 35.0909C43.4139 34.6929 43.1902 34.3963 43.22 34.3705C43.2606 34.3341 43.5718 34.5899 44.0989 34.9149C44.1657 34.9556 44.2361 34.9982 44.309 35.0422C44.382 35.0862 44.463 35.1259 44.5434 35.1707C44.7028 35.2629 44.8845 35.3443 45.071 35.4355C45.4513 35.6058 45.8803 35.7705 46.3438 35.905C46.8084 36.0343 47.259 36.119 47.6701 36.174C47.8756 36.1944 48.0719 36.2203 48.2548 36.2252C48.3461 36.2293 48.4353 36.238 48.5199 36.2388C48.6046 36.2392 48.6865 36.2399 48.7642 36.2403C49.3854 36.2389 49.7672 36.1858 49.7891 36.2376Z" fill="#DC856F"/>
<path d="M10.7227 78.3574C10.3967 81.6508 10.2753 95.2959 10.2753 95.2959C10.804 108.845 12.9128 126.014 13.9217 127.997C15.2665 130.641 16.1246 132.045 17.9122 130.632C19.6991 129.22 21.0381 132.328 22.2822 130.891C23.5268 129.453 25.5754 132.77 26.1825 130.743C26.7896 128.716 23.3531 125.651 23.3531 125.651C23.3531 125.651 25.0391 122.005 19.3758 120.606C14.3152 119.356 23.0206 102.616 21.4093 92.9532C20.8149 89.3884 22.3147 81.1632 22.3316 81.0121C22.6496 78.1856 10.7227 78.3574 10.7227 78.3574Z" fill="#FDBD8E"/>
<path d="M18.1387 55.1719C13.2232 59.1731 9.31701 78.9309 9.31701 78.9309C9.31701 78.9309 14.1677 84.0682 23.1546 81.8292C23.1546 81.8292 26.516 48.3529 18.1387 55.1719Z" fill="#EB8F3C"/>
<defs>
<linearGradient id="paint0_linear_404_91270" x1="27.1209" y1="36.3305" x2="34.5354" y2="14.669" gradientUnits="userSpaceOnUse">
<stop stop-color="#522A22"/>
<stop offset="0.0324" stop-color="#532A22"/>
<stop offset="1" stop-color="#64332C"/>
</linearGradient>
<linearGradient id="paint1_linear_404_91270" x1="52.8871" y1="23.0279" x2="43.3855" y2="15.8349" gradientUnits="userSpaceOnUse">
<stop stop-color="#DF9B7E"/>
<stop offset="1" stop-color="#DF9B7E" stop-opacity="0.6"/>
</linearGradient>
<linearGradient id="paint2_linear_404_91270" x1="38.6653" y1="40.2814" x2="46.0797" y2="18.6198" gradientUnits="userSpaceOnUse">
<stop stop-color="#522A22"/>
<stop offset="0.0324" stop-color="#532A22"/>
<stop offset="1" stop-color="#64332C"/>
</linearGradient>
<radialGradient id="paint3_radial_404_91270" cx="0" cy="0" r="1" gradientUnits="userSpaceOnUse" gradientTransform="translate(39.2348 32.257) rotate(-174.73) scale(3.32582)">
<stop stop-color="#DF9B7E" stop-opacity="0.7"/>
<stop offset="1" stop-color="#DF9B7E" stop-opacity="0"/>
</radialGradient>
<radialGradient id="paint4_radial_404_91270" cx="0" cy="0" r="1" gradientUnits="userSpaceOnUse" gradientTransform="translate(54.2298 33.6406) rotate(-174.73) scale(3.32582 3.32582)">
<stop stop-color="#DF9B7E" stop-opacity="0.7"/>
<stop offset="1" stop-color="#DF9B7E" stop-opacity="0"/>
</radialGradient>
<linearGradient id="paint5_linear_404_91270" x1="31.6668" y1="27.2161" x2="29.3951" y2="25.4963" gradientUnits="userSpaceOnUse">
<stop stop-color="#DF9B7E"/>
<stop offset="1" stop-color="#DF9B7E" stop-opacity="0.6"/>
</linearGradient>
<linearGradient id="paint6_linear_404_91270" x1="45.0906" y1="17.8938" x2="44.8805" y2="8.86449" gradientUnits="userSpaceOnUse">
<stop stop-color="#F2E6D7" stop-opacity="0.2"/>
<stop offset="1" stop-color="#F2E6D7" stop-opacity="0"/>
</linearGradient>
</defs>
</svg>
