<svg width="80" height="61" viewBox="0 0 80 61" fill="none" xmlns="http://www.w3.org/2000/svg">
<path d="M61.9131 0H0V60.5026H61.9131V0Z" fill="#C78B5B"/>
<path d="M79.0571 0H17.6895V60.5026H79.0571V0Z" fill="#E5BE84"/>
<path d="M56.6056 0H40.1396V15.5675H56.6056V0Z" fill="#EAD1B7"/>
<path d="M56.6056 44.9351H40.1396V60.5028H56.6056V44.9351Z" fill="#EAD1B7"/>
<path d="M36.5508 48.0967H20.6299V57.7163H36.5508V48.0967Z" fill="#F7EEE5"/>
<path d="M23.047 49.4458H21.3574V56.3674H23.047V49.4458Z" fill="#444248"/>
<path d="M24.6659 49.4458H24.0732V56.3674H24.6659V49.4458Z" fill="#444248"/>
<path d="M28.4774 49.4458H27.0923V56.3674H28.4774V49.4458Z" fill="#444248"/>
<path d="M26.1918 49.4458H25.3472V56.3674H26.1918V49.4458Z" fill="#444248"/>
<path d="M30.086 49.4458H29.5137V56.3674H30.086V49.4458Z" fill="#444248"/>
<path d="M33.3642 49.4458H32.2192V56.3674H33.3642V49.4458Z" fill="#444248"/>
<path d="M34.3261 49.4458H33.7578V56.3674H34.3261V49.4458Z" fill="#444248"/>
<path d="M31.7065 49.4458H30.9219V56.3674H31.7065V49.4458Z" fill="#444248"/>
<path d="M35.7803 49.4458H34.9351V56.3674H35.7803V49.4458Z" fill="#444248"/>
</svg>
