<svg width="132" height="125" viewBox="0 0 132 125" fill="none" xmlns="http://www.w3.org/2000/svg">
<g style="mix-blend-mode:multiply" opacity="0.32">
<path d="M131.269 112.28C131.269 119.096 101.985 124.621 65.8614 124.621C29.738 124.621 0.454102 119.096 0.454102 112.28C0.454102 105.464 29.738 99.939 65.8614 99.939C101.985 99.939 131.269 105.464 131.269 112.28Z" fill="#7B8495"/>
</g>
<path d="M25.5865 22.5195H22.0698V9.62831C22.0698 7.00659 20.7553 3.93371 17.769 3.93371H10.9805V0.00635316H17.769C19.7528 -0.0752146 21.6882 0.631321 23.1529 1.97177C24.6175 3.31221 25.4924 5.17765 25.5865 7.16087V22.5195Z" fill="#444248"/>
<path d="M29.3739 92.6061V11.8467H20.3008V92.6061V101.943H25.9036H110.694V92.6061H29.3739Z" fill="#444248"/>
<path d="M29.5298 103.111C29.5296 105.419 28.8449 107.676 27.5622 109.596C26.2796 111.515 24.4565 113.011 22.3236 113.894C20.1907 114.778 17.8438 115.009 15.5796 114.558C13.3154 114.108 11.2356 112.996 9.60323 111.364C7.97085 109.731 6.8592 107.651 6.40884 105.387C5.95848 103.123 6.18964 100.776 7.0731 98.6432C7.95655 96.5104 9.45262 94.6874 11.3721 93.4048C13.2916 92.1222 15.5484 91.4375 17.8569 91.4375C19.3899 91.4375 20.9078 91.7395 22.324 92.3262C23.7403 92.9128 25.0271 93.7727 26.111 94.8567C27.1949 95.9406 28.0547 97.2275 28.6413 98.6438C29.2279 100.06 29.5298 101.578 29.5298 103.111Z" fill="#444248"/>
<path d="M23.6931 103.111C23.693 104.265 23.3507 105.393 22.7094 106.353C22.0681 107.313 21.1565 108.061 20.0901 108.502C19.0237 108.944 17.8502 109.06 16.7181 108.834C15.5859 108.609 14.546 108.053 13.7298 107.237C12.9136 106.421 12.3578 105.381 12.1326 104.249C11.9075 103.117 12.0231 101.943 12.4648 100.877C12.9065 99.8103 13.6546 98.8988 14.6144 98.2575C15.5741 97.6162 16.7025 97.2739 17.8568 97.2739C19.4047 97.274 20.8892 97.8889 21.9837 98.9835C23.0782 100.078 23.6931 101.563 23.6931 103.111Z" fill="#CED1D7"/>
<path d="M98.0267 31.25H39.314V89.1351H98.0267V31.25Z" fill="#E5BE84"/>
<path d="M76.5472 31.25H60.7935V46.1444H76.5472V31.25Z" fill="#EAD1B7"/>
<path d="M76.5467 74.2412H60.793V89.1355H76.5467V74.2412Z" fill="#EAD1B7"/>
<path d="M57.3592 77.2661H42.1274V86.4695H57.3592V77.2661Z" fill="#F7EEE5"/>
<path d="M44.4397 78.5571H42.8232V85.1793H44.4397V78.5571Z" fill="#444248"/>
<path d="M45.9878 78.5571H45.4209V85.1793H45.9878V78.5571Z" fill="#444248"/>
<path d="M49.6357 78.5571H48.3105V85.1793H49.6357V78.5571Z" fill="#444248"/>
<path d="M47.4482 78.5571H46.6401V85.1793H47.4482V78.5571Z" fill="#444248"/>
<path d="M51.1749 78.5571H50.627V85.1793H51.1749V78.5571Z" fill="#444248"/>
<path d="M54.3107 78.5571H53.2153V85.1793H54.3107V78.5571Z" fill="#444248"/>
<path d="M55.2305 78.5571H54.6865V85.1793H55.2305V78.5571Z" fill="#444248"/>
<path d="M52.725 78.5571H51.9741V85.1793H52.725V78.5571Z" fill="#444248"/>
<path d="M56.6216 78.5571H55.813V85.1793H56.6216V78.5571Z" fill="#444248"/>
<path d="M90.473 6.72607H46.8677V31.2508H90.473V6.72607Z" fill="#E5BE84"/>
<path d="M74.5201 6.72607H62.8198V12.257H74.5201V6.72607Z" fill="#EAD1B7"/>
<path d="M87.8596 22.4355H76.5474V29.2708H87.8596V22.4355Z" fill="#F7EEE5"/>
<path d="M78.2652 23.3936H77.0645V28.3117H78.2652V23.3936Z" fill="#444248"/>
<path d="M79.4152 23.3936H78.9941V28.3117H79.4152V23.3936Z" fill="#444248"/>
<path d="M82.124 23.3936H81.1396V28.3117H82.124V23.3936Z" fill="#444248"/>
<path d="M80.4992 23.3936H79.8989V28.3117H80.4992V23.3936Z" fill="#444248"/>
<path d="M83.2671 23.3936H82.8604V28.3117H83.2671V23.3936Z" fill="#444248"/>
<path d="M85.5967 23.3936H84.7832V28.3117H85.5967V23.3936Z" fill="#444248"/>
<path d="M86.2795 23.3936H85.8755V28.3117H86.2795V23.3936Z" fill="#444248"/>
<path d="M84.4179 23.3936H83.8604V28.3117H84.4179V23.3936Z" fill="#444248"/>
<path d="M87.3124 23.3936H86.7119V28.3117H87.3124V23.3936Z" fill="#444248"/>
<path d="M117.546 89.1357H32.6182V105.539H117.546V89.1357Z" fill="#444248"/>
</svg>
