<svg width="146" height="182" viewBox="0 0 146 182" fill="none" xmlns="http://www.w3.org/2000/svg">
<g filter="url(#filter0_d_192_50312)">
<path d="M104.298 55.7181C107.218 50.7534 105.561 44.3616 100.596 41.4414C95.6316 38.5212 89.2398 40.1786 86.3196 45.1432L50.0002 106.89C48.196 109.957 47.3153 113.48 47.4638 117.036C47.6082 120.492 46.752 123.917 44.9982 126.899L40.6336 134.319C39.35 136.501 40.0785 139.311 42.2608 140.594C44.4511 141.883 47.2715 141.144 48.5484 138.947L52.6884 131.823C54.4003 128.878 56.9141 126.48 59.9367 124.908L60.5009 124.615C63.5811 123.013 66.148 120.577 67.9081 117.585L104.298 55.7181Z" fill="#AECCDC"/>
<path opacity="0.38" d="M44.9064 140.155L41.3802 138.081C40.9209 137.81 40.7675 137.219 41.0376 136.76L92.6063 49.0872C92.8765 48.6279 93.4679 48.4745 93.9272 48.7447L97.4534 50.8188C97.9128 51.089 98.0662 51.6803 97.796 52.1397L46.2273 139.812C45.9571 140.271 45.3657 140.425 44.9064 140.155Z" fill="white"/>
<path d="M45.3162 137.153L43.805 136.264C43.6081 136.148 43.5425 135.895 43.6582 135.698L70.7117 89.704C70.8274 89.5071 71.0809 89.4414 71.2777 89.5571L72.7889 90.446C72.9858 90.5618 73.0515 90.8153 72.9358 91.0121L45.8823 137.006C45.7665 137.203 45.5131 137.269 45.3162 137.153Z" fill="#AD3851"/>
<path d="M83.8161 60.5099L79.4724 57.9549C79.3412 57.8777 79.2973 57.7087 79.3746 57.5775L79.9672 56.5701C80.0444 56.4388 80.2134 56.395 80.3446 56.4721L84.6883 59.0272C84.8195 59.1043 84.8634 59.2733 84.7862 59.4045L84.1935 60.412C84.1163 60.5432 83.9474 60.587 83.8161 60.5099Z" fill="#2E4661"/>
<path d="M73.2961 78.3955L68.9524 75.8406C68.8212 75.7635 68.7773 75.5945 68.8545 75.4632L69.4471 74.4558C69.5243 74.3246 69.6933 74.2807 69.8245 74.3579L74.1682 76.9129C74.2994 76.9901 74.3433 77.159 74.266 77.2903L73.6733 78.2977C73.5963 78.4289 73.4273 78.4727 73.2961 78.3955Z" fill="#2E4661"/>
<path d="M62.7755 96.2813L58.4318 93.7264C58.3006 93.6492 58.2568 93.4802 58.3341 93.349L58.9267 92.3416C59.0039 92.2103 59.1729 92.1665 59.3041 92.2436L63.6478 94.7986C63.779 94.8758 63.8228 95.0448 63.7456 95.176L63.153 96.1836C63.0757 96.3147 62.9068 96.3584 62.7755 96.2813Z" fill="#2E4661"/>
<g opacity="0.66">
<path d="M101.606 56.2557C103.011 53.8104 103.885 50.8783 103.005 48.0937C102.163 45.4288 100.014 43.5405 97.5429 42.3821C96.3005 41.7998 95.1982 43.6475 96.4526 44.2355C98.3921 45.1445 100.239 46.5131 100.924 48.6333C101.649 50.8803 100.883 53.1984 99.753 55.1654C99.0643 56.3647 100.916 57.458 101.606 56.2557Z" fill="white"/>
<path d="M99.8077 59.3132C99.4766 59.8762 98.7517 60.0642 98.1887 59.733C97.6257 59.4019 97.4378 58.677 97.7689 58.114C98.1001 57.551 98.8249 57.3631 99.3879 57.6942C99.951 58.0254 100.139 58.7502 99.8077 59.3132Z" fill="white"/>
</g>
</g>
<defs>
<filter id="filter0_d_192_50312" x="0" y="0" width="145.739" height="181.228" filterUnits="userSpaceOnUse" color-interpolation-filters="sRGB">
<feFlood flood-opacity="0" result="BackgroundImageFix"/>
<feColorMatrix in="SourceAlpha" type="matrix" values="0 0 0 0 0 0 0 0 0 0 0 0 0 0 0 0 0 0 127 0" result="hardAlpha"/>
<feOffset/>
<feGaussianBlur stdDeviation="20"/>
<feComposite in2="hardAlpha" operator="out"/>
<feColorMatrix type="matrix" values="0 0 0 0 1 0 0 0 0 0.960784 0 0 0 0 0.00392157 0 0 0 1 0"/>
<feBlend mode="normal" in2="BackgroundImageFix" result="effect1_dropShadow_192_50312"/>
<feBlend mode="normal" in="SourceGraphic" in2="effect1_dropShadow_192_50312" result="shape"/>
</filter>
</defs>
</svg>
