<svg width="124" height="160" viewBox="0 0 124 160" fill="none" xmlns="http://www.w3.org/2000/svg">
<g filter="url(#filter0_d_201_422677)">
<path d="M82.0964 66.291C82.0964 66.291 69.0784 67.093 62.3404 67.093C55.6034 67.093 42.9084 66.291 42.9084 66.291C42.9084 66.291 42.6535 65.978 43.9315 82.018C45.2105 98.059 47.3884 118.587 47.3884 118.587C57.4278 119.802 67.5771 119.802 77.6164 118.587C77.6164 118.587 80.0834 89.021 80.7324 81.444C81.3814 73.868 82.0964 66.291 82.0964 66.291Z" fill="#FAFBFB"/>
<path d="M65.7228 82.7294C65.2322 83.0773 64.8886 83.5953 64.759 84.1826C64.6294 84.7699 64.7231 85.3844 65.0218 85.9064L68.9837 92.8464C68.9965 92.8685 69.0137 92.8877 69.0343 92.9028C69.055 92.9179 69.0785 92.9285 69.1034 92.9339C69.1284 92.9394 69.1542 92.9396 69.1792 92.9345C69.2042 92.9294 69.2279 92.9192 69.2487 92.9044C69.7393 92.5566 70.0829 92.0386 70.2125 91.4513C70.3421 90.864 70.2484 90.2494 69.9498 89.7274L65.9888 82.7864C65.9758 82.7644 65.9584 82.7452 65.9377 82.7303C65.9169 82.7153 65.8933 82.7048 65.8683 82.6994C65.8433 82.694 65.8175 82.694 65.7924 82.6991C65.7673 82.7043 65.7437 82.7146 65.7228 82.7294Z" fill="#EC7423"/>
<path d="M61.7638 82.7294C61.2732 83.0773 60.9296 83.5953 60.8 84.1826C60.6704 84.7699 60.7641 85.3844 61.0628 85.9064L65.0248 92.8464C65.0375 92.8686 65.0548 92.8878 65.0754 92.9029C65.096 92.9179 65.1195 92.9286 65.1445 92.934C65.1694 92.9395 65.1952 92.9397 65.2202 92.9346C65.2452 92.9295 65.2689 92.9192 65.2897 92.9044C65.7803 92.5566 66.1239 92.0386 66.2535 91.4513C66.3831 90.864 66.2894 90.2494 65.9908 89.7274L62.0298 82.7874C62.017 82.7652 61.9997 82.7459 61.979 82.7308C61.9583 82.7157 61.9347 82.705 61.9097 82.6996C61.8846 82.6941 61.8587 82.6939 61.8335 82.699C61.8084 82.7042 61.7847 82.7146 61.7638 82.7294Z" fill="#EC7423"/>
<path d="M60.6773 92.7571C61.2603 92.5092 61.7221 92.0415 61.9625 91.4553C62.2029 90.8692 62.2024 90.2119 61.9613 89.626C61.8443 89.3364 61.671 89.0728 61.4515 88.8506C61.2319 88.6284 60.9705 88.4519 60.6822 88.3314C60.394 88.2108 60.0848 88.1487 59.7724 88.1484C59.46 88.1482 59.1507 88.2099 58.8623 88.33C58.2792 88.5775 57.8173 89.0451 57.5771 89.6312C57.3368 90.2173 57.3376 90.8745 57.5793 91.4601C57.6962 91.7497 57.8694 92.0133 58.0888 92.2355C58.3082 92.4578 58.5696 92.6343 58.8577 92.7549C59.1458 92.8756 59.4549 92.9379 59.7673 92.9382C60.0796 92.9386 60.3889 92.877 60.6773 92.7571Z" fill="#F04A27"/>
<path d="M82.0964 66.291C82.0954 66.298 82.0844 66.411 82.0654 66.617C82.0754 66.5081 82.0854 66.4 82.0964 66.291ZM81.1635 76.5C81.0224 78.0941 80.8754 79.769 80.7314 81.444C80.2174 87.445 78.5635 107.236 77.8975 115.212H77.9024C79.3814 97.47 80.3244 86.2203 80.7314 81.463C80.8734 79.809 81.0175 78.1547 81.1635 76.5Z" fill="#D7D7D7"/>
<path d="M77.8972 115.211C77.7272 117.247 77.6212 118.512 77.6152 118.583L77.6212 118.585L77.6642 118.06C77.7442 117.093 77.8232 116.144 77.9012 115.212L77.8972 115.211ZM77.4132 118.612C72.4638 119.195 67.4848 119.491 62.5012 119.498H62.3002C62.2532 119.521 62.2062 119.543 62.1592 119.563H62.5012C67.3919 119.589 72.2793 119.305 77.1342 118.713L77.4132 118.612Z" fill="#C9C9C9"/>
<path d="M82.0958 66.291C76.6538 66.626 72.0351 66.8564 68.2398 66.982C68.4108 74.392 68.4388 81.024 68.3238 86.878L69.9498 89.727C70.2485 90.249 70.3422 90.8635 70.2126 91.4508C70.083 92.0381 69.7395 92.5562 69.2488 92.904C69.2175 92.9261 69.1802 92.938 69.1418 92.938C69.1097 92.9381 69.0781 92.9296 69.0504 92.9134C69.0226 92.8972 68.9997 92.874 68.9838 92.846L68.1998 91.472C67.5998 108.488 65.6138 117.839 62.2998 119.498H62.5018C67.4855 119.491 72.4645 119.195 77.4139 118.612L77.5599 118.559L77.6158 118.583C77.6218 118.512 77.7269 117.247 77.8969 115.212C78.5629 107.236 80.2179 87.444 80.7319 81.444C80.8749 79.769 81.0218 78.093 81.1628 76.5C81.4548 73.2049 81.7555 69.9103 82.0649 66.616C82.0849 66.41 82.0948 66.298 82.0958 66.291Z" fill="#E8E8E8"/>
<path d="M68.2383 66.8994L68.2393 66.9684C68.2383 66.9464 68.2383 66.9214 68.2383 66.8994Z" fill="#D7D7D7"/>
<path d="M68.3242 86.8779C68.2932 88.467 68.2519 89.9983 68.2002 91.472L68.9842 92.8459C69 92.8739 69.023 92.8972 69.0508 92.9133C69.0785 92.9295 69.1101 92.938 69.1422 92.938C69.1805 92.9379 69.2179 92.926 69.2492 92.9039C69.7398 92.556 70.0834 92.038 70.213 91.4507C70.3425 90.8635 70.2489 90.2489 69.9502 89.7269L68.3242 86.8779Z" fill="#E5A579"/>
<path d="M61.6981 40.0993C67.2936 40.102 72.8785 40.5858 78.3911 41.5453C79.486 44.6583 80.3494 47.848 80.9741 51.0883C81.5539 54.142 81.8787 57.2387 81.9451 60.3463H42.6191C42.8243 56.7993 43.2319 53.2668 43.8401 49.7663C44.3755 46.9629 45.1561 44.212 46.1731 41.5453C51.2874 40.5501 56.488 40.0657 61.6981 40.0993Z" fill="#F1F0F0"/>
<path d="M60.9637 62.6831L63.3637 62.6801C73.9607 62.6521 82.3347 62.2651 82.3347 57.1901L82.3317 56.2021C82.2957 52.2291 81.7887 46.3281 74.6847 46.3281C65.4657 46.3281 66.1197 50.5841 57.3677 50.6721L56.2097 50.6751C50.3207 50.7001 46.1546 51.0041 43.5636 52.4431C41.3796 53.6561 42.9587 55.6121 43.0077 58.2741L43.0087 58.3991C43.0087 65.9691 49.6257 62.7481 60.9637 62.6831Z" fill="white"/>
<path fill-rule="evenodd" clip-rule="evenodd" d="M56.3512 50.3364L55.7501 50.6174C55.7501 50.6174 55.4822 50.7824 55.6862 51.1364C55.7602 51.2644 56.1121 51.8634 56.1121 51.8634L57.2681 51.5394L56.5791 50.7304L56.3512 50.3364ZM45.9392 53.2244L46.1591 53.8604C46.1591 53.8604 46.3342 54.1234 47.1292 53.6644C47.4182 53.4974 48.7672 52.7124 48.7672 52.7124V51.3694L46.8272 52.7114L45.9392 53.2244ZM76.8081 55.7344L75.3792 55.7454L75.3681 55.4254C75.3681 55.4254 74.9371 55.0134 74.9271 54.7064C74.9161 54.4004 77.6712 55.1964 77.6812 55.4824C77.6912 55.7684 76.8081 55.7344 76.8081 55.7344ZM71.8742 51.8174L73.3032 51.8334C73.3032 51.8334 74.1881 51.9104 74.1721 51.4324C74.1551 50.9554 71.3792 49.5664 71.3972 50.0764C71.4644 50.5064 71.6203 50.9178 71.8551 51.2843L71.8742 51.8174ZM51.5922 53.7244L51.6872 54.3334L51.1722 54.4714C50.8108 54.6709 50.4306 54.8343 50.0372 54.9594C49.5442 55.0914 50.6762 53.5784 51.1372 53.4554C51.5992 53.3314 51.5922 53.7244 51.5922 53.7244ZM66.3572 53.0634L66.7192 52.1543C66.7192 52.1543 66.7681 51.4763 68.0142 52.3163C68.5341 52.6248 69.0172 52.9915 69.4542 53.4093L71.1892 54.1923C71.1892 54.1923 71.9752 57.0713 70.6432 56.1723C69.3112 55.2743 67.7483 54.0013 67.7483 54.0013L66.3572 53.0634ZM49.8931 57.6424L51.1492 56.5174L51.3362 56.7184C51.3362 56.7184 51.0892 57.1554 51.2681 57.3474C51.1632 57.8262 50.9173 58.2626 50.5622 58.6004C50.2114 58.8705 49.8132 59.0726 49.3881 59.1964L49.5921 58.5864C49.5342 58.6095 49.4703 58.6127 49.4104 58.5955C49.3505 58.5783 49.298 58.5416 49.2611 58.4914C49.0931 58.3114 49.8931 57.6424 49.8931 57.6424ZM55.0941 53.7174L56.0951 54.0813C56.0951 54.0813 56.7012 54.3413 56.7832 54.0883C56.8662 53.8343 56.7761 53.7493 56.7761 53.7493L57.2182 53.5423C57.0662 53.281 56.846 53.066 56.5811 52.9204C56.416 52.8812 56.2445 52.877 56.0777 52.908C55.9108 52.939 55.7522 53.0045 55.6121 53.1004C55.5731 53.1863 55.5139 53.2615 55.4396 53.3197C55.3653 53.3779 55.278 53.4172 55.1851 53.4344L55.0941 53.7174ZM61.1131 54.6073L60.5332 54.3473L60.7022 53.8253C60.9032 53.6203 61.05 53.3683 61.1292 53.0923C61.1812 52.9323 61.7001 52.3233 61.8861 52.4253C62.0871 52.5343 62.1131 53.2643 62.1131 53.2643L61.7212 53.7833C61.7254 53.9838 61.6848 54.1826 61.6021 54.3653C61.4501 54.8333 61.1131 54.6073 61.1131 54.6073ZM80.5802 58.3103L80.3231 57.7283C80.3231 57.7283 80.2252 57.3343 79.7992 57.5803C79.3732 57.8263 79.3201 57.9333 79.3201 57.9333L78.6821 58.0573C78.6821 58.0573 78.2121 58.6172 78.2891 58.8322C78.3602 59.0322 79.1521 58.9273 79.2981 58.8433C79.5417 58.6917 79.8189 58.6028 80.1051 58.5843L80.5802 58.3103ZM44.5861 55.5513L45.1552 55.0893L45.5861 55.5212C45.9933 55.7615 46.3749 56.0427 46.7251 56.3603C47.1381 56.7733 45.3952 57.2332 45.3952 57.2332L45.0861 56.5782C45.0861 56.5782 44.9542 56.5542 44.5672 56.1682C44.1812 55.7822 44.5861 55.5513 44.5861 55.5513ZM58.2761 56.6823L57.7881 56.7353C57.7881 56.7353 57.1921 56.3022 57.0431 56.9772C56.9844 57.1641 56.9889 57.3651 57.0559 57.5491C57.123 57.7332 57.2489 57.8899 57.4141 57.9952C57.4681 58.0442 57.5241 58.0952 57.5801 58.1512L58.2311 58.8032L59.0121 59.0811C59.0121 59.0811 60.1611 58.8321 60.1701 58.5751C60.1721 58.5121 60.0511 58.5081 59.8821 58.5011C59.5813 58.5231 59.2827 58.435 59.0421 58.2531C58.7952 57.9073 58.6627 57.493 58.6631 57.0681L58.2761 56.6823ZM78.3321 49.2913L78.7281 49.0252C78.7281 49.0252 79.4591 49.1192 79.2541 48.4832C79.2083 48.2954 79.1036 48.1271 78.9553 48.003C78.8071 47.8789 78.623 47.8054 78.4301 47.7932C78.3601 47.7762 78.2861 47.7582 78.2101 47.7362L77.3241 47.4822L76.5101 47.6023C76.5101 47.6023 75.6401 48.3333 75.7591 48.5533C75.8311 48.6883 76.8411 49.7623 76.8411 49.7623L77.8071 49.1413L78.3321 49.2913ZM70.2371 47.3912L70.3721 48.0432L69.7251 48.2662L68.3061 48.9583L68.3501 47.7133C68.3501 47.7133 69.3321 47.3692 69.5431 47.2972C70.1221 47.0972 70.2371 47.3912 70.2371 47.3912Z" fill="#73381F"/>
<path d="M40.6719 58.0093C47.9022 58.9671 55.1838 59.4871 62.4769 59.5663C69.6408 59.4975 76.7933 58.9775 83.8918 58.0093V63.4603C83.8918 63.4603 69.8089 64.6283 62.4769 64.6283C55.1439 64.6283 40.6719 63.4603 40.6719 63.4603V58.0093Z" fill="#F1F1F1"/>
<path d="M61.6979 40.0015C67.0966 40.003 72.4875 40.4075 77.8259 41.2115L78.5269 41.3195L79.0269 41.3975L79.2089 41.8705C80.3165 44.7155 81.1933 47.6449 81.8309 50.6305C82.3868 53.2728 82.7134 55.9581 82.8069 58.6565L82.8209 59.1575L81.0689 59.1985C81.0035 56.4388 80.6845 53.6909 80.116 50.9895C79.5722 48.4332 78.8439 45.9196 77.937 43.4685L77.754 42.9736L77.5659 42.9445C72.5413 42.1878 67.4691 41.7908 62.3879 41.7565L61.698 41.7535C56.8806 41.7287 52.0694 42.1037 47.314 42.8746L46.799 42.9625L46.6331 43.3795C45.862 45.3235 45.2457 47.3254 44.79 49.3665L44.6981 49.7945C44.1183 52.797 43.7249 55.8325 43.52 58.8835L43.4921 59.2435L41.7451 59.1116L41.8031 58.3825C42.0148 55.3791 42.4089 52.3912 42.9831 49.4355C43.4995 46.9933 44.2351 44.6026 45.1811 42.2926L45.3651 41.8465L45.5481 41.4075L46.0161 41.3235C51.1931 40.4129 56.4415 39.9704 61.6979 40.0015Z" fill="#F1F1F1"/>
</g>
<defs>
<filter id="filter0_d_201_422677" x="0.671875" y="0" width="123.22" height="159.565" filterUnits="userSpaceOnUse" color-interpolation-filters="sRGB">
<feFlood flood-opacity="0" result="BackgroundImageFix"/>
<feColorMatrix in="SourceAlpha" type="matrix" values="0 0 0 0 0 0 0 0 0 0 0 0 0 0 0 0 0 0 127 0" result="hardAlpha"/>
<feOffset/>
<feGaussianBlur stdDeviation="20"/>
<feComposite in2="hardAlpha" operator="out"/>
<feColorMatrix type="matrix" values="0 0 0 0 1 0 0 0 0 0.960784 0 0 0 0 0.00392157 0 0 0 1 0"/>
<feBlend mode="normal" in2="BackgroundImageFix" result="effect1_dropShadow_201_422677"/>
<feBlend mode="normal" in="SourceGraphic" in2="effect1_dropShadow_201_422677" result="shape"/>
</filter>
</defs>
</svg>
