<svg width="86" height="129" viewBox="0 0 86 129" fill="none" xmlns="http://www.w3.org/2000/svg">
<path d="M41.3107 68.1401C41.3107 68.1401 34.2085 65.618 35.8334 59.8569C37.4583 54.0958 41.7505 54.4158 46.182 55.7964C50.6135 57.1769 55.2425 57.3396 55.6482 57.1769C51.6693 65.46 52.156 67.5716 46.7966 68.1401C41.4372 68.7085 41.3107 68.1401 41.3107 68.1401Z" fill="#5CAA2E"/>
<path d="M39.4873 29.1604C39.4873 29.1604 34.1279 28.3483 26.8189 21.121C19.5099 13.8936 19.3478 5.20409 18.373 3.09314C24.7883 2.68742 34.8583 2.68742 38.9189 13.9753C42.9794 25.2625 39.4873 29.1604 39.4873 29.1604Z" fill="#5CAA2E"/>
<path d="M39.975 27.1614C39.9168 26.6278 39.7133 25.9944 39.505 25.4227C39.2828 24.8409 39.0317 24.2651 38.7452 23.7047C38.1781 22.5806 37.528 21.4927 36.823 20.4389C35.413 18.3306 33.8049 16.3502 32.1204 14.4428C30.4279 12.5407 28.6389 10.7203 26.7168 9.04854C25.7574 8.21166 24.7625 7.41294 23.7154 6.68585C22.6683 5.96546 21.5837 5.27319 20.3906 4.81592C21.5937 5.24842 22.6951 5.91993 23.7596 6.62024C24.8241 7.32724 25.8391 8.10721 26.8192 8.92736C28.7829 10.565 30.616 12.3546 32.3547 14.2285C34.0934 16.1025 35.7645 18.0487 37.2475 20.147C37.9893 21.1954 38.6795 22.2834 39.2915 23.4222C39.8867 24.5818 40.4571 25.7146 40.6887 27.1179L39.975 27.1614Z" fill="#506815"/>
<path d="M23.6879 3.23438C24.3868 3.90991 24.9057 4.75349 25.3235 5.63121C25.7259 6.51831 26.0144 7.45696 26.1945 8.41435L26.2193 8.54692L26.086 8.51612C25.6194 8.40833 25.1179 8.43779 24.6305 8.49336C24.1411 8.55227 23.6537 8.64332 23.1697 8.75112C22.2029 8.97205 21.2442 9.24387 20.2988 9.55653C21.2234 9.18496 22.1694 8.8656 23.1382 8.62056C23.6209 8.49135 24.1137 8.39895 24.6111 8.33334C25.1079 8.27175 25.6174 8.23225 26.1276 8.34405L26.0198 8.44582C25.9247 7.97449 25.8256 7.50382 25.6843 7.04387C25.5531 6.58057 25.375 6.13334 25.1949 5.68812C25.0028 5.24691 24.7865 4.81642 24.5361 4.40467C24.2898 3.99159 24.0179 3.58921 23.6879 3.23438Z" fill="#506815"/>
<path d="M27.6715 4.229C28.2861 4.53497 28.726 5.10606 29.0527 5.69991C29.3647 6.30849 29.587 6.96528 29.7062 7.63814C29.7838 7.97155 29.8073 8.31367 29.8601 8.65177C29.8789 8.99255 29.9117 9.33333 29.9191 9.67411C29.9318 10.357 29.903 11.0392 29.8461 11.7195L29.8381 11.8179L29.739 11.7964C29.0313 11.6425 28.3149 11.5079 27.5872 11.4891C26.8621 11.4483 26.1323 11.4878 25.4126 11.5902C24.6916 11.6873 23.9792 11.8513 23.2856 12.073C22.5893 12.2872 21.9071 12.5557 21.2637 12.9038C22.5277 12.1667 23.9437 11.6893 25.3959 11.4751C26.1209 11.3619 26.8581 11.3124 27.5932 11.3445C28.3303 11.3546 29.0587 11.4804 29.7798 11.6277L29.6727 11.7041L29.745 10.6918C29.7644 10.3543 29.759 10.0162 29.7677 9.67812C29.7657 9.34002 29.7383 9.00326 29.7256 8.66516C29.6787 8.33108 29.6606 7.99164 29.589 7.66224C29.4812 6.99541 29.2716 6.34666 28.9744 5.74276C28.6771 5.14489 28.2707 4.56175 27.6715 4.229Z" fill="#506815"/>
<path d="M32.575 6.01611C33.4233 7.37053 33.8163 8.97734 33.8866 10.5701C33.9013 11.3682 33.8772 12.1742 33.7252 12.9609C33.6 13.7523 33.3744 14.5235 33.11 15.2794L33.0832 15.3557L33.0035 15.333C32.2443 15.1147 31.4275 15.1294 30.6328 15.1864C29.8334 15.2513 29.0393 15.3839 28.252 15.5492C26.68 15.8907 25.1268 16.3292 23.5996 16.8441C25.1053 16.2676 26.6499 15.7842 28.2272 15.4354C29.0159 15.26 29.8126 15.1174 30.6201 15.0417C31.4248 14.9755 32.251 14.9467 33.0524 15.1656L32.9459 15.2192C33.0604 14.8409 33.205 14.472 33.3108 14.091C33.3992 13.7061 33.5237 13.3285 33.5753 12.9355C33.736 12.1595 33.7694 11.3648 33.7654 10.5748C33.746 9.78343 33.6308 8.99542 33.436 8.22817C33.2465 7.45957 32.9781 6.70303 32.575 6.01611Z" fill="#506815"/>
<path d="M37.5019 10.4702C37.5836 12.0201 37.5756 13.5761 37.4551 15.126C37.4008 15.9013 37.3091 16.6745 37.1705 17.4418C37.0253 18.205 36.8545 18.979 36.4729 19.68L36.4415 19.7382L36.3745 19.7221C35.695 19.5615 34.9672 19.5909 34.2595 19.6579C33.5485 19.7288 32.8395 19.8386 32.1365 19.9772C30.7319 20.2624 29.336 20.6052 27.9541 20.9982C29.3172 20.543 30.7038 20.156 32.1131 19.8634C32.8167 19.7141 33.5278 19.5943 34.2448 19.5132C34.9605 19.4376 35.6923 19.3927 36.4187 19.5534L36.3203 19.5956C36.6785 18.9254 36.8719 18.1675 37.0212 17.4137C37.1679 16.6565 37.2703 15.8879 37.3346 15.1166C37.4631 13.5734 37.51 12.0215 37.5019 10.4702Z" fill="#506815"/>
<path d="M43.4267 48.9751C43.4267 48.9751 39.9232 38.2556 46.1818 34.3577C52.4403 30.4599 59.2619 34.114 63.6472 30.9473C62.5505 40.0834 60.9558 41.6821 57.3799 44.2249C53.8048 46.7664 43.4267 48.9751 43.4267 48.9751Z" fill="#1C5E1C"/>
<path d="M38.5137 51.2897C38.5137 51.2897 28.5655 52.0208 23.0836 42.641C17.6023 33.2612 23.9365 25.1722 24.667 20.6289C32.7064 23.3946 39.2495 29.4818 40.8838 36.837C42.518 44.1922 38.9609 50.4367 38.5137 51.2897Z" fill="#1C5E1C"/>
<path d="M38.2128 50.9738C37.6056 50.5506 37.1952 50.0853 36.7546 49.5926C36.3275 49.1018 35.9412 48.5843 35.5716 48.0567C34.8352 47.0002 34.1844 45.8949 33.5738 44.7708C32.37 42.5125 31.3571 40.1673 30.4358 37.7925C29.5126 35.4178 28.6964 32.9995 28.0551 30.5337C27.7364 29.3011 27.4565 28.0565 27.2603 26.7985C27.0695 25.5419 26.9156 24.2685 26.9932 22.9971C26.9403 24.2691 27.1197 25.5365 27.3347 26.7858C27.5549 28.0371 27.8589 29.2717 28.2003 30.4942C28.8886 32.9393 29.7489 35.3327 30.7157 37.68C31.6885 40.024 32.7597 42.3298 34.005 44.5318C34.6363 45.6271 35.3058 46.6996 36.0503 47.7119C36.4232 48.2167 36.8115 48.7102 37.232 49.1681C37.6431 49.6153 38.1124 50.0853 38.559 50.3799L38.2128 50.9738Z" fill="#506815"/>
<path d="M24.4619 25.3583C24.6346 25.7989 24.8676 26.212 25.1207 26.6083C25.3678 27.0087 25.6429 27.3916 25.9409 27.7552C26.2448 28.1134 26.5581 28.4655 26.9043 28.7835C27.2417 29.1109 27.6106 29.4028 27.9775 29.6954L27.8436 29.749C27.934 29.2535 28.1516 28.809 28.3825 28.3818C28.6175 27.9554 28.8793 27.5463 29.1605 27.1513C29.7149 26.3559 30.3355 25.6108 30.997 24.9058C30.383 25.6516 29.7986 26.4215 29.2529 27.2149C28.9811 27.6126 28.73 28.0237 28.5064 28.4475C28.2868 28.8706 28.0839 29.3131 28.0096 29.7744L27.9869 29.9143L27.8751 29.828C27.1219 29.2455 26.443 28.5693 25.8498 27.8268C25.2647 27.0817 24.7585 26.2595 24.4619 25.3583Z" fill="#506815"/>
<path d="M22.5098 28.0609C22.7843 28.8188 23.198 29.5178 23.6687 30.1659C24.1367 30.8173 24.6716 31.4205 25.2675 31.9568C25.8734 32.4797 26.506 32.9778 27.2057 33.3708C27.5404 33.5911 27.912 33.7484 28.2642 33.9372C28.625 34.1106 29.002 34.2472 29.3669 34.4125L29.2544 34.4775C29.3903 33.7738 29.5483 33.0715 29.8014 32.4007C30.0344 31.7231 30.3457 31.0744 30.6978 30.4524C31.4028 29.2091 32.3261 28.0803 33.4455 27.1973C32.8998 27.6552 32.4171 28.1834 31.9793 28.7418C31.5374 29.2968 31.1344 29.8847 30.7956 30.508C30.4541 31.1286 30.1549 31.7747 29.9333 32.4475C29.6916 33.1144 29.5449 33.8093 29.4197 34.5049L29.401 34.608L29.3066 34.5699C28.5554 34.2673 27.8183 33.9251 27.1294 33.4967C26.427 33.0903 25.793 32.5788 25.1878 32.0432C24.0095 30.9411 23.0186 29.5961 22.5098 28.0609Z" fill="#506815"/>
<path d="M21.9551 33.5887C22.5335 34.289 23.1843 34.925 23.8692 35.5175C24.5508 36.1134 25.2752 36.6617 26.0451 37.1357C26.813 37.6117 27.6265 38.0175 28.4767 38.3187C29.325 38.6281 30.2134 38.8128 31.1086 38.8952L31.0189 38.9688C31.124 38.1708 31.44 37.4343 31.7848 36.7287C32.1396 36.0243 32.5487 35.3522 32.9845 34.6987C33.8562 33.3912 34.8371 32.1606 35.8902 30.999C34.8846 32.2015 33.9406 33.4554 33.0783 34.7603C32.6518 35.4158 32.2528 36.09 31.91 36.7909C31.5772 37.4919 31.276 38.2243 31.1849 38.9889L31.1755 39.0693L31.0952 39.0626C29.2628 38.9106 27.518 38.2076 25.9835 37.2341C24.445 36.2573 23.0758 35.0181 21.9551 33.5887Z" fill="#506815"/>
<path d="M25.4629 41.0746C26.747 41.7287 28.0552 42.3352 29.3909 42.8682C30.0604 43.1299 30.7399 43.3683 31.4322 43.5531C32.1225 43.7338 32.8362 43.8778 33.5372 43.8309L33.4615 43.9026C33.6041 43.1346 33.9978 42.4725 34.3975 41.8385C34.8065 41.2058 35.2618 40.6073 35.7338 40.0234C36.6785 38.8565 37.7062 37.7598 38.7841 36.7188C37.7504 37.804 36.7575 38.9268 35.8208 40.0937C35.3575 40.6802 34.9116 41.2821 34.5146 41.9135C34.127 42.5428 33.7494 43.2103 33.6269 43.9267L33.6155 43.9936L33.5512 43.9983C32.8087 44.0539 32.0897 43.8825 31.3927 43.6943C30.6951 43.4982 30.0155 43.2485 29.3467 42.9766C28.0097 42.4337 26.7142 41.7916 25.4629 41.0746Z" fill="#506815"/>
<path d="M46.6553 61.6721C46.6553 61.6721 49.4759 53.379 60.1746 51.1676C67.815 49.5882 76.4972 49.6451 79.1163 51.9596C81.7354 54.2741 82.8923 58.964 84.1108 59.0858C82.7712 60.4255 81.1871 61.4003 76.9244 64.5062C72.6609 67.6127 63.2202 68.465 57.7999 67.369C52.3789 66.2717 46.6553 61.6721 46.6553 61.6721Z" fill="#1C5E1C"/>
<path d="M38.5131 66.7598C38.562 66.4284 35.1837 58.0703 26.9005 55.7967C18.6174 53.523 10.3342 57.1772 8.54732 61.2779C6.76041 65.3787 6.9231 67.4093 4.73047 68.3024C8.79103 69.1955 8.46631 71.7129 15.0436 73.7435C21.6221 75.7741 36.7269 78.8599 38.5131 66.7598Z" fill="#1C5E1C"/>
<path d="M37.9443 43.0467C37.9443 43.0467 29.7422 30.3782 20.4849 26.2367C11.227 22.0951 3.35021 27.658 0 32.6519C2.86281 32.7128 5.84681 34.8445 11.0241 38.7424C16.2007 42.6409 31.5492 48.9343 37.9443 43.0467Z" fill="#347A34"/>
<path d="M47.4453 36.185C47.4453 36.185 50.7339 25.1 64.3772 21.8114C78.0204 18.5228 83.7453 22.7862 85.085 26.1967C81.309 27.5363 78.2634 30.8256 71.4418 33.9924C64.6209 37.1592 51.8915 37.3419 47.4453 36.185Z" fill="#388C38"/>
<path d="M38.5137 87.4668C38.5137 87.4668 42.605 79.7287 40.8837 61.6714C39.1624 43.6148 38.4896 28.5817 40.6534 20.6279C40.6246 30.459 40.1781 32.0015 40.5028 37.1581C40.8275 42.3146 42.2488 57.8251 43.142 64.5657C44.0351 71.3056 42.7363 83.893 41.3557 88.0346C39.0004 89.3348 38.5137 87.4668 38.5137 87.4668Z" fill="#506815"/>
<path d="M40.3947 27.2116C40.3947 27.2116 35.6037 27.2116 33.3293 22.6643C31.0557 18.1164 34.1415 7.31587 39.8262 3.49901C45.511 -0.317846 49.0842 0.00686531 49.0842 0.00686531C49.0842 0.00686531 55.4184 5.44126 54.1189 13.6059C52.8194 21.7705 47.0536 26.4805 40.3947 27.2116Z" fill="#388C38"/>
<path d="M40.8846 54.2127C40.8846 54.2127 35.7509 55.3086 35.0814 51.4108C34.4125 47.5129 44.8883 45.9295 49.8828 46.1725C54.8773 46.4163 55.8515 47.0503 57.3137 52.9453C54.8773 51.2883 53.5376 50.1923 50.7358 51.8975C47.9339 53.6034 46.0198 55.4513 40.8846 54.2127Z" fill="#388C38"/>
<path d="M39.627 42.7105C40.9479 41.1251 42.4074 39.7687 43.95 38.4766C45.4865 37.1864 47.1194 36.0188 48.8046 34.9409C50.479 33.8422 52.2485 32.9049 54.0274 31.9971C54.9379 31.586 55.8344 31.1441 56.7563 30.7618C57.6876 30.4016 58.5961 29.9845 59.5448 29.6725C63.3047 28.3376 67.1457 27.2764 71.0422 26.4576C72.9939 26.0706 74.9602 25.7466 76.9413 25.5611C78.9183 25.3917 80.9242 25.2813 82.8918 25.5872C80.9202 25.3221 78.9217 25.4727 76.954 25.6823C74.9823 25.9079 73.03 26.2708 71.0931 26.6959C67.2314 27.5904 63.4159 28.7292 59.7155 30.1292C58.7816 30.4572 57.8898 30.8897 56.9759 31.2646C56.0707 31.6617 55.193 32.1176 54.3012 32.5421C52.5612 33.476 50.8332 34.4368 49.2056 35.5535C47.5666 36.6495 45.9839 37.8312 44.503 39.1267C43.0254 40.4114 41.5953 41.8087 40.4016 43.3024L39.627 42.7105Z" fill="#506815"/>
<path d="M78.5883 22.5414C78.0607 22.5722 77.576 22.8066 77.1261 23.061C76.6735 23.3174 76.245 23.6173 75.8473 23.9548C75.4469 24.2882 75.062 24.6397 74.6958 25.0119C74.3289 25.3842 73.9867 25.7785 73.6413 26.1708L73.581 25.9767C74.5331 26.2538 75.4175 26.6944 76.247 27.2099C77.0765 27.7268 77.8592 28.3126 78.5889 28.9566C77.807 28.3789 76.9902 27.8513 76.154 27.3659C75.3117 26.8946 74.4433 26.4554 73.5194 26.2083L73.334 26.1588L73.4585 26.0142C73.804 25.6138 74.1628 25.2262 74.5378 24.8532C74.9167 24.4843 75.3043 24.1228 75.7288 23.8041C76.1473 23.4794 76.5972 23.1929 77.0698 22.9525C77.5452 22.7289 78.0574 22.5307 78.5883 22.5414Z" fill="#506815"/>
<path d="M73.5495 21.8101C72.327 22.6202 71.1834 23.5394 70.0901 24.5088C69.5485 24.9996 69.0089 25.493 68.5014 26.0179C67.9839 26.5341 67.5032 27.0838 67.0218 27.6321L66.9615 27.4379C67.6243 27.6234 68.253 27.8812 68.877 28.1483C69.4996 28.4168 70.1156 28.7006 70.7188 29.0079C71.932 29.6098 73.1183 30.2612 74.2846 30.9468C73.0775 30.3362 71.8623 29.7444 70.6398 29.1726C69.4126 28.6183 68.1841 28.0325 66.8993 27.6716L66.7158 27.62L66.839 27.4774C67.8004 26.3627 68.8442 25.3183 69.9649 24.3656C71.087 23.4155 72.2761 22.5412 73.5495 21.8101Z" fill="#506815"/>
<path d="M66.4884 22.0142C65.7338 22.3569 65.0463 22.8303 64.4162 23.3592C63.7822 23.8848 63.2085 24.482 62.7177 25.1401C61.7201 26.447 61.052 27.9848 60.7139 29.5896L60.6222 29.447C62.0529 29.7885 63.3926 30.4345 64.5856 31.2714C65.7807 32.1056 66.8633 33.0958 67.7885 34.2126C66.8004 33.1528 65.6816 32.2208 64.4839 31.4221C63.8833 31.023 63.2513 30.6769 62.6019 30.3716C61.9505 30.067 61.2656 29.8494 60.5706 29.682L60.4541 29.6539L60.4789 29.5394C60.829 27.9052 61.5253 26.3338 62.5664 25.0223C63.6048 23.7167 64.9505 22.6408 66.4884 22.0142Z" fill="#506815"/>
<path d="M58.6104 24.7749C58.0092 25.2884 57.4454 25.8441 56.9098 26.4232C56.3695 26.9977 55.8607 27.6009 55.4034 28.2403C54.4996 29.5036 53.7109 30.9518 53.6922 32.5091L53.6011 32.3926C54.6884 32.6865 55.7215 33.1551 56.6581 33.7657C57.5988 34.3696 58.4644 35.086 59.221 35.9001C58.4049 35.1462 57.5057 34.4901 56.5624 33.9204C55.6157 33.3566 54.6067 32.892 53.5429 32.6255L53.4512 32.6028L53.4518 32.5091C53.4579 31.6936 53.6821 30.8996 54.0129 30.1718C54.3416 29.4407 54.7681 28.7591 55.2495 28.1258C56.2142 26.8591 57.3598 25.7437 58.6104 24.7749Z" fill="#506815"/>
<path d="M42.3965 65.1507C43.5172 63.5191 45.0136 62.5684 46.5621 61.684C48.1214 60.837 49.7624 60.1702 51.4409 59.6547C54.7964 58.6042 58.2718 58.0787 61.7392 57.7412C65.2073 57.4092 68.6941 57.2418 72.1775 57.3362C73.9182 57.3824 75.6589 57.4942 77.3856 57.7232C79.1069 57.9588 80.8382 58.2527 82.4678 58.8687C80.8269 58.2869 79.0942 58.0285 77.3729 57.8289C75.6469 57.6355 73.9095 57.5598 72.1741 57.5491C68.7014 57.5257 65.232 57.7627 61.7847 58.1637C58.3455 58.5815 54.9183 59.1968 51.6558 60.3101C50.0242 60.8571 48.4448 61.5501 46.9699 62.3997C46.2247 62.8141 45.5385 63.3136 44.8783 63.8331C44.5643 64.1096 44.2477 64.3834 43.9665 64.6854C43.692 64.9746 43.4008 65.3214 43.2401 65.6033L42.3965 65.1507Z" fill="#506815"/>
<path d="M78.9063 55.0929C78.3921 55.0166 77.8773 55.1411 77.3919 55.2924C76.9031 55.4451 76.4285 55.6439 75.9759 55.8863C75.5213 56.1233 75.0774 56.3824 74.6482 56.6636C74.2184 56.9455 73.8067 57.2534 73.3929 57.5594L73.3742 57.3599C74.2385 57.8151 75.0071 58.413 75.7074 59.0731C76.4077 59.734 77.0504 60.4523 77.6302 61.2162C76.9868 60.5059 76.3006 59.8371 75.5869 59.2057C74.8652 58.5857 74.112 57.9926 73.2684 57.5714L73.0977 57.4864L73.249 57.3719C73.6641 57.0586 74.0906 56.7607 74.5284 56.4788C74.9696 56.203 75.4175 55.9352 75.8922 55.7169C76.3622 55.4913 76.8543 55.3098 77.3591 55.1759C77.8639 55.0601 78.3975 54.9758 78.9063 55.0929Z" fill="#506815"/>
<path d="M74.1721 53.3789C72.8297 53.9051 71.5396 54.5512 70.2883 55.2562C69.0363 55.9612 67.8332 56.7512 66.6917 57.6209L66.6729 57.4214C67.2761 57.7314 67.8338 58.1043 68.3849 58.4846C68.9345 58.8669 69.4741 59.2612 69.9977 59.6763C71.0528 60.4958 72.0725 61.3581 73.0667 62.2485C72.0189 61.4224 70.9598 60.6116 69.8892 59.8196C68.8113 59.0429 67.7381 58.2362 66.5671 57.633L66.3984 57.5459L66.5484 57.4334C68.8616 55.6974 71.4251 54.2714 74.1721 53.3789Z" fill="#506815"/>
<path d="M67.2945 52.1484C66.5005 52.3225 65.7439 52.6338 65.0303 53.0094C64.3132 53.3817 63.6397 53.8349 63.0318 54.3625C61.8039 55.4069 60.8452 56.7439 60.1951 58.2148L60.1355 58.0595C60.7869 58.3735 61.4163 58.7317 61.9914 59.1669C62.5638 59.6021 63.1155 60.068 63.6042 60.5949C64.5964 61.632 65.45 62.7976 66.1269 64.0556C65.3784 62.8405 64.4786 61.7244 63.477 60.7208C62.9755 60.2187 62.4312 59.7621 61.8648 59.341C61.2957 58.9198 60.6764 58.5757 60.0397 58.2758L59.9326 58.2256L59.9795 58.1198C60.647 56.6228 61.6399 55.259 62.9106 54.2186C64.178 53.1828 65.6917 52.4343 67.2945 52.1484Z" fill="#506815"/>
<path d="M59.1182 53.1943C58.436 53.5619 57.7819 53.9777 57.1492 54.4215C56.5132 54.8594 55.9006 55.3321 55.3308 55.8489C54.2047 56.8713 53.1469 58.0951 52.8175 59.5848L52.7532 59.4542C53.7441 59.953 54.6506 60.6064 55.4359 61.3784C56.2266 62.1443 56.9242 63.004 57.4973 63.9373C56.8559 63.0508 56.1148 62.2421 55.3134 61.509C54.5086 60.7799 53.6249 60.1351 52.6508 59.6671L52.5664 59.627L52.5858 59.5366C52.7552 58.7553 53.1321 58.0396 53.5988 57.4109C54.0648 56.7782 54.6138 56.2138 55.2056 55.7077C56.3927 54.6947 57.7203 53.8638 59.1182 53.1943Z" fill="#506815"/>
<path d="M42.7065 69.7831C42.5424 69.5569 42.2566 69.279 41.9854 69.0581C41.7109 68.8231 41.4056 68.6162 41.099 68.4127C40.4737 68.0203 39.8122 67.6729 39.1206 67.3843C37.7427 66.7945 36.2859 66.3754 34.8103 66.0419C31.845 65.4126 28.7975 65.1729 25.7512 65.1087C22.7009 65.0524 19.6466 65.1321 16.6077 65.4206C15.0893 65.5686 13.5735 65.7614 12.0752 66.0533C10.5808 66.3492 9.0818 66.6927 7.67383 67.2899C9.07042 66.6646 10.5654 66.2917 12.0571 65.965C13.5534 65.6429 15.0692 65.4206 16.5883 65.2419C19.6292 64.8924 22.6922 64.7531 25.7532 64.7491C28.8142 64.7444 31.8933 64.9004 34.9268 65.4668C36.4392 65.7681 37.9416 66.1584 39.3897 66.7356C40.1155 67.0181 40.8211 67.3642 41.5 67.7673C41.8354 67.9775 42.1689 68.1924 42.4822 68.4455C42.8036 68.7039 43.0901 68.9429 43.3853 69.3286L42.7065 69.7831Z" fill="#506815"/>
<path d="M9.27832 63.5114C10.4118 63.4539 11.5486 63.6507 12.6406 63.9647C13.7305 64.2928 14.7776 64.7621 15.7578 65.3419L15.9071 65.4303L15.7558 65.5166C15.2711 65.7938 14.8607 66.2049 14.477 66.6253C14.0941 67.0498 13.7399 67.5031 13.3998 67.9664C12.7243 68.897 12.0969 69.8664 11.5118 70.8606C12.0347 69.8309 12.6158 68.8293 13.2746 67.8773C13.598 67.3973 13.9555 66.9387 14.3398 66.5021C14.7274 66.0703 15.1378 65.6452 15.6567 65.3405L15.6547 65.5153C15.168 65.2354 14.6772 64.9589 14.1637 64.7306C13.6562 64.4869 13.1246 64.3028 12.5937 64.118C12.0595 63.9433 11.5131 63.8027 10.9595 63.6996C10.4058 63.5918 9.84405 63.5135 9.27832 63.5114Z" fill="#506815"/>
<path d="M11.5117 60.2226C13.4359 60.1249 15.3614 60.6243 17.1008 61.4445C17.9611 61.8756 18.8087 62.351 19.5672 62.9502C20.3459 63.5226 21.0475 64.1908 21.7117 64.8911L21.7967 64.9808L21.6876 65.0457C20.9598 65.4762 20.2414 65.9295 19.592 66.4745C18.9272 67 18.3253 67.6019 17.7656 68.2379C17.2025 68.8726 16.7078 69.5662 16.2625 70.2886C15.8133 71.009 15.4163 71.7656 15.1251 72.567C15.6593 70.9468 16.5565 69.4518 17.6638 68.1509C18.2202 67.5022 18.8201 66.8862 19.4855 66.3459C20.135 65.7855 20.856 65.3176 21.5885 64.8717L21.5637 65.0257C21.2209 64.6936 20.9049 64.3347 20.5541 64.012C20.1912 63.7027 19.8524 63.3633 19.4614 63.0888C18.719 62.4869 17.8868 62.0075 17.0398 61.5697C16.1842 61.1439 15.279 60.8218 14.3518 60.5895C13.4272 60.3518 12.4718 60.2005 11.5117 60.2226Z" fill="#506815"/>
<path d="M17.5205 57.2588C19.5839 57.8694 21.5496 58.8301 23.2997 60.0955C25.0438 61.3575 26.5856 62.9717 27.5363 64.934L27.5785 65.0217L27.4915 65.0666C26.6733 65.4884 25.9744 66.1251 25.3229 66.7865C24.6762 67.4581 24.0823 68.1818 23.52 68.9283C22.4066 70.43 21.3836 72.002 20.4429 73.6229C21.318 71.9658 22.2995 70.3617 23.4128 68.8486C23.9685 68.0921 24.557 67.3576 25.2024 66.6714C25.8539 65.9952 26.5515 65.3404 27.3998 64.8892L27.3556 65.0211C26.8829 64.0663 26.2937 63.1672 25.5841 62.3671C24.8817 61.5617 24.0783 60.8447 23.2173 60.208C22.357 59.5693 21.4365 59.0116 20.4811 58.5235C19.5297 58.0281 18.5442 57.5902 17.5205 57.2588Z" fill="#506815"/>
<path d="M27.4463 57.9082C28.7753 58.968 30.0406 60.1095 31.2149 61.3428C31.8028 61.9581 32.3698 62.5961 32.8854 63.2776C33.3915 63.9612 33.8889 64.6776 34.14 65.5205L34.1621 65.5948L34.0918 65.6357C33.3413 66.0702 32.7468 66.7624 32.1998 67.4547C31.6541 68.1563 31.1607 68.9008 30.6921 69.6587C29.7661 71.1825 28.9118 72.7532 28.1178 74.3533C28.8449 72.721 29.655 71.1229 30.5782 69.5891C31.0395 68.8225 31.5256 68.0686 32.0679 67.3529C32.6149 66.6466 33.198 65.9376 33.9961 65.4602L33.9479 65.5747C33.7055 64.7827 33.2409 64.0603 32.7454 63.3814C32.2447 62.7005 31.6903 62.0585 31.1132 61.4378C29.9523 60.2033 28.7204 59.0316 27.4463 57.9082Z" fill="#506815"/>
<path d="M39.843 45.1539C34.653 41.1121 28.8865 37.7706 22.7157 35.4233C16.5529 33.0814 9.95287 31.7504 3.31738 31.9064C9.94617 31.5843 16.6158 32.75 22.8864 34.9553C29.1671 37.1654 35.0815 40.3937 40.4463 44.3599L39.843 45.1539Z" fill="#506815"/>
<path d="M7.56316 28.6765C8.10145 28.6678 8.61563 28.8881 9.09031 29.1298C9.56098 29.3895 10.0028 29.7002 10.4159 30.043C11.2421 30.7312 11.9592 31.5346 12.63 32.3668L12.7452 32.5101L12.5677 32.5617C11.6445 32.8281 10.7855 33.2981 9.95465 33.7996C9.13048 34.3144 8.32842 34.8735 7.5625 35.4821C8.27218 34.8079 9.0381 34.1906 9.85423 33.6429C10.6697 33.0959 11.5461 32.6239 12.4994 32.3253L12.4372 32.5195C12.1011 32.1104 11.7697 31.698 11.4122 31.3077C11.056 30.916 10.6791 30.5465 10.2874 30.1923C9.8964 29.8374 9.47662 29.5147 9.02738 29.2396C8.58216 28.9671 8.0981 28.71 7.56316 28.6765Z" fill="#506815"/>
<path d="M12.5356 27.9014C13.8084 28.6887 14.9867 29.6233 16.0954 30.6316C17.2008 31.6439 18.2244 32.7466 19.1631 33.9176L19.2762 34.0588L19.1001 34.1117C17.8241 34.498 16.6123 35.1207 15.4018 35.7092C14.196 36.3164 12.9989 36.9444 11.8105 37.5911C12.9547 36.8694 14.121 36.1812 15.3161 35.5438C15.9106 35.2191 16.5178 34.9178 17.1331 34.6319C17.7497 34.3481 18.3724 34.0742 19.0319 33.8754L18.9696 34.0695C18.4996 33.4931 18.0296 32.916 17.5221 32.371C17.0247 31.8173 16.4931 31.2951 15.9608 30.7742C15.4272 30.254 14.8702 29.7586 14.2991 29.2792C13.7314 28.7965 13.1489 28.3278 12.5356 27.9014Z" fill="#506815"/>
<path d="M19.5005 28.1162C20.2866 28.4557 21.0076 28.937 21.6671 29.4867C22.3172 30.0477 22.917 30.6751 23.4178 31.3774C23.9126 32.081 24.3565 32.8295 24.6738 33.6329C25.0193 34.425 25.2476 35.2605 25.4337 36.1021L25.4592 36.2152L25.3413 36.2454C24.643 36.4248 23.9588 36.6658 23.31 36.9905C22.6646 37.3193 22.0413 37.6942 21.4481 38.116C20.2705 38.9683 19.1765 39.9511 18.2178 41.0564C19.1109 39.8955 20.1647 38.8544 21.3383 37.966C22.5113 37.0782 23.843 36.3753 25.2851 36.0064L25.1927 36.1496C25.0046 35.3248 24.797 34.5 24.4623 33.7213C24.1617 32.928 23.7218 32.1982 23.2578 31.4912C22.7845 30.7875 22.2114 30.1535 21.5841 29.5818C20.9594 29.0073 20.2685 28.4931 19.5005 28.1162Z" fill="#506815"/>
<path d="M27.2747 31.0454C28.5354 32.0959 29.6769 33.2996 30.627 34.6507C31.103 35.3249 31.5154 36.0486 31.8334 36.8159C32.1514 37.5811 32.3637 38.406 32.369 39.2489L32.3697 39.3433L32.278 39.3681C31.2121 39.6553 30.2112 40.1567 29.2779 40.7566C28.348 41.3639 27.4676 42.0581 26.6729 42.8461C27.4046 41.9979 28.2489 41.244 29.1741 40.602C30.096 39.9545 31.1224 39.4471 32.2144 39.1311L32.1233 39.2495C32.1086 37.6327 31.3554 36.1089 30.4649 34.7618C30.017 34.081 29.5116 33.4362 28.9746 32.8189C28.4417 32.1976 27.8793 31.5998 27.2747 31.0454Z" fill="#506815"/>
<path d="M39.6874 30.5154C39.5288 29.7924 39.5428 29.1724 39.5542 28.5116C39.5736 27.8615 39.6412 27.2188 39.7276 26.5814C39.9037 25.306 40.1762 24.052 40.4908 22.8121C41.1396 20.3369 41.9878 17.9274 42.9232 15.5573C43.8571 13.1866 44.8995 10.8574 46.102 8.61116C46.7052 7.48974 47.3439 6.38572 48.0543 5.32857C48.7666 4.2761 49.5185 3.23636 50.4384 2.35596C49.5365 3.25444 48.8074 4.3069 48.1172 5.37008C47.4296 6.43861 46.8143 7.55133 46.2359 8.68146C45.0816 10.9437 44.0888 13.2857 43.2057 15.6658C42.3286 18.0472 41.5507 20.4675 40.9702 22.9299C40.691 24.1625 40.454 25.4044 40.3141 26.653C40.2458 27.277 40.1956 27.903 40.1936 28.5243C40.1916 29.1316 40.2177 29.7957 40.3456 30.3146L39.6874 30.5154Z" fill="#506815"/>
<path d="M46.975 2.37061C46.803 2.81114 46.6938 3.27243 46.6102 3.73573C46.5198 4.19769 46.4622 4.66567 46.4341 5.135C46.414 5.60499 46.4053 6.07566 46.4435 6.54431C46.4696 7.01364 46.5419 7.47827 46.6128 7.94291L46.4783 7.89136C46.8813 7.58874 47.3426 7.41065 47.8019 7.25332C48.2638 7.1 48.7338 6.97681 49.2078 6.87773C50.1545 6.67018 51.1166 6.54364 52.0807 6.47535C51.1233 6.60658 50.1719 6.77462 49.2326 6.98686C48.7633 7.09398 48.2993 7.2252 47.8481 7.38521C47.3995 7.54723 46.9496 7.73403 46.5827 8.02258L46.4709 8.11029L46.4475 7.97103C46.2895 7.03171 46.25 6.07432 46.3182 5.12697C46.3952 4.18162 46.5814 3.23427 46.975 2.37061Z" fill="#506815"/>
<path d="M43.7089 3.03076C43.3956 3.77391 43.2249 4.56795 43.1311 5.36332C43.0327 6.1587 43.016 6.96546 43.0896 7.76351C43.1794 8.55888 43.3066 9.35426 43.5536 10.1175C43.65 10.5071 43.8161 10.874 43.9466 11.2516C44.0939 11.6239 44.278 11.9807 44.434 12.349L44.3075 12.3202C44.8853 11.8957 45.4771 11.4873 46.1192 11.1666C46.7505 10.8272 47.4187 10.562 48.1002 10.3445C49.462 9.90995 50.9055 9.70776 52.3275 9.81889C51.6158 9.78475 50.9028 9.84501 50.2025 9.95748C49.5008 10.0653 48.8065 10.2233 48.1344 10.4509C47.4622 10.6752 46.8041 10.9463 46.1848 11.2898C45.5548 11.6152 44.9756 12.0263 44.4112 12.4521L44.3276 12.515L44.284 12.4233C43.9379 11.6908 43.6286 10.9397 43.4137 10.1577C43.174 9.38305 43.0555 8.57696 42.9745 7.77288C42.8546 6.16472 43.0401 4.50435 43.7089 3.03076Z" fill="#506815"/>
<path d="M39.5494 6.71387C39.4992 7.62038 39.5448 8.52957 39.6459 9.42939C39.7416 10.3299 39.9016 11.2237 40.1453 12.0947C40.3863 12.9657 40.7077 13.816 41.1281 14.6141C41.5412 15.4168 42.0681 16.1559 42.6694 16.8241L42.5535 16.8174C43.1728 16.3032 43.9046 15.9765 44.637 15.692C45.3755 15.4155 46.1327 15.1992 46.896 15.0158C48.4238 14.6469 49.979 14.4092 51.541 14.2706C49.9864 14.4714 48.4418 14.7513 46.9227 15.1242C46.1649 15.3164 45.4143 15.54 44.6866 15.8225C43.9662 16.1117 43.2478 16.4452 42.6627 16.9446L42.6011 16.9975L42.5462 16.9379C41.3036 15.5822 40.4995 13.8816 40.0328 12.1255C39.5662 10.3634 39.4022 8.52355 39.5494 6.71387Z" fill="#506815"/>
<path d="M37.0439 14.5918C37.5427 15.9435 38.0917 17.2772 38.711 18.5747C39.025 19.2214 39.3624 19.8575 39.7454 20.4634C40.1297 21.0646 40.5555 21.6544 41.1032 22.0963L40.9987 22.0976C41.6247 21.6303 42.3632 21.4114 43.0869 21.2172C43.8167 21.0304 44.5572 20.8992 45.3003 20.7921C46.7859 20.5765 48.285 20.4687 49.7833 20.4359C48.2876 20.531 46.796 20.6816 45.317 20.9026C44.5786 21.0191 43.8428 21.1583 43.1231 21.3525C42.4107 21.5513 41.6809 21.785 41.1045 22.2282L41.0509 22.2697L41.0001 22.2295C40.4169 21.7662 40.0052 21.1523 39.6215 20.5417C39.2426 19.9238 38.9125 19.2797 38.6059 18.6256C37.9913 17.318 37.4758 15.967 37.0439 14.5918Z" fill="#506815"/>
<path d="M40.4268 46.969C40.8726 46.9222 41.1853 46.9248 41.5676 46.9135C41.9338 46.9108 42.2994 46.9068 42.6649 46.9155C43.3954 46.9302 44.1258 46.9663 44.8529 47.0293C46.3077 47.1491 47.7579 47.3654 49.1725 47.7289C50.5812 48.0978 51.9858 48.5504 53.2512 49.2869C54.5172 50.0072 55.6634 50.9539 56.5003 52.149C55.6293 50.9774 54.4656 50.0722 53.1929 49.394C51.9215 48.7004 50.5182 48.292 49.1163 47.9659C47.7077 47.6459 46.2682 47.4718 44.8268 47.3942C44.1064 47.352 43.384 47.3366 42.6623 47.3419C42.3014 47.3433 41.9412 47.3573 41.5817 47.3701C41.2389 47.3861 40.8251 47.4122 40.5486 47.441L40.4268 46.969Z" fill="#506815"/>
<path d="M48.0967 51.5331C48.1764 50.634 48.3169 49.7315 48.6497 48.8732C48.7367 48.6603 48.8284 48.446 48.9697 48.2539C49.0969 48.0604 49.2844 47.8683 49.5267 47.7872C50.0074 47.644 50.4661 47.7002 50.922 47.739C51.8278 47.8636 52.7129 48.0812 53.5692 48.3851C54.4048 48.7045 55.3059 49.0319 55.9091 49.7255C55.5965 49.3967 55.1834 49.1972 54.7723 49.0238C54.3619 48.8451 53.9401 48.6904 53.5103 48.5625C52.654 48.2994 51.7783 48.0825 50.8932 47.9801C50.4587 47.9319 49.9927 47.883 49.6031 47.9941C49.2235 48.118 49.0105 48.5625 48.8217 48.9448C48.4702 49.7616 48.2634 50.6487 48.0967 51.5331Z" fill="#506815"/>
<path d="M42.6543 52.5073C42.6704 51.3625 42.8177 50.2069 43.2093 49.1129C43.4042 48.5679 43.6786 48.037 44.0884 47.6032C44.4948 47.1553 45.0906 46.9203 45.655 46.8091C46.8039 46.6023 47.9628 46.6103 49.1084 46.6846C50.2552 46.7596 51.394 46.9122 52.5201 47.1258C51.3813 47.0013 50.2391 46.9136 49.0983 46.8721C47.9601 46.8359 46.8093 46.8292 45.7039 47.0475C45.1509 47.1519 44.6253 47.3528 44.2464 47.7578C43.8594 48.1522 43.5983 48.6617 43.3827 49.1805C42.9717 50.233 42.7587 51.3691 42.6543 52.5073Z" fill="#506815"/>
<path d="M16.8047 87.144L22.8751 128.486H59.4751L65.0092 87.144H16.8047Z" fill="#D18133"/>
<path d="M64.0859 94.0413L65.0092 87.144H16.8047L22.8751 128.486H30.9266C30.1667 108.667 41.0897 88.8017 64.0859 94.0413Z" fill="#C46C23"/>
<path d="M64.1172 90.3238H17.6983C15.1207 90.3238 13.0117 88.2148 13.0117 85.6372C13.0117 83.0596 15.1207 80.9507 17.6983 80.9507H64.1172C66.6948 80.9507 68.8038 83.0596 68.8038 85.6372C68.8038 88.2148 66.6948 90.3238 64.1172 90.3238Z" fill="#D18133"/>
<path d="M45.9826 75.8636C45.9826 75.8636 49.7178 68.671 56.3774 70.7827C63.0363 72.8943 69.3705 79.3905 68.9648 84.1822C68.5584 88.9732 69.5332 91.4912 69.5332 91.4912C69.5332 91.4912 68.2337 90.4354 64.5795 91.0038C60.9253 91.5722 54.1847 90.7601 49.5558 85.9691C44.9268 81.1781 44.5063 77.9618 45.9826 75.8636Z" fill="#1C5E1C"/>
<path d="M42.0352 72.9839C43.4525 72.6565 44.7246 72.9056 45.9933 73.2022C47.25 73.5256 48.4544 73.9962 49.6153 74.5426C51.9325 75.6519 54.0696 77.074 56.1136 78.5944C58.1569 80.1155 60.1333 81.7304 61.9865 83.4785C62.9111 84.3535 63.8095 85.2587 64.6438 86.2208C65.4733 87.1835 66.28 88.1811 66.8893 89.2992C66.2579 88.1938 65.4331 87.215 64.5869 86.271C63.7352 85.3283 62.822 84.4432 61.8834 83.5896C60.0014 81.8837 58.0009 80.3137 55.9355 78.8388C53.8674 77.3732 51.7102 76.0228 49.4091 74.9911C48.2569 74.4836 47.0705 74.0558 45.856 73.7766C45.2508 73.6273 44.6342 73.5463 44.0223 73.4988C43.4257 73.47 42.7629 73.4827 42.2675 73.6307L42.0352 72.9839Z" fill="#506815"/>
<path d="M67.7794 85.9544C67.3991 85.6732 66.982 85.4469 66.5569 85.2454C66.1345 85.0378 65.6979 84.8597 65.252 84.7098C64.8041 84.5678 64.3515 84.4366 63.8889 84.3509C63.429 84.2532 62.9616 84.2016 62.495 84.1487L62.58 84.0322C62.7668 84.5002 62.8184 84.9923 62.8492 85.4764C62.8766 85.9624 62.8726 86.4485 62.8438 86.9319C62.7969 87.9 62.6671 88.8614 62.4809 89.8101C62.6048 88.852 62.6912 87.8893 62.732 86.9272C62.7508 86.4458 62.7454 85.9638 62.7092 85.4864C62.6704 85.011 62.6068 84.5283 62.4247 84.0978L62.3691 83.9673L62.5097 83.9813C63.4571 84.0744 64.3917 84.2866 65.2889 84.6006C66.1833 84.9207 67.0497 85.3485 67.7794 85.9544Z" fill="#506815"/>
<path d="M67.9981 82.6283C67.3628 82.1316 66.6411 81.7593 65.8979 81.4607C65.1554 81.1574 64.3821 80.9305 63.5921 80.7932C62.8014 80.672 62 80.5863 61.1993 80.6252C60.7983 80.6165 60.4006 80.6808 60.0015 80.7082C59.6039 80.7531 59.2115 80.8374 58.8145 80.8916L58.8754 80.7765C59.1339 81.4453 59.3735 82.1235 59.5155 82.8265C59.6782 83.5241 59.7592 84.2392 59.7913 84.9535C59.8549 86.3816 59.6721 87.8277 59.1935 89.1714C59.4124 88.4932 59.5403 87.7896 59.6152 87.0839C59.6949 86.3789 59.7237 85.6666 59.6795 84.9589C59.6387 84.2519 59.5489 83.5456 59.3796 82.8573C59.2303 82.1644 58.9852 81.4975 58.7214 80.8421L58.6826 80.745L58.7824 80.7269C59.5797 80.5843 60.3858 80.4826 61.1966 80.4792C62.0074 80.4504 62.8161 80.5468 63.6135 80.6787C65.1962 80.9847 66.7508 81.5973 67.9981 82.6283Z" fill="#506815"/>
<path d="M65.5305 77.6505C64.6688 77.3646 63.779 77.1711 62.8846 77.0332C61.9908 76.89 61.0856 76.811 60.1811 76.8183C59.2772 76.823 58.3727 76.9114 57.4923 77.1082C56.6099 77.297 55.759 77.6123 54.9563 78.0181L54.9931 77.9076C55.3278 78.6394 55.4517 79.4314 55.5347 80.2127C55.6083 80.9974 55.6191 81.7847 55.597 82.5701C55.5535 84.1407 55.376 85.7047 55.1015 87.2486C55.3145 85.6953 55.4477 84.1313 55.4852 82.568C55.4979 81.7861 55.4778 81.0034 55.3961 80.2274C55.3057 79.4562 55.1712 78.6762 54.8424 77.9799L54.8076 77.9063L54.8793 77.8694C56.5122 77.0245 58.364 76.6931 60.1811 76.7018C62.0035 76.7119 63.8219 77.0346 65.5305 77.6505Z" fill="#506815"/>
<path d="M58.5814 73.1719C57.146 73.2998 55.7159 73.4812 54.3012 73.7396C53.5949 73.8735 52.8926 74.0329 52.2083 74.2444C51.5275 74.458 50.8466 74.7151 50.2775 75.1282L50.3036 75.0278C50.5908 75.7542 50.6089 76.5241 50.6076 77.2739C50.5975 78.0271 50.5299 78.7763 50.4395 79.5215C50.2594 81.0125 49.9715 82.4867 49.6113 83.9416C49.9106 82.4733 50.155 80.9937 50.3284 79.5081C50.4094 78.7649 50.467 78.0184 50.4676 77.2726C50.4616 76.5335 50.4275 75.7676 50.1503 75.0954L50.1242 75.0324L50.1764 74.9943C50.7763 74.5524 51.4759 74.3154 52.1662 74.1045C52.8618 73.9003 53.5695 73.7503 54.2811 73.6258C55.7025 73.3734 57.1406 73.2288 58.5814 73.1719Z" fill="#506815"/>
</svg>
