<svg width="127" height="183" viewBox="0 0 127 183" fill="none" xmlns="http://www.w3.org/2000/svg">
<g filter="url(#filter0_d_201_422700)">
<path d="M72.7383 40L65.0811 68.5845L68.09 69.3905L75.7472 40.8061L72.7383 40Z" fill="#F1F1F1"/>
<path d="M72.7462 40.002L67.5938 59.1797L68.3457 59.3817L73.4982 40.204L72.7462 40.002Z" fill="#EC7423"/>
<path fill-rule="evenodd" clip-rule="evenodd" d="M84.1572 80.8101C84.1572 80.8101 70.4292 81.2541 63.2722 81.2541C56.1162 81.2541 42.4951 80.8101 42.4951 80.8101L50.1832 142.144C50.1832 142.144 56.6492 142.719 63.3262 142.719C70.0022 142.719 76.4982 142.144 76.4982 142.144L84.1572 80.8101Z" fill="#AC804B"/>
<path d="M84.1578 80.8101L77.1738 136.737C77.1848 136.739 77.1957 136.74 77.2068 136.741L84.1578 80.8101Z" fill="#D7D7D7"/>
<path d="M77.1733 136.737L76.6144 141.213C76.652 141.102 76.6784 140.987 76.6934 140.87L77.2063 136.74L77.1733 136.737ZM75.7444 142.205C74.5983 142.295 72.2454 142.464 69.3904 142.583C69.3804 142.628 69.3704 142.674 69.3613 142.719C71.2914 142.643 73.2097 142.53 75.1163 142.378C75.3348 142.361 75.5479 142.302 75.7444 142.205Z" fill="#C9C9C9"/>
<path d="M84.1577 80.8101C79.8116 80.9511 75.961 81.0595 72.6057 81.1351C72.6676 111.589 71.5956 132.072 69.3896 142.584C72.2456 142.464 74.5976 142.295 75.7446 142.205C76.1546 142.003 76.4675 141.646 76.6146 141.213L77.1737 136.737L84.1577 80.8101Z" fill="#C0A88A"/>
<path d="M63.4541 55.4993C57.8693 55.4706 52.5019 57.6616 48.5325 61.5902C44.5631 65.5189 42.3169 70.8635 42.2881 76.4483H84.62C84.6091 72.261 83.3442 68.1729 80.9883 64.7111C78.6324 61.2494 75.2934 58.5727 71.4021 57.0263L68.089 69.3903L65.0801 68.5833L68.4301 56.0813C66.7998 55.6936 65.1298 55.4983 63.4541 55.4993Z" fill="#D9DADA"/>
<path d="M68.4312 56.082L65.0811 68.584L68.0901 69.39L71.4031 57.027C70.6782 56.7362 69.9377 56.4858 69.1851 56.277L68.3531 59.383L67.6011 59.182L68.4312 56.082Z" fill="#EDEDED"/>
<path d="M68.4307 56.082L67.5996 59.182L68.3516 59.383L69.1846 56.277C68.9346 56.207 68.6833 56.142 68.4307 56.082Z" fill="#EC9458"/>
<path d="M84.7288 76.5255H85.3768C85.3781 73.6736 84.8121 70.8498 83.712 68.2185C82.6119 65.5872 80.9995 63.201 78.9688 61.1985C74.8501 57.1325 69.2954 54.8525 63.5078 54.8525C57.7202 54.8525 52.1655 57.1325 48.0468 61.1985C46.0161 63.201 44.4039 65.5873 43.304 68.2186C42.204 70.8498 41.6382 73.6736 41.6397 76.5255V77.1736H85.3767L85.3768 76.5255H84.7288V75.8775H42.2877V76.5255H42.9348C42.9334 73.8446 43.4652 71.1902 44.4994 68.7168C45.5336 66.2434 47.0494 64.0005 48.9587 62.1185C52.8349 58.2927 58.062 56.1475 63.5083 56.1475C68.9546 56.1475 74.1816 58.2927 78.0577 62.1185C79.9669 64.0005 81.4826 66.2436 82.5166 68.7169C83.5506 71.1903 84.0823 73.8447 84.0807 76.5255H84.7288Z" fill="#F1F1F1"/>
<path d="M40.5479 74.5801C40.5479 74.5801 55.4847 74.9311 63.3428 74.9311C71.2008 74.9311 86.1038 74.5801 86.1038 74.5801V79.2461C86.1038 79.2461 74.7409 79.6421 63.3428 79.6421C51.9458 79.6421 40.5479 79.2461 40.5479 79.2461V74.5801Z" fill="#F1F1F1"/>
<path d="M64.0787 57.0587C68.4734 59.2817 72.4797 62.2007 75.9426 65.7026C77.5733 66.5594 78.9432 67.8392 79.9088 69.4077C80.8744 70.9763 81.4002 72.7759 81.4307 74.6176L81.4316 74.7877C81.4316 74.7877 69.3776 74.9696 63.3507 74.9696C57.3066 74.9696 45.2207 74.7877 45.2207 74.7877C45.2203 73.0263 45.6735 71.2946 46.5366 69.7592C47.3997 68.2239 48.6437 66.9367 50.1487 66.0216C50.5418 64.5226 51.4206 63.1962 52.6477 62.2497C53.8748 61.3032 55.381 60.7901 56.9307 60.7906H57.7856C58.3818 59.6636 59.2742 58.7206 60.3665 58.063C61.4588 57.4053 62.7098 57.0581 63.9847 57.0586L64.0787 57.0587Z" fill="white"/>
</g>
<defs>
<filter id="filter0_d_201_422700" x="0.547852" y="0" width="125.556" height="182.719" filterUnits="userSpaceOnUse" color-interpolation-filters="sRGB">
<feFlood flood-opacity="0" result="BackgroundImageFix"/>
<feColorMatrix in="SourceAlpha" type="matrix" values="0 0 0 0 0 0 0 0 0 0 0 0 0 0 0 0 0 0 127 0" result="hardAlpha"/>
<feOffset/>
<feGaussianBlur stdDeviation="20"/>
<feComposite in2="hardAlpha" operator="out"/>
<feColorMatrix type="matrix" values="0 0 0 0 1 0 0 0 0 0.960784 0 0 0 0 0.00392157 0 0 0 1 0"/>
<feBlend mode="normal" in2="BackgroundImageFix" result="effect1_dropShadow_201_422700"/>
<feBlend mode="normal" in="SourceGraphic" in2="effect1_dropShadow_201_422700" result="shape"/>
</filter>
</defs>
</svg>
