<svg width="145" height="132" viewBox="0 0 145 132" fill="none" xmlns="http://www.w3.org/2000/svg">
<g filter="url(#filter0_d_175_567)">
<path d="M49.4434 62.6488L49.8264 62.6119C54.7294 62.0989 54.3983 60.7489 56.9373 60.7119C57.939 60.6952 58.9137 61.0371 59.6854 61.6758C61.6773 60.1476 64.1008 59.287 66.6104 59.2168C68.6954 59.2648 70.8394 61.2368 72.4893 61.4128C75.3723 61.7198 80.6584 59.9278 82.7083 58.0408C82.8574 57.9038 83.0403 58.1349 82.9814 58.3879L82.8564 58.9208C82.6174 59.9798 82.4514 61.2418 83.6434 61.9938C85.3044 63.0408 87.7613 62.9588 90.0983 62.2268C90.3273 61.8517 90.6391 61.5339 91.0098 61.2978C91.3806 61.0617 91.8006 60.9136 92.2374 60.8648C94.4354 60.7718 95.0954 62.0718 96.1904 62.3348L96.3133 62.3619C97.6153 62.6389 99.4173 62.4138 100.204 64.8088C100.99 67.2028 104.912 66.0748 104.912 66.0748C104.912 66.0748 101.831 70.3438 99.5893 69.1758L99.4903 69.1228C94.6602 66.4318 93.5032 69.9519 89.9283 69.9219C88.6742 69.9145 87.4368 69.634 86.3022 69.0999C85.3623 68.6569 79.1433 71.6568 76.6933 69.4368L76.4062 69.1708C75.0343 67.8838 74.1092 66.7669 72.5013 67.2289C71.5402 67.5039 70.3353 68.5048 67.4722 68.3168C65.6252 68.1948 63.9494 66.8878 62.5103 65.7478C61.2233 66.2938 60.4583 66.0318 58.9583 68.0448L58.8654 68.1708C57.6894 69.7888 56.7594 70.3678 55.2404 69.6368L55.1424 69.5878C52.7934 68.3908 51.7073 70.5458 48.5334 70.3428C46.4344 70.2078 44.4544 65.8868 39.2863 67.4688C38.7534 67.5647 38.2063 67.5474 37.6805 67.418C37.1547 67.2886 36.6619 67.0501 36.2343 66.7178C35.7367 67.4276 35.2925 68.1733 34.9054 68.9489C33.2784 72.0019 32.1434 69.9719 30.9714 70.2069L30.9244 70.2178C29.7493 70.5138 29.2173 70.0058 27.5333 70.1818L27.3663 70.2008C24.8823 70.5118 22.9322 69.5868 22.4903 67.5568C22.4152 67.2168 21.6053 64.2918 22.2432 65.3258C22.8822 66.3599 24.3782 64.7609 25.2043 64.8128C28.7093 65.0378 26.3123 61.4738 30.5444 60.3599C32.6214 59.8128 36.1104 61.2989 38.0774 62.5579L38.8834 61.6299C39.8174 60.5679 40.8734 59.5049 41.9884 59.4269C45.0124 59.2169 46.6234 62.9038 49.4434 62.6488Z" fill="#9CC83B"/>
<path d="M49.4434 75.6488L49.8264 75.6119C54.7294 75.0989 54.3983 73.7489 56.9373 73.7119C57.939 73.6952 58.9137 74.0371 59.6854 74.6758C61.6773 73.1476 64.1008 72.287 66.6104 72.2168C68.6954 72.2648 70.8394 74.2368 72.4893 74.4128C75.3723 74.7198 80.6584 72.9278 82.7083 71.0408C82.8574 70.9038 83.0403 71.1349 82.9814 71.3879L82.8564 71.9208C82.6174 72.9798 82.4514 74.2418 83.6434 74.9938C85.3044 76.0408 87.7613 75.9588 90.0983 75.2268C90.3273 74.8517 90.6391 74.5339 91.0098 74.2978C91.3806 74.0617 91.8006 73.9136 92.2374 73.8648C94.4354 73.7718 95.0954 75.0718 96.1904 75.3348L96.3133 75.3619C97.6153 75.6389 99.4173 75.4138 100.204 77.8088C100.99 80.2028 104.912 79.0748 104.912 79.0748C104.912 79.0748 101.831 83.3438 99.5893 82.1758L99.4903 82.1228C94.6602 79.4318 93.5032 82.9519 89.9283 82.9219C88.6742 82.9145 87.4368 82.634 86.3022 82.0999C85.3623 81.6569 79.1433 84.6568 76.6933 82.4368L76.4062 82.1708C75.0343 80.8838 74.1092 79.7669 72.5013 80.2289C71.5402 80.5039 70.3353 81.5048 67.4722 81.3168C65.6252 81.1948 64.439 84.3408 63 83.2008C61.713 83.7468 60.4583 79.0318 58.9583 81.0448L58.8654 81.1708C57.6894 82.7888 56.7594 83.3678 55.2404 82.6368L55.1424 82.5878C52.7934 81.3908 51.7073 83.5458 48.5334 83.3428C46.4344 83.2078 44.4544 78.8868 39.2863 80.4688C38.7534 80.5647 38.2063 80.5474 37.6805 80.418C37.1547 80.2886 36.6619 80.0501 36.2343 79.7178C35.7367 80.4276 35.2925 81.1733 34.9054 81.9489C33.2784 85.0019 32.1434 82.9719 30.9714 83.2069L30.9244 83.2178C29.7493 83.5138 29.2173 83.0058 27.5333 83.1818L27.3663 83.2008C24.8823 83.5118 22.9322 82.5868 22.4903 80.5568C22.4152 80.2168 21.6053 77.2918 22.2432 78.3258C22.8822 79.3599 24.3782 77.7609 25.2043 77.8128C28.7093 78.0378 26.3123 74.4738 30.5444 73.3599C32.6214 72.8128 36.1104 74.2989 38.0774 75.5579L38.8834 74.6299C39.8174 73.5679 40.8734 72.5049 41.9884 72.4269C45.0124 72.2169 46.6234 75.9038 49.4434 75.6488Z" fill="#9CC83B"/>
<path fill-rule="evenodd" clip-rule="evenodd" d="M25.6989 83.1396C25.6883 84.8249 26.3076 86.4533 27.4352 87.7058C28.5628 88.9583 30.1175 89.7445 31.7946 89.9103C38.8724 90.5882 51.0267 91.5642 62.3667 91.5642C71.6081 91.5135 80.8409 90.987 90.0282 89.9868C91.6749 89.8023 93.1946 89.0139 94.2939 87.774C95.3931 86.5342 95.9938 84.9309 95.9798 83.274V80.1055H25.6989V83.1396Z" fill="#EC9D48"/>
<path fill-rule="evenodd" clip-rule="evenodd" d="M93.4283 68.286C94.4227 68.3007 95.3706 68.7095 96.0638 69.4226C96.7571 70.1357 97.1389 71.0948 97.1255 72.0892V73.8177C97.1544 74.4194 96.9836 75.0137 96.6396 75.5082C96.2955 76.0027 95.7977 76.3696 95.2234 76.5517C95.0164 76.4992 94.8033 76.4745 94.5897 76.4781C94.5818 76.4781 77.4168 76.6301 75.0938 76.9127C73.7499 76.9892 72.8435 77.0637 72.3746 77.1363C59.4983 79.1434 54.0637 76.1112 47.8942 75.4824C44.2893 75.0735 40.6413 75.2688 37.1006 76.0602C37.0663 76.0681 35.8479 76.2446 35.172 76.2848C33.9605 76.3564 32.8569 76.4977 31.4286 76.4545C30.6105 76.43 29.5265 76.8067 28.9075 76.6076C28.2958 76.4497 27.7569 76.0864 27.3813 75.5784C27.0057 75.0705 26.8162 74.4488 26.8446 73.8177V72.0892C26.8312 71.0948 27.213 70.1357 27.9063 69.4226C28.5995 68.7095 29.5474 68.3007 30.5418 68.286C44.7935 67.5159 55.5178 67.1268 62.7149 67.1187H62.9405C69.716 67.1187 79.8787 67.5078 93.4283 68.286Z" fill="#73381F"/>
<path fill-rule="evenodd" clip-rule="evenodd" d="M72.6727 79.2583C73.1464 79.1857 74.0593 79.1119 75.4115 79.0367C77.7491 78.7581 95.033 78.608 95.0398 78.608C95.7696 78.608 96.3611 78.8149 96.3611 79.5448C96.3611 80.3541 95.7775 80.2766 94.979 80.411C93.8474 80.5959 92.703 80.6913 91.5564 80.6964C89.9329 80.7112 85.0669 80.6036 76.9585 80.3737C76.519 80.3609 75.6747 80.4002 74.4257 80.4914C73.7459 80.6991 73.0531 80.8616 72.3519 80.978C64.6512 82.2817 62.2223 85.9201 59.2999 90.671C56.4817 95.2551 54.5177 80.7259 45.1562 80.3266C40.0526 80.0178 34.9312 80.1866 29.8589 80.8308C29.7631 80.8339 29.6671 80.8277 29.5725 80.8122C28.7886 80.6817 28.2619 80.3266 28.3914 79.5448C28.5601 78.5324 29.4077 78.5383 30.4318 78.4726L31.3137 78.4167C32.6139 78.4883 33.9169 78.4883 35.217 78.4167C35.9007 78.3764 37.1269 78.2028 37.1573 78.195C40.7244 77.4134 44.3953 77.2209 48.0246 77.625C54.2391 78.246 59.709 81.2399 72.6727 79.2583Z" fill="#FEBB14"/>
<path d="M76.4233 65.2095C81.4459 65.5244 87.1728 65.976 93.604 66.5642L93.6992 66.5731H93.7992C94.8003 66.5745 95.7623 66.1849 96.4801 65.4871C96.6145 65.6204 96.7064 65.7905 96.7438 65.9759C96.7813 66.1614 96.7628 66.3539 96.6907 66.5288C96.6186 66.7037 96.496 66.8533 96.3387 66.9585C96.1814 67.0636 95.9965 67.1197 95.8073 67.1195H28.5633C28.3433 67.1198 28.13 67.0441 27.9595 66.9052C27.789 66.7663 27.6716 66.5727 27.6274 66.3573C28.0521 66.5011 28.4975 66.574 28.9459 66.5731H29.0371L29.1254 66.5652C36.0236 65.9766 42.0661 65.5248 47.2528 65.2095L76.4233 65.2095Z" fill="#FED907"/>
<path d="M27.6086 68.0225C27.607 67.9026 27.6291 67.7835 27.6735 67.6721C27.718 67.5607 27.7839 67.4591 27.8676 67.3732C27.9514 67.2873 28.0511 67.2187 28.1614 67.1714C28.2716 67.1241 28.3901 67.099 28.5101 67.0975C32.998 67.0455 52.9442 66.8159 58.3563 66.8159C63.8184 66.8159 90.1664 67.0494 95.7158 67.0994C95.9677 67.1047 96.2092 67.2003 96.3964 67.3689C96.5836 67.5375 96.704 67.7678 96.7356 68.0177C96.7671 68.2677 96.7076 68.5206 96.5681 68.7304C96.4287 68.9402 96.2184 69.0928 95.9758 69.1605C94.7858 69.5092 93.5661 69.7473 92.3323 69.8717C91.3782 69.8506 90.4286 69.735 89.4974 69.5264C88.5546 69.336 87.5952 69.1075 86.6212 68.9505C85.701 68.8014 35.8321 68.9289 28.5022 68.9476C28.3822 68.9473 28.2636 68.923 28.1532 68.876C28.0429 68.829 27.9431 68.7603 27.8597 68.674C27.7764 68.5878 27.7113 68.4856 27.6681 68.3737C27.625 68.2618 27.6047 68.1424 27.6086 68.0225Z" fill="#DA1F26"/>
<path d="M97.5534 64.9246C97.6173 64.9581 97.6708 65.0086 97.7078 65.0706C97.7449 65.1326 97.7641 65.2036 97.7633 65.2758V66.604C97.7656 66.7047 97.728 66.8023 97.6588 66.8754C97.5895 66.9485 97.4941 66.9913 97.3934 66.9944C97.3448 66.9946 97.2967 66.9846 97.2522 66.965C95.9253 66.3692 94.5658 65.8488 93.1802 65.4062L93.5735 65.4435L93.6686 65.4523H93.7648C94.2564 65.4511 94.7426 65.3502 95.1941 65.1558C95.6456 64.9614 96.0531 64.6775 96.3918 64.3213C96.5331 64.391 97.416 64.852 97.5534 64.9246Z" fill="#F3DDA3"/>
<path d="M51.8785 66.7408C51.943 66.7816 51.9937 66.8411 52.0236 66.9114C52.0536 66.9816 52.0614 67.0593 52.0461 67.1342L51.7941 68.4242C51.7847 68.4734 51.7657 68.5202 51.7382 68.5621C51.7106 68.6039 51.6751 68.6399 51.6336 68.668C51.5921 68.6961 51.5456 68.7157 51.4965 68.7257C51.4474 68.7357 51.3968 68.7359 51.3477 68.7263C51.3071 68.7189 51.2682 68.7043 51.2328 68.6831C48.8704 67.3184 46.3599 66.228 43.75 65.4332C45.6795 65.3037 47.5067 65.1902 49.2316 65.0928C50.0714 65.5931 50.9538 66.1424 51.8785 66.7408Z" fill="#F3DDA3"/>
<path d="M61.8247 64.8272C64.3036 64.8272 67.1579 64.9093 70.3875 65.0734C66.0144 66.9461 62.7132 67.8826 60.4836 67.8829C58.3108 67.8829 55.1189 66.9929 50.9082 65.2127C55.2588 64.9557 58.8977 64.8272 61.8247 64.8272Z" fill="#F3DDA3"/>
<path d="M50.4921 65.0332C50.493 66.0783 50.2007 67.1026 49.6484 67.9899C47.8905 70.8053 46.0041 73.8306 40.4234 70.3364C37.9562 68.7933 36.9478 67.3404 36.7417 65.9573C41.7907 65.5649 46.2876 65.2618 50.2322 65.0479L50.4921 65.0332Z" fill="#E6E454"/>
<path d="M51.2562 64.9932C51.2653 66.1895 50.9327 67.3636 50.2977 68.3775C50.1251 68.6522 50.0495 68.7748 49.9495 68.9288C48.7537 70.8005 47.8335 71.7943 46.47 72.322C44.7248 72.9979 42.6314 72.58 40.0192 70.9536C37.5137 69.3948 36.2218 67.7791 35.9775 66.0104C36.5014 65.9702 37.017 65.9306 37.5244 65.8917C37.7304 67.117 38.739 68.3402 40.8363 69.6469C43.0749 71.0399 44.6826 71.3607 45.9088 70.8859C46.8751 70.5131 47.6158 69.7126 48.6439 68.1009C48.7391 67.9518 48.8156 67.8321 48.9834 67.5614C49.451 66.8164 49.7023 65.9561 49.7093 65.0765C50.2057 65.0481 50.6919 65.022 51.1679 64.9981L51.2562 64.9932Z" fill="#67893B"/>
<path d="M69.4373 64.8403C72.3096 64.9581 75.4925 65.135 78.986 65.371C77.2212 67.8097 74.6932 67.1878 72.2948 66.5992C71.2036 66.3299 70.2211 65.7328 69.4794 64.8884L69.4373 64.8403Z" fill="#E6E454"/>
<path d="M68.4443 64.8008C69.128 64.8253 69.8343 64.8548 70.5563 64.8861C71.1177 65.3568 71.7805 65.6909 72.4928 65.8622C72.7988 65.9368 72.9362 65.9691 73.104 66.0093C74.9453 66.439 76.0224 66.4988 76.9621 66.1162C77.399 65.9327 77.7901 65.6554 78.1079 65.304C78.6955 65.3412 79.2959 65.3815 79.9031 65.4237C79.3581 66.343 78.5336 67.0641 77.5499 67.4817C76.2216 68.0232 74.8845 67.9477 72.7489 67.4484C72.6077 67.416 72.4928 67.3885 72.2908 67.3395L72.1231 67.2993C70.6618 66.9459 69.3741 66.0838 68.4906 64.8674L68.4443 64.8008Z" fill="#67893B"/>
<path fill-rule="evenodd" clip-rule="evenodd" d="M74.0322 65.0669C77.806 65.2827 82.0075 65.5826 86.6368 65.9665C85.9583 66.3368 85.3241 66.7831 84.7464 67.2967C82.0958 69.6451 80.3496 72.7843 79.5285 71.7337C78.7075 70.682 78.7075 68.2806 77.8638 67.1456C76.9177 66.045 75.6084 65.32 74.1734 65.1023L74.0322 65.0669Z" fill="#FEBB14"/>
<path fill-rule="evenodd" clip-rule="evenodd" d="M96.1706 60.4347C96.1706 61.8699 95.3111 64.0633 93.7799 64.0633C93.7799 64.0633 72.9018 62.1534 61.7942 62.1534C51.3242 62.1534 28.9453 64.0633 28.9453 64.0633C27.414 64.0633 26.4624 62.2515 26.4624 60.8163C26.4624 47.9067 42.7681 40 62.1758 40C81.5835 40 96.1706 47.5241 96.1706 60.4347Z" fill="#EC9D48"/>
<path fill-rule="evenodd" clip-rule="evenodd" d="M59.0977 53.2317C58.9717 53.1654 58.8608 53.0736 58.772 52.9623C58.6832 52.8509 58.6186 52.7224 58.582 52.5848C58.5454 52.4472 58.5377 52.3035 58.5594 52.1627C58.5812 52.022 58.6318 51.8873 58.7082 51.7671C59.0289 51.2482 60.836 49.7856 61.1253 49.9435C61.4196 50.1005 60.9694 52.2988 60.6486 52.8178C60.4898 53.0695 60.2418 53.252 59.9543 53.3288C59.6667 53.4055 59.3608 53.3709 59.0977 53.2317Z" fill="white"/>
<path fill-rule="evenodd" clip-rule="evenodd" d="M58.7766 43.3998C58.9588 43.1989 59.2117 43.0763 59.4824 43.0577C59.753 43.039 60.0203 43.1258 60.2284 43.2997C60.6717 43.6598 61.7753 45.4608 61.5801 45.6874C61.3849 45.913 59.3729 45.1685 58.9295 44.8075C58.8248 44.7267 58.7376 44.6256 58.673 44.5102C58.6083 44.3948 58.5676 44.2676 58.5533 44.1362C58.5391 44.0047 58.5515 43.8717 58.5899 43.7452C58.6282 43.6186 58.6917 43.5012 58.7766 43.3998Z" fill="white"/>
<path fill-rule="evenodd" clip-rule="evenodd" d="M47.2414 53.4065C47.0593 53.6074 46.8065 53.73 46.5361 53.7486C46.2656 53.7673 45.9985 53.6806 45.7905 53.5067C45.3471 53.1457 44.2435 51.3455 44.4377 51.1189C44.633 50.8933 46.6459 51.6379 47.0884 51.9989C47.193 52.0797 47.2803 52.1808 47.345 52.2962C47.4096 52.4115 47.4503 52.5387 47.4646 52.6702C47.4789 52.8016 47.4664 52.9346 47.4281 53.0611C47.3897 53.1877 47.3263 53.3051 47.2414 53.4065Z" fill="white"/>
<path fill-rule="evenodd" clip-rule="evenodd" d="M43.0629 56.4403C43.3585 56.3884 43.6626 56.4533 43.9113 56.6213C44.16 56.7893 44.3337 57.0472 44.3959 57.3408C44.5068 57.9412 44.1203 60.1866 43.7809 60.2426C43.4444 60.2985 42.2564 58.312 42.1426 57.7126C42.1167 57.5683 42.1202 57.4203 42.1528 57.2774C42.1854 57.1345 42.2464 56.9996 42.3323 56.8809C42.4182 56.7621 42.5272 56.6619 42.6528 56.5861C42.7783 56.5104 42.9178 56.4609 43.0629 56.4403Z" fill="white"/>
<path fill-rule="evenodd" clip-rule="evenodd" d="M29.3657 60.2059C29.5479 60.0051 29.8009 59.8825 30.0715 59.8638C30.3421 59.8452 30.6094 59.9319 30.8175 60.1059C31.2598 60.4659 32.3644 62.267 32.1692 62.4936C31.975 62.7192 29.962 61.9746 29.5186 61.6136C29.4139 61.5328 29.3267 61.4317 29.2621 61.3164C29.1974 61.201 29.1567 61.0738 29.1425 60.9423C29.1282 60.8108 29.1406 60.6779 29.179 60.5513C29.2173 60.4248 29.2808 60.3073 29.3657 60.2059Z" fill="white"/>
<path fill-rule="evenodd" clip-rule="evenodd" d="M78.3713 54.283C78.1701 54.1012 78.0473 53.8483 78.0288 53.5777C78.0103 53.3071 78.0975 53.0398 78.2721 52.8322C78.6312 52.3898 80.4332 51.2862 80.6588 51.4814C80.8845 51.6767 80.1399 53.6916 79.7808 54.133C79.6996 54.2374 79.5982 54.3244 79.4825 54.3887C79.3669 54.453 79.2395 54.4934 79.108 54.5074C78.9764 54.5214 78.8434 54.5088 78.7169 54.4702C78.5903 54.4317 78.4727 54.368 78.3713 54.283Z" fill="white"/>
<path fill-rule="evenodd" clip-rule="evenodd" d="M75.1475 44.9813C75.4431 44.9294 75.7473 44.9943 75.996 45.1623C76.2446 45.3303 76.4184 45.5883 76.4806 45.8818C76.5914 46.4822 76.206 48.7277 75.8656 48.7836C75.5291 48.8395 74.3412 46.853 74.2274 46.2536C74.2015 46.1094 74.2049 45.9613 74.2375 45.8184C74.2701 45.6755 74.3312 45.5406 74.4171 45.4219C74.503 45.3031 74.612 45.2029 74.7375 45.1272C74.863 45.0515 75.0024 45.0019 75.1475 44.9813Z" fill="white"/>
<path fill-rule="evenodd" clip-rule="evenodd" d="M56.5002 56.594C56.6384 56.8572 56.6726 57.1627 56.5961 57.45C56.5196 57.7373 56.338 57.9853 56.0872 58.1449C55.5682 58.4647 53.3678 58.9131 53.2119 58.6217C53.055 58.3304 54.5176 56.5214 55.0376 56.2016C55.1578 56.1255 55.2926 56.0751 55.4332 56.0537C55.5739 56.0323 55.7175 56.0403 55.855 56.0772C55.9924 56.114 56.1206 56.179 56.2317 56.268C56.3428 56.3569 56.4342 56.4679 56.5002 56.594Z" fill="white"/>
<path fill-rule="evenodd" clip-rule="evenodd" d="M63.3603 57.1507C63.5426 56.9499 63.7955 56.8273 64.0661 56.8086C64.3367 56.79 64.604 56.8767 64.8121 57.0507C65.2554 57.4107 66.359 59.2118 66.1638 59.4384C65.9686 59.664 63.9567 58.9194 63.5133 58.5584C63.4087 58.4776 63.3214 58.3765 63.2567 58.2612C63.1921 58.1458 63.1514 58.0186 63.1371 57.8872C63.1228 57.7557 63.1352 57.6227 63.1736 57.4962C63.212 57.3696 63.2754 57.2521 63.3603 57.1507Z" fill="white"/>
<path fill-rule="evenodd" clip-rule="evenodd" d="M69.6244 50.3123C69.921 50.3051 70.2082 50.416 70.4231 50.6205C70.638 50.8251 70.7628 51.1067 70.7701 51.4033C70.7701 52.0066 69.9687 54.1323 69.6244 54.1323C69.2801 54.1323 68.4785 52.0066 68.4785 51.4033C68.4858 51.1066 68.6107 50.8251 68.8255 50.6205C69.0404 50.4159 69.3278 50.3051 69.6244 50.3123Z" fill="white"/>
<path fill-rule="evenodd" clip-rule="evenodd" d="M91.0524 54.7454C91.2539 54.9271 91.3769 55.18 91.3956 55.4507C91.4142 55.7214 91.327 55.9887 91.1524 56.1963C90.7923 56.6388 88.9903 57.7424 88.7647 57.5471C88.5391 57.3519 89.2836 55.338 89.6427 54.8956C89.724 54.7912 89.8254 54.7042 89.941 54.6399C90.0566 54.5755 90.184 54.5352 90.3156 54.5212C90.4471 54.5072 90.5802 54.5198 90.7068 54.5583C90.8333 54.5969 90.9509 54.6605 91.0524 54.7454Z" fill="white"/>
<path fill-rule="evenodd" clip-rule="evenodd" d="M78.2417 60.4886C77.9786 60.6277 77.6726 60.6624 77.385 60.5856C77.0974 60.5089 76.8495 60.3263 76.6907 60.0746C76.3699 59.5557 75.9196 57.3573 76.2129 57.2003C76.5033 57.0424 78.3103 58.505 78.6311 59.0239C78.7075 59.1441 78.7581 59.2788 78.7798 59.4196C78.8015 59.5603 78.7939 59.704 78.7573 59.8416C78.7207 59.9792 78.656 60.1078 78.5673 60.2191C78.4785 60.3305 78.3677 60.4222 78.2417 60.4886Z" fill="white"/>
<path fill-rule="evenodd" clip-rule="evenodd" d="M50.1444 44.5833C50.441 44.5761 50.7283 44.687 50.9431 44.8915C51.158 45.0961 51.2828 45.3777 51.2902 45.6742C51.2902 46.2775 50.4877 48.4033 50.1444 48.4033C49.8011 48.4033 48.9985 46.2775 48.9985 45.6742C49.0059 45.3776 49.1307 45.0961 49.3456 44.8915C49.5604 44.6869 49.8478 44.5761 50.1444 44.5833Z" fill="white"/>
<path fill-rule="evenodd" clip-rule="evenodd" d="M33.9493 52.9485C34.1312 52.7474 34.384 52.6247 34.6545 52.606C34.925 52.5873 35.1922 52.6742 35.4 52.8484C35.8434 53.2084 36.948 55.0095 36.7528 55.2361C36.5576 55.4617 34.5446 54.7171 34.1022 54.3561C33.9975 54.2753 33.9102 54.1742 33.8456 54.0589C33.7809 53.9435 33.7402 53.8163 33.726 53.6848C33.7117 53.5534 33.7241 53.4204 33.7625 53.2938C33.8008 53.1673 33.8644 53.0499 33.9493 52.9485Z" fill="white"/>
</g>
<defs>
<filter id="filter0_d_175_567" x="-18" y="0" width="162.912" height="131.564" filterUnits="userSpaceOnUse" color-interpolation-filters="sRGB">
<feFlood flood-opacity="0" result="BackgroundImageFix"/>
<feColorMatrix in="SourceAlpha" type="matrix" values="0 0 0 0 0 0 0 0 0 0 0 0 0 0 0 0 0 0 127 0" result="hardAlpha"/>
<feOffset/>
<feGaussianBlur stdDeviation="20"/>
<feComposite in2="hardAlpha" operator="out"/>
<feColorMatrix type="matrix" values="0 0 0 0 1 0 0 0 0 0.960784 0 0 0 0 0.00392157 0 0 0 1 0"/>
<feBlend mode="normal" in2="BackgroundImageFix" result="effect1_dropShadow_175_567"/>
<feBlend mode="normal" in="SourceGraphic" in2="effect1_dropShadow_175_567" result="shape"/>
</filter>
</defs>
</svg>
