<svg width="68" height="268" viewBox="0 0 68 268" fill="none" xmlns="http://www.w3.org/2000/svg">
<path d="M40.0845 244.631V264.673H48.9265V244.631H40.0845Z" fill="#FDBD8E"/>
<path d="M5.30552 244.631L3.53711 264.673H12.3792L14.1476 244.631H5.30552Z" fill="#FDBD8E"/>
<path d="M54.3377 192.726C52.9901 196.685 49.4831 253.513 49.4831 253.513H39.2866C39.2866 253.513 35.2831 208.705 36.0651 204.603C37.1297 198.993 40.6816 188.329 40.6816 188.329C40.2951 186.13 39.7179 143.023 39.7179 143.023L37.0258 142.802C37.0258 142.802 28.5634 190.088 26.0619 195.586C23.5604 201.084 13.9437 251.446 13.9437 251.446H3.94043C3.94043 251.446 5.81309 210.97 6.05815 207.68C6.52549 201.36 14.5205 185.689 14.5205 185.689C14.5205 185.689 14.1485 143.672 14.5205 137.304C14.535 137.079 14.5495 136.849 14.5666 136.623C14.6359 135.666 14.7401 134.705 14.8727 133.739C14.8958 133.554 14.9219 133.372 14.9505 133.187C14.9796 132.981 15.0112 132.779 15.0429 132.573C15.0835 132.318 15.1236 132.062 15.1699 131.807C15.2045 131.592 15.242 131.381 15.2823 131.166C15.62 129.313 16.0468 127.466 16.526 125.669C16.6444 125.222 16.7684 124.779 16.8924 124.338C16.9702 124.065 17.0481 123.792 17.1289 123.522C17.1866 123.322 17.2473 123.122 17.3079 122.926C17.6107 121.924 17.9253 120.943 18.2456 119.992C18.3093 119.812 18.3696 119.633 18.4303 119.457C18.4936 119.269 18.5572 119.084 18.6236 118.902C18.6496 118.823 18.6783 118.744 18.7043 118.667C18.7159 118.632 18.7274 118.6 18.739 118.567L18.742 118.564C18.8313 118.312 18.9206 118.059 19.0101 117.812C19.2123 117.257 19.4143 116.715 19.6162 116.186C19.8151 115.66 20.0144 115.149 20.2105 114.655H20.2132C20.4876 113.959 20.7616 113.296 21.0242 112.667C21.0789 112.538 21.1337 112.406 21.1857 112.279C21.4453 111.668 21.6963 111.096 21.9301 110.564C21.9908 110.432 22.0485 110.3 22.1033 110.174C22.5996 109.07 23.0264 108.165 23.344 107.51V107.507C23.4103 107.369 23.4736 107.24 23.5313 107.125C23.5604 107.063 23.5861 107.008 23.6151 106.955C23.8284 106.523 23.9469 106.294 23.9469 106.294H53.9539C53.9539 106.294 54.1414 107.149 54.4502 108.603C54.5396 109.026 54.6386 109.495 54.7474 110.012C54.8252 110.382 54.909 110.779 54.9957 111.196C55.0791 111.601 55.1688 112.027 55.2583 112.47C55.7341 114.77 56.2967 117.545 56.868 120.494C58.0684 126.676 59.3177 133.63 59.915 138.626C61.2622 149.842 55.685 188.767 54.3377 192.726Z" fill="#813D16"/>
<path d="M28.9467 263.718C26.8065 262.747 20.0084 260.88 15.2523 257.455C14.7274 257.077 14.0524 256.936 13.3942 257.046C13.3903 257.047 13.0311 257.107 13.0273 257.107C13.0273 257.107 12.4085 260.013 8.89562 261.04C6.5321 261.732 2.99781 259.93 2.99781 259.93L2.3584 267.62H29.5855C30.1414 267.36 30.3129 266.823 30.3129 266.823C30.3129 266.823 31.6752 264.957 28.9467 263.718Z" fill="#34312E"/>
<path d="M63.2784 263.718C61.3165 262.747 55.085 260.88 50.7251 257.455C50.244 257.077 49.6253 256.936 49.0219 257.046C49.0184 257.047 48.6891 257.107 48.6855 257.107C48.6855 257.107 48.1184 260.013 44.8982 261.04C42.7317 261.732 39.4919 259.93 39.4919 259.93L38.9058 267.62H63.8639C64.3735 267.36 64.5308 266.823 64.5308 266.823C64.5308 266.823 65.7795 264.957 63.2784 263.718Z" fill="#34312E"/>
<path d="M27.8132 106.476C27.8132 106.476 27.4583 107.522 26.8841 109.19C26.6156 109.971 26.2984 110.887 25.9465 111.898C25.583 112.94 25.1819 114.08 24.7575 115.272C24.527 115.924 24.2872 116.591 24.0451 117.266C23.8374 117.848 23.6237 118.435 23.4133 119.023C21.5868 124.042 19.6595 129.07 18.6265 130.914C16.3037 135.064 18.6265 184.033 18.6265 184.033C18.6265 184.033 9.69946 206.06 8.83367 206.94C8.11543 207.672 6.19953 240.421 5.57328 251.446H3.94043C3.94043 251.446 5.81309 210.97 6.05815 207.68C6.52549 201.36 14.5205 185.689 14.5205 185.689C14.5205 185.689 14.1485 143.672 14.5205 137.304C14.535 137.079 14.5495 136.849 14.5666 136.623C14.6359 135.666 14.7401 134.705 14.8727 133.739C14.8958 133.554 14.9219 133.372 14.9505 133.187C14.9796 132.981 15.0112 132.779 15.0429 132.573C15.0835 132.318 15.1236 132.062 15.1699 131.807C15.2045 131.592 15.242 131.381 15.2823 131.166C15.62 129.313 16.0468 127.466 16.526 125.669C16.6444 125.222 16.7684 124.779 16.8924 124.338C16.9702 124.065 17.0481 123.792 17.1289 123.522C17.1866 123.322 17.2473 123.122 17.3079 122.926C17.6107 121.924 17.9253 120.943 18.2456 119.992C18.3093 119.812 18.3696 119.633 18.4303 119.457C18.4936 119.269 18.5572 119.084 18.6236 118.902C18.6496 118.823 18.6783 118.744 18.7043 118.667C18.7159 118.632 18.7274 118.6 18.739 118.567L18.742 118.564C18.8313 118.312 18.9206 118.059 19.0101 117.812C19.2123 117.257 19.4143 116.715 19.6162 116.186C19.8151 115.66 20.0144 115.149 20.2105 114.655H20.2132C20.4876 113.959 20.7616 113.296 21.0242 112.667C21.0789 112.538 21.1337 112.406 21.1857 112.279C21.4453 111.668 21.6963 111.096 21.9301 110.564C21.9908 110.432 22.0486 110.3 22.1033 110.174C22.5996 109.07 23.0264 108.165 23.344 107.51V107.507C23.4103 107.369 23.4736 107.24 23.5313 107.125C23.5604 107.063 23.5861 107.008 23.6151 106.955C23.8284 106.523 23.9469 106.294 23.9469 106.294H26.5638L26.8121 106.329L27.8132 106.476Z" fill="#55250A"/>
<path d="M56.8687 120.494C48.1781 124.371 32.8113 121.445 23.4139 119.023C22.8252 118.873 22.2566 118.723 21.7174 118.576C21.0941 118.406 20.5053 118.241 19.9602 118.086C19.6285 117.992 19.3108 117.901 19.0107 117.812C19.1753 117.363 19.337 116.92 19.5015 116.488C19.5388 116.385 19.5793 116.285 19.6169 116.186C19.7696 115.783 19.9197 115.39 20.0727 115.008C20.1189 114.89 20.1651 114.773 20.2112 114.655H20.2138C20.4883 113.959 20.7623 113.296 21.0248 112.667C21.0479 112.614 21.071 112.558 21.0911 112.506C21.1258 112.429 21.1548 112.353 21.1864 112.279C21.4028 111.772 21.6105 111.292 21.8094 110.84C21.85 110.746 21.8902 110.655 21.9308 110.564C21.9915 110.432 22.0492 110.3 22.1039 110.174C22.6003 109.07 23.027 108.165 23.3447 107.51V107.507C23.411 107.369 23.4743 107.24 23.532 107.125C23.561 107.063 23.5868 107.008 23.6157 106.955C23.8291 106.523 23.9475 106.294 23.9475 106.294H53.9545C53.9545 106.294 54.1421 107.149 54.4509 108.603C54.5403 109.026 54.6393 109.495 54.748 110.012C54.8258 110.382 54.9096 110.779 54.9964 111.196C55.0798 111.601 55.1695 112.027 55.2589 112.47C55.7347 114.77 56.2974 117.545 56.8687 120.494Z" fill="#55250A"/>
<path d="M43.6606 187.166L43.3542 146.834L39.7195 143.022C39.7195 143.022 40.2966 186.13 40.6831 188.329C40.6831 188.329 37.1312 198.993 36.0666 204.603C35.2846 208.705 39.2881 253.513 39.2881 253.513H41.5588L38.522 207.528L43.6606 187.166Z" fill="#55250A"/>
<path d="M53.9525 106.293C42.0941 116.42 23.2067 107.794 23.2067 107.794C23.2849 104.793 20.2438 91.4771 17.7016 79.3773C17.018 76.1144 16.3686 72.9427 15.8264 70.0822C15.1131 66.2785 15.0603 62.377 15.6705 58.5548C15.8436 57.2443 16.1701 55.9596 16.643 54.7282C17.2882 53.8765 18.0861 53.1571 18.9945 52.6079C19.0001 52.6048 19.0087 52.5988 19.0146 52.5962C19.228 52.4492 19.4041 52.3286 19.5397 52.2376C19.5664 52.2214 19.5924 52.2038 19.6175 52.185C19.6927 52.1349 19.7474 52.0967 19.788 52.0701C19.7992 52.0614 19.811 52.0557 19.8196 52.0496C19.8275 52.0428 19.8361 52.0369 19.8453 52.0322C21.7111 50.7738 23.6886 49.6962 25.7518 48.8132C25.7659 48.8075 25.7834 48.8015 25.798 48.7957C26.222 48.643 26.6403 48.5019 27.0327 48.3758C28.6283 47.8645 29.8635 47.5768 29.8635 47.5768H39.4857C39.499 47.5746 39.5125 47.5736 39.5259 47.5738C39.5367 47.5741 39.5474 47.5732 39.558 47.5711C39.5925 47.568 39.6387 47.5651 39.6961 47.5651C39.7006 47.5627 39.7056 47.5617 39.7106 47.5621C40.3026 47.568 40.8914 47.6519 41.4622 47.8118V47.8148C41.8536 47.9163 42.2398 48.0378 42.6192 48.179C44.1415 48.7686 45.5918 49.5353 46.9412 50.4638C48.1667 51.29 49.3431 52.1893 50.4641 53.1571C57.6775 59.3242 57.3023 71.1511 53.0178 79.6358C51.7365 82.1703 53.9525 106.293 53.9525 106.293Z" fill="#264F36"/>
<path d="M4.30529 68.1507C7.12937 56.9415 20.9958 52.7563 20.9958 52.7563L17.5465 59.1037L17.0785 63.8948L14.9901 85.28L1.11572 87.0733C1.81527 80.7078 2.88028 74.3895 4.30529 68.1507Z" fill="#264F36"/>
<path d="M4.30529 68.1507C7.12937 56.9415 20.9958 52.7563 20.9958 52.7563C20.9958 52.7563 7.70943 59.8009 5.96618 67.5323C5.54598 69.3952 4.29438 77.9924 3.26442 86.7953L1.11572 87.0733C1.81527 80.7078 2.88028 74.3895 4.30529 68.1507Z" fill="#56926D"/>
<path d="M51.3119 78.4241C51.3119 78.4241 50.9599 78.4059 50.3245 78.373C49.6945 78.3331 48.7833 78.275 47.658 78.2035C45.4256 78.0914 42.3657 77.9172 39.2701 78.7604C38.4813 78.9723 37.691 79.2223 36.8946 79.4405C36.1174 79.6591 35.3275 79.8281 34.5296 79.9465C33.1798 80.1452 31.8125 80.1899 30.4529 80.0797C29.916 80.0418 29.3852 79.9406 28.8712 79.7782C28.4784 79.6547 28.1096 79.463 27.7809 79.2116C27.5798 79.0532 27.4045 78.8633 27.2618 78.649C27.1728 78.5 27.1328 78.421 27.1328 78.421C27.1328 78.421 27.1988 78.4795 27.3241 78.5909C27.5103 78.7366 27.716 78.8545 27.9349 78.9411C28.7429 79.1986 29.6015 79.2461 30.4321 79.079C31.702 78.8996 32.959 78.6368 34.1955 78.2921C34.8907 78.0994 35.5955 77.8722 36.3465 77.608C37.0978 77.3468 37.8991 77.0592 38.7699 76.8245C40.4244 76.3912 42.1413 76.2599 43.8409 76.4364C45.1881 76.5735 46.5203 76.8345 47.8212 77.2163C48.9211 77.5341 49.7892 77.8446 50.3871 78.0669C50.9848 78.2888 51.3119 78.4241 51.3119 78.4241Z" fill="#153A23"/>
<path d="M52.2261 96.8179L51.3244 97.0435L43.1608 99.0791L41.8981 93.8749L41.6392 92.8074C41.6392 92.8074 46.7471 91.5502 47.5538 91.6136C48.3585 91.6771 52.2261 96.8179 52.2261 96.8179Z" fill="#FDBD8E"/>
<path d="M52.2261 96.8179L51.3244 97.0435C49.8449 95.5883 47.7157 93.5023 47.4021 93.2488C47.001 92.9242 43.2206 93.6188 41.8981 93.8749L41.6392 92.8074C41.6392 92.8074 46.7471 91.5502 47.5538 91.6136C48.3585 91.6771 52.2261 96.8179 52.2261 96.8179Z" fill="#FFDABA"/>
<path d="M37.5547 101.329C37.5547 101.329 61.8366 108.174 66.568 104.541C67.7487 103.635 66.8074 95.5502 64.9853 86.7225L56.2267 86.2897L55.1205 86.2354L55.8154 93.5327L52.2275 96.8181L45.9973 98.3721L43.1643 99.0794L37.5547 101.329Z" fill="#FDBD8E"/>
<path d="M52.226 81.6853L50.3916 53.3677C50.5844 53.4416 50.7731 53.5261 50.9569 53.6207C52.0825 54.1759 55.7182 57.4715 57.768 60.817C60.1903 64.7709 63.0725 76.2125 64.9843 86.722L51.6966 86.7201L52.226 81.6853Z" fill="#264F36"/>
<path d="M50.3916 53.3677L50.9569 53.6207C52.0825 54.1759 55.7182 57.4715 57.768 60.817C60.1903 64.7709 64.2433 76.2125 66.1552 86.722L63.7726 86.6543C61.0864 74.0062 57.477 63.837 57.3943 62.7872C57.2696 61.2052 50.3916 53.3677 50.3916 53.3677Z" fill="#56926D"/>
<path d="M52.2271 96.818L56.7074 95.9499C57.4441 96.8603 58.2921 97.7828 58.7664 97.8657C59.7191 98.0336 57.902 95.68 57.902 95.68C57.902 95.68 59.9283 95.7394 60.6323 95.3443C61.0809 95.0935 59.1265 94.5118 57.6368 94.1166C57.3324 92.3495 56.8871 89.7539 56.3083 86.7216L55.1662 86.7202L55.8149 93.5325L52.2271 96.818Z" fill="#FB9988"/>
<path d="M4.09712 107.829C5.25673 109.007 36.1571 103.117 43.1634 99.0796L42.9174 98.0648L41.6414 92.8065L14.1874 93.5329L14.9914 85.2798L5.51725 86.5028L3.2677 86.7939C1.98704 97.6345 2.30562 106.003 4.09712 107.829Z" fill="#FDBD8E"/>
<path d="M4.09712 107.83C5.01892 108.766 30.6201 104.895 43.1634 99.0803C46.6939 98.0369 49.8887 97.8718 51.326 97.0436L42.9173 98.0655C42.9173 98.0655 8.85416 107.693 5.6775 106.668C2.94213 105.786 4.91531 90.6902 5.51725 86.5034L3.2677 86.7945C1.98704 97.6352 2.30562 106.004 4.09712 107.83Z" fill="#FB9988"/>
<path d="M17.0794 63.8945V85.0094L13.7891 85.4352L17.0794 63.8945Z" fill="#153A23"/>
<path d="M25.4565 93.4054L15.1291 93.5218L14.1875 93.5319C14.1875 93.5319 16.2422 89.0149 17.5495 88.7614C18.8371 88.513 25.2573 93.2583 25.4515 93.4027L25.4565 93.4054Z" fill="#FDBD8E"/>
<path d="M25.4515 93.4027C25.2375 93.3191 18.4113 90.5993 17.7365 90.5359C17.0739 90.4747 15.2511 93.3268 15.1291 93.5218L15.1215 93.5319H14.1875C14.1875 93.5319 16.2422 89.0149 17.5495 88.7614C18.8371 88.513 25.2573 93.2583 25.4515 93.4027Z" fill="#FFDABA"/>
<path d="M55.1507 43.3556C53.7902 43.8169 52.4012 44.1858 50.9928 44.46C41.3273 46.3897 29.2434 44.9357 22.2437 43.7493C18.7267 43.1501 16.4906 42.6214 16.4906 42.6214C16.4906 42.6214 15.3653 32.9738 15.3653 29.2913C15.3609 27.1913 15.5153 25.094 15.8271 23.0181C17.8379 9.73759 25.7755 3.68737 26.3379 3.27351C26.3462 3.2683 26.354 3.26233 26.3613 3.25567C26.3644 3.25424 26.3673 3.25233 26.3699 3.25H41.2667L46.7314 6.11046L47.8248 6.68319L48.2403 6.90038L54.2216 10.031L54.3686 15.2645L54.4841 19.4262L55.1507 43.3556Z" fill="#5E2C00"/>
<path d="M52.1384 41.4712C51.8645 42.5072 51.4804 43.5097 50.993 44.4609C41.3275 46.3906 29.2436 44.9366 22.2439 43.7502C22.2305 43.7322 22.2181 43.7135 22.2067 43.6942C19.8972 39.9234 18.6616 35.5739 18.6375 31.1305C18.6212 26.7072 19.2404 22.3053 20.4755 18.0645C21.3699 14.7223 22.4922 11.3975 24.3879 8.52265C25.8088 6.30083 27.7645 4.48603 30.0691 3.25091C30.1842 3.18914 30.2996 3.13338 30.4151 3.07767C32.9717 1.86482 35.776 1.81174 38.5835 1.83524C42.1959 1.86482 45.8834 3.57981 47.825 6.6841C49.5907 9.50356 49.7527 13.019 50.1794 16.3347C50.7189 20.5372 51.7604 24.6606 52.3924 28.8514C53.0242 33.0426 53.238 37.3831 52.1384 41.4712Z" fill="#944600"/>
<path d="M56.1576 31.8568C56.1137 31.626 56.0451 31.2939 55.9347 30.8883C55.806 30.4084 55.6376 29.9405 55.4311 29.4896C55.1727 28.9188 54.8277 28.3929 54.4087 27.9313C53.9806 27.4734 53.4799 27.0919 52.9275 26.803C52.4898 26.5736 52.0309 26.3887 51.5575 26.2511C51.3844 26.2004 51.2277 26.1605 51.0839 26.1266C50.9091 25.9587 50.8043 25.8667 50.8043 25.8667C50.8043 25.8667 50.8376 25.946 50.8953 26.0839C50.7865 26.0608 50.6856 26.0407 50.602 26.0258C50.3742 25.9849 50.2466 25.9695 50.2466 25.9695C50.2466 25.9695 50.5619 26.1796 51.0797 26.5244C51.1885 26.7845 51.326 27.1128 51.487 27.4975C52.0291 28.7247 52.4286 30.0121 52.6772 31.3335C52.8573 32.6751 52.9196 34.0302 52.8635 35.383C52.8589 35.9282 52.855 36.372 52.8524 36.6795L52.8606 37.1612C52.8606 37.1612 52.9285 37.0031 53.0508 36.7198C53.1686 36.4344 53.3322 36.0195 53.5023 35.4928C53.7066 34.871 53.8584 34.2327 53.9562 33.5847C54.0834 32.7669 54.083 31.9338 53.9552 31.116C53.8154 30.2954 53.5409 29.5045 53.1432 28.7766C52.844 28.228 52.4945 27.7095 52.0993 27.228C52.6739 27.6363 53.2074 28.1015 53.692 28.6167C54.361 29.3864 54.9613 30.2151 55.4858 31.0932C55.7087 31.4393 55.8898 31.721 56.0154 31.9166C56.1467 32.1093 56.2199 32.2171 56.2199 32.2171C56.2199 32.2171 56.1978 32.0879 56.1576 31.8568Z" fill="#944600"/>
<path d="M46.945 50.4653C46.4021 52.4296 45.3795 54.2219 43.9724 55.6753C42.5652 57.1286 36.1136 56.0086 34.1919 56.5898C27.1694 58.986 27.2588 52.1804 25.8018 48.7972C27.1356 48.3204 28.4925 47.9136 29.8672 47.5783H39.4894C39.5027 47.576 39.5162 47.575 39.5297 47.5753C39.5405 47.5756 39.5512 47.5747 39.5617 47.5726C39.5963 47.5695 39.6425 47.5666 39.6999 47.5666C39.7044 47.5642 39.7094 47.5631 39.7144 47.5636C40.3064 47.5695 40.8951 47.6534 41.466 47.8133V47.8163C41.8574 47.9177 42.2436 48.0393 42.6229 48.1805C44.1453 48.7701 45.5956 49.5368 46.945 50.4653Z" fill="#FDBD8E"/>
<path d="M38.5217 57.4037L29.8657 47.5788C29.8802 46.1189 30.0013 45.5701 30.1312 41.9577C30.2697 37.94 30.4138 34.1748 30.4138 34.1748L41.5512 38.6567C40.3641 41.5611 39.6901 44.6561 39.5602 47.7991C39.419 51.0201 39.0721 54.2284 38.5217 57.4037Z" fill="#FDBD8E"/>
<path d="M41.5508 38.6567C40.3638 41.5611 39.6897 44.6561 39.5598 47.7991C39.208 47.9488 38.8646 48.0868 38.5414 48.2012C37.2489 48.6594 33.0941 44.9063 30.1309 41.9577C30.2693 37.94 30.4135 34.1748 30.4135 34.1748L41.5508 38.6567Z" fill="#FB9988"/>
<path d="M29.0447 46.8002C29.0447 46.8002 37.2408 54.8829 39.2716 55.093C41.3023 55.303 39.861 47.5658 39.861 47.5658C39.861 47.5658 43.6271 47.198 47.3122 50.2691C48.1217 51.2789 46.4097 59.8654 45.4351 60.0266C43.3881 60.3649 41.0039 56.1347 39.8611 56.563C38.7184 56.9913 32.8267 61.15 31.8186 60.8191C30.8105 60.4881 24.8839 51.3403 25.5315 49.0922C26.1783 46.8439 29.0447 46.8002 29.0447 46.8002Z" fill="#F2E6D7"/>
<path d="M53.2348 25.1876C53.0099 26.236 52.7194 27.3364 52.3635 28.4888C52.3635 28.4888 52.8624 34.1657 52.2771 35.4374C51.6883 36.7121 47.9376 44.6415 43.996 44.1511C40.707 43.7428 32.6628 38.8383 29.867 35.916C29.4216 35.527 29.0859 35.0242 28.8944 34.4595C28.5109 32.2066 27.1924 22.2714 27.068 21.4402C26.7333 19.1877 25.8046 2.12731 46.0679 6.87332C47.8585 7.28575 49.4985 8.20396 50.7994 9.52248C52.1004 10.841 53.0096 12.5063 53.4225 14.3271C54.1469 17.9172 54.0828 21.6258 53.2348 25.1876Z" fill="#FDBD8E"/>
<path d="M52.3646 28.4891C52.3646 28.4891 52.8636 34.1661 52.2782 35.4377C51.6895 36.7124 47.9387 44.6418 43.9971 44.1514C40.7081 43.7432 32.6639 38.8387 29.8682 35.9164C33.2928 38.3365 42.4247 44.5127 45.1024 43.5639C48.4205 42.3894 52.1713 34.915 52.0991 34.1748C52.0272 33.4316 51.8105 28.5889 51.8105 28.5889C51.8105 28.5889 52.48 27.0588 53.2359 25.188C53.011 26.2364 52.7205 27.3367 52.3646 28.4891Z" fill="#FFDABA"/>
<path d="M29.8017 34.1742C28.7484 34.0709 27.7269 33.7491 26.8004 33.2287C25.8739 32.7083 25.0619 32.0003 24.4144 31.1482C24.2152 30.8916 24.036 30.6196 23.8785 30.3345C23.1519 28.9934 22.9431 24.3423 24.8135 23.2614C26.1244 22.505 27.0785 23.6024 27.532 24.3289V24.3312C27.6437 24.507 27.7427 24.6908 27.8285 24.8811L29.8017 34.1742Z" fill="#FFDABA"/>
<path d="M29.8011 34.173C28.7478 34.0697 27.7263 33.748 26.7998 33.2276C25.8733 32.7072 25.0612 31.9991 24.4138 31.1471C24.3281 31.0159 24.2533 30.8909 24.1895 30.7721C23.463 29.431 23.2542 24.7799 25.1245 23.7C26.1862 23.0863 27.014 23.6899 27.5314 24.3278V24.3301C27.6431 24.5059 27.7421 24.6897 27.8279 24.88L29.8011 34.173Z" fill="#FDBD8E"/>
<path d="M24.2244 26.9546C24.146 27.3307 24.1758 27.7218 24.3102 28.0811C24.8214 29.6421 26.353 30.8332 27.819 31.939C27.3901 31.2032 27.2095 30.3448 27.3048 29.4948C27.3511 29.2071 27.383 28.9172 27.4005 28.6263C27.4117 27.4561 24.7785 24.7554 24.2244 26.9546Z" fill="#FB9988"/>
<path d="M28.5558 32.3835C28.5558 32.3835 28.5272 32.3667 28.4724 32.3355C28.4193 32.3026 28.3335 32.2593 28.2363 32.1918C27.9643 32.0076 27.7206 31.7835 27.513 31.5268C27.2229 31.1663 27.0192 30.7419 26.918 30.2874C26.8023 29.735 26.8672 29.1592 27.1028 28.6479C27.1327 28.5766 27.1683 28.508 27.2093 28.4428L27.2386 28.3931C27.2459 28.3807 27.2416 28.3884 27.2423 28.3871L27.2419 28.3887L27.2433 28.388C27.2433 28.388 27.2452 28.3904 27.2396 28.3796L27.2156 28.3347L27.166 28.246C27.1321 28.1876 27.0988 28.1293 27.0639 28.0725C26.9285 27.8498 26.781 27.6351 26.622 27.4293C26.4679 27.2299 26.3083 27.046 26.151 26.8784C26.0073 26.7204 25.8523 26.5736 25.6873 26.439C25.5495 26.3279 25.3861 26.2545 25.2126 26.2258C25.0744 26.21 24.9345 26.2336 24.8087 26.2939C24.7327 26.328 24.6697 26.3862 24.629 26.4598C24.617 26.4846 24.6083 26.5109 24.6032 26.538C24.5986 26.5103 24.6001 26.4818 24.6075 26.4547C24.6306 26.3676 24.6844 26.2921 24.7586 26.2426C24.8949 26.1469 25.0563 26.0952 25.2219 26.0942C25.4434 26.0994 25.6599 26.1624 25.8506 26.2771C26.0522 26.3991 26.2432 26.5385 26.4214 26.6938C26.6201 26.861 26.8082 27.0407 26.9847 27.2319C27.1744 27.4376 27.3486 27.6575 27.5058 27.8899C27.5467 27.949 27.5849 28.01 27.6235 28.0715L27.68 28.1651L27.7544 28.2971L27.8062 28.3897C27.7927 28.4206 27.7723 28.4514 27.7558 28.4823L27.6812 28.615C27.6461 28.6717 27.6154 28.7312 27.5896 28.7929C27.3823 29.2452 27.3005 29.7466 27.3528 30.2428C27.4019 30.66 27.5339 31.0627 27.7406 31.4264C27.8927 31.6904 28.0788 31.9324 28.294 32.1461C28.3722 32.2258 28.4434 32.2805 28.4869 32.3218C28.5322 32.362 28.5558 32.3835 28.5558 32.3835Z" fill="#FD7D6F"/>
<path d="M55.0687 21.103C55.0687 21.103 52.4824 17.5785 51.0398 18.9737C49.597 20.3689 50.2463 20.5156 50.2463 20.5156L55.0687 21.103Z" fill="#55062C"/>
<path d="M34.5972 21.6434C34.5972 21.6434 39.3697 16.0483 41.3239 18.036C42.4646 19.1962 41.6718 19.986 41.6718 19.986L34.5972 21.6434Z" fill="#55062C"/>
<path d="M40.9841 22.2183C40.6331 22.8257 40.0926 23.2961 39.4485 23.5546C39.332 23.4022 39.1843 23.2775 39.0157 23.1889C38.8471 23.1003 38.6616 23.0501 38.472 23.0417C37.5426 23.0417 36.7891 24.2733 36.7891 25.7927C36.7891 27.3121 37.5426 28.5438 38.472 28.5438C39.4018 28.5438 40.1553 27.3121 40.1553 25.7927C40.1575 25.3511 40.0899 24.912 39.9551 24.4922C40.6649 23.8574 40.9841 22.2183 40.9841 22.2183Z" fill="#161818"/>
<path d="M35.1821 24.2574C35.5692 24.8728 36.1345 25.3506 36.8 25.6248C37.4654 25.8989 38.1981 25.9557 38.8967 25.7875C38.5098 25.172 37.9444 24.6941 37.2789 24.42C36.6135 24.1459 35.8807 24.0891 35.1821 24.2574Z" fill="#FFF0E7"/>
<path d="M52.37 23.6826C52.1299 24.1007 51.7595 24.4253 51.3176 24.6048C51.1465 24.4193 50.9101 24.3106 50.6603 24.3024C49.9595 24.3024 49.3916 25.2306 49.3916 26.3759C49.3916 27.5212 49.9595 28.4495 50.6603 28.4495C51.3608 28.4495 51.9288 27.5213 51.9288 26.3759C51.9324 25.976 51.8576 25.5795 51.7088 25.2094C52.0394 24.7577 52.2655 24.2357 52.37 23.6826Z" fill="#161818"/>
<path d="M53.0172 25.3691C52.7128 25.7748 52.307 26.0897 51.8421 26.2812C51.3772 26.4727 50.8704 26.5337 50.3745 26.4578C50.6789 26.0522 51.0848 25.7371 51.5496 25.5456C52.0145 25.3541 52.5213 25.2932 53.0172 25.3691Z" fill="#FFF0E7"/>
<path d="M44.9227 32.1353C44.5311 31.9276 44.0986 31.8119 43.6572 31.7969C44.1036 32.8246 44.9277 33.6335 45.953 34.0501C46.0296 34.0861 46.1127 34.1058 46.1971 34.1079C46.2999 34.0966 46.3984 34.0595 46.4837 34C47.0473 33.6633 47.54 33.2167 47.9338 32.6859C48.0191 32.5827 48.0827 32.4629 48.1205 32.3337C48.2211 31.9006 47.9285 31.9956 47.6756 32.0967C46.7924 32.4462 45.815 32.4599 44.9227 32.1353Z" fill="#FB9988"/>
<path d="M46.0435 33.8021C46.3027 33.5661 46.5939 33.3661 46.8601 33.1358C47.1901 32.8537 47.4922 32.5395 47.7621 32.1977C46.3796 31.2279 46.3941 29.7586 46.4607 28.0925C46.5085 26.9349 46.962 25.833 47.7391 24.9864C47.8739 24.8396 48.0174 24.7014 48.1688 24.5725C48.3129 24.4567 48.4745 24.3655 48.6473 24.3022C48.5622 24.4016 48.5038 24.5164 48.427 24.6181C48.2181 24.8747 48.023 25.1425 47.8423 25.4204C47.3208 26.2899 47.0255 27.2802 46.9841 28.298C46.956 28.9627 47.0618 29.6262 47.2951 30.2477C47.5636 30.983 48.0466 31.617 48.6793 32.0649C48.6849 32.0685 47.7344 33.1857 47.6414 33.2767C47.4019 33.513 47.1395 33.7238 46.8581 33.9061C46.5907 34.1222 46.2664 34.2529 45.9261 34.2818C45.8196 34.2816 45.7153 34.25 45.626 34.1908C45.684 34.152 45.7383 34.1076 45.788 34.0582C45.8097 34.0364 45.8305 34.0139 45.8512 33.9914C45.9126 33.9253 45.9769 33.8625 46.0435 33.8021Z" fill="#FD7D6F"/>
<path d="M47.5889 36.2408C46.9768 37.3025 46.0929 38.1751 45.0316 38.7653C44.1249 39.255 43.0938 39.4539 42.0739 39.3359C41.0432 39.2296 40.0805 38.7631 39.3495 38.016C38.4522 37.049 37.8239 35.8564 37.5293 34.5606C43.8459 34.3841 47.4405 36.167 47.5836 36.2368L47.5889 36.2408Z" fill="#FFF0E7"/>
<path d="M39.5811 39.8223C40.2226 40.1451 40.925 40.3233 41.6404 40.3447C42.3558 40.3661 43.0673 40.2301 43.7264 39.9461C43.5291 40.2749 43.2498 40.5445 42.9168 40.7275C42.5838 40.9106 42.2092 41.0005 41.8309 40.9882C40.9657 40.8942 40.1648 40.4791 39.5811 39.8223Z" fill="#FD7D6F"/>
<path d="M54.5432 21.5393C54.319 21.3863 54.0826 21.2528 53.8364 21.1401C53.6011 21.0282 53.3568 20.9368 53.1062 20.8669C52.6487 20.732 52.1747 20.6637 51.6984 20.6642C51.629 20.6642 51.5628 20.6642 51.4935 20.6702C51.2924 20.6761 51.0919 20.6958 50.8933 20.729C49.8101 20.9062 48.8104 21.4298 48.0391 22.224C47.2677 23.0181 46.7647 24.0415 46.6029 25.1461C45.8006 24.8385 44.9126 24.8585 44.1244 25.2018C43.9664 23.8026 43.3078 22.5116 42.2743 21.575C41.2409 20.6385 39.9049 20.122 38.5211 20.124C37.1242 20.1226 35.7772 20.6525 34.7442 21.6098C34.0872 22.2151 33.5784 22.9685 33.2585 23.8097L28.0591 22.9462L27.2571 22.8109H27.2455L25.8231 22.5732L25.8 22.726L25.7539 23.008L25.6876 23.4219L25.6846 23.4424L25.7914 23.4602L26.5905 23.5924L26.6684 23.6069H26.6714L27.0176 23.6626L27.0203 23.6656L27.3811 23.7244L27.5859 23.7597L27.8629 23.8036L30.001 24.1591L33.0075 24.6583C32.9215 25.0557 32.8779 25.4615 32.8775 25.8685C32.8765 27.3677 33.4518 28.8078 34.4804 29.881C35.5089 30.9541 36.9092 31.5751 38.3816 31.6111C39.8541 31.6471 41.282 31.0954 42.3601 30.0738C43.4381 29.0522 44.0807 27.6419 44.1505 26.1443C44.6033 25.9329 45.7346 25.516 46.5508 26.1357C46.5622 26.4089 46.594 26.6808 46.6461 26.9491C46.7224 27.3327 46.8414 27.7061 47.001 28.0622C47.3776 28.9177 47.9727 29.6548 48.7242 30.1966C49.4758 30.7385 50.3564 31.0653 51.2742 31.1429C51.4151 31.1572 51.5567 31.1641 51.6984 31.1634C51.7762 31.1634 51.8513 31.1607 51.9292 31.1577C52.1295 31.1495 52.329 31.1279 52.5264 31.0929C52.5615 31.0901 52.5963 31.0842 52.6304 31.0754C52.6478 31.0738 52.6651 31.0709 52.6821 31.0667C53.0916 30.9859 53.4898 30.8547 53.8681 30.676C54.0402 30.5943 54.2078 30.5031 54.37 30.4027C54.5123 30.315 54.65 30.22 54.7827 30.118C54.8001 30.1063 54.8144 30.0946 54.8288 30.0828C55.0491 29.9119 55.2548 29.7222 55.4436 29.5158C55.9606 28.9603 56.3519 28.2962 56.5898 27.5703C56.8278 26.8443 56.9066 26.0741 56.8208 25.3139C56.735 24.5536 56.4866 23.8217 56.0931 23.1696C55.6996 22.5175 55.1706 21.961 54.5432 21.5393ZM39.8426 30.538C39.4134 30.6661 38.9684 30.7304 38.5211 30.729C37.3104 30.7303 36.1443 30.2643 35.2579 29.4249C34.3715 28.5855 33.8307 27.4351 33.7448 26.2059C33.6588 24.9767 34.034 23.76 34.7947 22.8012C35.5553 21.8425 36.6449 21.213 37.8436 21.0398C39.0422 20.8665 40.2609 21.1624 41.2537 21.8677C42.2465 22.573 42.9396 23.6353 43.1932 24.8403C43.4468 26.0453 43.242 27.3034 42.6202 28.3608C41.9984 29.4182 41.0058 30.1962 39.8426 30.538ZM54.999 28.6994C54.9218 28.7973 54.839 28.8904 54.751 28.9784C54.6171 29.12 54.4724 29.2507 54.3183 29.3691C54.0991 29.5435 53.8632 29.695 53.6141 29.8213C53.2856 29.9889 52.9375 30.1133 52.5782 30.1916C52.5466 30.1973 52.515 30.2034 52.4833 30.209C52.469 30.2124 52.4544 30.2143 52.4397 30.2147C52.2571 30.2507 52.0719 30.2713 51.886 30.2765C51.8253 30.2826 51.7616 30.2826 51.6984 30.2826C50.6216 30.2819 49.5844 29.8694 48.7924 29.1268C48.0004 28.3843 47.5114 27.3659 47.4225 26.2736C47.4109 26.1561 47.4049 26.0356 47.4049 25.9154C47.4043 25.7257 47.4169 25.5363 47.4426 25.3484C47.5325 24.645 47.7894 23.9745 48.191 23.3948C48.5927 22.8152 49.1271 22.3439 49.7479 22.0217C50.3688 21.6995 51.0574 21.5362 51.7542 21.5458C52.451 21.5554 53.135 21.7376 53.7471 22.0768C54.0459 22.2427 54.3239 22.4449 54.5749 22.679C55.396 23.4324 55.8987 24.48 55.9778 25.6023C56.0568 26.7246 55.7061 27.8345 54.999 28.6994Z" fill="#161818"/>
<path d="M54.7811 15.436C54.7583 16.7712 54.6591 18.1038 54.4839 19.4271C54.4437 19.7179 54.4176 19.8766 54.4176 19.8766C47.8998 15.2128 47.8767 9.85002 48.0584 8.15847C46.2896 17.5563 26.7245 22.9604 26.7245 22.9604L23.9776 24.1788C23.3547 23.4518 22.8555 22.624 22.5004 21.7296C21.3841 19.1129 20.4867 14.3934 23.3487 7.52703C24.0094 5.89382 25.0324 4.43835 26.3377 3.27447C26.346 3.26926 26.3538 3.2633 26.3611 3.25664C32.6626 -2.27929 43.6582 0.919159 43.6582 0.919159C53.5404 -0.000307942 54.8794 9.54756 54.7811 15.436Z" fill="#944600"/>
<path d="M31.9242 27.5271C31.8506 27.3042 31.7401 26.984 31.5778 26.5969C31.3886 26.1382 31.1612 25.6969 30.8981 25.2777C30.5684 24.7463 30.1583 24.2713 29.6831 23.87C29.1997 23.4731 28.6541 23.1619 28.0691 22.9495C27.6057 22.7807 27.127 22.659 26.6401 22.586C26.4617 22.5588 26.3013 22.54 26.1542 22.5255C25.9593 22.3829 25.8436 22.3057 25.8436 22.3057C25.8436 22.3057 25.8868 22.3795 25.962 22.5088C25.8509 22.5004 25.7483 22.4937 25.6635 22.4903C25.4323 22.4803 25.3037 22.482 25.3037 22.482C25.3037 22.482 25.6437 22.6482 26.2014 22.9204C26.3429 23.1641 26.5216 23.4709 26.7311 23.8308C27.427 24.9747 27.9893 26.1974 28.4065 27.4741C28.7582 28.7799 28.9951 30.1149 29.1145 31.4634C29.1802 32.0046 29.2336 32.4451 29.2706 32.7505C29.3158 33.0563 29.3412 33.2269 29.3412 33.2269L29.4727 32.764C29.5525 32.4649 29.661 32.0319 29.7616 31.487C29.8839 30.8433 29.9519 30.1901 29.9651 29.5346C29.9855 28.7068 29.8776 27.8809 29.6452 27.0873C29.4007 26.2926 29.0264 25.5454 28.5381 24.8772C28.1707 24.3732 27.7572 23.9059 27.3029 23.4817C27.9252 23.8096 28.5141 24.1993 29.0611 24.6451C29.8238 25.3186 30.5261 26.0599 31.1596 26.8601C31.4251 27.1733 31.6411 27.4285 31.7909 27.6054C31.9462 27.7789 32.0326 27.8759 32.0326 27.8759C32.0326 27.8759 31.9937 27.751 31.9242 27.5271Z" fill="#944600"/>
<path d="M54.7823 15.436C54.6414 15.3879 54.5036 15.331 54.3697 15.2655C51.2768 13.8354 49.2713 9.6681 48.2413 6.90134C47.9194 6.0479 47.6402 5.17843 47.4046 4.29626C47.3225 4.94634 47.0923 5.56791 46.7325 6.11143C44.7243 9.5298 38.8958 14.3582 38.8958 14.3582L39.7615 11.6386C39.7615 11.6386 38.1689 14.2819 32.1385 18.1525C29.683 19.7269 26.0045 20.8955 22.5016 21.7296C20.0203 22.3198 17.6285 22.7428 15.8281 23.0191C16.168 20.741 16.7225 18.5016 17.4841 16.3317C20.5426 7.67676 25.8805 3.61213 26.3389 3.27447C26.3472 3.26927 26.355 3.2633 26.3623 3.25664C32.6638 -2.27929 43.6594 0.919159 43.6594 0.919159C44.3164 0.85631 44.977 0.842518 45.6359 0.877892C53.7233 1.33616 54.8746 9.96449 54.7823 15.436Z" fill="#CF6302"/>
<path d="M45.6357 0.877892C44.4933 3.25965 42.2456 5.01904 40.0614 6.55486C40.4487 5.83048 40.6202 5.00689 40.5548 4.18486C37.6999 8.39707 33.7314 11.7002 29.1087 13.7119C29.6574 12.6045 29.9131 11.3707 29.8504 10.132C26.997 12.7625 23.5733 14.6693 19.8584 15.6972C19.078 15.9497 18.2855 16.1615 17.4839 16.3317C20.5425 7.67676 25.8803 3.61213 26.3387 3.27447C26.347 3.26927 26.3549 3.2633 26.3621 3.25664C32.6636 -2.27929 43.6592 0.919159 43.6592 0.919159C44.3162 0.85631 44.9768 0.842518 45.6357 0.877892Z" fill="#EE7203"/>
<path d="M14.1865 93.5331L41.8995 93.8752L41.6409 92.8076L14.1865 93.5331Z" fill="#FFDABA"/>
<path d="M52.585 86.2371L67.089 85.2817L67.5875 89.5745L52.7967 90.1615L52.585 86.2371Z" fill="#FFF0E7"/>
<path d="M0 86.2365L17.8887 84.1411L18.1774 87.0737L0.504876 90.161L0 86.2365Z" fill="#FFF0E7"/>
</svg>
