<svg width="127" height="228" viewBox="0 0 127 228" fill="none" xmlns="http://www.w3.org/2000/svg">
<path d="M98.4724 56.3933C98.4724 56.3933 97.0246 52.4774 98.1466 51.9775C99.2698 51.4788 100.714 54.5543 100.714 54.5543L98.4724 56.3933Z" fill="#FB9988"/>
<path d="M104.5 48.0063C105.261 48.6089 100.584 53.0262 100.584 53.0262L101.364 54.6788L103.504 53.0163L107.5 52.3701C107.5 52.3701 107.971 53.0046 108.501 53.8125C108.569 53.9133 108.633 54.0166 108.7 54.1214C109.014 54.6023 109.3 55.0987 109.558 55.6083C109.583 55.6537 109.604 55.7011 109.627 55.745C109.729 55.9583 109.816 56.1777 109.886 56.4017C109.947 56.5729 109.964 56.7548 109.935 56.9305L107.032 58.0793C106.64 59.6234 106.108 61.1265 105.442 62.5715C104.614 62.8912 103.741 63.0973 102.845 63.1839C102.227 63.283 101.571 63.3801 100.962 63.4644L99.9785 61.7873L97.7514 57.9901C97.7756 57.5745 97.8181 57.0243 97.8876 56.4147L97.8865 56.4136C97.9203 56.1136 97.9618 55.7998 98.0081 55.4797C98.1464 54.3477 98.4405 53.2444 98.8828 52.1986C99.0337 51.8569 99.2475 51.5462 99.5144 51.2813C101.18 49.7419 103.74 47.4047 104.5 48.0063Z" fill="#FDBD8E"/>
<path d="M109.454 55.5383C109.478 55.584 109.496 55.6316 109.518 55.6757C109.392 55.7121 109.229 55.7576 109.03 55.8133C108.583 55.943 107.979 56.1271 107.331 56.3402C106.771 56.5197 106.226 56.746 105.703 57.0167C105.6 57.0741 105.507 57.1268 105.424 57.173C105.346 57.2272 105.277 57.272 105.221 57.3108C105.107 57.3855 105.04 57.4288 105.04 57.4288C105.04 57.4288 105.08 57.3603 105.159 57.2386C105.198 57.1782 105.248 57.1032 105.308 57.0182C105.374 56.9411 105.449 56.8539 105.539 56.7573C106.002 56.2825 106.57 55.9248 107.196 55.7149C107.788 55.5232 108.409 55.4459 109.025 55.4871C109.196 55.5001 109.339 55.5194 109.454 55.5383Z" fill="#FD7D6F"/>
<path d="M108.474 53.7527C108.537 53.8532 108.598 53.9565 108.66 54.0612C108.636 54.0709 108.608 54.0782 108.583 54.0855C108.135 54.2146 107.532 54.3988 106.885 54.6114C106.324 54.7892 105.779 55.0152 105.255 55.2868C105.152 55.3445 105.06 55.3952 104.979 55.4418C104.898 55.4951 104.831 55.5422 104.775 55.5784C104.658 55.6545 104.594 55.6967 104.594 55.6967C104.594 55.6967 104.634 55.6308 104.712 55.5083C104.752 55.4483 104.801 55.3731 104.862 55.2893C104.926 55.2106 105.004 55.1225 105.091 55.0271C105.554 54.5534 106.123 54.1967 106.748 53.9871C107.307 53.8046 107.892 53.7251 108.474 53.7527Z" fill="#FD7D6F"/>
<path d="M109.75 56.2225C109.805 56.3939 109.817 56.5773 109.782 56.7558L106.904 57.9983C106.475 59.5703 105.909 61.1047 105.215 62.5841C104.394 62.9305 103.532 63.1633 102.652 63.276C102.043 63.3934 101.397 63.5099 100.798 63.6123L99.8828 61.9444C100.44 61.8737 101.011 61.7925 101.553 61.695C103.063 61.4306 104.368 61.0668 104.652 60.5871C105.401 59.3185 106.457 57.1826 106.457 57.1826L109.75 56.2225Z" fill="#FB9988"/>
<path d="M97.4985 59.2915L100.013 63.0889L101.124 64.7671C101.124 64.7671 81.9581 77.4248 77.9155 76.4275C76.5794 76.0959 72.6401 73.5421 67.7776 69.1423L68.9323 67.5144L73.5515 60.9927L79.3117 66.8371L97.4985 59.2915Z" fill="#FDBD8E"/>
<path d="M66.6826 73.0124L65.3937 71.3813L53.5388 56.3729L52.3802 54.9049L61.6545 44.7409L61.6601 44.7483C61.7003 44.792 61.873 44.989 62.1557 45.3046C64.0961 47.4915 72.2207 55.8329 76.6036 60.686L66.6826 73.0124Z" fill="#264F36"/>
<path d="M64.2172 71.5103L53.013 56.9709L53.3761 54.316L55.3349 56.3578L66.2016 70.3837L64.2172 71.5103Z" fill="#153A23"/>
<path d="M77.2911 60.1148C73.1499 55.4152 65.477 47.3357 63.6427 45.2172C63.376 44.9098 63.2138 44.7209 63.1748 44.6789L76.1448 61.5748L77.2911 60.1148Z" fill="#56926D"/>
<path d="M78.0141 60.3831L66.2979 74.0834L63.0472 69.9761L74.3695 56.4502L78.0141 60.3831Z" fill="#FFF0E7"/>
<path d="M5.36651 189.796L3.36696 181.996L18.7796 172.408L25.817 175.081L5.36651 189.796Z" fill="#FDBD8E"/>
<path d="M84.1554 220.232L76.7549 223.315L70.5879 202.964L74.9048 196.797L84.1554 220.232Z" fill="#FDBD8E"/>
<path d="M96.0292 218.797C94.1875 218.394 88.5965 218.139 84.2348 216.18C83.7535 215.964 83.2078 215.976 82.7283 216.196C82.7254 216.197 82.4637 216.317 82.4609 216.318C82.4609 216.318 82.6053 218.879 80.1393 220.421C78.4803 221.458 75.3969 220.627 75.3969 220.627L76.5419 227.212L97.3461 221.952C97.7155 221.626 97.7325 221.142 97.7325 221.142C97.7325 221.142 98.3773 219.311 96.0292 218.797Z" fill="#34312E"/>
<path d="M7.95217 200.002C8.42476 198.177 8.89208 192.6 11.015 188.316C11.2492 187.843 11.2577 187.297 11.0564 186.81C11.0553 186.807 10.9454 186.541 10.9443 186.538C10.9443 186.538 8.38023 186.585 6.93286 184.062C5.95893 182.365 6.90679 179.315 6.90679 179.315L0.283231 180.21L4.74973 201.199C5.06194 201.58 5.54508 201.616 5.54508 201.616C5.54508 201.616 7.34958 202.329 7.95217 200.002Z" fill="#34312E"/>
<path d="M63.9728 91.98C63.9728 91.98 67.4451 105.878 66.6692 113.625C64.0244 132.328 59.9402 157.735 59.1333 159.694C57.873 162.754 11.815 186.087 11.815 186.087L8.5263 177.698C8.5263 177.698 32.986 158.411 35.5207 155.482C37.6546 153.017 47.3832 151.39 47.3832 151.39L44.7667 94.3603L63.9728 91.98Z" fill="#55250A"/>
<path d="M83.7168 215.195L75.9933 216.922L73.6542 217.447C73.6542 217.447 55.2777 173.685 54.2524 172.106C53.2237 170.525 52.2929 155.747 52.2929 155.747C52.2929 155.747 38.4827 126.235 35.5131 121.231C32.5433 116.227 38.1281 91.7637 38.1281 91.7637L39.8263 92.4465L54.8025 93.2072L66.5288 149.884L83.7168 215.195Z" fill="#813D16"/>
<path d="M75.9932 216.922L73.654 217.447C73.654 217.447 55.2775 173.685 54.2522 172.106C53.2236 170.525 52.2927 155.747 52.2927 155.747C52.2927 155.747 38.4825 126.235 35.513 121.231C32.5432 116.227 38.128 91.7637 38.128 91.7637L39.8261 92.4465C38.8813 100.375 37.0888 116.587 38.0038 118.864C39.2213 121.895 55.6454 152.848 55.6454 152.848C55.6454 152.848 56.266 168.684 57.5349 171.319C58.6337 173.603 72.6413 209.912 75.9932 216.922Z" fill="#55250A"/>
<path d="M64.341 92.1664C53.554 99.8034 37.6542 91.9822 37.6542 91.9822C37.9454 89.4515 36.588 77.27 35.3487 66.8427C35.016 64.0309 34.7056 61.2985 34.462 58.8374C34.1453 55.566 34.3942 52.2635 35.1974 49.0795C35.442 47.9852 35.8146 46.9248 36.3073 45.9208C36.9165 45.2508 37.6451 44.7044 38.4543 44.3107L38.4722 44.3027C38.6644 44.1951 38.8221 44.1064 38.9437 44.0405C38.9677 44.0292 38.9908 44.0162 39.0129 44.0016C39.0803 43.9652 39.1297 43.9371 39.1655 43.9183C39.176 43.9116 39.1866 43.9076 39.1939 43.9034C39.2015 43.8984 39.2094 43.894 39.2177 43.8901C40.8895 42.9719 42.6422 42.215 44.4527 41.6293L44.493 41.6186C44.8634 41.5218 45.2278 41.4359 45.5692 41.3591C46.9563 41.0514 48.0219 40.9048 48.0219 40.9048L56.1573 41.6535C56.1688 41.6528 56.1803 41.6532 56.1917 41.6548C56.2007 41.6555 56.2096 41.6555 56.2186 41.6548C56.2477 41.6548 56.2874 41.6562 56.3362 41.6602L56.3488 41.6589C56.8487 41.7107 57.34 41.8277 57.8106 42.0069V42.0096C58.134 42.1257 58.4513 42.2585 58.7613 42.4076C60.0039 43.0244 61.1723 43.7853 62.2434 44.675C63.2175 45.4692 64.1445 46.3215 65.0196 47.2274C70.6541 53.003 69.4478 62.9732 65.1873 69.8117C63.9139 71.8547 64.341 92.1664 64.341 92.1664Z" fill="#264F36"/>
<path d="M63.8354 68.6541C63.8354 68.6541 63.5398 68.611 63.005 68.5344C62.4755 68.4512 61.7089 68.3315 60.7628 68.1836C58.4094 67.7402 56.0019 67.6785 53.6296 68.0009C52.9469 68.1178 52.2603 68.2683 51.5703 68.3906C50.8968 68.5146 50.2163 68.5958 49.5328 68.6339C48.3766 68.6966 47.2171 68.628 46.0758 68.4295C45.6247 68.3552 45.1836 68.228 44.7613 68.0505C44.4385 67.916 44.1412 67.7255 43.8826 67.4874C43.7242 67.3379 43.5903 67.1637 43.4857 66.9713C43.4218 66.8382 43.394 66.7683 43.394 66.7683C43.394 66.7683 43.4453 66.8234 43.5425 66.9268C43.6891 67.0645 43.8543 67.1799 44.0331 67.2697C44.6967 67.5508 45.4191 67.658 46.1339 67.5814C47.2209 67.5291 48.3033 67.4047 49.3744 67.2092C49.9771 67.1003 50.5899 66.9633 51.2448 66.7979C51.8997 66.6366 52.5983 66.4552 53.3523 66.3247C54.7837 66.0872 56.2453 66.11 57.6689 66.392C58.7975 66.6132 59.9041 66.9375 60.9754 67.3611C61.8813 67.7159 62.5915 68.0466 63.0808 68.2803C63.5695 68.5144 63.8354 68.6541 63.8354 68.6541Z" fill="#153A23"/>
<path d="M31.342 83.1587C31.4015 84.1774 30.1173 89.3576 28.4727 95.496C27.584 98.7915 26.595 102.36 25.6522 105.708C24.7092 109.058 23.818 112.185 23.1247 114.595L22.4506 121.087C22.4506 121.087 25.2903 122.439 25.2026 122.923C25.5576 124.711 26.1666 126.437 27.0103 128.047C27.4757 128.539 25.7882 129.717 25.7882 129.717C25.0697 129.342 24.2987 129.083 23.5024 128.947C23.0734 129 22.2342 130.911 21.4015 131.815C21.2196 132.058 20.9565 132.224 20.6622 132.282C19.6295 132.342 18.3592 132.4 18.1329 131.75C17.9063 131.099 17.5333 129.88 16.9034 129.625C16.2735 129.369 14.3977 127.88 14.4143 126.991C14.431 126.103 15.0382 123.371 15.1306 122.646C15.2231 121.919 15.4284 119.501 15.4284 119.501L16.3396 115.114L19.2961 87.9651C19.5734 85.453 22.4889 78.2341 22.4889 78.2341L22.8553 76.0619L23.655 68.4492C23.9863 65.1387 25.0809 61.9546 26.8498 59.1562C28.2845 56.7382 30.8258 55.9264 33.4984 55.6281C34.2431 55.5432 34.9977 55.4989 35.7439 55.4694C36.1321 55.4532 36.5116 55.4344 36.8802 55.4277H36.8887C36.8887 55.4277 31.1811 80.3912 31.342 83.1587Z" fill="#FDBD8E"/>
<path d="M33.4985 55.6274C31.0893 57.6488 28.5804 59.583 26.9345 62.2522C23.6214 67.6258 24.5656 74.6017 22.7347 80.6647C22.2396 82.3046 21.539 83.8797 21.0966 85.5356C20.7028 87.196 20.4312 88.8839 20.2839 90.5853C19.8509 94.3703 19.3326 98.1457 18.8136 101.921C18.671 102.962 18.528 104 18.3845 105.037C17.8417 108.996 17.2983 112.955 16.7808 116.92C16.2142 119.868 16.2025 122.899 16.7464 125.852C17.025 127.142 17.5892 128.349 18.396 129.382C19.2028 130.415 20.2308 131.247 21.4017 131.815C21.2198 132.057 20.9567 132.223 20.6624 132.281C19.6297 132.342 18.3593 132.399 18.133 131.749C17.9064 131.098 17.5334 129.879 16.9035 129.624C16.2736 129.368 14.3978 127.879 14.4145 126.991C14.4311 126.102 15.0384 123.37 15.1308 122.646C15.2233 121.918 15.4286 119.5 15.4286 119.5L16.3397 115.113L19.2963 87.9645C19.5735 85.4524 22.489 78.2334 22.489 78.2334L22.8555 76.0612L23.6551 68.4485C23.9865 65.138 25.0811 61.954 26.85 59.1555C28.2847 56.7375 30.826 55.9257 33.4985 55.6274Z" fill="#FFDABA"/>
<path d="M24.229 79.6182C24.229 79.6182 24.2561 79.7123 24.3147 79.887C24.3478 79.9934 24.3895 80.0967 24.4395 80.196C24.4996 80.3307 24.5696 80.4606 24.6489 80.5846C24.7406 80.7379 24.8453 80.8827 24.9618 81.0174C25.0917 81.1741 25.2337 81.3202 25.3863 81.4541C25.7362 81.7532 26.1346 81.9879 26.5636 82.1478C26.9898 82.294 27.4385 82.3609 27.888 82.3454C28.0824 82.3354 28.2757 82.3088 28.4658 82.2659C28.6316 82.2311 28.794 82.1812 28.951 82.1168C29.0815 82.0676 29.2078 82.0074 29.3285 81.9367C29.4225 81.889 29.5119 81.8322 29.5953 81.7672C29.7361 81.6638 29.8086 81.6048 29.8086 81.6048L29.5532 81.6423C29.4566 81.6609 29.3588 81.6721 29.2605 81.6759C29.1341 81.6901 29.0069 81.6969 28.8797 81.6962C28.7288 81.7003 28.5778 81.6953 28.4274 81.6813C28.2671 81.6772 28.0974 81.6451 27.921 81.6235C27.5425 81.5545 27.1696 81.457 26.8052 81.3319C26.4413 81.1976 26.0876 81.0363 25.7469 80.8493C25.5929 80.7526 25.4379 80.6692 25.3058 80.5698C25.1762 80.4839 25.0514 80.3905 24.9322 80.2902C24.8282 80.2083 24.7286 80.1208 24.6337 80.0282C24.5559 79.9616 24.4831 79.8892 24.4157 79.8116C24.2957 79.6867 24.229 79.6182 24.229 79.6182Z" fill="#F37C71"/>
<path d="M44.9531 54.4295L34.3312 78.8823L34.3306 78.8877L32.0435 84.1497L31.5827 86.0434L22.7771 83.268L20.2544 82.4735C20.4544 81.823 20.6584 81.1752 20.8762 80.5299L21.0414 80.0421C21.7529 74.6243 22.8871 69.2728 24.433 64.0383C26.565 57.0074 29.851 49.7763 34.6857 47.2374C35.126 47.0034 35.5855 46.809 36.0591 46.6567L37.1017 47.5693L44.9531 54.4295Z" fill="#264F36"/>
<path d="M37.1016 47.5693C35.9243 48.4887 34.1971 49.9012 31.7389 52.0263C26.6518 56.4254 23.5579 77.3674 22.777 83.268L20.2543 82.4735C20.4542 81.823 20.6582 81.1752 20.876 80.5299L21.0412 80.0421C21.7528 74.6243 22.8869 69.2728 24.4328 64.0383C26.5648 57.0074 29.8508 49.7763 34.6856 47.2374C35.1258 47.0034 35.5853 46.809 36.0589 46.6567L37.1016 47.5693Z" fill="#56926D"/>
<path d="M20.0171 78.2295L19.0032 83.918L31.9343 87.1658L33.1714 83.6882L20.0171 78.2295Z" fill="#FFF0E7"/>
<path d="M68.1303 38.1492C66.9736 38.5096 65.7978 38.7907 64.6107 38.9906C56.4602 40.4017 46.4612 38.8494 40.6861 37.6537C37.7846 37.0514 35.9471 36.5414 35.9471 36.5414C35.9471 36.5414 35.4852 28.2383 35.667 25.0794C35.767 23.2781 35.999 21.4831 36.361 19.7104C38.6926 8.36995 45.6066 3.38172 46.0958 3.04L46.116 3.02576L46.1235 3.02052L58.5389 3.39731L62.9519 5.98947L63.8349 6.50865L64.1704 6.70528L69.001 9.54147L68.8652 14.035L68.7558 17.6067L68.1303 38.1492Z" fill="#5E2C00"/>
<path d="M65.6681 36.4395C65.3896 37.3195 65.0212 38.168 64.5695 38.97C56.446 40.3785 46.48 38.829 40.7241 37.6355C40.7137 37.62 40.7042 37.6038 40.6957 37.5871C38.963 34.3004 38.1506 30.5455 38.349 26.7407C38.553 22.9529 39.2838 19.1994 40.5184 15.5994C41.3389 12.7298 42.5949 10.0043 44.2374 7.52944C45.5275 5.66335 47.2413 4.15889 49.2161 3.15888C49.3146 3.10886 49.4138 3.06431 49.512 3.01985C51.7198 2.2021 54.0594 1.90889 56.3579 2.16185C57.8646 2.18888 59.3304 2.60277 60.6272 3.36729C61.9239 4.13181 63.012 5.22363 63.7963 6.54727C65.1242 9.00483 65.0856 12.0197 65.2771 14.8691C65.5188 18.4805 66.1809 22.0379 66.4995 25.6407C66.9441 29.2381 66.6609 32.9168 65.6681 36.4395Z" fill="#944600"/>
<path d="M69.7798 28.4045C69.7602 28.2057 69.727 27.9208 69.6653 27.5713C69.5941 27.1573 69.4904 26.7528 69.3552 26.3623C69.1873 25.868 68.9473 25.4109 68.644 25.0079C68.3335 24.6074 67.9605 24.2711 67.5406 24.013C67.2079 23.8087 66.8556 23.6421 66.4888 23.5156C66.355 23.4691 66.233 23.4308 66.1208 23.3997C65.9928 23.2525 65.9159 23.1719 65.9159 23.1719C65.9159 23.1719 65.9369 23.2403 65.9742 23.3595C65.8893 23.3371 65.8102 23.319 65.7446 23.3039C65.5662 23.2657 65.466 23.25 65.466 23.25C65.466 23.25 65.7032 23.4349 66.0922 23.7403C66.1619 23.9662 66.2495 24.2496 66.3526 24.5825C66.7046 25.6442 66.9391 26.7552 67.0514 27.8927C67.1082 29.0456 67.0706 30.2081 66.9389 31.3663C66.9002 31.8346 66.8687 32.2145 66.8471 32.4776C66.8308 32.7438 66.8223 32.8904 66.8223 32.8904C66.8223 32.8904 66.8867 32.7573 67.0019 32.5166C67.1134 32.2732 67.2704 31.9205 67.4394 31.4731C67.6413 30.944 67.8027 30.3996 67.9218 29.846C68.0752 29.147 68.1285 28.4325 68.0797 27.7289C68.0212 27.0232 67.854 26.3406 67.5853 25.7095C67.3831 25.2338 67.139 24.7829 66.8563 24.3629C67.2863 24.7231 67.6797 25.1317 68.0308 25.5825C68.5125 26.2545 68.9359 26.9758 69.296 27.738C69.4504 28.0394 69.5761 28.2828 69.6636 28.4535C69.7556 28.6216 69.8066 28.7152 69.8066 28.7152C69.8066 28.7152 69.7971 28.6035 69.7798 28.4045Z" fill="#944600"/>
<path d="M59.2145 44.2024C58.5567 45.9623 59.4902 46.9046 58.1866 48.1954C56.883 49.4863 53.9782 47.8823 52.3526 48.3834C46.3814 50.4602 44.988 44.8656 44.1762 41.8069C45.3128 41.393 46.4606 41.0424 47.6149 40.7563L55.4354 40.8643C55.4464 40.8623 55.4575 40.8615 55.4684 40.862L55.494 40.8609C55.5227 40.8583 55.5605 40.856 55.6072 40.8567L55.6195 40.8539C56.1 40.8659 56.5693 40.9481 57.0155 41.0986L57.0151 41.1015C57.3221 41.1963 57.6225 41.3095 57.9151 41.4404C59.0875 41.9883 58.2198 43.3521 59.2145 44.2024Z" fill="#FDBD8E"/>
<path d="M53.0053 49.5695L47.707 41.0203C47.8609 39.7642 48.0025 39.2941 48.4511 36.1861C48.9456 32.7309 49.4192 29.4922 49.4192 29.4922L57.0372 33.4681C55.8932 35.9552 55.1017 38.6117 54.6992 41.3154C54.281 44.0858 53.7152 46.843 53.0053 49.5695Z" fill="#FDBD8E"/>
<path d="M57.0134 33.5093C55.8053 36.0182 54.9695 38.6981 54.5447 41.4255C54.2607 41.5509 53.9837 41.6668 53.725 41.7635C52.6898 42.1468 49.9033 38.8429 47.9441 36.2513C48.4659 32.7658 48.9657 29.4987 48.9657 29.4987L57.0134 33.5093Z" fill="#FB9988"/>
<path d="M66.16 22.3511C65.8696 23.2578 65.5255 24.2093 65.1278 25.2057C65.1278 25.2057 64.8076 30.1316 64.2281 31.2287C63.646 32.3288 59.9606 39.1723 57.1503 38.7122C54.805 38.3294 49.5398 34.0061 47.8563 31.4488C47.5791 31.1074 47.3954 30.6686 47.3239 30.1774C47.3156 28.2206 47.5526 19.5947 47.5626 18.8728C47.5901 16.9166 48.9688 2.11647 63.1484 6.40933C64.4023 6.78233 65.4855 7.5926 66.2738 8.747C67.0621 9.9014 67.5233 11.3531 67.6046 12.9353C67.6996 16.0546 67.2062 19.2699 66.16 22.3511Z" fill="#FDBD8E"/>
<path d="M66.6086 24.9696C66.6086 24.9696 66.2694 29.974 65.6541 31.0886C65.0361 32.2062 61.1231 39.1588 58.1384 38.6914C55.6476 38.3025 50.0551 33.9105 48.2668 31.3125C50.6052 33.4739 56.8765 38.9956 59.0679 38.1838C61.7832 37.1784 65.6384 30.6275 65.6771 29.9755C65.716 29.3208 66.1676 25.0526 66.1676 25.0526C66.1676 25.0526 66.8806 23.7098 67.7044 22.0695C67.3961 22.9906 67.0309 23.9573 66.6086 24.9696Z" fill="#FFDABA"/>
<path d="M46.6181 29.482C45.8823 29.3836 45.1943 29.0968 44.5966 28.6392C43.9989 28.1816 43.5041 27.563 43.1429 26.8214C43.031 26.5981 42.9353 26.3616 42.8564 26.114C42.4954 24.9494 42.8832 20.9324 44.3362 20.0152C45.3537 19.3733 45.9046 20.3292 46.1425 20.9609L46.1423 20.9622C46.2014 21.1152 46.2504 21.2751 46.2892 21.4406L46.6181 29.482Z" fill="#FFDABA"/>
<path d="M46.657 29.4817C45.922 29.3834 45.2348 29.0966 44.6378 28.6391C44.0408 28.1816 43.5466 27.563 43.1858 26.8215C43.1404 26.7074 43.1019 26.5988 43.0703 26.4956C42.7097 25.3313 43.097 21.3146 44.5476 20.399C44.8602 20.2024 45.2048 20.1513 45.5094 20.2562C45.814 20.361 46.055 20.6139 46.182 20.9618L46.1818 20.9631C46.2408 21.1161 46.2898 21.276 46.3285 21.4414L46.657 29.4817Z" fill="#FDBD8E"/>
<path d="M43.4348 23.1743C43.3344 23.4991 43.3101 23.8378 43.3647 24.15C43.7342 25.5459 44.4538 26.7161 45.4351 27.5164C45.2126 26.8768 45.1828 26.1332 45.3503 25.3992C45.4173 25.1507 45.4741 24.9001 45.5204 24.6484C45.6653 23.6367 44.089 21.2774 43.4348 23.1743Z" fill="#FB9988"/>
<path d="M46.0041 27.9202L45.95 27.8772C45.9158 27.8492 45.8594 27.8102 45.7968 27.7519C45.6233 27.5895 45.4743 27.3936 45.3544 27.1703C45.1882 26.8557 45.0913 26.4869 45.0715 26.0929C45.0528 25.6138 45.1668 25.1161 45.3961 24.6757C45.4259 24.6147 45.4595 24.556 45.4965 24.5002L45.5237 24.4566C45.5302 24.4458 45.5258 24.4525 45.527 24.4525C45.5314 24.4651 45.5406 24.4743 45.5516 24.4783C45.5626 24.4822 45.5751 24.4806 45.5865 24.4736C45.5979 24.4667 45.6073 24.455 45.6127 24.4411C45.618 24.4272 45.619 24.4122 45.6153 24.3991C45.6117 24.386 45.6037 24.376 45.5931 24.3711C45.5824 24.3662 45.57 24.3668 45.5583 24.3729C45.5467 24.3789 45.5368 24.3899 45.5307 24.4035C45.5246 24.4171 45.5228 24.4322 45.5257 24.4457L45.5135 24.4071L45.4881 24.33C45.4709 24.279 45.4537 24.228 45.4352 24.1783C45.364 23.9847 45.283 23.7978 45.1927 23.6185C45.1053 23.4446 45.0122 23.2844 44.9183 23.1378C44.8339 22.9993 44.7397 22.8706 44.6365 22.753C44.5504 22.6559 44.4415 22.5913 44.3201 22.5654C44.2226 22.5497 44.1191 22.5689 44.0215 22.6206C43.9631 22.6489 43.911 22.6983 43.8731 22.7614C43.8613 22.7828 43.852 22.8059 43.8455 22.8297C43.8453 22.8055 43.8498 22.7806 43.8585 22.7571C43.8854 22.6819 43.9329 22.6172 43.9919 22.5749C44.1012 22.4938 44.2232 22.4504 44.3425 22.4504C44.5009 22.4573 44.649 22.5139 44.7727 22.6148C44.9032 22.7224 45.0242 22.8446 45.1344 22.98C45.2575 23.1267 45.3717 23.2838 45.4763 23.4506C45.5887 23.63 45.6883 23.8215 45.7742 24.0235C45.7968 24.0759 45.817 24.1298 45.838 24.182L45.8672 24.2634L45.9054 24.379L45.9321 24.4589C45.9184 24.4862 45.9003 24.512 45.8843 24.5393L45.8158 24.6522C45.7839 24.7013 45.7549 24.7527 45.729 24.8061C45.5272 25.1956 45.4099 25.6286 45.3898 26.0583C45.3763 26.4193 45.424 26.7685 45.53 27.0847C45.6084 27.3146 45.7141 27.5258 45.8441 27.7125C45.8907 27.7818 45.9356 27.8304 45.9621 27.8663C45.99 27.901 46.0041 27.9202 46.0041 27.9202Z" fill="#FD7D6F"/>
<path d="M69.2775 19.2938C69.2775 19.2938 67.4628 16.1167 66.1538 17.3391C64.8447 18.5615 65.3654 18.7018 65.3654 18.7018L69.2775 19.2938Z" fill="#5E2C00"/>
<path d="M52.0244 19.1822C52.0244 19.1822 56.4266 14.2874 57.8532 16.0774C58.6851 17.1227 57.9663 17.8121 57.9663 17.8121L52.0244 19.1822Z" fill="#5E2C00"/>
<path d="M67.0273 21.3193C66.8073 21.6766 66.4944 21.9514 66.1383 22.1003C66.0806 22.0198 66.0083 21.9546 65.9255 21.9084C65.8427 21.8621 65.7511 21.8358 65.6559 21.8308C65.1149 21.8211 64.5996 22.6126 64.5046 23.599C64.4096 24.5868 64.771 25.3942 65.3119 25.4038C65.8524 25.4135 66.3683 24.6217 66.4634 23.634C66.4991 23.2898 66.4742 22.9474 66.3901 22.6268C66.683 22.2418 66.9008 21.7949 67.0273 21.3193Z" fill="#161818"/>
<path d="M57.6957 20.5605C57.4758 20.9178 57.1629 21.1926 56.8068 21.3415C56.7491 21.2611 56.6768 21.1959 56.594 21.1496C56.5112 21.1033 56.4195 21.077 56.3243 21.072C55.7834 21.0623 55.2681 21.8538 55.1731 22.8403C55.078 23.828 55.4394 24.6354 55.9804 24.645C56.5209 24.6547 57.0368 23.863 57.1319 22.8752C57.1676 22.531 57.1427 22.1886 57.0586 21.868C57.3515 21.483 57.5693 21.0361 57.6957 20.5605Z" fill="#161818"/>
<path d="M58.1837 22.0246C57.8965 22.3838 57.5338 22.6604 57.1334 22.8255C56.7329 22.9906 56.3094 23.0382 55.907 22.9633C56.1938 22.6035 56.5565 22.3265 56.957 22.1614C57.3576 21.9962 57.7813 21.949 58.1837 22.0246Z" fill="#FFF0E7"/>
<path d="M67.5152 22.7839C67.2281 23.1431 66.8653 23.4197 66.4649 23.5848C66.0645 23.7499 65.641 23.7974 65.2385 23.7226C65.5253 23.3628 65.888 23.0858 66.2886 22.9206C66.6892 22.7555 67.1128 22.7083 67.5152 22.7839Z" fill="#FFF0E7"/>
<path d="M60.5073 28.2761C60.2116 28.0863 59.8734 27.9778 59.5171 27.9585C59.768 28.8834 60.3493 29.6167 61.1361 30.0007C61.1943 30.0341 61.2595 30.0529 61.3278 30.0558C61.4122 30.0468 61.496 30.0149 61.5715 29.9627C62.0648 29.6677 62.5126 29.2738 62.8893 28.8035C62.9697 28.7119 63.0342 28.605 63.0788 28.4896C63.2065 28.1041 62.9592 28.1857 62.7434 28.2734C62.4922 28.3747 62.2345 28.4426 61.9761 28.4756C61.4647 28.5437 60.961 28.4753 60.5073 28.2761Z" fill="#FB9988"/>
<path d="M61.2556 29.8049C61.4512 29.6059 61.6644 29.437 61.8636 29.2435C62.1103 29.0057 62.3413 28.7404 62.5534 28.4513C61.7117 27.6057 61.8531 26.3487 62.0466 24.9241C62.1824 23.9341 62.5856 22.9962 63.183 22.2801C63.2869 22.1559 63.3957 22.039 63.5089 21.9299C63.6162 21.833 63.7328 21.7571 63.8543 21.7049C63.7885 21.7879 63.7391 21.8861 63.6783 21.9721C63.515 22.1894 63.3599 22.4165 63.2137 22.6524C63.0716 22.8969 62.9446 23.1541 62.834 23.4211C62.6112 23.9562 62.4577 24.5258 62.3803 25.1047C62.3016 25.6733 62.3131 26.2425 62.4141 26.7771C62.529 27.409 62.7965 27.9568 63.181 28.3475C63.1843 28.3503 62.4464 29.2951 62.376 29.3726C62.1937 29.5717 61.9986 29.7494 61.7936 29.9032C61.5943 30.0844 61.365 30.1925 61.1339 30.2141C61.0623 30.2126 60.995 30.1842 60.9404 30.1322C60.9833 30.1002 61.0239 30.0626 61.0615 30.0202C61.0782 30.0024 61.0943 29.9836 61.1097 29.964C61.157 29.9077 61.2059 29.8557 61.2556 29.8049Z" fill="#FD7D6F"/>
<path d="M59.2026 33.3281C59.602 33.5782 60.0555 33.7195 60.5323 33.7425C61.009 33.7654 61.4977 33.6694 61.9652 33.461C61.8026 33.7077 61.5906 33.9089 61.3508 34.0442C61.111 34.1795 60.8519 34.244 60.6 34.2312C60.0295 34.1523 59.532 33.8307 59.2026 33.3281Z" fill="#FD7D6F"/>
<path d="M56.0806 30.6543C57.0761 31.6022 58.2869 32.2215 59.6089 32.4587C60.9309 32.6959 62.3244 32.544 63.6693 32.016C62.2369 32.2801 60.8078 32.2563 59.4454 31.9455C58.2343 31.7854 57.0917 31.3469 56.0806 30.6543Z" fill="#FD7D6F"/>
<path d="M68.9274 19.2368C68.5776 18.9628 68.1879 18.751 67.7716 18.6087C67.3978 18.48 67.0059 18.41 66.6074 18.4009C66.5495 18.3996 66.4942 18.3984 66.4359 18.4027C66.2672 18.4033 66.0981 18.417 65.9297 18.4435C65.0118 18.5808 64.1404 19.029 63.4416 19.7229C62.7428 20.4169 62.253 21.3206 62.0432 22.3032C61.3931 22.0129 60.649 22.0136 59.9665 22.305C59.9299 21.0531 59.4668 19.888 58.6657 19.0323C57.8647 18.1767 56.7819 17.6905 55.6244 17.6668C54.4564 17.6388 53.2942 18.0856 52.3654 18.9196C51.7749 19.4475 51.2982 20.1103 50.9736 20.855L46.6841 19.9841L46.0224 19.8486L46.0127 19.8484L44.8394 19.6092L44.8095 19.7445L44.7521 19.995L44.6687 20.364L44.6646 20.3823L44.7525 20.3998L45.4124 20.5324L45.4763 20.548L45.479 20.5481L45.7647 20.6042L45.767 20.6071L46.0649 20.6662L46.2335 20.7013L46.4621 20.746L48.2261 21.1036L50.7061 21.6076C50.462 22.4964 50.438 23.4254 50.6367 24.2983C50.8353 25.1713 51.2494 25.9566 51.8361 26.573C52.4227 27.1894 53.1607 27.6146 53.9737 27.8046C54.7867 27.9946 55.6451 27.9426 56.4603 27.6538C57.3637 27.3292 58.1744 26.7281 58.7909 25.9262C59.4073 25.1242 59.8018 24.1571 59.9249 23.1463C60.2456 22.9673 60.5981 22.877 60.9493 22.8838C61.3005 22.8906 61.6389 22.9943 61.9326 23.1851C61.9236 23.4293 61.932 23.6727 61.9576 23.9133C61.9954 24.2565 62.0697 24.5915 62.179 24.9118C62.4359 25.6825 62.8836 26.3518 63.4754 26.8497C64.0673 27.3477 64.7816 27.6562 65.544 27.743C65.6607 27.759 65.7786 27.7679 65.897 27.7696C65.9627 27.7711 66.0255 27.7696 66.0906 27.7698C66.2586 27.7657 66.4269 27.7501 66.5945 27.7231C66.624 27.7208 66.6535 27.7163 66.6828 27.7097C66.6974 27.7086 66.712 27.706 66.7264 27.7021C67.0744 27.6383 67.4164 27.5287 67.7448 27.3759C67.8943 27.3065 68.0406 27.2286 68.1833 27.1424C68.307 27.0662 68.4298 26.9853 68.5472 26.8961C68.5629 26.8865 68.5756 26.8755 68.5887 26.8659C68.7842 26.7174 68.9689 26.5521 69.1408 26.372C69.6109 25.8861 69.983 25.301 70.2311 24.6578C70.4793 24.0145 70.5973 23.3287 70.5769 22.6487C70.5566 21.9686 70.3984 21.3107 70.1134 20.7212C69.8284 20.1318 69.4236 19.6251 68.9274 19.2368ZM56.0249 26.9844C55.6574 27.0908 55.2808 27.1398 54.9069 27.13C53.8939 27.1085 52.9496 26.6705 52.2646 25.9046C51.5795 25.1386 51.2046 24.1016 51.2155 23.0027C51.2264 21.9038 51.6222 20.8248 52.3232 19.9833C53.0241 19.1417 53.978 18.6003 54.9925 18.4682C56.007 18.3361 57.0066 18.6232 57.7897 19.2714C58.5727 19.9197 59.081 20.881 59.212 21.9615C59.343 23.0419 59.0869 24.161 58.4954 25.0932C57.904 26.0254 57.0211 26.7012 56.0249 26.9844ZM68.8247 25.6345C68.7532 25.7201 68.6774 25.8014 68.5978 25.8782C68.4766 26.0025 68.3468 26.1164 68.2097 26.219C68.0145 26.3703 67.807 26.5011 67.5904 26.6094C67.3042 26.7519 67.0047 26.8559 66.699 26.9189C66.672 26.9239 66.6456 26.929 66.6179 26.9326C66.6059 26.9355 66.5938 26.9371 66.5817 26.9373C66.4263 26.9653 66.2698 26.9802 66.1138 26.9819C66.0613 26.9854 66.0088 26.9861 65.9566 26.9839C65.0563 26.9625 64.217 26.5745 63.605 25.8967C62.993 25.219 62.6531 24.301 62.6525 23.3248C62.6506 23.2185 62.6537 23.1118 62.6617 23.0052C62.6739 22.836 62.6974 22.6672 62.7319 22.5001C62.897 21.6636 63.3059 20.8913 63.897 20.2996C64.488 19.7079 65.2293 19.3288 66.0091 19.2194C66.1885 19.1946 66.3685 19.1841 66.5477 19.188C67.1463 19.2011 67.723 19.3773 68.225 19.7004C68.464 19.8543 68.6829 20.0404 68.8769 20.2547C69.5126 20.9425 69.8622 21.8868 69.8524 22.8897C69.8427 23.8926 69.4744 24.8762 68.8247 25.6345Z" fill="#161818"/>
<path d="M69.1458 14.3533C69.0607 15.5036 68.9115 16.6499 68.6989 17.7863C68.6505 18.0364 68.6212 18.1724 68.6212 18.1724C63.3911 13.986 63.6382 9.36295 63.874 7.90997C61.9259 15.9663 45.2644 20.1269 45.2644 20.1269L42.903 21.1066C42.4165 20.4644 42.039 19.7381 41.7864 18.9578C40.9804 16.6748 40.4632 12.5835 43.202 6.73741C43.837 5.34653 44.7663 4.11792 45.9175 3.14748L45.9378 3.13317C51.4923 -1.47792 60.5467 1.55842 60.5467 1.55842C68.8724 1.01669 69.5201 9.28021 69.1458 14.3533Z" fill="#944600"/>
<path d="M49.4805 23.885C49.431 23.6923 49.3555 23.4162 49.2399 23.0822C49.1061 22.6851 48.9399 22.3019 48.7431 21.9367C48.4962 21.4747 48.1807 21.0585 47.8081 20.7034C47.4277 20.3528 46.9923 20.0735 46.5197 19.8768C46.1448 19.7212 45.7552 19.6049 45.3564 19.5295C45.2105 19.502 45.079 19.4817 44.9582 19.4657C44.804 19.3392 44.712 19.2699 44.712 19.2699C44.712 19.2699 44.7445 19.3346 44.7998 19.4475C44.7089 19.4365 44.6245 19.4286 44.5545 19.4238C44.3641 19.4097 44.2574 19.4079 44.2574 19.4079C44.2574 19.4079 44.53 19.5585 44.9775 19.8053C45.0825 20.0171 45.2153 20.2828 45.3707 20.5964C45.8898 21.5914 46.2947 22.6504 46.5772 23.7518C46.8037 24.8761 46.9341 26.0224 46.9668 27.1774C46.9943 27.6418 47.0172 28.0192 47.033 28.2814C47.0552 28.5436 47.0674 28.6903 47.0674 28.6903L47.1993 28.2986C47.2795 28.0448 47.3907 27.6769 47.5003 27.214C47.633 26.6672 47.7213 26.1108 47.7642 25.5511C47.8215 24.8446 47.7728 24.1365 47.6197 23.4528C47.4563 22.7672 47.1835 22.1188 46.8128 21.5349C46.5334 21.0957 46.2146 20.6862 45.8607 20.3119C46.3586 20.6081 46.826 20.956 47.2561 21.3507C47.8534 21.9454 48.3975 22.5965 48.8821 23.2962C49.0858 23.5707 49.2521 23.794 49.3667 23.9493C49.4868 24.1006 49.5535 24.1855 49.5535 24.1855C49.5535 24.1855 49.5274 24.0789 49.4805 23.885Z" fill="#944600"/>
<path d="M69.1441 14.3465C69.0282 14.3021 68.9154 14.2497 68.8064 14.1896C66.2804 12.8727 64.8039 9.21702 64.0762 6.79812C63.8484 6.05188 63.6571 5.29289 63.5029 4.52409C63.4016 5.08401 63.1775 5.61552 62.8484 6.07628C60.9922 8.98179 55.8578 13.0101 55.8578 13.0101L56.7199 10.6793C56.7199 10.6793 55.2509 12.9245 49.995 16.1191C47.3799 17.4999 44.5909 18.4603 41.7247 18.9669C39.6121 19.4144 37.582 19.719 36.0565 19.9128C36.4554 17.9509 37.0326 16.0278 37.78 14.1702C39.4424 9.78567 42.2462 5.94718 45.8649 3.10194L45.8853 3.08758C51.452 -1.53947 60.5262 1.50739 60.5262 1.50739C61.0809 1.46909 61.6363 1.47405 62.1878 1.52224C68.9566 2.12419 69.4939 9.6174 69.1441 14.3465Z" fill="#CF6302"/>
<path d="M62.1105 1.53957C60.8517 3.52812 59.1446 5.16823 57.1467 6.3086C57.508 5.69161 57.6929 4.98326 57.6788 4.27029C55.072 7.84224 51.5748 10.599 47.5922 12.2213C48.1081 11.2771 48.3841 10.216 48.3929 9.14272C45.8657 11.346 42.8955 12.9086 39.7244 13.7032C39.0564 13.9021 38.3802 14.0652 37.6985 14.1919C39.3611 9.80583 42.1654 5.96603 45.7848 3.11982L45.8052 3.10545C51.3728 -1.52318 60.4487 1.52472 60.4487 1.52472C61.0035 1.48641 61.559 1.49137 62.1105 1.53957Z" fill="#EE7203"/>
<path d="M46.2557 40.0221C46.2557 40.0221 53.8526 47.5138 55.7349 47.7085C57.6172 47.9032 56.2812 40.7317 56.2812 40.7317C56.2812 40.7317 58.728 41.5823 62.1438 44.4289C62.8941 45.3648 62.3511 52.1319 61.4478 52.2814C59.5505 52.5949 57.3405 48.6741 56.2813 49.0711C55.2222 49.468 49.7612 53.3226 48.8268 53.0159C47.8924 52.7091 42.3991 44.2302 42.9993 42.1465C43.5989 40.0626 46.2557 40.0221 46.2557 40.0221Z" fill="#F2E6D7"/>
</svg>
