<svg width="82" height="226" viewBox="0 0 82 226" fill="none" xmlns="http://www.w3.org/2000/svg">
<path d="M67.8375 218.314L60.4371 221.397L54.27 201.046L58.587 194.879L67.8375 218.314Z" fill="#FDBD8E"/>
<path d="M79.7114 216.879C77.8696 216.476 72.2786 216.221 67.9169 214.262C67.4356 214.046 66.8899 214.058 66.4104 214.278C66.4076 214.279 66.1459 214.399 66.143 214.4C66.143 214.4 66.2874 216.96 63.8215 218.502C62.1624 219.54 59.079 218.709 59.079 218.709L60.224 225.293L81.0282 220.034C81.3976 219.707 81.4147 219.223 81.4147 219.223C81.4147 219.223 82.0594 217.393 79.7114 216.879Z" fill="#34312E"/>
<path d="M10.8194 211.406L3.81695 207.502L15.9843 190.062L23.5001 189.635L10.8194 211.406Z" fill="#FDBD8E"/>
<path d="M19.2959 219.844C18.4725 218.148 15.2125 213.599 14.0513 208.961C13.9231 208.449 13.5758 208.028 13.1065 207.787C13.1037 207.786 12.8476 207.654 12.8449 207.653C12.8449 207.653 10.9232 209.351 8.18572 208.369C6.34384 207.708 5.08844 204.771 5.08844 204.771L0.625189 209.746L17.6332 222.831C18.1182 222.919 18.509 222.633 18.509 222.633C18.509 222.633 20.3456 222.006 19.2959 219.844Z" fill="#34312E"/>
<path d="M72.7707 66.7895C71.2804 71.9879 69.5127 77.0975 67.4757 82.0951L67.3223 82.4619C65.6832 86.3384 63.8071 90.0329 61.882 92.3236C60.673 93.764 59.5106 94.8219 58.1916 94.6245C50.7188 93.5167 46.8691 77.4734 46.8691 77.4734L47.3841 77.2062L55.328 73.072L56.014 72.7166C56.014 72.7166 56.5067 74.263 57.1109 76.2595C57.9254 78.9554 58.9442 82.4754 59.2282 84.1205C59.2282 84.1205 61.3566 78.975 63.5368 73.838C64.6297 71.2606 65.7337 68.6862 66.5895 66.7636C66.6707 66.5838 66.7474 66.4092 66.823 66.2409C66.9729 65.9052 67.1136 65.5944 67.2452 65.3127C67.2941 65.2089 67.3405 65.108 67.3849 65.0124C67.4005 64.9781 67.4157 64.9448 67.4313 64.9127C67.63 64.4875 67.7945 64.1519 67.917 63.9275C67.929 63.9077 67.9391 63.8869 67.9507 63.8671C67.9609 63.8474 67.971 63.8297 67.9806 63.813L72.7707 66.7895Z" fill="#FDBD8E"/>
<path d="M72.7706 66.766C71.2836 71.9231 69.52 76.9922 67.4876 81.9502L67.3346 82.3141C68.9651 76.2989 69.7887 70.8097 69.1417 70.4932C68.0889 69.9756 67.0936 67.9022 66.6035 66.7402C66.6845 66.5619 66.7611 66.3886 66.8365 66.2216C66.988 65.8886 67.1284 65.5817 67.2577 65.3008C67.3065 65.1978 67.3527 65.0977 67.3971 65.0029C67.4126 64.9689 67.4278 64.9358 67.4433 64.904C67.6416 64.4821 67.8057 64.1492 67.9279 63.9266C67.94 63.9069 67.95 63.8863 67.9616 63.8667C67.9717 63.8471 67.9818 63.8296 67.9914 63.813L72.7706 66.766Z" fill="#FB9988"/>
<path d="M75.7001 59.6203C75.7001 59.6203 76.8403 55.7795 75.7728 55.1179C74.7043 54.4574 73.5242 57.4337 73.5242 57.4337L75.7001 59.6203Z" fill="#FB9988"/>
<path d="M69.1033 50.4951C68.4319 51.0146 72.9784 56.161 72.9784 56.161L72.3439 57.7562L70.2827 55.7697L66.5595 54.5844C66.5595 54.5844 66.1574 55.1744 65.7099 55.9348C65.6532 56.0295 65.5988 56.1271 65.5422 56.2259C65.2777 56.6788 65.0393 57.1512 64.828 57.6408C64.8066 57.6842 64.7901 57.7301 64.7707 57.7722C64.6876 57.9778 64.6192 58.1919 64.5662 58.4127C64.518 58.5805 64.5119 58.7651 64.5484 58.9494L67.2872 60.5079C67.7297 62.1448 68.2989 63.7576 68.9884 65.3284C69.7689 65.7647 70.5862 66.0904 71.4172 66.2963C71.993 66.4786 72.6044 66.6641 73.1708 66.8302L73.9916 65.2364L75.8509 61.6281C75.8071 61.1982 75.7393 60.6276 75.6435 59.9926L75.6446 59.9916C75.5978 59.6792 75.5432 59.3515 75.4839 59.0168C75.2976 57.8364 74.9688 56.665 74.5063 55.5334C74.3493 55.1628 74.1358 54.8159 73.8758 54.509C72.2579 52.7108 69.774 49.9767 69.1033 50.4951Z" fill="#FDBD8E"/>
<path d="M64.5323 57.7729C64.5127 57.8173 64.498 57.8645 64.4804 57.9076C64.6022 57.9626 64.761 58.0323 64.9535 58.1172C65.3871 58.3132 65.9735 58.5872 66.6037 58.8974C67.1478 59.1604 67.6806 59.4704 68.1964 59.8239C68.2981 59.8977 68.39 59.9653 68.4713 60.0247C68.5491 60.0918 68.6178 60.1479 68.6733 60.1959C68.7873 60.2894 68.854 60.3438 68.854 60.3438C68.854 60.3438 68.8109 60.2668 68.728 60.1292C68.6867 60.0607 68.6343 59.9757 68.5714 59.8789C68.5034 59.7894 68.426 59.6882 68.3343 59.5753C67.8625 59.0169 67.2984 58.5667 66.69 58.2629C66.1146 57.9826 65.5194 57.8179 64.9362 57.7775C64.775 57.7679 64.6403 57.7687 64.5323 57.7729Z" fill="#FD7D6F"/>
<path d="M65.6123 56.0742C65.5596 56.1704 65.5094 56.2697 65.4571 56.3701C65.4809 56.3836 65.5078 56.3949 65.532 56.4059C65.9646 56.6006 66.5471 56.8735 67.1727 57.1818C67.7148 57.4425 68.2455 57.7511 68.7587 58.1042C68.8602 58.1782 68.9508 58.2434 69.0306 58.3028C69.1103 58.3691 69.1768 58.4271 69.2325 58.4724C69.3478 58.5673 69.4112 58.6198 69.4112 58.6198C69.4112 58.6198 69.3693 58.5459 69.2877 58.4079C69.2455 58.3401 69.1946 58.2553 69.1309 58.1599C69.0653 58.0693 68.9853 57.9672 68.897 57.8562C68.427 57.3009 67.8655 56.8531 67.2601 56.5507C66.72 56.2856 66.1616 56.1241 65.6123 56.0742Z" fill="#FD7D6F"/>
<path d="M64.1699 58.209C64.1301 58.3775 64.1318 58.5641 64.1749 58.7516L66.9014 60.4058C67.3993 62.0747 68.0194 63.723 68.7547 65.3319C69.5314 65.7954 70.3393 66.148 71.1554 66.3796C71.7226 66.5804 72.3245 66.7852 72.8819 66.9692L73.6137 65.3794C73.0968 65.2334 72.567 65.0748 72.062 64.9032C70.6567 64.4328 69.4338 63.8876 69.1416 63.3581C68.3698 61.9581 67.2593 59.6282 67.2593 59.6282L64.1699 58.209Z" fill="#FB9988"/>
<path d="M42.6392 43.6714V65.0071L47.0878 81.71L60.0846 75.6871H60.0871C60.0871 75.6871 54.0124 58.8848 48.3945 49.9992L48.3924 49.9952C47.646 48.7814 46.802 47.6328 45.869 46.5611C44.9144 45.465 43.8295 44.4943 42.6392 43.6714Z" fill="#153A23"/>
<path d="M45.1538 80.4423L61.05 73.2812L62.9297 76.8618L45.5214 85.3838L45.1538 80.4423Z" fill="#FFF0E7"/>
<path d="M47.6352 88.7832C47.6352 88.7832 52.9885 102.041 52.9436 109.787C52.086 128.56 50.4459 154.111 49.8431 156.128C48.9017 159.279 15.9479 206.09 15.9479 206.09L7.5874 200.524C7.5874 200.524 24.9713 162.93 27.4143 159.709C30.5624 155.88 34.0045 152.313 37.708 149.039L29.9774 92.8275L47.6352 88.7832Z" fill="#55250A"/>
<path d="M66.8632 212.472L59.3437 214.16L57.0659 214.672C57.0659 214.672 39.3491 171.075 38.3575 169.5C37.3632 167.924 36.5108 153.222 36.5108 153.222C36.5108 153.222 23.1833 123.815 20.3133 118.827C17.4426 113.838 21.8193 90.0581 21.8193 90.0581L24.6141 90.2126L39.1802 91.0272L50.381 147.445L66.8632 212.472Z" fill="#813D16"/>
<path d="M59.3437 214.16L57.0659 214.672C57.0659 214.672 39.3491 171.075 38.3575 169.5C37.3632 167.924 36.5108 153.222 36.5108 153.222C36.5108 153.222 23.1833 123.815 20.3133 118.827C17.4426 113.838 21.8193 90.0581 21.8193 90.0581L24.6141 90.2126C23.666 98.0944 21.8635 114.212 22.7456 116.481C23.9188 119.501 39.7829 150.35 39.7829 150.35C39.7829 150.35 40.329 166.104 41.5537 168.729C42.6141 171.006 56.1085 207.174 59.3437 214.16Z" fill="#55250A"/>
<path d="M47.7629 90.2326C37.6963 98.8294 21.6631 91.5068 21.6631 91.5068C21.7292 88.9585 19.1476 77.6549 16.99 67.3835C16.4096 64.6133 15.8583 61.921 15.3975 59.4923C14.7923 56.2636 14.7476 52.9519 15.2654 49.7075C15.4125 48.5951 15.6895 47.5045 16.0907 46.4589C16.6384 45.7359 17.3158 45.1251 18.0872 44.6591L18.1045 44.6483C18.2853 44.5248 18.4351 44.4227 18.5501 44.3446C18.5745 44.3299 18.5964 44.315 18.6161 44.3003C18.6802 44.2572 18.7263 44.225 18.7608 44.2021L18.7878 44.1847C18.7947 44.1793 18.802 44.1744 18.8096 44.17C20.3936 43.1021 22.0722 42.1872 23.8234 41.4373C23.8367 41.4332 23.8497 41.4283 23.8624 41.4227C24.2228 41.2936 24.578 41.174 24.9108 41.0665C26.2656 40.6324 27.314 40.3877 27.314 40.3877H35.4826C35.4939 40.3857 35.5053 40.3848 35.5168 40.385L35.5433 40.3836C35.5729 40.3809 35.612 40.3782 35.6608 40.3782L35.6733 40.3755C36.1758 40.3805 36.6757 40.4519 37.1602 40.5879V40.5907C37.4924 40.6761 37.8201 40.7787 38.1419 40.8984C39.4344 41.3995 40.6657 42.0508 41.8115 42.8393C42.8518 43.5404 43.8503 44.3039 44.8016 45.1255C50.9255 50.3606 50.6072 60.4009 46.9693 67.6026C45.8818 69.7543 47.7629 90.2326 47.7629 90.2326Z" fill="#264F36"/>
<path d="M45.521 66.5748C45.521 66.5748 45.2225 66.5586 44.683 66.5316C44.1482 66.4967 43.3745 66.4483 42.4191 66.3878C40.0362 66.1622 37.6332 66.3214 35.2991 66.8596C34.629 67.0398 33.9583 67.2521 33.2821 67.4375C32.6224 67.6232 31.9517 67.7664 31.2743 67.8663C30.1287 68.036 28.9681 68.0743 27.8142 67.9806C27.3582 67.9481 26.9075 67.8619 26.4711 67.7237C26.1374 67.6193 25.8242 67.4565 25.5455 67.2426C25.3747 67.1082 25.2259 66.9472 25.1044 66.7656C25.0293 66.6393 24.9956 66.572 24.9956 66.572C24.9956 66.572 25.051 66.6217 25.1579 66.7158C25.3156 66.8398 25.4902 66.9398 25.6762 67.0128C26.362 67.2323 27.091 67.273 27.7963 67.1312C28.8742 66.9782 29.9414 66.755 30.9912 66.463C31.5814 66.2992 32.1796 66.1056 32.8168 65.8811C33.4544 65.6606 34.1345 65.4161 34.874 65.2172C36.2785 64.8497 37.7359 64.7378 39.1787 64.8866C40.3224 65.0036 41.4533 65.2254 42.5579 65.5492C43.4914 65.8194 44.2282 66.0827 44.736 66.2709C45.243 66.4605 45.521 66.5748 45.521 66.5748Z" fill="#153A23"/>
<path d="M48.7797 36.805C47.6246 37.1958 46.4455 37.5087 45.2501 37.7418C37.0452 39.3803 26.7872 38.1464 20.8452 37.1383C17.8596 36.6302 15.9613 36.1814 15.9613 36.1814C15.9613 36.1814 15.0059 27.992 15.0059 24.8656C15.0022 23.0829 15.1331 21.3026 15.3976 19.5404C17.1048 8.26625 23.8432 3.13066 24.3206 2.77838L24.3404 2.7637L24.3477 2.7583H36.9938L41.6327 5.18699L42.5609 5.67346L42.9136 5.85767L47.9913 8.51494L48.1161 12.9585L48.2139 16.4906L48.7797 36.805Z" fill="#5E2C00"/>
<path d="M46.2225 35.2049C45.9899 36.0842 45.6638 36.9351 45.25 37.7425C37.0451 39.381 26.7871 38.1471 20.8451 37.139C20.8336 37.1239 20.8229 37.1083 20.8132 37.092C18.8529 33.8909 17.8041 30.1988 17.7835 26.4269C17.7695 22.6717 18.2951 18.9346 19.3436 15.3342C20.0125 12.4691 21.1341 9.73367 22.6647 7.23471C23.8714 5.34886 25.5316 3.80821 27.4877 2.75901C27.5853 2.70653 27.6838 2.65945 27.7814 2.6125C29.9859 1.73667 32.3555 1.37608 34.7152 1.55731C36.2539 1.53873 37.7736 1.9043 39.1413 2.622C40.5091 3.3397 41.6831 4.38764 42.5608 5.67417C44.0595 8.06669 44.1969 11.0519 44.5593 13.8664C45.0175 17.4337 45.9015 20.9349 46.4377 24.4913C47.1022 28.0386 47.0289 31.6882 46.2225 35.2049Z" fill="#944600"/>
<path d="M49.6325 27.0426C49.5956 26.8465 49.5374 26.5656 49.4437 26.2215C49.3345 25.8138 49.1914 25.4163 49.0158 25.0334C48.7971 24.5485 48.5043 24.1021 48.1482 23.7106C47.7847 23.3218 47.3596 22.9979 46.8906 22.7523C46.5191 22.558 46.1296 22.4014 45.7279 22.2847C45.5814 22.2417 45.448 22.2067 45.3258 22.1786C45.1773 22.036 45.0888 21.958 45.0888 21.958C45.0888 21.958 45.1166 22.0252 45.1661 22.1422C45.0736 22.122 44.9877 22.1059 44.9164 22.0924C44.7229 22.0588 44.6147 22.0455 44.6147 22.0455C44.6147 22.0455 44.8828 22.2229 45.3225 22.5159C45.415 22.7376 45.5312 23.0159 45.6678 23.3425C46.1286 24.3842 46.4678 25.4772 46.6786 26.5992C46.8315 27.7377 46.8843 28.8878 46.8364 30.0359C46.8324 30.4998 46.8292 30.876 46.8272 31.1366C46.8311 31.4002 46.8338 31.5453 46.8338 31.5453C46.8338 31.5453 46.8919 31.4122 46.9956 31.1717C47.0951 30.9285 47.2346 30.5762 47.3792 30.13C47.5525 29.6022 47.6813 29.0604 47.7641 28.5103C47.872 27.8157 47.8718 27.1082 47.7634 26.4136C47.6444 25.7173 47.4114 25.0463 47.0741 24.4285C46.8201 23.9629 46.5234 23.5227 46.1881 23.1139C46.6759 23.4602 47.1286 23.8552 47.5395 24.2928C48.1075 24.9461 48.6172 25.6495 49.0627 26.3948C49.2516 26.6892 49.4053 26.927 49.5124 27.0937C49.624 27.2578 49.6859 27.3492 49.6859 27.3492C49.6859 27.3492 49.6669 27.2389 49.6325 27.0426Z" fill="#944600"/>
<path d="M39.2875 44.4032C38.8264 46.0705 40.482 46.0284 39.2875 47.262C38.093 48.4956 31.8496 47.61 30.2185 48.1035C24.2571 50.1385 25.0994 44.2954 23.8623 41.4232C24.9947 41.0183 26.1467 40.6728 27.3139 40.3882H35.4825C35.4938 40.3862 35.5052 40.3853 35.5167 40.3855L35.5432 40.3841C35.5728 40.3814 35.6119 40.3787 35.6607 40.3787L35.6732 40.376C36.1758 40.381 36.6756 40.4524 37.1601 40.5884V40.5912C37.4923 40.6765 37.82 40.7792 38.1419 40.8989C39.4343 41.4 38.1418 43.6147 39.2875 44.4032Z" fill="#FDBD8E"/>
<path d="M34.6609 48.7297L27.3125 40.3883C27.325 39.149 27.4281 38.684 27.5383 35.6168C27.6559 32.207 27.778 29.0107 27.778 29.0107L37.2326 32.8145C36.2248 35.2804 35.6525 37.9081 35.5423 40.5765C35.4226 43.3108 35.1282 46.0343 34.6609 48.7297Z" fill="#FDBD8E"/>
<path d="M37.2328 32.8145C36.225 35.2804 35.6528 37.9081 35.5425 40.5765C35.2442 40.7028 34.9523 40.8198 34.6783 40.9178C33.581 41.3063 30.054 38.1196 27.5386 35.6168C27.6561 32.207 27.7782 29.0107 27.7782 29.0107L37.2328 32.8145Z" fill="#FB9988"/>
<path d="M47.1506 21.3811C46.9591 22.2707 46.7125 23.2048 46.4105 24.1833C46.4105 24.1833 46.8345 29.0019 46.3373 30.0811C45.8375 31.1632 42.6538 37.8957 39.3077 37.4789C36.5155 37.1322 29.6867 32.9683 27.3133 30.4884C26.9354 30.1579 26.6505 29.7312 26.4879 29.2519C26.1618 27.3393 25.0427 18.9052 24.9376 18.1995C24.6532 16.287 23.8648 1.80447 41.0665 5.83411C42.5865 6.18398 43.9787 6.96326 45.083 8.08238C46.1874 9.20149 46.9592 10.615 47.3097 12.1606C47.9247 15.2085 47.8703 18.357 47.1506 21.3811Z" fill="#FDBD8E"/>
<path d="M46.4102 24.1827C46.4102 24.1827 46.8342 29.0012 46.337 30.0804C45.8372 31.1625 42.6535 37.895 39.3074 37.4782C36.5152 37.1316 29.6864 32.9676 27.313 30.4877C30.22 32.5415 37.9725 37.7848 40.2455 36.9795C43.0621 35.9823 46.2464 29.637 46.1851 29.0093C46.1237 28.3789 45.9401 24.2674 45.9401 24.2674C45.9401 24.2674 46.508 22.9676 47.1503 21.3804C46.9589 22.27 46.7122 23.2041 46.4102 24.1827Z" fill="#FFDABA"/>
<path d="M27.257 29.0093C26.3628 28.9218 25.4956 28.6488 24.709 28.207C23.9224 27.7653 23.2331 27.1641 22.6836 26.4408C22.5144 26.223 22.3624 25.992 22.2287 25.75C21.612 24.6114 21.4345 20.6641 23.023 19.7461C24.1355 19.1035 24.9456 20.0349 25.3305 20.652V20.6533C25.4253 20.8028 25.5094 20.9591 25.5821 21.121L27.257 29.0093Z" fill="#FFDABA"/>
<path d="M27.257 29.0095C26.3627 28.922 25.4956 28.649 24.709 28.2072C23.9224 27.7655 23.2331 27.1644 22.6835 26.441C22.611 26.3295 22.5476 26.2233 22.4934 26.1225C21.8767 24.984 21.6991 21.0365 23.287 20.1199C23.6293 19.9231 24.033 19.8687 24.4139 19.9679C24.7947 20.0671 25.1231 20.3123 25.3304 20.6522V20.6535C25.4253 20.803 25.5094 20.9593 25.582 21.1212L27.257 29.0095Z" fill="#FDBD8E"/>
<path d="M22.5218 22.8814C22.4551 23.2009 22.4803 23.5332 22.5945 23.8384C23.2527 25.202 24.2881 26.3401 25.5734 27.1126C25.209 26.4884 25.0556 25.76 25.1364 25.0386C25.1759 24.7942 25.203 24.5479 25.2176 24.3007C25.2276 23.3075 22.9919 21.0144 22.5218 22.8814Z" fill="#FB9988"/>
<path d="M26.1979 27.4908L26.1272 27.4493C26.0824 27.4223 26.0098 27.3847 25.9266 27.3284C25.6962 27.1714 25.4893 26.9812 25.3125 26.7638C25.0664 26.4575 24.8935 26.0973 24.8074 25.7115C24.7091 25.2422 24.7643 24.7531 24.9646 24.3188C24.99 24.2586 25.0203 24.2007 25.055 24.1456L25.0801 24.1025C25.0861 24.0918 25.082 24.0985 25.0833 24.0985C25.0906 24.1108 25.1029 24.1197 25.1165 24.1234C25.1301 24.1272 25.1446 24.1254 25.1569 24.1185C25.1692 24.1115 25.1784 24.1 25.1826 24.0863C25.1867 24.0726 25.1854 24.0578 25.179 24.0451C25.1726 24.0323 25.1616 24.0226 25.1483 24.0179C25.135 24.0132 25.1204 24.014 25.1077 24.0201C25.0949 24.0261 25.085 24.037 25.08 24.0504C25.0749 24.0638 25.0752 24.0786 25.0808 24.0918L25.0603 24.0541L25.0181 23.9789C24.9896 23.9291 24.9612 23.8794 24.9315 23.8309C24.8167 23.642 24.6916 23.4598 24.5566 23.2853C24.4258 23.1159 24.2905 22.96 24.1564 22.8175C24.035 22.6828 23.9034 22.5579 23.763 22.4439C23.646 22.3498 23.5073 22.2878 23.3601 22.2639C23.2427 22.2497 23.1236 22.2697 23.0169 22.3216C22.9525 22.3501 22.8989 22.3991 22.8643 22.4613C22.8538 22.4825 22.8465 22.5052 22.8426 22.5286C22.8386 22.5049 22.8399 22.4805 22.8464 22.4573C22.8662 22.3834 22.9118 22.3193 22.9747 22.2772C23.0907 22.1963 23.2276 22.1524 23.3682 22.1509C23.5561 22.1558 23.7397 22.2095 23.9016 22.3068C24.0726 22.4107 24.2347 22.5289 24.3862 22.6603C24.5546 22.8025 24.7142 22.9551 24.8642 23.1173C25.0252 23.2917 25.1731 23.4781 25.3066 23.6751C25.3415 23.7262 25.3739 23.7787 25.407 23.8297L25.4543 23.909L25.5179 24.0219L25.562 24.0998C25.5502 24.1267 25.5329 24.1522 25.5185 24.1792L25.4557 24.2907C25.4259 24.3392 25.3999 24.3899 25.3779 24.4426C25.2019 24.8266 25.1325 25.2524 25.1772 25.6737C25.2187 26.0276 25.3306 26.3693 25.5059 26.6778C25.635 26.9022 25.7931 27.1078 25.9761 27.2892C26.0421 27.3565 26.1028 27.4036 26.1398 27.4385C26.1781 27.4721 26.1979 27.4908 26.1979 27.4908Z" fill="#FD7D6F"/>
<path d="M48.7089 17.9155C48.7089 17.9155 46.5136 14.9237 45.2889 16.1078C44.0643 17.292 44.6154 17.4169 44.6154 17.4169L48.7089 17.9155Z" fill="#5E2C00"/>
<path d="M31.3301 18.3733C31.3301 18.3733 35.3814 13.6233 37.0407 15.3101C38.0085 16.2953 37.3357 16.9659 37.3357 16.9659L31.3301 18.3733Z" fill="#5E2C00"/>
<path d="M46.4181 20.103C46.2144 20.4582 45.9001 20.734 45.5249 20.8867C45.4531 20.8086 45.3668 20.7457 45.2711 20.7017C45.1753 20.6576 45.0719 20.6333 44.9669 20.6301C44.3722 20.6301 43.8901 21.4175 43.8901 22.3893C43.8901 23.3624 44.3722 24.1501 44.9669 24.1501C45.5612 24.1501 46.0438 23.3624 46.0438 22.3893C46.0466 22.0502 45.9831 21.7139 45.8569 21.4C46.1377 21.0163 46.3296 20.5729 46.4181 20.103Z" fill="#161818"/>
<path d="M37.753 22.523C37.753 22.523 37.6606 22.4813 37.4989 22.4074C37.2793 22.3095 37.0549 22.2229 36.8267 22.148C36.1458 21.9271 35.4414 21.7899 34.7285 21.7393C34.0079 21.6824 33.2833 21.7117 32.5695 21.8267C32.2724 21.8778 32.0209 21.9342 31.8466 21.9812C31.6696 22.0297 31.5693 22.0566 31.5693 22.0566C31.6107 21.9837 31.6572 21.9141 31.7086 21.8482C31.8582 21.6552 32.0346 21.4855 32.2322 21.3442C33.0039 20.8105 33.9321 20.5624 34.8619 20.6413C35.7688 20.6894 36.6269 21.0744 37.2736 21.7233C37.4338 21.892 37.5664 22.0858 37.6666 22.2971C37.7012 22.37 37.7301 22.4455 37.753 22.523Z" fill="#161818"/>
<path d="M46.9686 21.5355C46.71 21.8798 46.3655 22.1471 45.9709 22.3098C45.5763 22.4724 45.1461 22.5243 44.7251 22.4601C44.9832 22.1154 45.3276 21.8476 45.7223 21.6849C46.1171 21.5222 46.5475 21.4706 46.9686 21.5355Z" fill="#FFF0E7"/>
<path d="M40.0973 27.2803C39.7644 27.1045 39.3973 27.0062 39.0225 26.9927C39.4011 27.8654 40.1009 28.5521 40.9715 28.9054C41.0365 28.9362 41.107 28.9531 41.1787 28.9549C41.2659 28.9453 41.3493 28.914 41.4217 28.8636C41.9001 28.5776 42.3186 28.1986 42.6531 27.7481C42.7256 27.6603 42.7795 27.5582 42.8116 27.4483C42.8966 27.0815 42.6484 27.162 42.4339 27.248C42.1842 27.3473 41.9234 27.415 41.6574 27.4497C41.1315 27.521 40.5965 27.4629 40.0973 27.2803Z" fill="#FB9988"/>
<path d="M41.0489 28.6947C41.2695 28.4944 41.5163 28.3237 41.7421 28.1288C42.022 27.8893 42.2786 27.6229 42.5081 27.3331C41.3342 26.5092 41.3468 25.262 41.4029 23.8478C41.4437 22.8651 41.8287 21.9297 42.4882 21.2109C42.6029 21.0862 42.7248 20.9686 42.8533 20.8587C42.9759 20.7611 43.113 20.684 43.2595 20.6304C43.1874 20.7136 43.138 20.8116 43.0726 20.8978C42.8952 21.1156 42.7294 21.3431 42.576 21.5791C42.429 21.8235 42.3026 22.0803 42.1984 22.3465C41.9878 22.8801 41.8692 23.4467 41.8479 24.0213C41.8237 24.5858 41.9133 25.1493 42.1113 25.6772C42.3397 26.3012 42.7497 26.8395 43.2865 27.2201C43.291 27.2229 42.4844 28.1705 42.4058 28.2485C42.202 28.4486 41.9793 28.6278 41.7409 28.7834C41.5133 28.9661 41.2381 29.0768 40.9493 29.1019C40.8587 29.1016 40.7701 29.0745 40.6943 29.024C40.7442 28.9915 40.7905 28.9537 40.8324 28.9111C40.8511 28.8932 40.8689 28.8743 40.8858 28.8546C40.9381 28.7981 40.9928 28.7458 41.0489 28.6947Z" fill="#FD7D6F"/>
<path d="M39.0244 32.3662C39.4657 32.5883 39.9489 32.7109 40.4409 32.7257C40.933 32.7405 41.4225 32.6473 41.8759 32.4522C41.7401 32.6782 41.5479 32.8635 41.3189 32.9894C41.0898 33.1152 40.8321 33.177 40.572 33.1686C39.9767 33.1041 39.4257 32.8184 39.0244 32.3662Z" fill="#FD7D6F"/>
<path d="M35.7153 29.8281C36.8455 30.6499 38.155 31.1797 39.5311 31.372C40.9071 31.5642 42.3084 31.4131 43.6143 30.9317C42.1871 31.182 40.728 31.1789 39.3017 30.9224C38.0481 30.7966 36.8302 30.425 35.7153 29.8281Z" fill="#FD7D6F"/>
<path d="M48.2623 18.2852C47.8868 18.0326 47.4755 17.8399 47.0428 17.7139C46.6541 17.5998 46.2516 17.5418 45.8471 17.5419C45.7883 17.5419 45.7322 17.5419 45.6735 17.5473C45.5026 17.5515 45.3322 17.5681 45.1637 17.597C44.2441 17.7474 43.3955 18.1919 42.7407 18.8662C42.0859 19.5404 41.6591 20.4093 41.5219 21.347C40.8409 21.0855 40.0869 21.1023 39.4177 21.3938C39.2844 20.2058 38.7256 19.1094 37.8482 18.3142C36.9707 17.5191 35.8361 17.0809 34.6613 17.0835C33.4756 17.0824 32.3322 17.532 31.4552 18.3442C30.8973 18.8583 30.4653 19.4981 30.1936 20.2125L25.7799 19.4787L25.0991 19.3644H25.0892L23.8818 19.1628L23.862 19.2919L23.823 19.531L23.7669 19.8833L23.7642 19.9007L23.8546 19.9154L24.5334 20.0271L24.5994 20.0405H24.6022L24.8959 20.0876L24.8985 20.0903L25.2049 20.1399L25.3785 20.1695L25.6135 20.2071L27.4285 20.5083L29.9803 20.933C29.8012 21.7824 29.8483 22.6651 30.1167 23.4898C30.3851 24.3145 30.865 25.0513 31.5068 25.624C32.1487 26.1966 32.9292 26.5844 33.7676 26.7471C34.606 26.9099 35.4719 26.8418 36.2758 26.5498C37.1662 26.2218 37.9416 25.6334 38.5046 24.8584C39.0676 24.0834 39.3931 23.1564 39.4402 22.1937C39.7514 22.0168 40.1016 21.9233 40.4581 21.9222C40.8145 21.921 41.1654 22.0121 41.4777 22.1869C41.4873 22.4191 41.5144 22.6501 41.5589 22.8779C41.6236 23.2031 41.7246 23.5196 41.86 23.8214C42.1795 24.5477 42.6846 25.1736 43.3226 25.6336C43.9606 26.0936 44.7082 26.3711 45.4873 26.4369C45.6069 26.4496 45.727 26.4555 45.8471 26.4545C45.9137 26.4545 45.9773 26.4517 46.0432 26.4505C46.2132 26.443 46.3826 26.4245 46.5503 26.3952C46.5801 26.3923 46.6096 26.3875 46.6387 26.3805C46.6535 26.3791 46.6681 26.3764 46.6824 26.3724C47.0301 26.3042 47.3683 26.1927 47.6892 26.0404C47.8354 25.9713 47.9777 25.8941 48.1156 25.8092C48.2351 25.7341 48.3534 25.6546 48.4655 25.5674C48.4807 25.5578 48.4927 25.5472 48.5053 25.5378C48.6919 25.3924 48.8664 25.2315 49.0267 25.0567C49.4657 24.585 49.7979 24.0213 49.9999 23.405C50.2019 22.7887 50.2688 22.1349 50.1959 21.4895C50.1231 20.8441 49.9122 20.2227 49.5781 19.6691C49.244 19.1156 48.7949 18.6432 48.2623 18.2852ZM35.7831 25.9235C35.4189 26.0326 35.041 26.0873 34.6613 26.0861C33.6332 26.0877 32.6427 25.6923 31.8897 24.9798C31.1367 24.2673 30.6771 23.2907 30.6037 22.2468C30.5303 21.203 30.8485 20.1697 31.4941 19.3552C32.1397 18.5408 33.0648 18.0059 34.0827 17.8584C35.1005 17.7108 36.1355 17.9617 36.9788 18.5603C37.8221 19.159 38.411 20.0608 38.6267 21.084C38.8425 22.1073 38.669 23.1757 38.1413 24.0738C37.6135 24.9719 36.7708 25.6329 35.7831 25.9235ZM48.6498 24.3631C48.5839 24.446 48.5133 24.5249 48.4385 24.5995C48.3253 24.7202 48.2025 24.8313 48.0715 24.9316C47.8853 25.0795 47.6851 25.2083 47.4739 25.3159C47.1948 25.4574 46.8993 25.5627 46.5944 25.6291C46.5674 25.6345 46.541 25.6399 46.5133 25.644C46.5014 25.647 46.4892 25.6488 46.4769 25.6492C46.3216 25.6792 46.1642 25.6967 46.0062 25.7017C45.9533 25.7062 45.9002 25.7081 45.8471 25.7071C44.9332 25.7063 44.0529 25.3561 43.3807 24.7257C42.7084 24.0954 42.2934 23.2311 42.2178 22.3039C42.2078 22.203 42.2027 22.1017 42.2027 22.0002C42.202 21.8392 42.2128 21.6784 42.235 21.519C42.338 20.721 42.693 19.9787 43.2464 19.4039C43.7999 18.8291 44.5219 18.453 45.3037 18.3322C45.4836 18.3047 45.6652 18.2908 45.8471 18.2906C46.4547 18.29 47.0526 18.4448 47.5861 18.7407C47.8401 18.8817 48.0763 19.0537 48.2893 19.2529C48.9863 19.8923 49.4131 20.7815 49.4803 21.7341C49.5475 22.6868 49.2499 23.6289 48.6498 24.3631Z" fill="#161818"/>
<path d="M48.4659 13.1027C48.4467 14.2362 48.3625 15.3676 48.2138 16.4911C48.1793 16.7384 48.1576 16.873 48.1576 16.873C42.6242 12.9133 42.6049 8.36088 42.7589 6.92539C41.2576 14.9038 24.6485 19.4911 24.6485 19.4911L22.3172 20.5247C21.7878 19.9079 21.3638 19.2051 21.0628 18.4454C20.1147 16.225 19.3534 12.2182 21.7831 6.38915C22.3444 5.00281 23.2128 3.76723 24.3205 2.77884L24.3403 2.76416C29.6895 -1.93475 39.0239 0.780293 39.0239 0.780293C47.4129 -0.000599695 48.5491 8.10411 48.4659 13.1027Z" fill="#944600"/>
<path d="M29.0613 23.3674C28.9991 23.1778 28.9055 22.9062 28.7674 22.5784C28.6068 22.1887 28.4138 21.8137 28.1905 21.4574C27.9102 21.0067 27.5622 20.6035 27.1591 20.2626C26.7484 19.9264 26.2854 19.6625 25.7892 19.4817C25.3955 19.3388 24.9891 19.2352 24.5757 19.1725C24.4244 19.1496 24.2884 19.1334 24.1636 19.1213C23.9979 19.0005 23.8995 18.9346 23.8995 18.9346C23.8995 18.9346 23.9366 18.9977 24 19.108C23.9062 19.0998 23.8191 19.0945 23.747 19.0919C23.5509 19.0837 23.4414 19.0851 23.4414 19.0851C23.4414 19.0851 23.7298 19.2262 24.2033 19.4575C24.3234 19.6644 24.4752 19.9239 24.653 20.2302C25.2438 21.2013 25.7213 22.2393 26.0757 23.323C26.374 24.4312 26.5751 25.5642 26.6765 26.7086C26.732 27.1683 26.7777 27.542 26.8092 27.8015C26.8475 28.0609 26.8686 28.206 26.8686 28.206L26.9808 27.8136C27.0481 27.5595 27.1406 27.1912 27.2259 26.7288C27.3298 26.1825 27.3877 25.628 27.3988 25.0716C27.4161 24.3692 27.3245 23.6684 27.1274 22.995C26.9195 22.3199 26.6017 21.6852 26.1872 21.1173C25.8748 20.6902 25.5238 20.2937 25.1388 19.9332C25.6669 20.2119 26.1667 20.5428 26.631 20.9212C27.2785 21.493 27.8749 22.1222 28.4129 22.8015C28.638 23.0675 28.8217 23.284 28.9483 23.4345C29.0804 23.581 29.1538 23.6631 29.1538 23.6631C29.1538 23.6631 29.1208 23.5582 29.0613 23.3674Z" fill="#944600"/>
<path d="M48.4659 13.1027C48.3463 13.0627 48.2294 13.0146 48.116 12.959C45.4903 11.7439 43.7882 8.20633 42.9135 5.85813C42.6403 5.13379 42.4032 4.39588 42.203 3.64725C42.1332 4.19884 41.9379 4.72624 41.6326 5.18745C39.9279 8.08931 34.9801 12.1887 34.9801 12.1887L35.7148 9.87959C35.7148 9.87959 34.3626 12.123 29.2438 15.4093C26.6849 16.8399 23.926 17.8638 21.0629 18.4454C18.9568 18.9467 16.9258 19.3055 15.3975 19.5408C15.6862 17.6068 16.1571 15.7056 16.8037 13.8634C18.2269 9.51821 20.8337 5.67409 24.3206 2.77884L24.3403 2.76416C29.6896 -1.93475 39.0239 0.780293 39.0239 0.780293C39.5815 0.726259 40.1423 0.714591 40.7016 0.74539C47.5675 1.1337 48.5445 8.45903 48.4659 13.1027Z" fill="#CF6302"/>
<path d="M40.7016 0.74539C39.5468 2.73042 37.9195 4.38752 35.9698 5.56384C36.2985 4.94882 36.444 4.24956 36.3884 3.5517C33.9653 7.12761 30.5965 9.93164 26.6722 11.639C27.138 10.6989 27.3549 9.65147 27.3015 8.60003C24.8794 10.8331 21.9731 12.4519 18.8195 13.3244C18.1571 13.5391 17.4843 13.719 16.8037 13.8634C18.2269 9.51821 20.8338 5.67409 24.3206 2.77884L24.3404 2.76416C29.6896 -1.93475 39.024 0.780293 39.024 0.780293C39.5816 0.726259 40.1423 0.714591 40.7016 0.74539Z" fill="#EE7203"/>
<path d="M15.6451 80.7086C15.5199 84.6465 15.1355 88.5715 14.4944 92.4571C14.0744 95.6102 13.5945 99.0297 13.131 102.238C12.6668 105.448 12.2238 108.447 11.8771 110.759L12.0429 116.836C12.0429 116.836 14.8278 117.727 14.8053 118.184C15.3504 119.79 16.1222 121.307 17.0964 122.687C17.5856 123.083 16.1707 124.383 16.1707 124.383C15.4622 124.127 14.719 123.984 13.9675 123.96C13.5773 124.062 13.0352 125.931 12.3764 126.871C12.238 127.118 12.0152 127.304 11.7504 127.395C10.8057 127.58 9.63955 127.793 9.35179 127.222C9.06392 126.649 8.57141 125.571 7.95866 125.415C7.34602 125.258 5.43399 124.119 5.34148 123.298C5.2491 122.476 5.47753 119.876 5.47494 119.196C5.47222 118.513 5.368 116.257 5.368 116.257L5.67697 112.091L5.10986 86.6601C5.06089 84.3067 6.87523 77.2759 6.87523 77.2759L6.95047 75.2248L6.7636 68.0972C6.66804 64.9997 7.29217 61.923 8.58522 59.1174C9.61586 56.7061 11.8626 55.6376 14.2931 55.0247C14.9703 54.8527 15.6624 54.7169 16.347 54.5973C16.7035 54.5327 17.0515 54.4683 17.3908 54.4145L17.3987 54.4131C17.3987 54.4131 15.1605 78.1751 15.6451 80.7086Z" fill="#FDBD8E"/>
<path d="M14.2931 55.0249C12.1884 57.0377 10.4144 59.381 9.03876 61.9656C6.63287 67.3419 8.3515 73.6632 7.39745 79.4897C7.13992 81.0649 6.68442 82.608 6.47708 84.1925C6.31474 85.7742 6.26885 87.366 6.33981 88.9546C6.39926 92.503 6.3794 96.0541 6.35893 99.6038C6.35301 100.582 6.34708 101.559 6.34116 102.534C6.32007 106.257 6.29948 109.979 6.30281 113.703C6.1382 116.497 6.49555 119.296 7.3559 121.954C7.76955 123.109 8.43689 124.152 9.30698 125.004C10.1771 125.856 11.2269 126.495 12.3764 126.871C12.238 127.118 12.0152 127.305 11.7504 127.395C10.8057 127.581 9.63955 127.793 9.35179 127.222C9.06392 126.649 8.57141 125.571 7.95866 125.415C7.34602 125.258 5.43399 124.12 5.34148 123.298C5.2491 122.476 5.47753 119.876 5.47494 119.196C5.47222 118.514 5.368 116.257 5.368 116.257L5.67697 112.092L5.10986 86.6602C5.06089 84.3069 6.87523 77.2761 6.87523 77.2761L6.95047 75.2249L6.7636 68.0973C6.66804 64.9999 7.29217 61.9232 8.58522 59.1176C9.61586 56.7062 11.8626 55.6378 14.2931 55.0249Z" fill="#FFDABA"/>
<path d="M8.6499 78.3359C8.6499 78.3359 8.68617 78.4206 8.76141 78.5737C8.80451 78.6677 8.85555 78.7577 8.91397 78.8426C8.98583 78.9598 9.06641 79.0712 9.15498 79.1758C9.25853 79.3054 9.37248 79.4259 9.49565 79.5362C9.63486 79.6645 9.78387 79.7814 9.94128 79.8857C10.3003 80.1178 10.6965 80.2843 11.1119 80.3776C11.5229 80.4592 11.9449 80.4646 12.3578 80.3936C12.5361 80.3593 12.7114 80.3104 12.882 80.2472C13.0309 80.1949 13.1746 80.1282 13.3112 80.0481C13.4259 79.9862 13.5355 79.9148 13.6387 79.8346C13.7193 79.7786 13.7947 79.7152 13.8638 79.645C13.9813 79.532 14.0413 79.4676 14.0413 79.4676L13.8095 79.5348C13.7226 79.5636 13.634 79.5866 13.5441 79.6033C13.4289 79.6316 13.3124 79.6535 13.1949 79.6691C13.0561 79.692 12.9161 79.7064 12.7757 79.7122C12.627 79.7284 12.4661 79.7202 12.3009 79.7216C11.9432 79.7073 11.5872 79.6646 11.236 79.5939C10.8835 79.516 10.5372 79.4113 10.2001 79.2808C10.0463 79.2109 9.89244 79.1544 9.75898 79.0791C9.62898 79.016 9.50252 78.9456 9.38021 78.8681C9.27435 78.8057 9.17182 78.7374 9.07308 78.6639C8.99367 78.6117 8.91779 78.5543 8.8459 78.4919C8.71984 78.3909 8.6499 78.3359 8.6499 78.3359Z" fill="#F37C71"/>
<path d="M24.7224 52.4787L17.8863 76.3843V76.3897L16.414 81.5362L16.2179 83.3413L7.75301 81.8871L5.32861 81.4703C5.43358 80.8453 5.54397 80.2217 5.66608 79.598L5.75969 79.1276C5.75852 74.0377 6.15569 68.9559 6.94746 63.9302C8.0621 57.1709 10.217 50.0822 14.3712 47.1305C14.7497 46.8598 15.1504 46.6229 15.5689 46.4224L16.6418 47.1333L24.7224 52.4787Z" fill="#264F36"/>
<path d="M16.6418 47.1333C15.6673 48.1306 14.2437 49.6521 12.2334 51.9223C8.07196 56.6224 7.75819 76.3426 7.75301 81.8871L5.32861 81.4703C5.43358 80.8453 5.54397 80.2217 5.66608 79.598L5.75969 79.1276C5.75852 74.0377 6.15569 68.9559 6.94746 63.9302C8.0621 57.1709 10.217 50.0822 14.3712 47.1305C14.7497 46.8598 15.1504 46.6229 15.5689 46.4224L16.6418 47.1333Z" fill="#56926D"/>
<path d="M4.59333 77.5835L4.34912 82.9631L16.6783 84.3328L17.3986 80.9682L4.59333 77.5835Z" fill="#FFF0E7"/>
<path d="M26.2373 39.3377C26.2373 39.3377 33.8341 46.8294 35.7164 47.0241C37.5987 47.2188 36.2627 40.0472 36.2627 40.0472C36.2627 40.0472 39.7535 39.7063 43.1692 42.5529C43.9196 43.4888 42.3327 51.4476 41.4294 51.597C39.532 51.9106 37.3221 47.9897 36.2629 48.3867C35.2037 48.7836 29.7428 52.6383 28.8083 52.3315C27.8739 52.0248 22.3806 43.5458 22.9809 41.4621C23.5804 39.3782 26.2373 39.3377 26.2373 39.3377Z" fill="#F2E6D7"/>
</svg>
