<svg width="121" height="135" viewBox="0 0 121 135" fill="none" xmlns="http://www.w3.org/2000/svg">
<g filter="url(#filter0_d_255_373511)">
<path d="M75.2615 103.869L75.2615 103.869C74.6808 105.858 72.5972 107 70.6077 106.419L31.4608 94.9867C29.4716 94.4058 28.3298 92.3221 28.9108 90.3329L45.5515 33.3503C46.1324 31.3611 48.216 30.2194 50.2053 30.8003L89.3522 42.2324C91.3414 42.8134 92.4832 44.897 91.9022 46.8862L75.2615 103.869Z" fill="#254F36" stroke="#254F36" stroke-width="1.38484"/>
<path d="M71.0322 101.811L87.2305 46.3438L49.7821 35.4076L33.5838 90.8752L71.0322 101.811Z" fill="#EBEBFF"/>
<path d="M80.0878 38.5338L73.7134 36.6723C74.6316 36.0641 75.3451 35.147 75.6755 34.0157C76.4276 31.4401 74.9113 28.7315 72.2889 27.9657C69.6663 27.1998 66.9308 28.6668 66.1787 31.2424C65.8482 32.3739 65.9561 33.5305 66.4029 34.5374L60.0285 32.6759C56.4906 31.6427 52.8001 33.6218 51.7854 37.0964L84.6566 46.6958C85.6711 43.2212 83.6257 39.567 80.0878 38.5338Z" fill="#F8BE5A"/>
<path d="M51.7852 37.0961L84.6565 46.6955C84.7975 46.2126 84.8773 45.7263 84.9043 45.244L52.3575 35.7393C52.1205 36.1602 51.9263 36.613 51.7852 37.0961Z" fill="#E5A951"/>
<path d="M70.4049 34.3652C71.5263 34.6927 72.696 34.0654 73.0176 32.9641C73.3393 31.8629 72.6909 30.7046 71.5695 30.3771C70.4481 30.0497 69.2783 30.6769 68.9567 31.7782C68.6351 32.8795 69.2835 34.0377 70.4049 34.3652Z" fill="#E5A951"/>
<path d="M57.4914 36.0806C57.8546 36.1867 58.2336 35.9835 58.3377 35.6267C58.4419 35.27 58.2319 34.8948 57.8687 34.7888C57.5054 34.6827 57.1265 34.8859 57.0223 35.2426C56.9181 35.5993 57.1281 35.9745 57.4914 36.0806Z" fill="#E5A951"/>
<path d="M80.9133 42.9204C81.2765 43.0265 81.6554 42.8233 81.7596 42.4666C81.8638 42.1099 81.6538 41.7347 81.2905 41.6286C80.9273 41.5225 80.5484 41.7257 80.4442 42.0824C80.34 42.4392 80.55 42.8144 80.9133 42.9204Z" fill="#E5A951"/>
<path d="M52.778 47.9772L51.1781 47.51C50.1939 47.2226 49.6289 46.1916 49.9163 45.2074L50.3565 43.7001C50.6439 42.716 51.6749 42.151 52.6591 42.4384L54.259 42.9056C55.2432 43.1931 55.8082 44.2241 55.5208 45.2083L55.0806 46.7155C54.7931 47.6999 53.7622 48.2646 52.778 47.9772Z" stroke="#254F36" stroke-width="1.38484" stroke-miterlimit="10" stroke-linecap="round"/>
<path d="M51.7192 44.4502C51.8903 44.8685 52.0566 45.8513 52.5365 46.0364C52.9534 46.1972 53.7079 45.7965 54.1129 45.6882C55.3515 45.3574 56.5902 45.0265 57.8286 44.6956C58.2302 44.5884 58.0754 43.9605 57.6718 44.0683C56.7366 44.3181 55.8017 44.5678 54.8665 44.8177C54.4707 44.9235 54.0748 45.029 53.679 45.1349C53.3103 45.2333 53.031 45.4109 52.6918 45.1317C52.4982 44.9726 52.3757 44.3588 52.2861 44.1396C52.1287 43.7543 51.5632 44.0686 51.7192 44.4502Z" fill="#F9471E"/>
<path d="M59.3496 46.27L79.7398 52.2246" stroke="#254F36" stroke-width="1.38484" stroke-miterlimit="10" stroke-linecap="round"/>
<path d="M58.7285 48.3906L67.7464 51.0241" stroke="#254F36" stroke-width="1.38484" stroke-miterlimit="10" stroke-linecap="round"/>
<path d="M50.231 57.8256L48.6311 57.3584C47.6469 57.0709 47.082 56.0399 47.3694 55.0557L47.8096 53.5483C48.097 52.5641 49.1281 51.9992 50.1123 52.2866L51.7122 52.7538C52.6964 53.0412 53.2613 54.0722 52.9739 55.0564L52.5337 56.5639C52.2463 57.548 51.2154 58.1131 50.231 57.8256Z" stroke="#254F36" stroke-width="1.38484" stroke-miterlimit="10" stroke-linecap="round"/>
<path d="M49.1781 54.2989C49.3492 54.7173 49.5156 55.7 49.9955 55.885C50.4124 56.0458 51.1669 55.6451 51.5719 55.5368C52.8105 55.2061 54.0492 54.8751 55.2876 54.5443C55.6891 54.437 55.5343 53.8091 55.1308 53.9169C54.1956 54.1668 53.2607 54.4165 52.3255 54.6663C51.9297 54.7721 51.534 54.8777 51.138 54.9835C50.7693 55.0819 50.49 55.2595 50.1508 54.9803C49.9572 54.8212 49.8347 54.2075 49.7451 53.9882C49.5877 53.6032 49.0221 53.9174 49.1781 54.2989Z" fill="#F9471E"/>
<path d="M56.8027 56.1177L77.1931 62.0723" stroke="#254F36" stroke-width="1.38484" stroke-miterlimit="10" stroke-linecap="round"/>
<path d="M56.1836 58.2383L72.0459 62.8706" stroke="#254F36" stroke-width="1.38484" stroke-miterlimit="10" stroke-linecap="round"/>
<path d="M47.6881 67.673L46.0882 67.2058C45.104 66.9184 44.5391 65.8874 44.8265 64.9032L45.2667 63.3959C45.5541 62.4118 46.5851 61.8468 47.5693 62.1342L49.1692 62.6014C50.1534 62.8889 50.7183 63.9199 50.4309 64.9041L49.9908 66.4113C49.7034 67.3955 48.6723 67.9604 47.6881 67.673Z" stroke="#254F36" stroke-width="1.38484" stroke-miterlimit="10" stroke-linecap="round"/>
<path d="M46.6273 64.148C46.7984 64.5664 46.9648 65.5491 47.4447 65.7341C47.8616 65.895 48.6161 65.4942 49.0211 65.3859C50.2597 65.0552 51.4984 64.7242 52.7368 64.3934C53.1383 64.2861 52.9835 63.6582 52.58 63.766C51.6448 64.0159 50.7099 64.2656 49.7747 64.5154C49.3789 64.6212 48.983 64.7268 48.5872 64.8326C48.2185 64.9311 47.9392 65.1086 47.6 64.8295C47.4064 64.6703 47.2839 64.0566 47.1943 63.8373C47.0371 63.4521 46.4714 63.7663 46.6273 64.148Z" fill="#F9471E"/>
<path d="M54.2578 65.9653L74.648 71.9199" stroke="#254F36" stroke-width="1.38484" stroke-miterlimit="10" stroke-linecap="round"/>
<path d="M53.6387 68.0864L73.7239 73.952" stroke="#254F36" stroke-width="1.38484" stroke-miterlimit="10" stroke-linecap="round"/>
<path d="M45.1432 77.5212L43.5433 77.0539C42.5591 76.7665 41.9942 75.7355 42.2816 74.7513L42.7217 73.2441C43.0092 72.2599 44.0402 71.695 45.0244 71.9824L46.6243 72.4496C47.6085 72.737 48.1734 73.768 47.886 74.7522L47.4458 76.2594C47.1584 77.2436 46.1276 77.8086 45.1432 77.5212Z" stroke="#254F36" stroke-width="1.38484" stroke-miterlimit="10" stroke-linecap="round"/>
<path d="M44.0863 73.9966C44.2575 74.4148 44.4238 75.3977 44.9037 75.5828C45.3206 75.7436 46.0752 75.3426 46.4801 75.2346C47.7187 74.9038 48.9574 74.5728 50.1958 74.242C50.5973 74.1348 50.4425 73.5069 50.039 73.6147C49.1038 73.8645 48.1689 74.1142 47.2337 74.3641C46.8379 74.4699 46.442 74.5754 46.0462 74.6812C45.6775 74.7797 45.3982 74.9572 45.059 74.6781C44.8654 74.519 44.7429 73.9052 44.6533 73.686C44.4959 73.3009 43.9303 73.6152 44.0863 73.9966Z" fill="#F9471E"/>
<path d="M51.7148 75.814L72.105 81.7686" stroke="#254F36" stroke-width="1.38484" stroke-miterlimit="10" stroke-linecap="round"/>
<path d="M51.0938 77.9336L68.4908 83.0141" stroke="#254F36" stroke-width="1.38484" stroke-miterlimit="10" stroke-linecap="round"/>
<path d="M42.5983 87.3688L40.9984 86.9016C40.0142 86.6142 39.4492 85.5832 39.7367 84.599L40.1768 83.0917C40.4642 82.1076 41.4953 81.5426 42.4794 81.83L44.0794 82.2972C45.0635 82.5847 45.6285 83.6157 45.3411 84.5999L44.9009 86.1071C44.6134 87.0915 43.5825 87.6562 42.5983 87.3688Z" stroke="#254F36" stroke-width="1.38484" stroke-miterlimit="10" stroke-linecap="round"/>
<path d="M41.5414 83.8433C41.7125 84.2617 41.8788 85.2444 42.3587 85.4294C42.7757 85.5903 43.5302 85.1895 43.9352 85.0812C45.1738 84.7505 46.4124 84.4195 47.6508 84.0887C48.0524 83.9814 47.8976 83.3535 47.4941 83.4614C46.5589 83.7112 45.624 83.9609 44.6888 84.2107C44.293 84.3166 43.8971 84.4221 43.5013 84.5279C43.1326 84.6264 42.8533 84.8039 42.514 84.5248C42.3205 84.3656 42.1979 83.7519 42.1084 83.5326C41.9511 83.1477 41.3854 83.4618 41.5414 83.8433Z" fill="#F9471E"/>
<path d="M49.1699 85.6611L69.5601 91.6157" stroke="#254F36" stroke-width="1.38484" stroke-miterlimit="10" stroke-linecap="round"/>
<path d="M48.5508 87.7817L54.9566 89.6524" stroke="#254F36" stroke-width="1.38484" stroke-miterlimit="10" stroke-linecap="round"/>
</g>
<defs>
<filter id="filter0_d_255_373511" x="0.369694" y="0.0659828" width="120.073" height="134.893" filterUnits="userSpaceOnUse" color-interpolation-filters="sRGB">
<feFlood flood-opacity="0" result="BackgroundImageFix"/>
<feColorMatrix in="SourceAlpha" type="matrix" values="0 0 0 0 0 0 0 0 0 0 0 0 0 0 0 0 0 0 127 0" result="hardAlpha"/>
<feOffset/>
<feGaussianBlur stdDeviation="13.8484"/>
<feComposite in2="hardAlpha" operator="out"/>
<feColorMatrix type="matrix" values="0 0 0 0 1 0 0 0 0 0.960784 0 0 0 0 0.00392157 0 0 0 1 0"/>
<feBlend mode="normal" in2="BackgroundImageFix" result="effect1_dropShadow_255_373511"/>
<feBlend mode="normal" in="SourceGraphic" in2="effect1_dropShadow_255_373511" result="shape"/>
</filter>
</defs>
</svg>
