<svg width="113" height="157" viewBox="0 0 113 157" fill="none" xmlns="http://www.w3.org/2000/svg">
<g filter="url(#filter0_d_201_422658)">
<path d="M46.4482 96.458H67.0842L64.9043 114.271C64.8634 114.61 64.7113 114.926 64.4717 115.169C64.2321 115.413 63.9186 115.57 63.5802 115.616C61.7352 115.867 58.2272 116.316 56.7662 116.316C55.3021 116.316 51.7942 115.867 49.9482 115.616C49.6103 115.57 49.2974 115.412 49.0585 115.169C48.8196 114.926 48.6682 114.61 48.6282 114.271L46.4482 96.458Z" fill="#E5AF71"/>
<path d="M64.8689 114.463C64.794 114.762 64.6313 115.032 64.4017 115.237C64.1721 115.443 63.8862 115.575 63.5808 115.616C62.5028 115.763 60.8589 115.977 59.3859 116.129C59.3568 116.192 59.3268 116.254 59.2979 116.316C60.4429 116.199 61.8512 116.025 63.5228 115.793C63.8608 115.747 64.1748 115.592 64.4175 115.353C64.6602 115.113 64.8185 114.801 64.8689 114.463Z" fill="#C9C9C9"/>
<path d="M67.0848 96.458L62.6968 96.459C62.1268 106.016 61.0228 112.573 59.3848 116.129C60.8578 115.977 62.5028 115.763 63.5808 115.616C63.8861 115.574 64.1719 115.442 64.4015 115.237C64.631 115.031 64.7938 114.762 64.8688 114.463L64.8728 114.427L67.0848 96.458Z" fill="#E0C4A3"/>
<path d="M42.9639 86.5903C42.9281 86.4136 42.9333 86.2311 42.9791 86.0567C43.025 85.8823 43.1101 85.7208 43.2282 85.5845C43.3462 85.4483 43.4938 85.3409 43.6598 85.2706C43.8258 85.2004 44.0058 85.1691 44.1858 85.1793C46.6088 85.3163 51.5608 85.5553 56.5718 85.5553C61.9998 85.5553 67.5408 85.2743 69.7638 85.1473C69.8835 85.1404 70.0032 85.161 70.1137 85.2078C70.2241 85.2545 70.3222 85.3261 70.4005 85.4169C70.4789 85.5077 70.5353 85.6153 70.5653 85.7314C70.5954 85.8475 70.5983 85.9689 70.5739 86.0863L68.9618 93.9663C68.9087 94.2298 68.7661 94.4668 68.5581 94.6371C68.3501 94.8073 68.0896 94.9003 67.8208 94.9003H45.6148C45.3458 94.8996 45.0853 94.8064 44.877 94.6363C44.6687 94.4662 44.5253 94.2297 44.4708 93.9663L42.9639 86.5903Z" fill="#E5AF71"/>
<path d="M69.9856 85.1381C69.7946 85.3002 68.2395 85.4162 65.3206 85.4861C65.1947 85.6366 65.103 85.8126 65.0519 86.002C65.0008 86.1915 64.9914 86.3898 65.0245 86.5831C65.1065 89.0181 65.5466 91.6371 65.5466 92.0551C65.5712 92.4732 65.4295 92.8841 65.1525 93.1982C64.8754 93.5123 64.4855 93.7042 64.0676 93.7321C64.0246 93.7321 63.9857 93.7301 63.9426 93.7261C63.8996 93.7301 63.8607 93.7321 63.8176 93.7321C63.3997 93.7042 63.0097 93.5123 62.7327 93.1982C62.4556 92.8841 62.314 92.4732 62.3386 92.0551C62.3386 91.6371 62.7787 89.0181 62.8596 86.5831C62.8888 86.4001 62.8814 86.2131 62.838 86.0329C62.7946 85.8527 62.716 85.6828 62.6067 85.5331C60.5197 85.5591 57.989 85.5698 55.0146 85.5651C56.4316 84.9641 57.6117 84.4621 58.1057 84.2121C60.5707 82.9611 63.168 81.5662 65.8977 80.0271C66.0406 79.9451 66.1847 79.8601 66.3257 79.7721C68.0578 78.6995 69.4908 77.2067 70.4917 75.4321C72.9137 78.3061 72.6176 82.9201 69.9856 85.1381Z" fill="#F1F1F1"/>
<path d="M69.0597 85.3147C68.3616 85.3807 67.2779 85.4337 65.8086 85.4737C67.2797 85.4337 68.3627 85.3807 69.0597 85.3147Z" fill="#E3BA89"/>
<path d="M72.1387 79.7915C70.7079 82.3277 68.484 84.3239 65.8086 85.4735C67.2776 85.4335 68.3612 85.3805 69.0596 85.3145H69.0626L69.0717 85.3135L69.0806 85.3125H69.0817C69.3657 85.2978 69.6471 85.2512 69.9207 85.1735C69.9317 85.1698 69.9424 85.1652 69.9526 85.1595C69.9645 85.1539 69.9756 85.1468 69.9857 85.1385C70.1157 85.0295 70.2396 84.9135 70.3586 84.7935C70.9777 84.1231 71.4546 83.3343 71.7605 82.4746C72.0664 81.615 72.195 80.7022 72.1387 79.7915Z" fill="#ECEBEB"/>
<path d="M66.8125 62.5831C68.0684 63.3397 69.0865 64.4339 69.7507 65.741C70.415 67.0481 70.6986 68.5156 70.5694 69.9761C70.5654 70.0651 70.5585 70.1531 70.5505 70.2411C70.429 71.6094 70.0399 72.9406 69.4055 74.1591L69.4134 74.1641C68.5465 75.8354 67.2425 77.2402 65.6404 78.2291C65.5154 78.3041 65.3914 78.377 65.2664 78.4471C62.5413 79.9771 59.9493 81.3617 57.4904 82.6011C54.8514 83.9361 52.6314 84.5391 50.2954 85.5111H50.2445C48.8099 86.102 47.4347 86.8279 46.1375 87.6791C42.5275 90.0501 42.1614 91.1521 42.1264 91.6201L42.1225 91.6241C42.1185 91.6871 42.1185 91.7391 42.1185 91.7821L42.1225 91.7861C40.7238 89.3587 40.2721 86.4999 40.8543 83.7595C41.4366 81.0192 43.0116 78.591 45.2765 76.9421L45.2804 76.9511L46.5804 76.0881L46.5925 76.0821C46.7406 75.9921 46.8925 75.9031 47.0405 75.8141L47.0245 75.7951C50.5304 73.5646 54.1891 71.584 57.9735 69.8681C58.4486 69.6391 59.1145 69.2651 59.9445 68.7691C60.0175 68.7251 60.0925 68.6801 60.1655 68.6351C60.9336 68.1721 62.4825 67.2031 62.3546 67.2801L62.3465 67.2841L62.4945 67.1931C64.3069 66.054 65.7942 64.466 66.8125 62.5831Z" fill="#F1F1F1"/>
<path d="M70.5861 69.3091C70.589 69.5461 70.583 69.7691 70.5701 69.9771C70.5651 70.0651 70.558 70.1531 70.55 70.2411C70.4285 71.6094 70.0394 72.9406 69.405 74.1591L69.413 74.1641C68.5467 75.8358 67.2427 77.2408 65.64 78.2291C65.516 78.3041 65.391 78.3771 65.267 78.4471C62.541 79.9771 59.949 81.3621 57.491 82.6021C54.903 83.9091 52.72 84.5151 50.434 85.4531L50.6171 85.4591C52.866 84.5391 55.019 83.9351 57.572 82.6461C60.014 81.4111 62.5904 80.0328 65.301 78.5111C65.426 78.4411 65.547 78.3682 65.671 78.2931C67.2656 77.3109 68.5622 75.9124 69.421 74.2481L69.4131 74.2441C70.043 73.0307 70.4292 71.7058 70.55 70.3441C70.558 70.2561 70.5651 70.1681 70.5701 70.0801C70.5861 69.8431 70.5921 69.5841 70.5861 69.3091ZM43.5751 89.5841C42.968 90.0381 42.4885 90.6413 42.183 91.3351C42.176 91.4071 42.1701 91.4781 42.165 91.5501C42.208 91.6291 42.251 91.7071 42.2941 91.7861V91.7821C42.2941 91.7391 42.2941 91.688 42.298 91.625V91.621C42.3201 91.316 42.485 90.741 43.6021 89.718L43.5751 89.5841Z" fill="#D6D6D6"/>
<path d="M50.4341 85.4536C50.3881 85.4726 50.342 85.4916 50.295 85.5106H50.245C48.8098 86.1013 47.4343 86.8276 46.1371 87.6796C45.2389 88.2529 44.3828 88.8895 43.5752 89.5846L43.6022 89.7176C44.4427 88.9763 45.3398 88.3016 46.2852 87.6996C47.5749 86.852 48.9424 86.1291 50.3691 85.5406H50.4202C50.4861 85.5136 50.5522 85.4856 50.6172 85.4596L50.4341 85.4536Z" fill="#E3BA89"/>
<path d="M70.4607 68.0342C68.2256 74.5012 61.2446 77.2222 58.5846 78.5292C55.6847 79.9552 52.1327 81.4312 48.6406 83.1962C44.7776 85.1482 42.4986 88.1002 42.1836 91.3352C42.4883 90.6413 42.9675 90.038 43.5746 89.5842C44.3827 88.8897 45.2388 88.2532 46.1366 87.6792C47.4343 86.8282 48.8098 86.1023 50.2446 85.5112H50.2957C50.3417 85.4912 50.3876 85.4722 50.4336 85.4532C52.7196 84.5152 54.9036 83.9092 57.4905 82.6012C59.9515 81.3612 62.5435 79.9766 65.2665 78.4472C65.3905 78.3772 65.5152 78.3042 65.6405 78.2282C67.2426 77.2398 68.5466 75.8352 69.4136 74.1642L69.4056 74.1592C70.0398 72.9407 70.4284 71.6095 70.5496 70.2412C70.5575 70.1532 70.5656 70.0652 70.5695 69.9762C70.5825 69.7692 70.5885 69.5452 70.5856 69.3092C70.5755 68.8817 70.5339 68.4555 70.4607 68.0342Z" fill="#ECEBEB"/>
<path d="M62.8841 50.5892L62.872 50.6072C64.1429 51.2575 65.1861 52.2789 65.8628 53.536C66.5396 54.793 66.818 56.2262 66.661 57.6452C66.6193 58.1055 66.5437 58.562 66.435 59.0112C66.2092 59.9398 65.8594 60.8339 65.3951 61.6692L65.403 61.6732C64.49 63.3223 63.156 64.6998 61.537 65.6652C61.408 65.7432 58.535 67.5532 57.308 68.1372C53.3621 69.9138 49.5437 71.961 45.88 74.2642L45.892 74.2562L45.88 74.2432L45.8839 74.2401L45.88 74.2421C45.2043 73.0847 44.7653 71.8044 44.5889 70.4758C44.4125 69.1472 44.5021 67.7967 44.8525 66.5031C45.2028 65.2094 45.807 63.9983 46.6298 62.9402C47.4526 61.8822 48.4774 60.9984 49.6449 60.3401C49.7779 60.2651 49.9099 60.1931 50.042 60.1231C50.568 59.8541 51.0779 59.5851 51.5769 59.3181L51.448 59.3661V59.3651L51.97 59.1732C53.9578 58.2705 55.892 57.2541 57.763 56.1292C59.9297 54.7221 61.7057 52.7903 62.9261 50.5132L62.8841 50.5892Z" fill="#F1F1F1"/>
<path d="M66.6929 56.9399C66.6919 57.1809 66.68 57.4169 66.6609 57.6449C66.6191 58.1052 66.5434 58.5618 66.4348 59.011C66.2088 59.9395 65.8591 60.8335 65.3949 61.6689L65.4028 61.6729C64.4896 63.3219 63.1557 64.6993 61.5369 65.6649C61.4079 65.7419 58.5339 67.5529 57.3079 68.1369C56.0289 68.7439 54.7649 69.3479 53.5179 69.9689C54.7429 69.3699 55.9829 68.786 57.2379 68.2C58.4759 67.621 61.3689 65.8269 61.5009 65.7509C63.1245 64.7981 64.4677 63.4335 65.3948 61.795L65.3828 61.791C65.8508 60.9649 66.2034 60.0787 66.4308 59.157C66.5428 58.7123 66.6198 58.2596 66.6609 57.8029C66.6869 57.5161 66.6976 57.228 66.6929 56.9399ZM45.726 73.968C45.706 74.025 45.6878 74.0819 45.6699 74.1389L45.7319 74.2489L45.7358 74.2469L45.7319 74.2499L45.7439 74.2639L45.8519 74.1939C45.8088 74.1189 45.7669 74.044 45.726 73.968Z" fill="#D6D6D6"/>
<path d="M66.1227 54.4062C64.1647 63.2802 57.3226 64.3273 52.3976 67.1263C49.3536 68.8573 46.6616 71.2482 45.7256 73.9682C45.7666 74.0442 45.8086 74.1192 45.8516 74.1942L46.2106 73.9652C48.5722 72.5021 51.0115 71.1682 53.5176 69.9692C54.7646 69.3482 56.0286 68.7442 57.3076 68.1372C58.5336 67.5532 61.4076 65.7423 61.5366 65.6653C63.1554 64.6995 64.4893 63.3221 65.4026 61.6732L65.3947 61.6693C65.8586 60.8338 66.2084 59.9398 66.4346 59.0113C66.5433 58.5621 66.6189 58.1056 66.6606 57.6453C66.6796 57.4173 66.6916 57.1813 66.6926 56.9403C66.6829 56.0786 66.5123 55.2263 66.1896 54.4273L66.1227 54.4062Z" fill="#ECEBEB"/>
<path d="M54.8004 43.8912C56.1123 37.0222 62.8713 40.2042 62.3853 46.0492C62.3144 46.8229 62.1333 47.5826 61.8474 48.3052C61.6435 48.8185 61.4043 49.317 61.1313 49.7972L61.1394 49.8012C60.0927 51.7428 58.5843 53.3971 56.7473 54.6182C54.985 55.681 53.1679 56.6501 51.3033 57.5211L51.3233 57.5141L51.3073 57.4721L51.3152 57.4951L51.3073 57.4991C50.5454 56.1552 50.219 54.6082 50.3733 53.0711C50.6375 50.625 51.8271 48.3725 53.6982 46.7751C55.5752 45.2491 58.2892 44.1621 58.3823 42.9951C58.3949 42.889 58.3856 42.7815 58.3552 42.6791C57.9772 41.3431 56.7203 41.7751 55.1853 43.3091C55.0326 43.4858 54.9032 43.6815 54.8004 43.8912Z" fill="#F1F1F1"/>
<path d="M61.7031 42.3354C61.6981 42.3754 61.6922 42.4154 61.6862 42.4554C62.1669 43.3745 62.4151 44.3973 62.4092 45.4344C62.4354 44.3588 62.1927 43.2936 61.7031 42.3354ZM51.1202 57.1535V57.5055L51.1241 57.5025L51.1312 57.5215L51.1821 57.5025C51.2142 57.4905 51.249 57.4765 51.285 57.4604C51.227 57.3594 51.1722 57.2565 51.1202 57.1535Z" fill="#D6D6D6"/>
<path d="M61.6871 42.4551C61.2676 44.9225 60.2711 47.256 58.7787 49.2652C57.2863 51.2745 55.3402 52.9026 53.0991 54.0171C52.5221 54.3183 52.0352 54.767 51.6877 55.3174C51.3403 55.8679 51.1448 56.5006 51.1211 57.1511V57.1531C51.1731 57.2561 51.2281 57.3591 51.2861 57.4611C52.395 56.9951 55.3151 55.3881 56.65 54.5911C58.5168 53.3571 60.0518 51.6834 61.1201 49.7171L61.108 49.7131C61.3875 49.2277 61.6321 48.7231 61.8401 48.2031C62.1298 47.4723 62.3134 46.7039 62.3851 45.9211C62.399 45.7561 62.4071 45.5941 62.41 45.4341C62.4155 44.397 62.1674 43.3743 61.6871 42.4551Z" fill="#ECEBEB"/>
</g>
<defs>
<filter id="filter0_d_201_422658" x="0.606445" y="0" width="111.545" height="156.316" filterUnits="userSpaceOnUse" color-interpolation-filters="sRGB">
<feFlood flood-opacity="0" result="BackgroundImageFix"/>
<feColorMatrix in="SourceAlpha" type="matrix" values="0 0 0 0 0 0 0 0 0 0 0 0 0 0 0 0 0 0 127 0" result="hardAlpha"/>
<feOffset/>
<feGaussianBlur stdDeviation="20"/>
<feComposite in2="hardAlpha" operator="out"/>
<feColorMatrix type="matrix" values="0 0 0 0 1 0 0 0 0 0.960784 0 0 0 0 0.00392157 0 0 0 1 0"/>
<feBlend mode="normal" in2="BackgroundImageFix" result="effect1_dropShadow_201_422658"/>
<feBlend mode="normal" in="SourceGraphic" in2="effect1_dropShadow_201_422658" result="shape"/>
</filter>
</defs>
</svg>
