<svg width="117" height="226" viewBox="0 0 117 226" fill="none" xmlns="http://www.w3.org/2000/svg">
<path d="M89.3829 92.0635C89.3829 92.0635 83.99 75.5232 82.6182 72.3679C82.6182 72.3679 70.9088 73.8621 72.1211 76.5604C72.1853 76.7047 75.3896 91.7319 78.8896 92.7319L89.3829 92.0635Z" fill="#FDBD8E"/>
<path d="M81.3999 98.793C84.4071 99.424 88.7361 96.8597 88.7361 96.8597C92.4291 93.7167 96.4251 90.9063 99.9403 87.5677C103.554 84.1356 106.629 80.5089 111.009 78.0952C111.874 77.6191 114.372 75.8116 114.796 74.9195C115.246 73.9749 113.045 73.9423 113.169 73.0269C113.34 71.7778 114.397 71.4001 113.12 70.0714C112.119 69.0312 110.656 68.0798 109.357 69.1309C109.697 68.2994 109.223 67.1999 108.371 66.8419C107.518 66.484 106.447 66.9347 106.142 67.7811C106.003 67.2498 105.691 66.7587 105.264 66.4044C104.716 65.9493 102.659 69.7804 102.53 70.1903C101.986 71.9135 102.37 73.1421 103.193 74.7753C105.499 79.3529 86.6293 83.1998 80.0545 90.4066C77.6287 93.0652 77.3042 86.9986 77.1744 87.08C74.7374 88.5944 78.3928 98.162 81.3999 98.793Z" fill="#FDBD8E"/>
<path d="M72.2887 54.301C77.4199 56.1206 86.2309 74.6713 86.2309 74.6713C86.2309 74.6713 81.678 79.8518 74.8806 79.5169C68.0823 79.1822 72.2887 54.301 72.2887 54.301Z" fill="#D17726"/>
<path d="M71.3486 213.704L72.3521 218.472L74.4089 221.214L79.412 218.07L79.6982 214.266L78.6937 208.732L71.3486 213.704Z" fill="#FDBD8E"/>
<path d="M93.71 216.465C91.8004 216.058 86.0088 215.824 81.481 213.819C80.9814 213.598 80.4164 213.613 79.9209 213.843C79.918 213.845 79.6476 213.97 79.6447 213.971C79.6447 213.971 79.8081 216.622 77.2627 218.233C75.5502 219.316 72.3524 218.472 72.3524 218.472L73.574 225.285L95.091 219.725C95.4718 219.385 95.4868 218.883 95.4868 218.883C95.4868 218.883 96.1445 216.984 93.71 216.465Z" fill="#34312E"/>
<path d="M19.038 195.041L15.5238 198.416L14.286 201.613L19.6021 204.193L22.9804 202.423L27.1442 198.642L19.038 195.041Z" fill="#FDBD8E"/>
<path d="M28.5312 215.474C27.866 213.638 24.9991 208.6 24.3036 203.698C24.2268 203.157 23.9144 202.686 23.457 202.387C23.4544 202.385 23.2048 202.222 23.2021 202.22C23.2021 202.22 21.0395 203.762 18.3259 202.455C16.5 201.576 15.5238 198.416 15.5238 198.416L10.3897 203.058L26.4962 218.371C26.9863 218.514 27.4197 218.261 27.4197 218.261C27.4197 218.261 29.3791 217.814 28.5312 215.474Z" fill="#34312E"/>
<path d="M36.5165 109.046C36.5165 109.046 34.2263 124.377 33.8898 128.354C33.5533 132.332 68.8898 214.232 68.8898 214.232L80.3949 210.641L68.8898 163.423L55.3898 127.232L54.3898 132.232C54.3898 132.232 49.3335 155.732 49.3897 154.232C48.8897 154.232 16.3896 194.732 16.3896 194.732C21.4852 197.305 26.566 202.523 26.566 202.523C26.566 202.523 65.0273 157.695 65.648 154.732C66.2681 151.769 73.7935 105.283 73.7935 105.283L36.5165 109.046Z" fill="#233D6D"/>
<path d="M80.395 210.641L73.8898 212.732C73.8898 212.732 64.8026 195.232 57.8898 175.232L36.5166 109.046L46.8898 107.232C46.8898 107.232 50.8308 117.245 54.9741 128.232L68.8899 163.423L80.395 210.641Z" fill="#365184"/>
<path opacity="0.4" d="M35.9575 116.798C45.2697 119.323 62.502 121.545 74.2002 114.793C74.2203 111.241 74.2351 108.07 74.2457 105.575L36.5814 108.849C36.4102 111.033 36.1952 113.768 35.9575 116.798Z" fill="#0D244F"/>
<path d="M72.3735 99.6799C72.0819 98.6091 71.8457 97.9355 71.8457 97.9355L38.5924 99.3006C38.5924 99.3006 38.4751 99.9794 38.2939 101.14C38.4582 101.368 38.5924 101.54 38.5924 101.54C53.4312 107.597 64.1786 107.604 72.3735 99.6799Z" fill="#301601"/>
<path d="M72.6746 54.2931C76.2804 56.0533 79.1574 60.3141 74.4934 69.7193L72.3695 99.8119C72.3695 99.8119 74.0229 104.634 72.907 105.52C64.3248 112.333 53.2524 111.297 38.0664 104.068C38.0664 104.068 37.2793 103.039 37.182 102.647C36.6602 100.539 38.6348 94.9785 38.6348 94.9785L30.5484 69.4987C30.5484 69.4987 22.3215 58.06 27.9717 54.7195C35.0646 50.5249 55.2888 45.8064 72.6746 54.2931Z" fill="#EB8F3C"/>
<path d="M31.6551 70.2507L36.5843 91.8899L32.7886 111.756C32.7886 111.756 58.6737 122.853 75.6295 112.771L74.106 67.9581L31.6551 70.2507Z" fill="#EB8F3C"/>
<path d="M75.6296 112.771L74.7792 87.7598C73.1842 88.6798 70.9376 89.0623 69.2383 88.6825C66.3975 88.0478 64.187 85.1236 64.5803 82.2394C58.16 90.4915 49.7723 97.0493 40.7954 102.409C40.8453 101.214 40.9997 97.5197 41.0879 95.4085L41.2754 90.9222C41.5621 84.0609 41.0633 81.6608 37.9199 84.9164C37.4097 79.9066 35.6335 71.1799 34.3951 66.2988L31.6546 70.2507L33.0428 76.3435L33.0427 76.344L36.5838 91.8899L32.7881 111.756C32.7881 111.756 43.9657 116.401 56.4497 116.973C62.958 117.193 69.8184 116.227 75.6296 112.771Z" fill="#D17726"/>
<path d="M17.5873 74.8775C16.7462 77.7293 14.3367 89.7368 14.3367 89.7368C12.5124 101.761 11.4595 117.221 12.0076 119.127C12.7379 121.667 13.2519 123.038 15.0544 122.072C16.8564 121.106 17.5033 124.054 18.8346 122.981C20.1663 121.908 21.3988 125.151 22.2722 123.459C23.1456 121.767 20.656 118.53 20.656 118.53C20.656 118.53 22.7466 115.58 18.0274 113.463C13.8105 111.572 24.2532 98.176 24.4744 89.4079C24.556 86.1734 27.2567 79.1578 27.297 79.0273C28.0523 76.5857 17.5873 74.8775 17.5873 74.8775Z" fill="#FDBD8E"/>
<path d="M27.8553 55.5204C22.2335 58.5458 14.6201 77.3497 14.6201 77.3497C14.6201 77.3497 18.4437 83.3522 27.7588 82.8426C27.7588 82.8426 37.4365 50.3644 27.8553 55.5204Z" fill="#EB8F3C"/>
<path d="M43.4684 4.7738C40.501 7.2451 33.8313 19.1718 33.6269 20.649C33.4225 22.1268 41.1031 33.1941 41.1031 33.1941C41.1031 33.1941 40.9526 36.6248 38.6604 36.506C38.6604 36.506 43.0181 41.2916 45.5082 35.6286C47.9979 29.9656 43.4684 4.7738 43.4684 4.7738Z" fill="url(#paint0_linear_404_91217)"/>
<path d="M59.3761 51.399C57.8192 51.7487 56.6112 51.8339 54.9241 51.456C52.4176 50.8995 51.5976 49.4647 50.7772 49.0767L43.8726 31.585L58.129 40.6535L58.1227 41.1761L59.3761 51.399Z" fill="#FDBD8E"/>
<path d="M55.9957 44.9657C54.4161 44.3836 53.0288 43.6517 51.6097 42.7434C50.2699 41.8858 48.9842 40.9718 47.7693 39.9997L44.1367 31.584L58.2994 40.5807L58.3006 41.0577L59.0294 46.0241C58.0191 45.6665 57.0039 45.3375 55.9957 44.9657Z" fill="#DF9B7E"/>
<path d="M48.2832 45.5253C48.2832 45.5253 54.2589 51.4182 55.7395 51.5714C57.2202 51.7245 57.7897 47.8172 57.7897 47.8172C57.7897 47.8172 61.888 49.7098 62.4781 50.4464C63.0683 51.1826 62.6413 56.5056 61.9307 56.6232C60.4383 56.8698 57.0025 52.3309 56.1694 52.6432C55.3362 52.9554 51.0406 55.9875 50.3056 55.7462C49.5706 55.5049 45.2496 48.8353 45.7217 47.1963C46.1933 45.5571 48.2832 45.5253 48.2832 45.5253Z" fill="#F2E6D7"/>
<path d="M68.1948 12.3428C69.1498 14.1015 73.7506 19.6001 73.6675 20.5011C73.5845 21.4015 66.8621 30.0327 66.8621 30.0327L68.1948 12.3428Z" fill="#64332C"/>
<path d="M41.5508 21.6953C41.5508 21.6953 37.0159 19.9788 36.8911 25.6592C36.7664 31.3396 40.7989 32.0117 41.9596 32.4182C41.9596 32.4182 42.81 42.6828 55.2243 43.4284C67.6384 44.1746 66.9403 34.3859 67.723 28.0665C68.5057 21.7475 70.7247 10.8949 62.7973 8.97566C54.7997 7.03973 43.0036 5.95087 41.5508 21.6953Z" fill="#FDBD8E"/>
<path d="M43.0298 21.1588C45.7507 16.1677 49.3703 11.6689 53.6591 7.93794C55.5052 7.8153 57.3988 7.9664 59.2158 8.25089L64.2323 9.47033C68.6274 11.4805 68.9147 17.0121 68.4472 22.1673C64.543 19.7851 60.981 15.7628 59.4413 11.5357C58.5547 14.9557 57.0848 18.4528 54.2516 20.5635C51.4184 22.6742 47.8554 23.7842 44.3248 23.6551C43.7411 23.6341 43.0743 23.5311 42.7623 23.0379C42.4071 22.4757 42.7116 21.743 43.0298 21.1588Z" fill="url(#paint1_linear_404_91217)"/>
<path d="M58.2457 32.8829C58.2452 32.8521 58.3631 32.8498 58.5408 32.7975C58.7182 32.7482 58.9514 32.6231 59.1359 32.3863C59.2269 32.2687 59.307 32.1241 59.3553 31.9594C59.4006 31.7994 59.4177 31.6023 59.3991 31.3996C59.3678 30.9879 59.2015 30.5253 59.0076 30.029C58.2364 28.0328 57.7035 26.3936 57.8176 26.3703C57.9317 26.3471 58.6499 27.9468 59.4216 29.9441C59.6152 30.4431 59.7895 30.9498 59.8029 31.4262C59.8113 31.665 59.7801 31.8844 59.7048 32.0872C59.6283 32.2845 59.515 32.4462 59.3873 32.5741C59.1311 32.8317 58.8152 32.9397 58.591 32.9474C58.3664 32.9581 58.244 32.9049 58.2457 32.8829Z" fill="#DF9B7E"/>
<path d="M55.9909 22.5888C55.9519 22.6249 55.6452 22.4084 55.1059 22.1482C54.569 21.8871 53.7848 21.5993 52.8843 21.5107C52.449 21.4697 52.0204 21.4774 51.648 21.5207C51.2729 21.563 50.9454 21.6354 50.6778 21.713C50.4103 21.7902 50.1983 21.868 50.0528 21.9208C49.9044 21.975 49.8157 22.0012 49.7979 21.9806C49.7816 21.9615 49.8347 21.8989 49.9568 21.8083C50.0812 21.7158 50.2765 21.6024 50.5428 21.491C51.0713 21.2673 51.9081 21.0798 52.8899 21.1767C53.1153 21.1994 53.3679 21.2414 53.5883 21.2915C53.8136 21.3411 54.0274 21.4079 54.2274 21.4768C54.6275 21.6185 54.9685 21.7878 55.2366 21.9521C55.7749 22.2811 56.0235 22.5624 55.9909 22.5888Z" fill="#64332C"/>
<path d="M60.7162 22.6888C60.6835 22.656 60.9273 22.4227 61.4606 22.199C61.7259 22.0873 62.0653 21.9848 62.4637 21.9216C62.6629 21.8917 62.8757 21.867 63.101 21.8615C63.321 21.8542 63.573 21.862 63.7986 21.8835C64.7805 21.9795 65.6215 22.3316 66.1545 22.6597C66.4232 22.8237 66.6207 22.9763 66.7465 23.0928C66.8703 23.2077 66.9246 23.2805 66.9088 23.297C66.8917 23.3145 66.802 23.2703 66.6526 23.1872C66.5064 23.1055 66.2924 22.9858 66.0232 22.8562C65.7542 22.7258 65.4243 22.5889 65.0484 22.4726C64.6747 22.3561 64.2449 22.2642 63.8101 22.2197C62.9094 22.1315 62.1286 22.2654 61.595 22.4214C61.0594 22.5762 60.7558 22.7326 60.7162 22.6888Z" fill="#64332C"/>
<path d="M59.1378 5.24297C59.1378 5.24297 48.9115 1.36143 44.803 3.77029C40.6945 6.17915 37.7044 13.9098 39.8737 18.15C41.6484 21.6193 43.2264 25.5733 44.2539 29.3323C44.1093 27.425 44.1735 25.5545 44.0295 23.6473C50.8824 21.2182 56.3767 18.1287 59.4414 11.5352C62.6948 15.6144 69.364 17.55 73.6673 20.501C73.6673 20.501 71.3792 6.06652 68.7541 4.30659C66.4652 2.7729 63.0698 3.53923 59.1378 5.24297Z" fill="url(#paint2_linear_404_91217)"/>
<path d="M52.1852 32.5623C52.0164 34.3916 50.3966 35.7375 48.5679 35.5687C46.7386 35.3998 45.3932 33.7802 45.5615 31.9513C45.7303 30.1226 47.3501 28.7762 49.1789 28.945C51.0081 29.1138 52.354 30.7335 52.1852 32.5623Z" fill="url(#paint3_radial_404_91217)"/>
<path d="M67.1803 33.9461C67.0115 35.7754 65.3918 37.1213 63.563 36.9525C61.7337 36.7836 60.3878 35.1639 60.5566 33.3351C60.7255 31.5058 62.3452 30.16 64.174 30.3287C66.0033 30.4976 67.3491 32.1173 67.1803 33.9461Z" fill="url(#paint4_radial_404_91217)"/>
<path d="M54.2234 26.3251C54.1388 27.2414 53.3277 27.9152 52.4115 27.8305C51.4953 27.7459 50.8214 26.9348 50.9056 26.0186C50.9902 25.1023 51.8013 24.4285 52.7176 24.5126C53.6342 24.5979 54.3081 25.4089 54.2234 26.3251Z" fill="#64332C"/>
<path d="M63.6776 27.1982C63.5929 28.1144 62.7819 28.7883 61.8656 28.7041C60.9494 28.6195 60.2755 27.8084 60.3597 26.8921C60.4443 25.9759 61.2554 25.3021 62.1717 25.3862C63.0879 25.4709 63.7622 26.282 63.6776 27.1982Z" fill="#64332C"/>
<path d="M38.7705 23.8524C38.1383 25.2725 38.5289 26.9163 38.929 28.419C39.048 28.8653 39.182 29.3382 39.5241 29.6485C39.8662 29.9587 40.4886 30.0048 40.744 29.6199C40.9912 29.2478 40.7698 28.759 40.6014 28.3454C40.4331 27.9317 40.3871 27.3393 40.7923 27.1511C40.9809 27.0636 41.2067 27.1044 41.4021 27.0333C41.8277 26.8789 41.9029 26.3128 41.8612 25.8623C41.8035 25.2389 41.6599 24.6233 41.4351 24.0392C41.2148 23.4658 40.8255 22.8563 40.2155 22.7825C39.5773 22.7049 39.032 23.2657 38.7705 23.8524Z" fill="url(#paint5_linear_404_91217)"/>
<path d="M58.5502 13.2239C57.566 14.91 56.398 16.3402 55.0678 17.5747C48.3976 17.7738 41.9632 15.9795 36.9775 13.9948C37.4467 13.1861 37.9407 12.3602 38.4443 11.5457C44.4909 13.402 51.6602 13.8432 58.5502 13.2239ZM71.5883 10.6631C68.2987 11.7139 64.6277 12.5061 60.821 12.9808C62.0713 14.0962 63.5806 15.0436 65.1765 15.9167C67.648 15.2289 70.0425 14.3811 72.2878 13.4668C72.0737 12.5354 71.8395 11.5847 71.5883 10.6631Z" fill="url(#paint6_linear_404_91217)"/>
<path d="M59.4278 36.2376C59.4459 36.275 59.0927 36.4126 58.4528 36.4769C58.3722 36.4835 58.2884 36.49 58.2008 36.4971C58.1127 36.5032 58.0196 36.5009 57.9239 36.5026C57.7322 36.5091 57.5257 36.4934 57.3075 36.4796C56.8717 36.4388 56.3905 36.3581 55.8971 36.2205C55.4048 36.0779 54.9515 35.8933 54.5572 35.6983C54.3633 35.5948 54.1778 35.4993 54.0167 35.3922C53.9355 35.3401 53.8542 35.2929 53.7821 35.2415C53.7106 35.1893 53.6416 35.1389 53.5761 35.0909C53.0526 34.6929 52.8289 34.3963 52.8587 34.3705C52.8993 34.3341 53.2105 34.5899 53.7376 34.9149C53.8044 34.9556 53.8748 34.9982 53.9477 35.0422C54.0207 35.0862 54.1016 35.1259 54.182 35.1707C54.3415 35.2629 54.5231 35.3443 54.7097 35.4355C55.09 35.6058 55.519 35.7705 55.9825 35.905C56.4471 36.0343 56.8976 36.119 57.3088 36.174C57.5143 36.1944 57.7106 36.2203 57.8935 36.2252C57.9848 36.2293 58.074 36.238 58.1586 36.2388C58.2433 36.2392 58.3252 36.2399 58.4028 36.2403C59.024 36.2389 59.4059 36.1858 59.4278 36.2376Z" fill="#DC856F"/>
<defs>
<linearGradient id="paint0_linear_404_91217" x1="36.7596" y1="36.3305" x2="44.174" y2="14.669" gradientUnits="userSpaceOnUse">
<stop stop-color="#522A22"/>
<stop offset="0.0324" stop-color="#532A22"/>
<stop offset="1" stop-color="#64332C"/>
</linearGradient>
<linearGradient id="paint1_linear_404_91217" x1="62.5258" y1="23.0279" x2="53.0242" y2="15.8349" gradientUnits="userSpaceOnUse">
<stop stop-color="#DF9B7E"/>
<stop offset="1" stop-color="#DF9B7E" stop-opacity="0.6"/>
</linearGradient>
<linearGradient id="paint2_linear_404_91217" x1="48.304" y1="40.2814" x2="55.7184" y2="18.6198" gradientUnits="userSpaceOnUse">
<stop stop-color="#522A22"/>
<stop offset="0.0324" stop-color="#532A22"/>
<stop offset="1" stop-color="#64332C"/>
</linearGradient>
<radialGradient id="paint3_radial_404_91217" cx="0" cy="0" r="1" gradientUnits="userSpaceOnUse" gradientTransform="translate(48.8735 32.257) rotate(-174.73) scale(3.32582)">
<stop stop-color="#DF9B7E" stop-opacity="0.7"/>
<stop offset="1" stop-color="#DF9B7E" stop-opacity="0"/>
</radialGradient>
<radialGradient id="paint4_radial_404_91217" cx="0" cy="0" r="1" gradientUnits="userSpaceOnUse" gradientTransform="translate(63.8685 33.6406) rotate(-174.73) scale(3.32582 3.32582)">
<stop stop-color="#DF9B7E" stop-opacity="0.7"/>
<stop offset="1" stop-color="#DF9B7E" stop-opacity="0"/>
</radialGradient>
<linearGradient id="paint5_linear_404_91217" x1="41.3055" y1="27.2161" x2="39.0338" y2="25.4963" gradientUnits="userSpaceOnUse">
<stop stop-color="#DF9B7E"/>
<stop offset="1" stop-color="#DF9B7E" stop-opacity="0.6"/>
</linearGradient>
<linearGradient id="paint6_linear_404_91217" x1="54.7293" y1="17.8938" x2="54.5192" y2="8.86449" gradientUnits="userSpaceOnUse">
<stop stop-color="#F2E6D7" stop-opacity="0.2"/>
<stop offset="1" stop-color="#F2E6D7" stop-opacity="0"/>
</linearGradient>
</defs>
</svg>
