<svg width="64" height="227" viewBox="0 0 64 227" fill="none" xmlns="http://www.w3.org/2000/svg">
<path d="M59.2254 77.8586C59.7898 81.1615 60.8857 98.0184 60.8857 98.0184C61.0412 102.861 61.6533 107.72 61.5408 112.552C61.4249 117.521 60.7958 122.204 61.968 127.1C62.1994 128.066 62.544 131.136 62.163 132.035C61.7596 132.987 60.2344 131.33 59.6314 132.015C58.8089 132.951 59.246 134.001 57.3767 133.884C55.9124 133.792 54.1999 133.29 54.1044 131.622C53.7114 132.418 52.5623 132.766 51.7119 132.347C50.8615 131.927 50.4703 130.821 50.8982 130.042C50.4046 130.279 49.8225 130.358 49.2652 130.261C48.5493 130.136 50.0264 126.097 50.2463 125.735C51.1705 124.208 52.3559 123.709 54.1442 123.283C59.1567 122.088 49.1836 105.223 50.1174 95.5626C50.4618 91.9987 48.3615 83.7434 48.3342 83.592C47.811 80.7575 59.2254 77.8586 59.2254 77.8586Z" fill="#FDBD8E"/>
<path d="M54.2792 54.7485C58.7359 57.8065 62.4433 77.8551 62.4433 77.8551C62.4433 77.8551 56.7508 81.6601 50.316 79.6002C43.8802 77.5404 54.2792 54.7485 54.2792 54.7485Z" fill="#D27726"/>
<path d="M10.5331 215.567L11.6444 209.625L18.417 210.612L18.0526 216.188C18.0526 216.188 16.7782 218.688 13.224 218.747C9.67037 218.805 10.5331 215.567 10.5331 215.567Z" fill="#FDBD8E"/>
<path d="M40.7652 211.789L40.5454 216.621L41.8413 219.768L47.4314 217.988L48.6512 214.403L49.0603 208.834L40.7652 211.789Z" fill="#FDBD8E"/>
<path d="M61.5731 219.998C59.8387 219.132 54.33 217.468 50.4758 214.416C50.0505 214.08 49.5035 213.954 48.9702 214.052C48.967 214.053 48.6759 214.106 48.6728 214.107C48.6728 214.107 48.1714 216.696 45.3247 217.611C43.4095 218.228 40.5455 216.622 40.5455 216.622L40.0273 223.474H62.0907C62.5412 223.242 62.6802 222.763 62.6802 222.763C62.6802 222.763 63.7841 221.101 61.5731 219.998Z" fill="#34312E"/>
<path d="M17.6352 102.889C17.6352 102.889 14.2294 146.343 13.8954 150.292C13.5613 154.241 9.39355 213.061 9.39355 213.061C14.6175 215.104 20.2417 213.533 20.2417 213.533L29.367 154.241L35.375 122.619L37.3988 122.057C37.3988 122.057 38.0864 160.556 38.1005 160.36C38.1147 160.164 38.9669 212.052 38.9669 212.052C44.0257 214.606 51.0554 211.845 51.0554 211.845C51.0554 211.845 53.2439 161.505 53.8601 158.563C54.4758 155.622 54.6431 99.1533 54.6431 99.1533L17.6352 102.889Z" fill="#365184"/>
<path opacity="0.4" d="M16.6099 115.954C25.8548 118.461 42.9626 120.667 54.5764 113.964C54.5964 110.438 54.611 107.289 54.6215 104.812L17.2292 108.062C17.0593 110.231 16.8459 112.946 16.6099 115.954Z" fill="#0D244F"/>
<path d="M52.7626 98.9607C52.4731 97.8977 52.2387 97.229 52.2387 97.229L19.2255 98.5842C19.2255 98.5842 19.1091 99.2581 18.9292 100.41C19.0923 100.637 19.2255 100.807 19.2255 100.807C33.9571 106.821 44.6269 106.827 52.7626 98.9607Z" fill="#301601"/>
<path d="M53.0627 53.9016C56.6424 55.649 59.4987 59.8791 54.8684 69.2163L52.7598 99.0916C52.7598 99.0916 54.4012 103.879 53.2934 104.758C44.7732 111.523 33.7807 110.494 18.7044 103.317C18.7044 103.317 17.923 102.296 17.8264 101.906C17.3084 99.814 19.2687 94.2931 19.2687 94.2931L11.2407 68.9973C11.2407 68.9973 3.0732 57.6412 8.68255 54.3249C15.7242 50.1606 35.8024 45.4761 53.0627 53.9016Z" fill="#EB8F3C"/>
<path d="M12.3384 69.7438L17.232 91.2268L13.4638 110.949C13.4638 110.949 39.1619 121.966 55.9954 111.957L54.4829 67.4678L12.3384 69.7438Z" fill="#EB8F3C"/>
<path d="M55.9959 111.957L55.1516 87.126C53.5682 88.0393 51.3377 88.4191 49.6507 88.042C46.8305 87.4119 44.6359 84.5088 45.0264 81.6455C38.6525 89.838 30.3253 96.3484 21.4132 101.67C21.4628 100.483 21.6161 96.8155 21.7036 94.7195L21.8897 90.2656C22.1744 83.4538 21.6792 81.0711 18.5585 84.3031C18.0519 79.3295 16.2886 70.6658 15.0592 65.82L12.3384 69.7434L13.7166 75.7922L13.7166 75.7927L17.232 91.2263L13.4638 110.949C13.4638 110.949 24.5606 115.561 36.9545 116.128C43.4158 116.347 50.2266 115.387 55.9959 111.957Z" fill="#D27726"/>
<path d="M16.5806 216.535C13.9149 214.02 11.546 216.14 11.546 216.14L10.5333 215.567C9.06535 217.77 6.24437 220.404 5.8888 221.697C5.21437 224.147 6.4122 227 10.3613 227C14.2112 227 17.9206 224.646 18.338 222.733C18.5877 221.589 18.1812 218.491 18.0527 216.189L16.5806 216.535Z" fill="#34312E"/>
<path d="M29.367 154.242L29.5463 153.299C27.5561 160.26 24.7786 169.658 24.2814 169.683C23.4916 169.724 15.594 168.458 15.2505 167.418C15.0963 166.952 14.4334 159.87 13.7522 152.154C12.9393 163.026 9.39404 213.063 9.39404 213.063C14.618 215.105 20.2422 213.535 20.2422 213.535L29.367 154.242Z" fill="#233D6D"/>
<path d="M51.0555 211.843C51.0555 211.839 51.0571 211.801 51.0602 211.732C51.0608 211.717 51.0618 211.701 51.0623 211.683C51.065 211.63 51.0676 211.567 51.0707 211.487C51.0802 211.266 51.0943 210.945 51.1127 210.535C51.1169 210.441 51.1211 210.343 51.1258 210.239C51.1342 210.053 51.1431 209.852 51.1525 209.636C51.1562 209.555 51.1599 209.469 51.1635 209.384C51.1845 208.906 51.2087 208.366 51.2349 207.771C51.2391 207.673 51.2438 207.575 51.248 207.474C51.2632 207.135 51.2789 206.78 51.2952 206.409C51.2952 206.403 51.2957 206.396 51.2962 206.39C51.3141 205.996 51.3324 205.585 51.3513 205.158C51.3544 205.09 51.3576 205.021 51.3602 204.953C51.4074 203.901 51.4593 202.756 51.5144 201.536C51.5196 201.416 51.5254 201.296 51.5307 201.175C51.6256 199.089 51.731 196.796 51.8427 194.388C51.8448 194.348 51.8464 194.307 51.8485 194.267C51.8904 193.362 51.9334 192.442 51.9775 191.511C51.9791 191.48 51.9806 191.449 51.9817 191.418C52.3446 183.714 52.7594 175.272 53.1192 168.856C53.1197 168.848 53.1202 168.84 53.1208 168.833C53.211 167.229 53.2975 165.752 53.3788 164.447C51.7709 165.61 49.0438 167.453 47.9361 167.417C46.3198 167.364 40.8645 162.928 40.5436 160.954C40.2871 159.376 38.4301 144.557 37.6953 138.673C37.8831 149.063 38.0907 160.467 38.0986 160.36C38.0991 160.352 38.1007 160.424 38.1039 160.569C38.1044 160.598 38.1049 160.63 38.106 160.665C38.1175 161.257 38.1427 162.682 38.1773 164.696C38.1794 164.814 38.1815 164.935 38.1836 165.057C38.1962 165.792 38.2098 166.599 38.2245 167.466C38.2292 167.755 38.2344 168.052 38.2397 168.354C38.2601 169.563 38.2822 170.874 38.3058 172.262C38.3084 172.435 38.3115 172.61 38.3147 172.786C38.5717 188.081 38.965 212.052 38.965 212.052C39.9137 212.531 40.9311 212.823 41.959 212.981C42.3015 213.034 42.6455 213.072 42.988 213.097C43.3305 213.122 43.6724 213.134 44.0107 213.136C44.3489 213.137 44.684 213.128 45.0134 213.109C45.3427 213.091 45.6669 213.063 45.9831 213.029C46.2993 212.994 46.6077 212.953 46.9066 212.907C47.3545 212.837 47.7804 212.756 48.1768 212.671C48.4412 212.614 48.6919 212.555 48.9273 212.497C50.2232 212.172 51.0539 211.846 51.0539 211.846L51.0555 211.843Z" fill="#233D6D"/>
<path d="M1.55426 78.6255C1.22823 81.9188 1.10688 95.564 1.10688 95.564C1.63557 109.113 3.74432 126.282 4.75328 128.265C6.09801 130.909 6.95618 132.313 8.7437 130.9C10.5307 129.488 11.8696 132.596 13.1137 131.159C14.3584 129.721 16.407 133.039 17.0141 131.011C17.6212 128.984 14.1846 125.919 14.1846 125.919C14.1846 125.919 15.8706 122.274 10.2074 120.874C5.14674 119.624 13.8522 102.885 12.2408 93.2213C11.6465 89.6565 13.1463 81.4313 13.1631 81.2802C13.4811 78.4537 1.55426 78.6255 1.55426 78.6255Z" fill="#FDBD8E"/>
<path d="M8.9702 55.44C4.05476 59.4412 0.148553 79.199 0.148553 79.199C0.148553 79.199 4.9992 84.3363 13.9862 82.0973C13.9862 82.0973 17.3475 48.6209 8.9702 55.44Z" fill="#EB8F3C"/>
<path d="M24.0666 4.73896C21.1206 7.19242 14.4991 19.033 14.2962 20.4996C14.0932 21.9666 21.7183 32.9541 21.7183 32.9541C21.7183 32.9541 21.569 36.3599 19.2933 36.242C19.2933 36.242 23.6195 40.993 26.0917 35.371C28.5633 29.7488 24.0666 4.73896 24.0666 4.73896Z" fill="url(#paint0_linear_404_91320)"/>
<path d="M39.8589 51.0274C38.3133 51.3745 37.1139 51.4591 35.4391 51.084C32.9506 50.5315 32.1366 49.1071 31.3221 48.7219L24.4673 31.3564L38.6207 40.3595L38.6145 40.8783L39.8589 51.0274Z" fill="#FDBD8E"/>
<path d="M36.5034 44.6411C34.9351 44.0631 33.5578 43.3366 32.149 42.4348C30.8189 41.5833 29.5425 40.676 28.3363 39.7109L24.73 31.356L38.7904 40.2878L38.7916 40.7613L39.5152 45.6918C38.5121 45.3368 37.5043 45.0102 36.5034 44.6411Z" fill="#DF9B7E"/>
<path d="M28.846 45.197C28.846 45.197 34.7785 51.0474 36.2485 51.1994C37.7184 51.3515 38.2838 47.4724 38.2838 47.4724C38.2838 47.4724 42.3525 49.3513 42.9384 50.0826C43.5244 50.8134 43.1004 56.098 42.395 56.2147C40.9133 56.4596 37.5024 51.9535 36.6752 52.2635C35.8481 52.5735 31.5835 55.5836 30.8538 55.3441C30.1241 55.1045 25.8342 48.4831 26.303 46.8559C26.7712 45.2286 28.846 45.197 28.846 45.197Z" fill="#F2E6D7"/>
<path d="M48.6138 12.2544C49.5618 14.0004 54.1294 19.4593 54.047 20.3538C53.9646 21.2477 47.2907 29.8166 47.2907 29.8166L48.6138 12.2544Z" fill="#64332C"/>
<path d="M22.1627 21.538C22.1627 21.538 17.6606 19.8339 17.5367 25.4733C17.4129 31.1127 21.4163 31.78 22.5687 32.1835C22.5687 32.1835 23.4129 42.374 35.7375 43.1143C48.062 43.855 47.3689 34.1371 48.146 27.8632C48.923 21.5899 51.126 10.8157 43.2559 8.91027C35.316 6.98831 23.6051 5.90732 22.1627 21.538Z" fill="#FDBD8E"/>
<path d="M23.6307 21.0057C26.3319 16.0507 29.9254 11.5844 34.1832 7.88038C36.016 7.75862 37.896 7.90863 39.6999 8.19107L44.6801 9.4017C49.0434 11.3974 49.3287 16.889 48.8645 22.007C44.9886 19.6419 41.4522 15.6488 39.9237 11.4522C39.0435 14.8474 37.5842 18.3193 34.7714 20.4147C31.9587 22.5102 28.4215 23.6122 24.9163 23.4841C24.3368 23.4632 23.6749 23.361 23.3651 22.8713C23.0125 22.3132 23.3148 21.5857 23.6307 21.0057Z" fill="url(#paint1_linear_404_91320)"/>
<path d="M38.7366 32.6454C38.7362 32.6148 38.8533 32.6126 39.0297 32.5606C39.2057 32.5117 39.4373 32.3875 39.6205 32.1524C39.7108 32.0356 39.7903 31.8921 39.8382 31.7286C39.8833 31.5697 39.9002 31.3741 39.8817 31.1728C39.8507 30.7641 39.6855 30.3049 39.4931 29.8121C38.7274 27.8303 38.1983 26.203 38.3116 26.1799C38.4249 26.1568 39.1379 27.745 39.9041 29.7279C40.0962 30.2232 40.2693 30.7263 40.2826 31.1993C40.291 31.4364 40.26 31.6541 40.1853 31.8554C40.1093 32.0513 39.9968 32.2119 39.87 32.3388C39.6157 32.5946 39.3021 32.7018 39.0794 32.7094C38.8565 32.7201 38.735 32.6673 38.7366 32.6454Z" fill="#DF9B7E"/>
<path d="M36.4985 22.4253C36.4598 22.4611 36.1552 22.2462 35.6199 21.9879C35.0868 21.7287 34.3083 21.443 33.4143 21.355C32.9822 21.3143 32.5567 21.3219 32.1869 21.3649C31.8145 21.4069 31.4894 21.4787 31.2238 21.5558C30.9581 21.6325 30.7477 21.7096 30.6032 21.7621C30.4559 21.8159 30.3678 21.8419 30.3502 21.8214C30.334 21.8025 30.3868 21.7404 30.508 21.6504C30.6315 21.5586 30.8253 21.446 31.0898 21.3354C31.6144 21.1133 32.4451 20.9272 33.4198 21.0233C33.6437 21.0459 33.8944 21.0876 34.1132 21.1373C34.3369 21.1866 34.5491 21.2529 34.7477 21.3213C35.1449 21.462 35.4835 21.63 35.7496 21.7932C36.2841 22.1198 36.5308 22.399 36.4985 22.4253Z" fill="#64332C"/>
<path d="M41.1894 22.5247C41.1569 22.4922 41.3989 22.2606 41.9284 22.0385C42.1918 21.9276 42.5287 21.8259 42.9242 21.7631C43.122 21.7335 43.3333 21.7089 43.5569 21.7035C43.7754 21.6962 44.0255 21.704 44.2495 21.7253C45.2243 21.8206 46.0593 22.1702 46.5884 22.4959C46.8552 22.6587 47.0512 22.8102 47.1761 22.9259C47.299 23.0399 47.3529 23.1122 47.3372 23.1285C47.3203 23.146 47.2312 23.1021 47.0829 23.0196C46.9377 22.9385 46.7253 22.8196 46.4581 22.691C46.191 22.5615 45.8635 22.4256 45.4903 22.3101C45.1193 22.1945 44.6926 22.1032 44.2609 22.0591C43.3668 21.9715 42.5916 22.1044 42.0618 22.2593C41.5301 22.413 41.2287 22.5682 41.1894 22.5247Z" fill="#64332C"/>
<path d="M39.6227 5.20511C39.6227 5.20511 29.4702 1.3516 25.3914 3.74306C21.3126 6.13453 18.344 13.8094 20.4977 18.0189C22.2596 21.4632 23.8262 25.3887 24.8462 29.1205C24.7027 27.2269 24.7664 25.37 24.6234 23.4765C31.4269 21.065 36.8815 17.9978 39.9241 11.4519C43.154 15.5016 49.7751 17.4232 54.0473 20.3529C54.0473 20.3529 51.7756 6.02272 49.1695 4.2755C46.8972 2.75287 43.5263 3.51367 39.6227 5.20511Z" fill="url(#paint2_linear_404_91320)"/>
<path d="M32.7199 32.3275C32.5523 34.1435 30.9442 35.4797 29.1287 35.3121C27.3126 35.1445 25.977 33.5365 26.144 31.7209C26.3116 29.9053 27.9197 28.5686 29.7353 28.7362C31.5513 28.9039 32.8875 30.5119 32.7199 32.3275Z" fill="url(#paint3_radial_404_91320)"/>
<path d="M47.6066 33.7015C47.439 35.5176 45.831 36.8537 44.0154 36.6861C42.1993 36.5185 40.8632 34.9105 41.0307 33.0949C41.1984 31.2788 42.8064 29.9427 44.622 30.1102C46.4381 30.2779 47.7742 31.8859 47.6066 33.7015Z" fill="url(#paint4_radial_404_91320)"/>
<path d="M34.7441 26.1347C34.6601 27.0443 33.8549 27.7133 32.9453 27.6292C32.0357 27.5452 31.3667 26.74 31.4502 25.8303C31.5343 24.9207 32.3395 24.2517 33.2492 24.3353C34.1592 24.4199 34.8282 25.2251 34.7441 26.1347Z" fill="#64332C"/>
<path d="M44.1295 27.0019C44.0454 27.9115 43.2402 28.5805 42.3306 28.4969C41.421 28.4129 40.752 27.6077 40.8355 26.698C40.9195 25.7884 41.7247 25.1195 42.6344 25.203C43.544 25.287 44.2135 26.0923 44.1295 27.0019Z" fill="#64332C"/>
<path d="M19.4021 23.6796C18.7744 25.0895 19.1622 26.7214 19.5594 28.2133C19.6775 28.6564 19.8106 29.1259 20.1502 29.4339C20.4899 29.7419 21.1077 29.7877 21.3613 29.4056C21.6067 29.0361 21.3869 28.5509 21.2198 28.1402C21.0526 27.7295 21.007 27.1414 21.4092 26.9545C21.5965 26.8677 21.8207 26.9082 22.0147 26.8377C22.4372 26.6844 22.5118 26.1224 22.4704 25.6751C22.4131 25.0562 22.2706 24.4451 22.0474 23.8652C21.8287 23.2959 21.4423 22.6908 20.8367 22.6176C20.203 22.5405 19.6616 23.0972 19.4021 23.6796Z" fill="url(#paint5_linear_404_91320)"/>
<path d="M39.0396 13.1285C38.0625 14.8024 36.903 16.2223 35.5824 17.4479C28.9603 17.6455 22.5724 15.8642 17.6226 13.8938C18.0884 13.091 18.5789 12.271 19.0788 11.4624C25.0818 13.3053 32.1994 13.7433 39.0396 13.1285ZM51.9836 10.5861C48.7176 11.6293 45.0732 12.4158 41.294 12.8872C42.5353 13.9944 44.0337 14.9351 45.618 15.8018C48.0717 15.119 50.4489 14.2773 52.6779 13.3696C52.4655 12.445 52.2329 11.5011 51.9836 10.5861Z" fill="url(#paint6_linear_404_91320)"/>
<path d="M39.9101 35.976C39.9281 36.0131 39.5774 36.1498 38.9422 36.2136C38.8622 36.2201 38.779 36.2266 38.692 36.2336C38.6046 36.2397 38.5121 36.2375 38.4171 36.2392C38.2268 36.2456 38.0217 36.23 37.8052 36.2163C37.3725 36.1758 36.8948 36.0956 36.4049 35.9591C35.9162 35.8175 35.4662 35.6342 35.0747 35.4406C34.8822 35.3378 34.698 35.2431 34.5381 35.1368C34.4575 35.085 34.3768 35.0381 34.3052 34.9871C34.2342 34.9353 34.1657 34.8853 34.1007 34.8376C33.581 34.4424 33.3589 34.148 33.3885 34.1224C33.4288 34.0863 33.7377 34.3402 34.261 34.6629C34.3273 34.7033 34.3972 34.7456 34.4696 34.7893C34.542 34.833 34.6224 34.8723 34.7022 34.9168C34.8606 35.0083 35.0409 35.0892 35.2261 35.1797C35.6037 35.3488 36.0295 35.5123 36.4897 35.6458C36.9509 35.7742 37.3982 35.8582 37.8064 35.9129C38.0104 35.9332 38.2053 35.9588 38.3869 35.9637C38.4775 35.9678 38.5661 35.9765 38.6501 35.9772C38.7342 35.9776 38.8155 35.9783 38.8926 35.9787C39.5093 35.9773 39.8884 35.9246 39.9101 35.976Z" fill="#DC856F"/>
<defs>
<linearGradient id="paint0_linear_404_91320" x1="17.4062" y1="36.0678" x2="24.7671" y2="14.5627" gradientUnits="userSpaceOnUse">
<stop stop-color="#522A22"/>
<stop offset="0.0324" stop-color="#532A22"/>
<stop offset="1" stop-color="#64332C"/>
</linearGradient>
<linearGradient id="paint1_linear_404_91320" x1="42.9859" y1="22.8614" x2="33.5529" y2="15.7203" gradientUnits="userSpaceOnUse">
<stop stop-color="#DF9B7E"/>
<stop offset="1" stop-color="#DF9B7E" stop-opacity="0.6"/>
</linearGradient>
<linearGradient id="paint2_linear_404_91320" x1="28.867" y1="39.9905" x2="36.228" y2="18.4853" gradientUnits="userSpaceOnUse">
<stop stop-color="#522A22"/>
<stop offset="0.0324" stop-color="#532A22"/>
<stop offset="1" stop-color="#64332C"/>
</linearGradient>
<radialGradient id="paint3_radial_404_91320" cx="0" cy="0" r="1" gradientUnits="userSpaceOnUse" gradientTransform="translate(29.4321 32.0244) rotate(-174.73) scale(3.30181)">
<stop stop-color="#DF9B7E" stop-opacity="0.7"/>
<stop offset="1" stop-color="#DF9B7E" stop-opacity="0"/>
</radialGradient>
<radialGradient id="paint4_radial_404_91320" cx="0" cy="0" r="1" gradientUnits="userSpaceOnUse" gradientTransform="translate(44.3187 33.3982) rotate(-174.73) scale(3.3018 3.30181)">
<stop stop-color="#DF9B7E" stop-opacity="0.7"/>
<stop offset="1" stop-color="#DF9B7E" stop-opacity="0"/>
</radialGradient>
<linearGradient id="paint5_linear_404_91320" x1="21.9187" y1="27.0191" x2="19.6634" y2="25.3117" gradientUnits="userSpaceOnUse">
<stop stop-color="#DF9B7E"/>
<stop offset="1" stop-color="#DF9B7E" stop-opacity="0.6"/>
</linearGradient>
<linearGradient id="paint6_linear_404_91320" x1="35.2463" y1="17.7647" x2="35.0377" y2="8.80054" gradientUnits="userSpaceOnUse">
<stop stop-color="#F2E6D7" stop-opacity="0.2"/>
<stop offset="1" stop-color="#F2E6D7" stop-opacity="0"/>
</linearGradient>
</defs>
</svg>
