<svg width="161" height="96" viewBox="0 0 161 96" fill="none" xmlns="http://www.w3.org/2000/svg">
<path d="M19.6456 87.9354L25.3258 87.5961V80.3635L14.7761 79.7563L25.3258 79.2153V75.16L21.0657 74.72L25.3258 74.2813V70.564H7.03359H4.80146H4.26019H3.55028H2.33357H1.79198V73.6725L0.304638 76.7814L1.79198 77.3218L1.8259 79.4871L2.33357 80.0177V80.4325L1.99413 80.9061V84.5886L0 85.8394L1.7919 86.3792V86.7702L2.28237 86.9378L1.7919 87.2217V87.7307L0.507435 89.3541H1.7919V91.1626L2.33349 91.4789V91.6842L1.7919 92.1021V92.8635L2.13005 93.1886L1.7919 93.6163V94.0851H2.33349H4.56498H25.3258V88.4064L19.6456 87.9354ZM15.9092 86.2446C19.8146 85.1619 24.3117 86.2446 24.3117 86.2446H15.9092ZM16.5344 90.1637H6.45872C9.70404 89.2875 16.5344 90.1637 16.5344 90.1637ZM21.6068 82.5944C21.6068 82.5944 9.16332 83.5399 5.71393 82.5944H21.6068ZM2.87396 78.0646H19.6456C19.6456 78.0646 5.78273 79.6214 2.87396 78.0646ZM4.22627 74.0783H9.56868C7.47222 74.4841 5.71393 75.3627 5.71393 75.3627L4.22627 74.0783ZM22.8244 73.1309H5.71393C5.71393 73.1309 17.211 72.3206 22.8244 73.1309ZM7.81038 71.1049C5.71393 71.5094 3.95659 72.3881 3.95659 72.3881L2.46797 71.1049H7.81038ZM8.21702 86.7181C6.11992 87.1223 4.36162 88.0003 4.36162 88.0003L2.87396 86.7181H8.21702ZM4.97074 93.0585L3.48308 91.7753H8.82485C6.72904 92.1796 4.97074 93.0585 4.97074 93.0585ZM14.269 92.5972C16.5344 91.7864 23.5001 92.5972 23.5001 92.5972H14.269Z" fill="#87BFD0"/>
<path d="M67.98 89.6355C67.7599 89.6355 67.5806 89.4572 67.5806 89.236C67.5806 89.0157 67.7599 88.8365 67.98 88.8365H69.1926C69.0391 88.8365 68.91 88.7464 68.8431 88.6196L62.4545 88.4746L68.916 88.1505C68.9879 88.0808 69.0849 88.0372 69.1925 88.0372H69.9119V82.8971H69.1925C68.9721 82.8971 68.7931 82.7182 68.7931 82.497C68.7931 82.2759 68.9721 82.0966 69.1925 82.0966H67.6804C67.4593 82.0966 67.2803 81.9187 67.2803 81.6971C67.2803 81.4769 67.4593 81.2979 67.6804 81.2979H68.3994V80.499H65.971L68.3994 80.2988V76.2382C64.2266 76.6003 51.8249 77.495 44.2627 76.106H67.4954C67.3692 76.0385 67.2803 75.9108 67.2803 75.7577C67.2803 75.5374 67.4593 75.3578 67.6804 75.3578H74.5251V75.2267L75.4385 75.2144V70.5635H34.2876H31.8191H27.7953H25.3262V74.2808L31.4808 75.1595H25.3262V79.2148L45.5472 79.7885L25.3262 80.363V87.5956L36.5532 87.9998L25.3262 88.4059V94.0846H31.819H68.6999V89.6354L67.98 89.6355ZM33.3742 83.541H54.4062C54.4062 83.541 35.2678 84.6908 33.3742 83.541ZM41.896 90.3672H66.7147C66.7146 90.3672 51.0928 91.786 41.896 90.3672Z" fill="#CCE8EF"/>
<path d="M22.8243 73.1311C17.2109 72.3209 5.71387 73.1311 5.71387 73.1311H22.8243Z" fill="#66A3B2"/>
<path d="M19.6457 78.0645H2.87402C5.78279 79.6213 19.6457 78.0645 19.6457 78.0645Z" fill="#66A3B2"/>
<path d="M21.6067 82.5942H5.71387C9.16327 83.5397 21.6067 82.5942 21.6067 82.5942Z" fill="#66A3B2"/>
<path d="M6.45898 90.1633H16.5347C16.5347 90.1633 9.7043 89.2872 6.45898 90.1633Z" fill="#66A3B2"/>
<path d="M14.2686 92.5972H23.4996C23.4996 92.5972 16.5339 91.7864 14.2686 92.5972Z" fill="#66A3B2"/>
<path d="M15.9092 86.2448H24.3116C24.3116 86.2448 19.8145 85.1622 15.9092 86.2448Z" fill="#66A3B2"/>
<path d="M25.3262 80.3636V79.2153L14.7764 79.7564L25.3262 80.3636Z" fill="#66A3B2"/>
<path d="M25.3255 75.1599V74.2812L21.0654 74.72L25.3255 75.1599Z" fill="#66A3B2"/>
<path d="M25.3267 88.4065V87.5962L19.6465 87.9354L25.3267 88.4065Z" fill="#66A3B2"/>
<path d="M8.21708 86.7178H2.87402L4.36168 88C4.36168 88 6.11998 87.1219 8.21708 86.7178Z" fill="white"/>
<path d="M7.81019 71.105H2.46777L3.9564 72.3882C3.9564 72.3882 5.71373 71.5095 7.81019 71.105Z" fill="white"/>
<path d="M4.22656 74.0786L5.71422 75.363C5.71422 75.363 7.47252 74.4843 9.56897 74.0786H4.22656Z" fill="white"/>
<path d="M4.97106 93.0586C4.97106 93.0586 6.72936 92.1796 8.82517 91.7754H3.4834L4.97106 93.0586Z" fill="white"/>
<path d="M36.5532 88.0004L25.3262 87.5962V88.4065L36.5532 88.0004Z" fill="#66A3B2"/>
<path d="M45.5473 79.789L25.3262 79.2153V80.3636L45.5473 79.789Z" fill="#66A3B2"/>
<path d="M31.4809 75.1599L25.3262 74.2812V75.1599H31.4809Z" fill="#66A3B2"/>
<path d="M67.6804 76.1576C67.6122 76.1576 67.5514 76.1362 67.4955 76.1064H44.2627C51.8249 77.4953 64.2266 76.6007 68.3994 76.2386V76.1576H67.6804Z" fill="#66A3B2"/>
<path d="M33.373 83.5415C35.2667 84.6913 54.4051 83.5415 54.4051 83.5415H33.373Z" fill="#66A3B2"/>
<path d="M66.7142 90.3677H41.8955C51.0924 91.7865 66.7142 90.3677 66.7142 90.3677Z" fill="#66A3B2"/>
<path d="M68.9156 88.1509L62.4541 88.475L68.8427 88.62C68.8136 88.5645 68.7928 88.5045 68.7928 88.4377C68.7928 88.3247 68.8406 88.2237 68.9156 88.1509Z" fill="#66A3B2"/>
<path d="M65.9707 80.4991H68.399V80.2988L65.9707 80.4991Z" fill="#66A3B2"/>
<path d="M7.0334 70.564H25.3256H27.7948V64.8866L22.1136 64.4134L27.7948 64.0741V56.8422L17.245 56.234L27.7948 55.6946V51.638L23.5341 51.1993L27.7948 50.7593V47.042H23.7243H6.15397H6.01861H4.80127H4.26562H4.25999V47.6605V50.1499L2.93719 52.9158L2.77233 53.26L4.25999 53.801L4.29359 55.9651L4.80127 56.4963V56.9115L4.46343 57.3841V61.0676L2.46777 62.3175L2.96918 62.4685L4.25999 62.8585V63.2501L4.75014 63.4164L4.25999 63.6998V64.2113L2.97553 65.8324H4.25999V67.6406L4.80127 67.9581V68.1634L4.25999 68.5814V69.3436L4.59879 69.6687L4.25999 70.0942V70.564H4.80127H7.0334ZM6.82964 64.4805L5.34262 63.1961H10.685C8.58794 63.6025 6.82964 64.4805 6.82964 64.4805ZM19.0036 66.643H8.92673C12.1727 65.7647 19.0036 66.643 19.0036 66.643ZM7.43811 69.5385L5.95109 68.2538H11.2941C9.19737 68.6599 7.43811 69.5385 7.43811 69.5385ZM25.9687 69.0765H16.7379C19.0027 68.2657 25.9687 69.0765 25.9687 69.0765ZM18.3773 62.7226C22.2832 61.6402 26.78 62.7226 26.78 62.7226H18.3773ZM24.0754 59.0724C24.0754 59.0724 11.6314 60.0179 8.18323 59.0724H24.0754ZM5.34262 54.5448H22.1136C22.1136 54.5448 8.25074 56.0991 5.34262 54.5448ZM6.69557 50.5563H12.037C9.9412 50.9636 8.18226 51.8417 8.18226 51.8417L6.69557 50.5563ZM25.292 49.6111H8.18323C8.18323 49.6111 19.679 48.7987 25.292 49.6111ZM10.2787 47.5839C8.18323 47.9878 6.42429 48.8668 6.42429 48.8668L4.93695 47.5839H10.2787Z" fill="#87BFD0"/>
<path d="M29.2195 47.042H27.7959V50.7593L33.9502 51.638H27.7959V55.6946L48.0166 56.2679L27.7959 56.8422V64.0741L39.0223 64.4805L27.7959 64.8866V70.564H31.8196H34.2881H75.4392H78.0861V70.0308H77.7178V68.5613H78.0861V65.228H77.0585L64.9237 64.9544L71.1032 64.6444L77.9074 57.667V56.9662L76.9953 56.9775H68.4405L76.9953 56.2733V51.7061L77.9074 51.693V47.042H66.2847H34.2881H29.2195ZM35.8436 60.0201H56.8756C56.8756 60.0201 37.7362 61.1692 35.8436 60.0201ZM69.184 66.8457C69.184 66.8457 53.5616 68.2657 44.3647 66.8457H69.184ZM72.2949 52.5848C72.2949 52.5848 55.9292 54.2743 46.7315 52.5848H72.2949Z" fill="#CCE8EF"/>
<path d="M25.2925 49.6111C19.6794 48.7987 8.18359 49.6111 8.18359 49.6111H25.2925Z" fill="#66A3B2"/>
<path d="M5.34375 54.5444C8.25187 56.0987 22.1147 54.5444 22.1147 54.5444H5.34375Z" fill="#66A3B2"/>
<path d="M24.0758 59.0723H8.18359C11.6317 60.0177 24.0758 59.0723 24.0758 59.0723Z" fill="#66A3B2"/>
<path d="M8.92773 66.6428H19.0046C19.0046 66.6428 12.1737 65.7645 8.92773 66.6428Z" fill="#66A3B2"/>
<path d="M16.7383 69.0762H25.969C25.969 69.0762 19.003 68.2653 16.7383 69.0762Z" fill="#66A3B2"/>
<path d="M18.377 62.7222H26.7797C26.7797 62.7222 22.2829 61.64 18.377 62.7222Z" fill="#66A3B2"/>
<path d="M17.2461 56.2338L27.7959 56.8419V55.6943L17.2461 56.2338Z" fill="#66A3B2"/>
<path d="M23.5352 51.1993L27.7959 51.638V50.7593L23.5352 51.1993Z" fill="#66A3B2"/>
<path d="M22.1133 64.4134L27.7945 64.8866V64.0742L22.1133 64.4134Z" fill="#66A3B2"/>
<path d="M6.83077 64.4807C6.83077 64.4807 8.58906 63.6026 10.6862 63.1963H5.34375L6.83077 64.4807Z" fill="white"/>
<path d="M6.42484 48.8669C6.42484 48.8669 8.18378 47.9879 10.2793 47.584H4.9375L6.42484 48.8669Z" fill="white"/>
<path d="M6.69531 50.5562L8.18201 51.8415C8.18201 51.8415 9.94095 50.9634 12.0368 50.5562H6.69531Z" fill="white"/>
<path d="M7.43819 69.5386C7.43819 69.5386 9.19745 68.6599 11.2942 68.2539H5.95117L7.43819 69.5386Z" fill="white"/>
<path d="M39.0223 64.4805L27.7959 64.0742V64.8866L39.0223 64.4805Z" fill="#66A3B2"/>
<path d="M48.0166 56.2677L27.7959 55.6943V56.8419L48.0166 56.2677Z" fill="#66A3B2"/>
<path d="M27.7959 50.7593V51.638H33.9502L27.7959 50.7593Z" fill="#66A3B2"/>
<path d="M72.2949 52.5845H46.7314C55.9292 54.274 72.2949 52.5845 72.2949 52.5845Z" fill="#66A3B2"/>
<path d="M35.8428 60.02C37.7355 61.1692 56.8748 60.02 56.8748 60.02H35.8428Z" fill="#66A3B2"/>
<path d="M69.1835 66.8457H44.3643C53.5611 68.2656 69.1835 66.8457 69.1835 66.8457Z" fill="#66A3B2"/>
<path d="M71.0574 65.0654V64.6901L71.1014 64.6445L64.9219 64.9546L77.0567 65.2282V65.0654H71.0574Z" fill="#66A3B2"/>
<path d="M76.9942 56.9776L77.0573 56.2681L76.9942 56.2734L68.4395 56.9776H76.9942Z" fill="#66A3B2"/>
<path d="M4.26569 32.976V33.3895L3.9793 33.8633V37.5456L2.29102 38.7956L3.80721 39.3372V39.7282L4.22229 39.8961L3.80721 40.1788V40.6894L2.72024 42.3102H3.80721V44.118L4.26561 44.4362V44.6424L3.80721 45.061V45.8214L4.09384 46.1465L3.80721 46.5745V47.0421H4.25999H4.26561H4.80126H6.01861H6.15396H23.7244V41.3647L18.9176 40.892L23.7244 40.555V33.3208L14.796 32.7121L23.7244 32.1723V28.1167L20.119 27.6783L23.7244 27.2381V23.52H7.70939H5.82015H5.36295H5.29543H4.26553H3.80713V26.6292L2.54807 29.7381L3.80713 30.2797L3.82313 31.4794L3.83599 32.4437L4.26569 32.976ZM4.72378 39.6748H9.24447C7.46985 40.0799 5.98219 40.9586 5.98219 40.9586L4.72378 39.6748ZM7.75681 43.1226C10.5039 42.2439 16.2839 43.1226 16.2839 43.1226H7.75681ZM6.49743 46.0165L5.23869 44.7336H9.7597C7.98605 45.1376 6.49743 46.0165 6.49743 46.0165ZM22.1786 45.5555H14.3667C16.2839 44.7441 22.1786 45.5555 22.1786 45.5555ZM15.7552 39.2016C19.0598 38.1205 22.8663 39.2016 22.8663 39.2016H15.7552ZM20.5758 35.5504C20.5758 35.5504 10.0461 36.4978 7.12728 35.5504H20.5758ZM4.72378 31.0229H18.9176C18.9176 31.0229 7.18443 32.5784 4.72378 31.0229ZM5.86757 27.0369H10.3892C8.61526 27.4404 7.12696 28.3194 7.12696 28.3194L5.86757 27.0369ZM21.6066 26.0892H7.12728C7.12728 26.0892 16.856 25.2789 21.6066 26.0892ZM8.90101 24.062C7.12736 24.4681 5.63905 25.346 5.63905 25.346L4.37999 24.062H8.90101Z" fill="#87BFD0"/>
<path d="M29.2187 23.52H25.2791H23.7246V27.238L28.9326 28.1167H23.7246V32.1723L40.8369 32.7472L23.7246 33.3208V40.555L33.225 40.9586L23.7246 41.3647V47.0421H27.7951H29.2187H34.2873H66.2839V46.5108H65.9725V45.0388H66.2839V41.7062H65.4146L55.1448 41.4322L65.4088 40.8256L65.4038 40.0097H65.157L65.146 37.8661L66.1331 37.8708V33.4446L65.3605 33.4564H58.1216L65.3605 32.7525V28.1835L66.1331 28.1716V23.52H30.7735H29.2187ZM30.5356 36.4978H48.3342C48.3342 36.4978 32.1375 37.6473 30.5356 36.4978ZM58.7505 43.325C58.7505 43.325 45.5294 44.744 37.7461 43.325H58.7505ZM61.383 29.0638C61.383 29.0638 47.5332 30.7536 39.7494 29.0638H61.383Z" fill="#CCE8EF"/>
<path d="M21.6072 26.0886C16.8566 25.2784 7.12793 26.0886 7.12793 26.0886H21.6072Z" fill="#66A3B2"/>
<path d="M18.9185 31.0225H4.72461C7.18526 32.578 18.9185 31.0225 18.9185 31.0225Z" fill="#66A3B2"/>
<path d="M7.12793 35.5503C10.0467 36.4977 20.5764 35.5503 20.5764 35.5503H7.12793Z" fill="#66A3B2"/>
<path d="M7.75684 43.122H16.284C16.284 43.122 10.5039 42.2433 7.75684 43.122Z" fill="#66A3B2"/>
<path d="M14.3662 45.5555H22.1781C22.1781 45.5555 16.2833 44.744 14.3662 45.5555Z" fill="#66A3B2"/>
<path d="M15.7549 39.2012H22.866C22.866 39.2012 19.0595 38.1201 15.7549 39.2012Z" fill="#66A3B2"/>
<path d="M14.7959 32.7116L23.7244 33.3204V32.1719L14.7959 32.7116Z" fill="#66A3B2"/>
<path d="M20.1191 27.6776L23.7246 28.116V27.2373L20.1191 27.6776Z" fill="#66A3B2"/>
<path d="M18.918 40.8922L23.7247 41.3648V40.5552L18.918 40.8922Z" fill="#66A3B2"/>
<path d="M9.2453 39.6743H4.72461L5.98303 40.9581C5.98303 40.9581 7.47069 40.0794 9.2453 39.6743Z" fill="white"/>
<path d="M8.9009 24.062H4.37988L5.63894 25.3461C5.63894 25.3461 7.12717 24.4681 8.9009 24.062Z" fill="white"/>
<path d="M5.86816 27.0366L7.12755 28.3192C7.12755 28.3192 8.61585 27.4402 10.3898 27.0366H5.86816Z" fill="white"/>
<path d="M5.23926 44.7334L6.498 46.0163C6.498 46.0163 7.98662 45.1373 9.76027 44.7334H5.23926Z" fill="white"/>
<path d="M33.225 40.9587L23.7246 40.5552V41.3648L33.225 40.9587Z" fill="#66A3B2"/>
<path d="M40.8369 32.7467L23.7246 32.1719V33.3204L40.8369 32.7467Z" fill="#66A3B2"/>
<path d="M23.7246 27.2373V28.116H28.9325L23.7246 27.2373Z" fill="#66A3B2"/>
<path d="M61.3826 29.064H39.749C47.533 30.7538 61.3826 29.064 61.3826 29.064Z" fill="#66A3B2"/>
<path d="M30.5352 36.4976C32.1371 37.6471 48.3339 36.4976 48.3339 36.4976H30.5352Z" fill="#66A3B2"/>
<path d="M58.7505 43.3247H37.7461C45.5294 44.7438 58.7505 43.3247 58.7505 43.3247Z" fill="#66A3B2"/>
<path d="M65.4143 41.7059V40.8247L65.4086 40.8253L55.1445 41.432L65.4143 41.7059Z" fill="#66A3B2"/>
<path d="M65.36 33.4563L65.414 32.7471L65.36 32.7525L58.1211 33.4563H65.36Z" fill="#66A3B2"/>
<path d="M7.70898 23.5197H23.7239H25.2784V17.8423L20.4717 17.37L25.2784 17.032V9.79977L16.3507 9.19196L25.2784 8.65131V4.5957L21.6736 4.15603L25.2784 3.71579V0H6.85028H5.81982H5.36262V3.10702L4.10356 6.21589L5.36262 6.75782L5.39116 8.92155L5.81974 9.45345V9.86862L5.53431 10.3412V14.0246L3.8457 15.2755L5.36254 15.8155V16.2072L5.77762 16.3731L5.36254 16.6578V17.1658L4.27493 18.7901H5.36254V20.5989L5.81974 20.914V21.1204L5.36254 21.54V22.2994L5.64893 22.6264L5.36254 23.0522V23.5198H5.81974H7.70898V23.5197ZM7.53785 17.4385L6.27847 16.1534H10.7992C9.02519 16.5592 7.53785 17.4385 7.53785 17.4385ZM17.8393 19.6003H9.31158C12.0586 18.7222 17.8393 19.6003 17.8393 19.6003ZM8.05252 22.4942L6.79313 21.211H11.3151C9.53986 21.6165 8.05252 22.4942 8.05252 22.4942ZM23.7343 22.0342H15.9215C17.8393 21.2224 23.7343 22.0342 23.7343 22.0342ZM17.31 15.6795C20.6152 14.5978 24.421 15.6795 24.421 15.6795H17.31ZM22.1321 12.0303C22.1321 12.0303 11.6008 12.9761 8.68237 12.0303H22.1321ZM6.27847 7.5018H20.4717C20.4717 7.5018 8.7392 9.057 6.27847 7.5018ZM7.42266 3.51456H11.9437C10.1694 3.92065 8.68237 4.7983 8.68237 4.7983L7.42266 3.51456ZM23.1619 2.56902H8.68237C8.68237 2.56902 18.4117 1.7566 23.1619 2.56902ZM10.4563 0.539929C8.68237 0.945056 7.19374 1.824 7.19374 1.824L5.93468 0.539929H10.4563Z" fill="#87BFD0"/>
<path d="M30.4886 4.59578H25.2793V8.65139L42.3922 9.22594L25.2793 9.79993V17.0322L34.7804 17.4386L25.2793 17.8425V23.5199H29.2189H30.7737H66.1334H67.8386V22.9889H67.5278V21.5187H67.8386V18.1852H66.9698L56.7004 17.9112L66.9641 17.3037L66.959 16.4875H66.7123L66.7013 14.3451L67.689 14.3482V9.92228L66.9164 9.93514H59.6759L66.9164 9.23124V4.66254L67.689 4.65065V0H30.7737H25.2793V3.7158L30.4886 4.59578ZM32.0908 12.9784H49.8898C49.8898 12.9784 33.6934 14.1248 32.0908 12.9784ZM60.3062 19.8029C60.3062 19.8029 47.0848 21.2225 39.3008 19.8029H60.3062ZM62.9383 5.54156C62.9383 5.54156 49.0889 7.2314 41.3052 5.54156H62.9383Z" fill="#CCE8EF"/>
<path d="M23.1613 2.56908C18.411 1.75666 8.68164 2.56908 8.68164 2.56908H23.1613Z" fill="#66A3B2"/>
<path d="M20.4716 7.50195H6.27832C8.73905 9.05715 20.4716 7.50195 20.4716 7.50195Z" fill="#66A3B2"/>
<path d="M22.1314 12.0303H8.68164C11.6001 12.9761 22.1314 12.0303 22.1314 12.0303Z" fill="#66A3B2"/>
<path d="M9.3125 19.6002H17.8403C17.8403 19.6002 12.0595 18.7222 9.3125 19.6002Z" fill="#66A3B2"/>
<path d="M15.9219 22.0346H23.7347C23.7347 22.0346 17.8397 21.2228 15.9219 22.0346Z" fill="#66A3B2"/>
<path d="M17.3105 15.6799H24.4216C24.4216 15.6799 20.6158 14.5983 17.3105 15.6799Z" fill="#66A3B2"/>
<path d="M16.3516 9.1921L25.2793 9.79991V8.65137L16.3516 9.1921Z" fill="#66A3B2"/>
<path d="M21.6738 4.15605L25.2786 4.59572V3.71582L21.6738 4.15605Z" fill="#66A3B2"/>
<path d="M20.4717 17.3702L25.2784 17.8425V17.0322L20.4717 17.3702Z" fill="#66A3B2"/>
<path d="M7.5377 17.4383C7.5377 17.4383 9.02504 16.5591 10.799 16.1533H6.27832L7.5377 17.4383Z" fill="white"/>
<path d="M10.4562 0.540039H5.93457L7.19363 1.8241C7.19363 1.8241 8.68226 0.945166 10.4562 0.540039Z" fill="white"/>
<path d="M7.42285 3.51465L8.68256 4.7984C8.68256 4.7984 10.1696 3.92066 11.9439 3.51465H7.42285Z" fill="white"/>
<path d="M8.05235 22.4941C8.05235 22.4941 9.53969 21.6164 11.3149 21.2109H6.79297L8.05235 22.4941Z" fill="white"/>
<path d="M34.7804 17.4386L25.2793 17.0322V17.8425L34.7804 17.4386Z" fill="#66A3B2"/>
<path d="M42.3923 9.22592L25.2793 8.65137V9.79991L42.3923 9.22592Z" fill="#66A3B2"/>
<path d="M25.2793 3.71582V4.59572H30.4886L25.2793 3.71582Z" fill="#66A3B2"/>
<path d="M62.9377 5.5415H41.3047C49.0883 7.23134 62.9377 5.5415 62.9377 5.5415Z" fill="#66A3B2"/>
<path d="M32.0908 12.9785C33.6934 14.1248 49.8899 12.9785 49.8899 12.9785H32.0908Z" fill="#66A3B2"/>
<path d="M60.3061 19.8027H39.3008C47.0847 21.2224 60.3061 19.8027 60.3061 19.8027Z" fill="#66A3B2"/>
<path d="M66.9686 18.1846V17.3027L66.9629 17.3031L56.6992 17.9106L66.9686 18.1846Z" fill="#66A3B2"/>
<path d="M66.9162 9.93535L66.9696 9.22607L66.9162 9.23146L59.6758 9.93535H66.9162Z" fill="#66A3B2"/>
<path d="M104.856 56.3063V54.682L99.7756 54.2593L104.856 53.9567V47.4882L95.4197 46.9428L104.856 46.4598V42.8329L101.045 42.4403L104.856 42.0461V38.7207H85.3786H84.2897H83.8052V41.5026L82.4746 44.2832L83.8052 44.7677L83.836 46.702L84.2898 47.1787V47.5496L83.9865 47.9727V51.2667L82.2021 52.3845L83.8053 52.869V53.218L84.2443 53.3676L83.8053 53.6221V54.0778L82.6561 55.5289H83.8053V56.3062H91.4102L104.856 56.3063ZM96.4326 52.7474C99.9263 51.7799 103.949 52.7474 103.949 52.7474H96.4326ZM101.529 49.4832C101.529 49.4832 90.3991 50.3286 87.3142 49.4832H101.529ZM84.7729 45.4323H99.7756C99.7756 45.4323 87.3742 46.8228 84.7729 45.4323ZM85.9833 41.8664H90.7614C88.8867 42.2286 87.3136 43.0137 87.3136 43.0137L85.9833 41.8664ZM102.618 41.0192H87.3143C87.3143 41.0192 97.5974 40.2937 102.618 41.0192ZM89.1894 39.2041C87.3143 39.5681 85.7415 40.3541 85.7415 40.3541L84.4105 39.2041H89.1894ZM84.7729 53.1704H89.5514C87.6766 53.5337 86.1038 54.3186 86.1038 54.3186L84.7729 53.1704ZM96.9924 56.2552H87.9796C90.883 55.4687 96.9924 56.2552 96.9924 56.2552Z" fill="#87BFD0"/>
<path d="M110.36 42.8329H104.855V46.4598L122.941 46.9744L104.855 47.4882V53.9567L114.897 54.3185L104.855 54.6819V56.3062H110.482H110.878H110.995H111.523H149.837V54.9889H148.919L138.065 54.7422L148.913 54.2L148.907 53.4691H148.647L148.635 51.5536L149.679 51.5577V47.5984L148.862 47.6084H141.21L148.862 46.9789V42.8934L149.679 42.8831V38.7207H110.663H104.856V42.0462L110.36 42.8329ZM112.053 50.3307H130.867C130.867 50.3307 113.747 51.3587 112.053 50.3307ZM144.658 43.6802C144.658 43.6802 130.02 45.1902 121.793 43.6802H144.658Z" fill="#CCE8EF"/>
<path d="M102.618 41.0192C97.5977 40.2937 87.3145 41.0192 87.3145 41.0192H102.618Z" fill="#66A3B2"/>
<path d="M99.7751 45.4321H84.7725C87.3738 46.8226 99.7751 45.4321 99.7751 45.4321Z" fill="#66A3B2"/>
<path d="M101.53 49.4829H87.3145C90.3993 50.3283 101.53 49.4829 101.53 49.4829Z" fill="#66A3B2"/>
<path d="M87.9805 56.2553H96.9933C96.9933 56.2553 90.8839 55.4688 87.9805 56.2553Z" fill="#66A3B2"/>
<path d="M96.4326 52.7473H103.949C103.949 52.7473 99.9263 51.7799 96.4326 52.7473Z" fill="#66A3B2"/>
<path d="M95.4199 46.9424L104.856 47.4878V46.4595L95.4199 46.9424Z" fill="#66A3B2"/>
<path d="M101.046 42.4406L104.857 42.8331V42.0464L101.046 42.4406Z" fill="#66A3B2"/>
<path d="M99.7754 54.2591L104.856 54.6818V53.9565L99.7754 54.2591Z" fill="#66A3B2"/>
<path d="M84.7725 53.1704L86.1035 54.3186C86.1035 54.3186 87.6762 53.5338 89.551 53.1704H84.7725Z" fill="white"/>
<path d="M89.1899 39.2041H84.4111L85.7421 40.3542C85.7421 40.3542 87.3148 39.5682 89.1899 39.2041Z" fill="white"/>
<path d="M85.9834 41.8662L87.3138 43.0135C87.3138 43.0135 88.8868 42.2284 90.7616 41.8662H85.9834Z" fill="white"/>
<path d="M114.897 54.3184L104.855 53.9565V54.6818L114.897 54.3184Z" fill="#66A3B2"/>
<path d="M122.941 46.9741L104.855 46.4595V47.4878L122.941 46.9741Z" fill="#66A3B2"/>
<path d="M104.855 42.0464V42.8331H110.36L104.855 42.0464Z" fill="#66A3B2"/>
<path d="M144.658 43.6802H121.793C130.02 45.1902 144.658 43.6802 144.658 43.6802Z" fill="#66A3B2"/>
<path d="M130.868 50.3306H112.054C113.748 51.3586 130.868 50.3306 130.868 50.3306Z" fill="#66A3B2"/>
<path d="M148.919 54.9889V54.1997L148.914 54.2L138.065 54.7423L148.919 54.9889Z" fill="#66A3B2"/>
<path d="M148.863 47.608L148.919 46.9741L148.863 46.9785L141.211 47.608H148.863Z" fill="#66A3B2"/>
<path d="M139.667 85.5239H133.544C133.236 85.5239 132.985 85.775 132.985 86.0835V92.2014C132.985 92.5096 133.236 92.76 133.544 92.76H139.667C139.975 92.76 140.225 92.5096 140.225 92.2014V86.0835C140.225 85.775 139.975 85.5239 139.667 85.5239ZM134.962 86.1754L136.304 87.3867H135.678V91.5268H134.243V87.3867H133.544L134.962 86.1754ZM139.69 92.0621H133.52V91.8066H139.69V92.0621ZM139.064 87.3867V91.5268H137.629V87.3867H136.93L138.347 86.1754L139.69 87.3867H139.064Z" fill="#CC9451"/>
<path d="M141.4 86.0835V92.2014C141.4 92.5096 141.651 92.76 141.959 92.76H148.081C148.39 92.76 148.64 92.5096 148.64 92.2014V86.0835C148.64 85.775 148.39 85.5239 148.081 85.5239H141.959C141.651 85.5239 141.4 85.775 141.4 86.0835ZM145.019 86.2492C146.452 86.2492 148.018 87.1439 148.289 88.4396C148.189 88.2927 148.02 88.1964 147.83 88.1964C147.635 88.1964 147.464 88.2959 147.365 88.4471H147.347C147.248 88.2959 147.077 88.1964 146.882 88.1964C146.687 88.1964 146.517 88.2959 146.417 88.4471H146.412C146.312 88.2959 146.141 88.1964 145.947 88.1964C145.753 88.1964 145.581 88.2959 145.481 88.4471H145.47C145.403 88.3449 145.301 88.2698 145.183 88.2294V91.2564C145.183 91.5956 145.46 91.8727 145.8 91.8727C146.14 91.8727 146.416 91.5956 146.416 91.2564V90.8484C146.416 90.759 146.49 90.6865 146.58 90.6865C146.669 90.6865 146.742 90.7589 146.742 90.8484V91.2564C146.742 91.7764 146.32 92.1984 145.8 92.1984C145.279 92.1984 144.857 91.7764 144.857 91.2564V88.2171C144.726 88.2532 144.613 88.336 144.539 88.4471H144.532C144.432 88.2959 144.262 88.1964 144.066 88.1964C143.872 88.1964 143.701 88.2959 143.601 88.4471H143.597C143.498 88.2959 143.327 88.1964 143.131 88.1964C142.937 88.1964 142.767 88.2959 142.667 88.4471H142.663C142.563 88.2959 142.392 88.1964 142.198 88.1964C142.015 88.1964 141.852 88.2858 141.751 88.4214C142.118 87.0977 143.596 86.2492 145.019 86.2492Z" fill="#CC9451"/>
<path d="M151.049 56.3062H150.741L151.049 56.5575V56.3062Z" fill="#CC9451"/>
<path d="M117.937 69.5447L111.126 56.5569L110.995 56.4238V95.3566H151.049V69.5447H117.937ZM140.503 92.2015C140.503 92.6635 140.128 93.0388 139.666 93.0388H133.544C133.082 93.0388 132.705 92.6635 132.705 92.2015V86.0836C132.705 85.621 133.082 85.2451 133.544 85.2451H139.666C140.128 85.2451 140.503 85.621 140.503 86.0836V92.2015ZM148.919 86.0836V92.2015C148.919 92.6635 148.544 93.0388 148.081 93.0388H141.959C141.498 93.0388 141.121 92.6635 141.121 92.2015V86.0836C141.121 85.621 141.498 85.2451 141.959 85.2451H148.081C148.544 85.2451 148.919 85.621 148.919 86.0836Z" fill="#CC9451"/>
<path d="M136.929 87.3871H137.628V91.5271H139.063V87.3871H139.689L138.345 86.1758L136.929 87.3871Z" fill="#5D433D"/>
<path d="M134.242 91.5271H135.677V87.3871H136.303L134.96 86.1758L133.543 87.3871H134.242V91.5271Z" fill="#5D433D"/>
<path d="M139.69 91.8071H133.521V92.0626H139.69V91.8071Z" fill="#5D433D"/>
<path d="M139.666 85.2451H133.543C133.081 85.2451 132.705 85.6211 132.705 86.0836V92.2016C132.705 92.6635 133.081 93.0389 133.543 93.0389H139.666C140.128 93.0389 140.503 92.6635 140.503 92.2016V86.0836C140.503 85.621 140.128 85.2451 139.666 85.2451ZM140.224 92.2015C140.224 92.5097 139.974 92.7601 139.666 92.7601H133.544C133.235 92.7601 132.985 92.5097 132.985 92.2015V86.0836C132.985 85.7751 133.235 85.524 133.544 85.524H139.666C139.974 85.524 140.224 85.7751 140.224 86.0836V92.2015Z" fill="#5D433D"/>
<path d="M144.857 88.2175V91.2567C144.857 91.7767 145.28 92.1988 145.8 92.1988C146.321 92.1988 146.742 91.7767 146.742 91.2567V90.8488C146.742 90.7594 146.67 90.6868 146.58 90.6868C146.49 90.6868 146.417 90.7593 146.417 90.8488V91.2567C146.417 91.596 146.14 91.873 145.8 91.873C145.461 91.873 145.184 91.596 145.184 91.2567V88.2297C145.127 88.2103 145.068 88.1968 145.005 88.1968C144.954 88.1968 144.904 88.2043 144.857 88.2175Z" fill="#5D433D"/>
<path d="M142.199 88.1967C142.393 88.1967 142.565 88.2962 142.664 88.4475H142.669C142.768 88.2962 142.939 88.1967 143.133 88.1967C143.328 88.1967 143.499 88.2962 143.599 88.4475H143.602C143.702 88.2962 143.874 88.1967 144.068 88.1967C144.264 88.1967 144.434 88.2962 144.534 88.4475H144.541C144.615 88.3364 144.727 88.2535 144.859 88.2175C144.905 88.2043 144.955 88.1967 145.006 88.1967C145.07 88.1967 145.128 88.2102 145.185 88.2297C145.303 88.2702 145.404 88.3452 145.472 88.4475H145.483C145.582 88.2962 145.754 88.1967 145.948 88.1967C146.142 88.1967 146.313 88.2962 146.413 88.4475H146.419C146.518 88.2962 146.689 88.1967 146.884 88.1967C147.078 88.1967 147.249 88.2962 147.349 88.4475H147.366C147.465 88.2962 147.637 88.1967 147.831 88.1967C148.022 88.1967 148.191 88.2931 148.291 88.4399C148.02 87.1442 146.454 86.2495 145.021 86.2495C143.597 86.2495 142.119 87.0981 141.752 88.4217C141.853 88.2861 142.016 88.1967 142.199 88.1967Z" fill="#5D433D"/>
<path d="M141.121 86.0836V92.2016C141.121 92.6635 141.498 93.0389 141.959 93.0389H148.081C148.544 93.0389 148.919 92.6635 148.919 92.2016V86.0836C148.919 85.6211 148.544 85.2451 148.081 85.2451H141.959C141.498 85.2452 141.121 85.6211 141.121 86.0836ZM148.64 86.0836V92.2016C148.64 92.5098 148.39 92.7602 148.081 92.7602H141.959C141.651 92.7602 141.401 92.5098 141.401 92.2016V86.0836C141.401 85.7752 141.651 85.5241 141.959 85.5241H148.081C148.39 85.5241 148.64 85.7752 148.64 86.0836Z" fill="#5D433D"/>
<path d="M119.531 65.0651L111.126 56.5571L117.936 69.545H151.048V65.0651H119.531Z" fill="#A36C35"/>
<path d="M110.996 56.4246L110.955 56.3838L104.471 68.8008H79.2344V75.3587H87.2805H96.5775V75.4228C97.8705 75.7259 98.8472 77.0897 98.8472 78.7284C98.8472 80.3673 97.8705 81.7309 96.5775 82.0334V82.0974H98.0902V82.1611C99.3832 82.4642 100.359 83.829 100.359 85.468C100.359 87.1067 99.3832 88.4709 98.0902 88.7734V88.8374H96.8783V88.9011C98.1709 89.2042 99.1465 90.5684 99.1465 92.2071C99.1465 93.6493 98.3892 94.8766 97.3266 95.3574H110.996V56.4246Z" fill="#BA803F"/>
<path d="M104.101 65.065H79.2344V68.8002H104.471L110.955 56.3831L110.944 56.3716L104.101 65.065Z" fill="#A36C35"/>
<path d="M71.0596 64.6899L103.991 64.5709L110.483 56.3062H104.857H91.4113H83.8063H79.235L77.9079 57.6669L71.1035 64.6443L71.0596 64.6899Z" fill="#D79A5C"/>
<path d="M110.483 56.3062L103.991 64.5709L71.0596 64.6899V65.0652H77.0588H79.235H104.102L110.945 56.3718L110.88 56.3062H110.483Z" fill="#E3AA6D"/>
<path d="M150.74 56.3062H149.837H111.522L119.671 64.5709L161 64.6899L151.048 56.5575L150.74 56.3062Z" fill="#E3AA6D"/>
<path d="M119.672 64.5709L111.523 56.3062H110.995H110.879L110.944 56.3718L110.955 56.3833L110.995 56.4242L111.127 56.5572L119.532 65.0652H151.049H161V64.6899L119.672 64.5709Z" fill="#ECB57F"/>
<path d="M99.1452 92.2068C99.1452 90.5681 98.1696 89.204 96.877 88.9009V89.6361V89.7447C97.7357 90.0906 98.3549 91.0608 98.3549 92.2068C98.3549 93.3525 97.7357 94.3238 96.877 94.6699V94.7775V94.8076V95.5127C97.0318 95.476 97.1809 95.4224 97.3253 95.357C98.3878 94.8763 99.1452 93.6491 99.1452 92.2068Z" fill="#386D9C"/>
<path d="M98.3549 92.2067C98.3549 91.0607 97.7357 90.0904 96.877 89.7446V94.6699C97.7357 94.3237 98.3549 93.3524 98.3549 92.2067Z" fill="#002539"/>
<path d="M87.5795 94.7773H68.6994H67.9795C67.7594 94.7773 67.5801 94.9556 67.5801 95.1762C67.5801 95.3971 67.7593 95.5763 67.9795 95.5763H87.5795V94.7773Z" fill="#4B7CB1"/>
<path d="M69.1921 88.8369H67.9795C67.7594 88.8369 67.5801 89.0161 67.5801 89.2364C67.5801 89.4577 67.7593 89.6359 67.9795 89.6359H68.6994H87.5795V88.837L69.1921 88.8369Z" fill="#4B7CB1"/>
<path d="M96.878 94.8075H87.7723V94.7773H87.5801V95.5763H96.878V95.5126V94.8075Z" fill="#386D9C"/>
<path d="M88.793 88.8369H87.5801V89.6358H87.7723H96.878V88.9006V88.8369H88.793Z" fill="#386D9C"/>
<path d="M87.5802 94.7772H87.7724V89.6357H87.5802H68.7002V94.0849V94.7772H87.5802Z" fill="#DEF2F7"/>
<path d="M87.7725 89.6357V94.7772V94.8073H96.8782V94.7772V94.6695V89.7444V89.6357H87.7725Z" fill="#ABD8E4"/>
<path d="M98.0898 83.0038C98.9492 83.3503 99.5687 84.3212 99.5687 85.4675C99.5687 86.6139 98.9492 87.5845 98.0898 87.9303V88.0376V88.0684V88.7729C99.3828 88.4704 100.359 87.1063 100.359 85.4675C100.359 83.8286 99.3828 82.4637 98.0898 82.1606V82.8975V83.0038Z" fill="#923B3F"/>
<path d="M99.5687 85.4676C99.5687 84.3212 98.9492 83.3504 98.0898 83.0039V87.9303C98.9492 87.5846 99.5687 86.614 99.5687 85.4676Z" fill="#542128"/>
<path d="M87.5796 88.8368H88.7925V88.0376H69.9116H69.1923C69.0846 88.0376 68.9876 88.0812 68.9157 88.1509C68.8406 88.2236 68.793 88.3247 68.793 88.4377C68.793 88.5045 68.8137 88.5644 68.8429 88.62C68.9098 88.7468 69.0388 88.8368 69.1924 88.8368H87.5796Z" fill="#DA6361"/>
<path d="M88.7916 82.8972V82.0967H87.2789H69.1914C68.971 82.0967 68.792 82.2758 68.792 82.4971C68.792 82.7183 68.971 82.8971 69.1914 82.8971H69.9107L88.7916 82.8972Z" fill="#DA6361"/>
<path d="M88.9832 88.0684V88.0376H88.792V88.8369H96.877H98.089V88.7729V88.0684H88.9832Z" fill="#923B3F"/>
<path d="M88.792 82.0967V82.8972H88.9832H98.089V82.1604V82.0967H96.5762H88.792Z" fill="#923B3F"/>
<path d="M88.7921 88.0376H88.9833V82.8975H88.7921H69.9111V88.0376H88.7921Z" fill="#DEF2F7"/>
<path d="M88.9844 88.0684H98.0901V88.0376V87.9303V83.0038V82.8975H88.9844V88.0376V88.0684Z" fill="#ABD8E4"/>
<path d="M96.5771 76.2656C97.4365 76.6107 98.056 77.582 98.056 78.728C98.056 79.8749 97.4365 80.8452 96.5771 81.191V81.2983V81.3291V82.033C97.8701 81.7305 98.8469 80.367 98.8469 78.728C98.8469 77.0893 97.8701 75.7255 96.5771 75.4224V76.1576V76.2656Z" fill="#318D68"/>
<path d="M96.5771 81.1911C97.4365 80.8453 98.056 79.875 98.056 78.728C98.056 77.582 97.4365 76.6108 96.5771 76.2656V81.1911Z" fill="#165F42"/>
<path d="M87.279 82.0969V81.2983H68.3983H67.6793C67.4583 81.2983 67.2793 81.4772 67.2793 81.6975C67.2793 81.9191 67.4583 82.097 67.6793 82.097H69.1915L87.279 82.0969Z" fill="#41B085"/>
<path d="M67.6793 75.3579C67.4583 75.3579 67.2793 75.5374 67.2793 75.7577C67.2793 75.9108 67.3681 76.0386 67.4944 76.1061C67.5503 76.1359 67.6112 76.1572 67.6793 76.1572H68.3983H87.279V75.358H79.2329H74.5241L67.6793 75.3579Z" fill="#41B085"/>
<path d="M87.4721 81.3291V81.2983H87.2803V82.0969H88.793H96.5773V82.0329V81.3291H87.4721Z" fill="#318D68"/>
<path d="M87.4721 76.1572H96.5773V75.4219V75.3579H87.2803V76.1572H87.4721Z" fill="#318D68"/>
<path d="M87.2801 81.2985H87.472V76.1577H87.2801H68.3994V76.2386V80.2993V80.4996V81.2985H87.2801Z" fill="#DEF2F7"/>
<path d="M87.4717 81.2985V81.3293H96.5768V81.2985V81.1912V76.2656V76.1577H87.4717V81.2985Z" fill="#ABD8E4"/>
</svg>
