<svg width="18" height="49" viewBox="0 0 18 49" fill="none" xmlns="http://www.w3.org/2000/svg">
<path d="M9.31047 38.7171C9.31041 38.8138 9.27196 38.9065 9.20361 38.9749C9.13525 39.0433 9.04256 39.0818 8.94587 39.0819C8.84935 39.0816 8.75685 39.043 8.68872 38.9747C8.62059 38.9063 8.58239 38.8137 8.58252 38.7171V7.82343C8.58254 7.72702 8.62082 7.63454 8.68894 7.56631C8.75706 7.49807 8.84946 7.45966 8.94587 7.45947C9.04245 7.45952 9.13504 7.49786 9.20338 7.56608C9.27173 7.63431 9.31025 7.72686 9.31047 7.82343V38.7171Z" fill="#2E2B30"/>
<path d="M15.2067 48.7328H2.68495L0.141113 32.3979H17.7516L15.2067 48.7328Z" fill="#2E2B30"/>
<path d="M16.8302 21.5927C16.8303 20.0333 16.3679 18.5089 15.5016 17.2123C14.6353 15.9157 13.404 14.9051 11.9633 14.3083C10.5227 13.7115 8.93741 13.5553 7.40799 13.8595C5.87856 14.1636 4.47366 14.9145 3.37097 16.0171C2.26829 17.1197 1.51733 18.5246 1.21307 20.054C0.908798 21.5834 1.0649 23.1686 1.66161 24.6093C2.25831 26.05 3.26884 27.2814 4.56539 28.1478C5.86194 29.0142 7.38629 29.4766 8.94567 29.4767C9.98106 29.4767 11.0063 29.2729 11.9629 28.8767C12.9195 28.4805 13.7887 27.8998 14.5208 27.1677C15.253 26.4356 15.8337 25.5664 16.23 24.6098C16.6262 23.6533 16.8302 22.628 16.8302 21.5927Z" fill="#60A014"/>
<path d="M14.5044 5.90897C14.5043 4.80966 14.1783 3.73508 13.5675 2.82108C12.9567 1.90708 12.0885 1.19472 11.0729 0.774084C10.0572 0.353448 8.93967 0.243411 7.86149 0.457913C6.78331 0.672416 5.79295 1.2018 5.01564 1.97915C4.23832 2.75649 3.70896 3.74687 3.4945 4.82506C3.28004 5.90325 3.39009 7.02083 3.81077 8.03647C4.23144 9.0521 4.94383 9.92018 5.85785 10.5309C6.77188 11.1417 7.8465 11.4677 8.94581 11.4678C9.6758 11.4678 10.3986 11.324 11.0731 11.0447C11.7475 10.7653 12.3603 10.3559 12.8764 9.83966C13.3926 9.32347 13.802 8.71068 14.0814 8.03624C14.3607 7.36181 14.5045 6.63896 14.5044 5.90897Z" fill="#60A014"/>
</svg>
