<svg width="206" height="156" viewBox="0 0 206 156" fill="none" xmlns="http://www.w3.org/2000/svg">
<g filter="url(#filter0_d_255_280157)">
<path d="M55.5346 109.535L60.0262 109.267V103.548L51.6841 103.068L60.0262 102.64V99.4331L56.6576 99.0852L60.0262 98.7383V95.7988H45.5618H43.7967H43.3687H42.8074H41.8453H41.417V98.2569L40.2409 100.715L41.417 101.143L41.4438 102.855L41.8453 103.274V103.602L41.5768 103.977V106.889L40 107.878L41.4169 108.305V108.614L41.8048 108.746L41.4169 108.971V109.373L40.4013 110.657H41.4169V112.087L41.8452 112.337V112.499L41.4169 112.83V113.432L41.6843 113.689L41.4169 114.027V114.398H41.8452H43.6097H60.0262V109.908L55.5346 109.535ZM52.5801 108.198C55.6682 107.342 59.2243 108.198 59.2243 108.198H52.5801ZM53.0744 111.297H45.1072C47.6734 110.604 53.0744 111.297 53.0744 111.297ZM57.0854 105.312C57.0854 105.312 47.2458 106.059 44.5182 105.312H57.0854ZM42.2726 101.73H55.5346C55.5346 101.73 44.5727 102.961 42.2726 101.73ZM43.3419 98.5778H47.5664C45.9086 98.8986 44.5182 99.5934 44.5182 99.5934L43.3419 98.5778ZM58.0482 97.8286H44.5182C44.5182 97.8286 53.6095 97.1879 58.0482 97.8286ZM46.176 96.2266C44.5182 96.5464 43.1286 97.2413 43.1286 97.2413L41.9515 96.2266H46.176ZM46.4976 108.573C44.8393 108.892 43.4489 109.587 43.4489 109.587L42.2726 108.573H46.4976ZM43.9306 113.586L42.7542 112.572H46.9782C45.3209 112.891 43.9306 113.586 43.9306 113.586ZM51.2831 113.221C53.0745 112.58 58.5825 113.221 58.5825 113.221H51.2831Z" fill="#87BFD0"/>
<path d="M93.7556 110.879C93.5816 110.879 93.4398 110.738 93.4398 110.563C93.4398 110.389 93.5815 110.247 93.7556 110.247H94.7145C94.5931 110.247 94.491 110.176 94.4381 110.076L89.3863 109.961L94.4957 109.705C94.5526 109.65 94.6293 109.615 94.7144 109.615H95.2832V105.551H94.7144C94.5401 105.551 94.3986 105.409 94.3986 105.234C94.3986 105.059 94.5401 104.918 94.7144 104.918H93.5186C93.3438 104.918 93.2023 104.777 93.2023 104.602C93.2023 104.428 93.3438 104.286 93.5186 104.286H94.0872V103.654H92.167L94.0872 103.496V100.285C90.7876 100.571 80.981 101.279 75.0012 100.181H93.3724C93.2726 100.127 93.2023 100.026 93.2023 99.9051C93.2023 99.7309 93.3438 99.589 93.5186 99.589H98.9311V99.4852L99.6533 99.4756V95.7979H67.1135H65.1615H61.9798H60.0273V98.7373L64.8941 99.4321H60.0273V102.639L76.017 103.092L60.0273 103.547V109.266L68.9051 109.585L60.0273 109.907V114.397H65.1615H94.3248V110.879L93.7556 110.879ZM66.3912 106.06H83.0222C83.0222 106.06 67.8886 106.969 66.3912 106.06ZM73.1298 111.458H92.755C92.755 111.458 80.4021 112.579 73.1298 111.458Z" fill="#CCE8EF"/>
<path d="M58.0475 97.8277C53.6088 97.187 44.5176 97.8277 44.5176 97.8277H58.0475Z" fill="#66A3B2"/>
<path d="M55.5355 101.729H42.2734C44.5735 102.96 55.5355 101.729 55.5355 101.729Z" fill="#66A3B2"/>
<path d="M57.0847 105.312H44.5176C47.2452 106.059 57.0847 105.312 57.0847 105.312Z" fill="#66A3B2"/>
<path d="M45.1074 111.296H53.0747C53.0747 111.296 47.6736 110.603 45.1074 111.296Z" fill="#66A3B2"/>
<path d="M51.2832 113.221H58.5826C58.5826 113.221 53.0745 112.579 51.2832 113.221Z" fill="#66A3B2"/>
<path d="M52.5801 108.198H59.2243C59.2243 108.198 55.6682 107.342 52.5801 108.198Z" fill="#66A3B2"/>
<path d="M60.0258 103.547V102.639L51.6836 103.067L60.0258 103.547Z" fill="#66A3B2"/>
<path d="M60.0249 99.4321V98.7373L56.6562 99.0842L60.0249 99.4321Z" fill="#66A3B2"/>
<path d="M60.0268 109.907V109.267L55.5352 109.535L60.0268 109.907Z" fill="#66A3B2"/>
<path d="M46.4984 108.571H42.2734L43.4498 109.585C43.4498 109.585 44.8402 108.891 46.4984 108.571Z" fill="white"/>
<path d="M46.1756 96.2256H41.9512L43.1283 97.2403C43.1283 97.2403 44.5179 96.5454 46.1756 96.2256Z" fill="white"/>
<path d="M43.3418 98.5771L44.5182 99.5928C44.5182 99.5928 45.9085 98.8979 47.5663 98.5771H43.3418Z" fill="white"/>
<path d="M43.9303 113.585C43.9303 113.585 45.3206 112.89 46.9779 112.57H42.7539L43.9303 113.585Z" fill="white"/>
<path d="M68.9051 109.586L60.0273 109.267V109.907L68.9051 109.586Z" fill="#66A3B2"/>
<path d="M76.017 103.092L60.0273 102.639V103.547L76.017 103.092Z" fill="#66A3B2"/>
<path d="M64.8942 99.4321L60.0273 98.7373V99.4321H64.8942Z" fill="#66A3B2"/>
<path d="M93.5174 100.221C93.4635 100.221 93.4154 100.204 93.3712 100.181H75C80.9798 101.279 90.7863 100.571 94.0859 100.285V100.221H93.5174Z" fill="#66A3B2"/>
<path d="M66.3887 106.06C67.8861 106.969 83.0196 106.06 83.0196 106.06H66.3887Z" fill="#66A3B2"/>
<path d="M92.7541 111.458H73.1289C80.4013 112.58 92.7541 111.458 92.7541 111.458Z" fill="#66A3B2"/>
<path d="M94.4941 109.704L89.3848 109.96L94.4365 110.075C94.4135 110.031 94.3971 109.984 94.3971 109.931C94.3971 109.842 94.4348 109.762 94.4941 109.704Z" fill="#66A3B2"/>
<path d="M92.166 103.654H94.0862V103.496L92.166 103.654Z" fill="#66A3B2"/>
<path d="M45.5614 95.7981H60.0259H61.9784V91.3088L57.486 90.9345L61.9784 90.6663V84.9477L53.6362 84.4668L61.9784 84.0402V80.8325L58.6092 80.4856L61.9784 80.1377V77.1982H58.7596H44.866H44.759H43.7964H43.3728H43.3684V77.6873V79.6558L42.3224 81.8429L42.192 82.1151L43.3684 82.5429L43.3949 84.2541L43.7964 84.6742V85.0025L43.5292 85.3762V88.2889L41.9512 89.2773L42.3477 89.3966L43.3684 89.705V90.0147L43.7559 90.1462L43.3684 90.3703V90.7747L42.3527 92.0566H43.3684V93.4864L43.7964 93.7375V93.8998L43.3684 94.2304V94.8331L43.6363 95.0902L43.3684 95.4266V95.7981H43.7964H45.5614ZM45.4003 90.9877L44.2244 89.972H48.4489C46.7906 90.2933 45.4003 90.9877 45.4003 90.9877ZM55.0268 92.6976H47.0586C49.6253 92.0031 55.0268 92.6976 55.0268 92.6976ZM45.8814 94.9872L44.7056 93.9713H48.9306C47.2726 94.2924 45.8814 94.9872 45.8814 94.9872ZM60.5344 94.6219H53.2352C55.026 93.9807 60.5344 94.6219 60.5344 94.6219ZM54.5315 89.5976C57.6201 88.7417 61.1759 89.5976 61.1759 89.5976H54.5315ZM59.0373 86.7112C59.0373 86.7112 49.1973 87.4589 46.4706 86.7112H59.0373ZM44.2244 83.131H57.486C57.486 83.131 46.524 84.3601 44.2244 83.131ZM45.2943 79.9772H49.518C47.8607 80.2992 46.4699 80.9935 46.4699 80.9935L45.2943 79.9772ZM59.9993 79.2297H46.4706C46.4706 79.2297 55.5608 78.5873 59.9993 79.2297ZM48.1276 77.6268C46.4706 77.9461 45.0798 78.6412 45.0798 78.6412L43.9037 77.6268H48.1276Z" fill="#87BFD0"/>
<path d="M63.1042 77.1982H61.9785V80.1377L66.845 80.8325H61.9785V84.0402L77.9679 84.4936L61.9785 84.9477V90.6663L70.8557 90.9877L61.9785 91.3088V95.7981H65.1602H67.1122H99.6521H101.745V95.3765H101.454V94.2145H101.745V91.5787H100.933L91.3371 91.3624L96.2234 91.1172L101.604 85.5999V85.0457L100.883 85.0547H94.118L100.883 84.4978V80.8864L101.604 80.876V77.1982H92.4133H67.1122H63.1042ZM68.3421 87.4606H84.9731C84.9731 87.4606 69.8388 88.3693 68.3421 87.4606ZM94.7059 92.8579C94.7059 92.8579 82.3525 93.9808 75.0802 92.8579H94.7059ZM97.1658 81.5811C97.1658 81.5811 84.2248 82.9171 76.9517 81.5811H97.1658Z" fill="#CCE8EF"/>
<path d="M59.9994 79.2299C55.561 78.5874 46.4707 79.2299 46.4707 79.2299H59.9994Z" fill="#66A3B2"/>
<path d="M44.2246 83.1309C46.5242 84.3599 57.4862 83.1309 57.4862 83.1309H44.2246Z" fill="#66A3B2"/>
<path d="M59.0374 86.7109H46.4707C49.1973 87.4586 59.0374 86.7109 59.0374 86.7109Z" fill="#66A3B2"/>
<path d="M47.0586 92.6973H55.0268C55.0268 92.6973 49.6253 92.0028 47.0586 92.6973Z" fill="#66A3B2"/>
<path d="M53.2363 94.6219H60.5355C60.5355 94.6219 55.0271 93.9807 53.2363 94.6219Z" fill="#66A3B2"/>
<path d="M54.5312 89.5972H61.1757C61.1757 89.5972 57.6199 88.7414 54.5312 89.5972Z" fill="#66A3B2"/>
<path d="M53.6367 84.4666L61.9789 84.9475V84.04L53.6367 84.4666Z" fill="#66A3B2"/>
<path d="M58.6094 80.4846L61.9785 80.8315V80.1367L58.6094 80.4846Z" fill="#66A3B2"/>
<path d="M57.4863 90.9342L61.9787 91.3084V90.666L57.4863 90.9342Z" fill="#66A3B2"/>
<path d="M45.4005 90.9873C45.4005 90.9873 46.7908 90.293 48.4491 89.9717H44.2246L45.4005 90.9873Z" fill="white"/>
<path d="M45.0804 78.6414C45.0804 78.6414 46.4713 77.9464 48.1283 77.627H43.9043L45.0804 78.6414Z" fill="white"/>
<path d="M45.2949 79.9775L46.4705 80.9939C46.4705 80.9939 47.8614 80.2996 49.5186 79.9775H45.2949Z" fill="white"/>
<path d="M45.8809 94.9876C45.8809 94.9876 47.2721 94.2927 48.9301 93.9717H44.7051L45.8809 94.9876Z" fill="white"/>
<path d="M70.8557 90.9873L61.9785 90.666V91.3084L70.8557 90.9873Z" fill="#66A3B2"/>
<path d="M77.9679 84.4934L61.9785 84.04V84.9475L77.9679 84.4934Z" fill="#66A3B2"/>
<path d="M61.9785 80.1367V80.8315H66.845L61.9785 80.1367Z" fill="#66A3B2"/>
<path d="M97.1653 81.5811H76.9512C84.2243 82.917 97.1653 81.5811 97.1653 81.5811Z" fill="#66A3B2"/>
<path d="M68.3418 87.46C69.8384 88.3687 84.9728 87.46 84.9728 87.46H68.3418Z" fill="#66A3B2"/>
<path d="M94.7058 92.8574H75.0801C82.3524 93.9802 94.7058 92.8574 94.7058 92.8574Z" fill="#66A3B2"/>
<path d="M96.1876 91.45V91.1532L96.2223 91.1172L91.3359 91.3624L100.931 91.5788V91.45H96.1876Z" fill="#66A3B2"/>
<path d="M100.882 85.0542L100.932 84.4932L100.882 84.4974L94.1172 85.0542H100.882Z" fill="#66A3B2"/>
<path d="M43.374 66.0759V66.4029L43.1475 66.7775V69.6893L41.8125 70.6777L43.0114 71.1059V71.4151L43.3396 71.5479L43.0114 71.7714V72.1752L42.1519 73.4568H43.0114V74.8864L43.3739 75.138V75.301L43.0114 75.632V76.2333L43.2381 76.4904L43.0114 76.8288V77.1985H43.3695H43.3739H43.7975H44.7601H44.8671H58.7608V72.7092L54.9599 72.3354L58.7608 72.069V66.3486L51.7008 65.8672L58.7608 65.4404V62.2334L55.9098 61.8868L58.7608 61.5387V58.5986H46.097H44.6031H44.2416H44.1882H43.3738H43.0114V61.0572L42.0158 63.5155L43.0114 63.9438L43.024 64.8925L43.0342 65.655L43.374 66.0759ZM43.7362 71.3729H47.3109C45.9076 71.6933 44.7313 72.388 44.7313 72.388L43.7362 71.3729ZM46.1345 74.0993C48.3067 73.4044 52.8773 74.0993 52.8773 74.0993H46.1345ZM45.1387 76.3876L44.1434 75.3732H47.7183C46.3158 75.6926 45.1387 76.3876 45.1387 76.3876ZM57.5385 76.0231H51.3613C52.8773 75.3814 57.5385 76.0231 57.5385 76.0231ZM52.4592 70.9987C55.0723 70.1439 58.0822 70.9987 58.0822 70.9987H52.4592ZM56.2711 68.1116C56.2711 68.1116 47.9448 68.8607 45.6367 68.1116H56.2711ZM43.7362 64.5315H54.9599C54.9599 64.5315 45.6819 65.7615 43.7362 64.5315ZM44.6406 61.3796H48.2161C46.8134 61.6987 45.6365 62.3938 45.6365 62.3938L44.6406 61.3796ZM57.0861 60.6302H45.6367C45.6367 60.6302 53.3297 59.9895 57.0861 60.6302ZM47.0393 59.0272C45.6368 59.3483 44.4599 60.0425 44.4599 60.0425L43.4643 59.0272H47.0393Z" fill="#87BFD0"/>
<path d="M63.1042 58.5986H59.989H58.7598V61.5386L62.878 62.2334H58.7598V65.4404L72.2912 65.8949L58.7598 66.3486V72.069L66.2722 72.388L58.7598 72.7092V77.1985H61.9785H63.1042H67.1122H92.4133V76.7784H92.167V75.6144H92.4133V72.9792H91.7258L83.6051 72.7626L91.7213 72.2829L91.7173 71.6378H91.5222L91.5135 69.9427L92.294 69.9464V66.4464L91.683 66.4558H85.9589L91.683 65.8992V62.2863L92.294 62.2769V58.5986H64.3336H63.1042ZM64.1455 68.8607H78.2196C78.2196 68.8607 65.4122 69.7697 64.1455 68.8607ZM86.4563 74.2593C86.4563 74.2593 76.0018 75.3814 69.8472 74.2593H86.4563ZM88.5379 62.9823C88.5379 62.9823 77.5863 64.3185 71.4312 62.9823H88.5379Z" fill="#CCE8EF"/>
<path d="M57.0842 60.6295C53.3277 59.9888 45.6348 60.6295 45.6348 60.6295H57.0842Z" fill="#66A3B2"/>
<path d="M54.96 64.5312H43.7363C45.6821 65.7613 54.96 64.5312 54.96 64.5312Z" fill="#66A3B2"/>
<path d="M45.6348 68.1104C47.9428 68.8595 56.2691 68.1104 56.2691 68.1104H45.6348Z" fill="#66A3B2"/>
<path d="M46.1328 74.0989H52.8756C52.8756 74.0989 48.305 73.404 46.1328 74.0989Z" fill="#66A3B2"/>
<path d="M51.3613 76.0235H57.5385C57.5385 76.0235 52.8773 75.3818 51.3613 76.0235Z" fill="#66A3B2"/>
<path d="M52.459 70.9981H58.082C58.082 70.9981 55.0721 70.1433 52.459 70.9981Z" fill="#66A3B2"/>
<path d="M51.7012 65.8663L58.7613 66.3477V65.4395L51.7012 65.8663Z" fill="#66A3B2"/>
<path d="M55.9082 61.8863L58.7592 62.2329V61.5381L55.9082 61.8863Z" fill="#66A3B2"/>
<path d="M54.959 72.3348L58.7599 72.7086V72.0684L54.959 72.3348Z" fill="#66A3B2"/>
<path d="M47.311 71.3721H43.7363L44.7314 72.3872C44.7314 72.3872 45.9078 71.6924 47.311 71.3721Z" fill="white"/>
<path d="M47.0398 59.0273H43.4648L44.4604 60.0427C44.4604 60.0427 45.6372 59.3485 47.0398 59.0273Z" fill="white"/>
<path d="M44.6387 61.3799L45.6345 62.394C45.6345 62.394 46.8114 61.699 48.2141 61.3799H44.6387Z" fill="white"/>
<path d="M44.1426 75.373L45.1379 76.3875C45.1379 76.3875 46.315 75.6924 47.7175 75.373H44.1426Z" fill="white"/>
<path d="M66.2722 72.3874L58.7598 72.0684V72.7086L66.2722 72.3874Z" fill="#66A3B2"/>
<path d="M72.2912 65.894L58.7598 65.4395V66.3477L72.2912 65.894Z" fill="#66A3B2"/>
<path d="M58.7598 61.5381V62.2329H62.8779L58.7598 61.5381Z" fill="#66A3B2"/>
<path d="M88.5383 62.9814H71.4316C77.5867 64.3177 88.5383 62.9814 88.5383 62.9814Z" fill="#66A3B2"/>
<path d="M64.1445 68.8604C65.4113 69.7693 78.2187 68.8604 78.2187 68.8604H64.1445Z" fill="#66A3B2"/>
<path d="M86.4567 74.2588H69.8477C76.0022 75.3809 86.4567 74.2588 86.4567 74.2588Z" fill="#66A3B2"/>
<path d="M91.7262 72.978V72.2812L91.7217 72.2818L83.6055 72.7614L91.7262 72.978Z" fill="#66A3B2"/>
<path d="M91.6831 66.4554L91.7258 65.8945L91.6831 65.8988L85.959 66.4554H91.6831Z" fill="#66A3B2"/>
<path d="M46.0959 58.598H58.7596H59.9888V54.1087L56.1879 53.7352L59.9888 53.468V47.7491L52.9293 47.2685L59.9888 46.841V43.634L57.1383 43.2864L59.9888 42.9382V40H45.4169H44.602H44.2405V42.4569L43.2449 44.9152L44.2405 45.3437L44.2631 47.0547L44.602 47.4753V47.8035L44.3763 48.1773V51.0899L43.041 52.079L44.2404 52.506V52.8157L44.5687 52.947L44.2404 53.172V53.5737L43.3804 54.8581H44.2404V56.2884L44.602 56.5376V56.7008L44.2404 57.0326V57.6331L44.4669 57.8917L44.2404 58.2284V58.5981H44.602H46.0959V58.598ZM45.9606 53.7893L44.9647 52.7732H48.5394C47.1367 53.0941 45.9606 53.7893 45.9606 53.7893ZM54.1064 55.4988H47.3631C49.5353 54.8045 54.1064 55.4988 54.1064 55.4988ZM46.3675 57.7871L45.3717 56.7724H48.9474C47.5436 57.0931 46.3675 57.7871 46.3675 57.7871ZM58.7678 57.4234H52.5899C54.1064 56.7815 58.7678 57.4234 58.7678 57.4234ZM53.6878 52.3985C56.3014 51.5431 59.3108 52.3985 59.3108 52.3985H53.6878ZM57.5008 49.5129C57.5008 49.5129 49.1733 50.2608 46.8656 49.5129H57.5008ZM44.9647 45.932H56.1879C56.1879 45.932 46.9105 47.1618 44.9647 45.932ZM45.8695 42.7791H49.4444C48.0414 43.1002 46.8656 43.7942 46.8656 43.7942L45.8695 42.7791ZM58.3152 42.0314H46.8656C46.8656 42.0314 54.559 41.389 58.3152 42.0314ZM48.2683 40.4269C46.8656 40.7473 45.6885 41.4423 45.6885 41.4423L44.6929 40.4269H48.2683Z" fill="#87BFD0"/>
<path d="M64.1095 43.6341H59.9902V46.841L73.5222 47.2954L59.9902 47.7492V53.4681L67.5031 53.7895L59.9902 54.1088V58.5982H63.1054H64.3349H92.2953H93.6437V58.1783H93.3979V57.0158H93.6437V54.3798H92.9567L84.8362 54.1632L92.9522 53.6828L92.9482 53.0373H92.7531L92.7444 51.3433L93.5254 51.3458V47.846L92.9145 47.8561H87.1891L92.9145 47.2995V43.6869L93.5254 43.6775V40H64.3349H59.9902V42.9382L64.1095 43.6341ZM65.3764 50.2626H79.4509C79.4509 50.2626 66.6436 51.1691 65.3764 50.2626ZM87.6875 55.659C87.6875 55.659 77.2328 56.7816 71.0777 55.659H87.6875ZM89.7688 44.382C89.7688 44.382 78.8175 45.7182 72.6626 44.382H89.7688Z" fill="#CCE8EF"/>
<path d="M58.3149 42.0316C54.5587 41.3892 46.8652 42.0316 46.8652 42.0316H58.3149Z" fill="#66A3B2"/>
<path d="M56.1881 45.9316H44.9648C46.9107 47.1614 56.1881 45.9316 56.1881 45.9316Z" fill="#66A3B2"/>
<path d="M57.5005 49.5127H46.8652C49.1729 50.2606 57.5005 49.5127 57.5005 49.5127Z" fill="#66A3B2"/>
<path d="M47.3633 55.499H54.1066C54.1066 55.499 49.5355 54.8047 47.3633 55.499Z" fill="#66A3B2"/>
<path d="M52.5898 57.424H58.7678C58.7678 57.424 54.1064 56.7821 52.5898 57.424Z" fill="#66A3B2"/>
<path d="M53.6875 52.3987H59.3105C59.3105 52.3987 56.3011 51.5434 53.6875 52.3987Z" fill="#66A3B2"/>
<path d="M52.9297 47.2684L59.9892 47.749V46.8408L52.9297 47.2684Z" fill="#66A3B2"/>
<path d="M57.1387 43.2866L59.9891 43.6343V42.9385L57.1387 43.2866Z" fill="#66A3B2"/>
<path d="M56.1895 53.735L59.9903 54.1085V53.4678L56.1895 53.735Z" fill="#66A3B2"/>
<path d="M45.9607 53.7896C45.9607 53.7896 47.1368 53.0943 48.5396 52.7734H44.9648L45.9607 53.7896Z" fill="white"/>
<path d="M48.2688 40.4268H44.6934L45.689 41.4421C45.689 41.4421 46.8661 40.7471 48.2688 40.4268Z" fill="white"/>
<path d="M45.8711 42.7793L46.8672 43.7944C46.8672 43.7944 48.043 43.1003 49.4461 42.7793H45.8711Z" fill="white"/>
<path d="M46.3669 57.7871C46.3669 57.7871 47.543 57.0931 48.9468 56.7725H45.3711L46.3669 57.7871Z" fill="white"/>
<path d="M67.5031 53.7891L59.9902 53.4678V54.1085L67.5031 53.7891Z" fill="#66A3B2"/>
<path d="M73.5222 47.2951L59.9902 46.8408V47.749L73.5222 47.2951Z" fill="#66A3B2"/>
<path d="M59.9902 42.9385V43.6343H64.1095L59.9902 42.9385Z" fill="#66A3B2"/>
<path d="M89.7683 44.3818H72.6621C78.8169 45.7181 89.7683 44.3818 89.7683 44.3818Z" fill="#66A3B2"/>
<path d="M65.377 50.2627C66.6442 51.1691 79.4514 50.2627 79.4514 50.2627H65.377Z" fill="#66A3B2"/>
<path d="M87.686 55.6592H71.0762C77.2313 56.7818 87.686 55.6592 87.686 55.6592Z" fill="#66A3B2"/>
<path d="M92.9544 54.3789V53.6816L92.95 53.6819L84.834 54.1623L92.9544 54.3789Z" fill="#66A3B2"/>
<path d="M92.9128 47.8568L92.955 47.2959L92.9128 47.3002L87.1875 47.8568H92.9128Z" fill="#66A3B2"/>
<path d="M122.915 84.5238V83.2394L118.898 82.9052L122.915 82.6659V77.551L115.454 77.1197L122.915 76.7378V73.8698L119.902 73.5594L122.915 73.2477V70.6182H107.514H106.653H106.27V72.8179L105.217 75.0167L106.27 75.3998L106.294 76.9293L106.653 77.3063V77.5996L106.413 77.9341V80.5388L105.002 81.4227L106.27 81.8058V82.0818L106.617 82.2001L106.27 82.4014V82.7617L105.361 83.9091H106.27V84.5238H112.283L122.915 84.5238ZM116.255 81.7096C119.017 80.9446 122.198 81.7096 122.198 81.7096H116.255ZM120.285 79.1285C120.285 79.1285 111.484 79.797 109.044 79.1285H120.285ZM107.035 75.9253H118.898C118.898 75.9253 109.092 77.0248 107.035 75.9253ZM107.992 73.1056H111.77C110.288 73.392 109.044 74.0128 109.044 74.0128L107.992 73.1056ZM121.145 72.4356H109.044C109.044 72.4356 117.176 71.862 121.145 72.4356ZM110.527 71.0004C109.044 71.2882 107.801 71.9098 107.801 71.9098L106.748 71.0004H110.527ZM107.035 82.0442H110.813C109.331 82.3315 108.087 82.9521 108.087 82.9521L107.035 82.0442ZM116.697 84.4834H109.57C111.866 83.8615 116.697 84.4834 116.697 84.4834Z" fill="#87BFD0"/>
<path d="M127.267 73.8698H122.914V76.7378L137.215 77.1447L122.914 77.551V82.6659L130.854 82.952L122.914 83.2394V84.5238H127.363H127.677H127.769H128.186H158.483V83.4821H157.757L149.174 83.2871L157.752 82.8583L157.748 82.2803H157.542L157.532 80.7657L158.358 80.7689V77.6381L157.712 77.6461H151.661L157.712 77.1483V73.9177L158.358 73.9095V70.6182H127.506H122.914V73.2477L127.267 73.8698ZM128.605 79.7987H143.482C143.482 79.7987 129.945 80.6116 128.605 79.7987ZM154.388 74.5398C154.388 74.5398 142.813 75.7339 136.307 74.5398H154.388Z" fill="#CCE8EF"/>
<path d="M121.144 72.4356C117.174 71.8619 109.043 72.4356 109.043 72.4356H121.144Z" fill="#66A3B2"/>
<path d="M118.896 75.9258H107.033C109.09 77.0253 118.896 75.9258 118.896 75.9258Z" fill="#66A3B2"/>
<path d="M120.284 79.1289H109.043C111.482 79.7974 120.284 79.1289 120.284 79.1289Z" fill="#66A3B2"/>
<path d="M109.57 84.4834H116.697C116.697 84.4834 111.866 83.8615 109.57 84.4834Z" fill="#66A3B2"/>
<path d="M116.252 81.7091H122.196C122.196 81.7091 119.015 80.9442 116.252 81.7091Z" fill="#66A3B2"/>
<path d="M115.453 77.1202L122.915 77.5514V76.7383L115.453 77.1202Z" fill="#66A3B2"/>
<path d="M119.9 73.5588L122.914 73.8692V73.2471L119.9 73.5588Z" fill="#66A3B2"/>
<path d="M118.896 82.9052L122.914 83.2395V82.666L118.896 82.9052Z" fill="#66A3B2"/>
<path d="M107.033 82.0449L108.086 82.9529C108.086 82.9529 109.329 82.3322 110.812 82.0449H107.033Z" fill="white"/>
<path d="M110.525 71H106.746L107.799 71.9094C107.799 71.9094 109.042 71.2879 110.525 71Z" fill="white"/>
<path d="M107.99 73.1055L109.042 74.0127C109.042 74.0127 110.286 73.3918 111.769 73.1055H107.99Z" fill="white"/>
<path d="M130.854 82.9521L122.914 82.666V83.2395L130.854 82.9521Z" fill="#66A3B2"/>
<path d="M137.215 77.1452L122.914 76.7383V77.5514L137.215 77.1452Z" fill="#66A3B2"/>
<path d="M122.914 73.2471V73.8692H127.267L122.914 73.2471Z" fill="#66A3B2"/>
<path d="M154.387 74.54H136.307C142.812 75.7341 154.387 74.54 154.387 74.54Z" fill="#66A3B2"/>
<path d="M143.483 79.7979H128.605C129.945 80.6108 143.483 79.7979 143.483 79.7979Z" fill="#66A3B2"/>
<path d="M157.757 83.4825V82.8584L157.752 82.8587L149.174 83.2874L157.757 83.4825Z" fill="#66A3B2"/>
<path d="M157.713 77.6458L157.758 77.1445L157.713 77.148L151.662 77.6458H157.713Z" fill="#66A3B2"/>
<path d="M150.441 107.628H145.6C145.356 107.628 145.158 107.826 145.158 108.07V112.908C145.158 113.152 145.356 113.35 145.6 113.35H150.441C150.685 113.35 150.883 113.152 150.883 112.908V108.07C150.883 107.826 150.685 107.628 150.441 107.628ZM146.721 108.143L147.783 109.101H147.287V112.375H146.153V109.101H145.6L146.721 108.143ZM150.46 112.798H145.581V112.596H150.46V112.798ZM149.965 109.101V112.375H148.83V109.101H148.277L149.398 108.143L150.46 109.101H149.965Z" fill="#CC9451"/>
<path d="M151.811 108.07V112.908C151.811 113.152 152.009 113.35 152.252 113.35H157.093C157.337 113.35 157.535 113.152 157.535 112.908V108.07C157.535 107.826 157.337 107.628 157.093 107.628H152.252C152.009 107.628 151.811 107.826 151.811 108.07ZM154.672 108.201C155.805 108.201 157.044 108.909 157.258 109.933C157.179 109.817 157.045 109.741 156.895 109.741C156.741 109.741 156.605 109.82 156.527 109.939H156.513C156.435 109.82 156.299 109.741 156.145 109.741C155.991 109.741 155.856 109.82 155.778 109.939H155.773C155.694 109.82 155.559 109.741 155.406 109.741C155.252 109.741 155.116 109.82 155.038 109.939H155.029C154.975 109.859 154.895 109.799 154.802 109.767V112.161C154.802 112.429 155.021 112.648 155.289 112.648C155.558 112.648 155.777 112.429 155.777 112.161V111.838C155.777 111.768 155.835 111.71 155.906 111.71C155.977 111.71 156.034 111.767 156.034 111.838V112.161C156.034 112.572 155.701 112.906 155.289 112.906C154.878 112.906 154.544 112.572 154.544 112.161V109.758C154.44 109.786 154.351 109.852 154.293 109.939H154.287C154.208 109.82 154.073 109.741 153.919 109.741C153.765 109.741 153.63 109.82 153.551 109.939H153.548C153.469 109.82 153.334 109.741 153.179 109.741C153.026 109.741 152.891 109.82 152.812 109.939H152.809C152.73 109.82 152.595 109.741 152.441 109.741C152.296 109.741 152.168 109.812 152.087 109.919C152.378 108.872 153.547 108.201 154.672 108.201Z" fill="#CC9451"/>
<path d="M159.441 84.5234H159.197L159.441 84.7222V84.5234Z" fill="#CC9451"/>
<path d="M133.257 94.9924L127.871 84.7224L127.768 84.6172V115.403H159.44V94.9924H133.257ZM151.101 112.908C151.101 113.273 150.804 113.57 150.439 113.57H145.598C145.232 113.57 144.935 113.273 144.935 112.908V108.07C144.935 107.705 145.232 107.407 145.598 107.407H150.439C150.804 107.407 151.101 107.705 151.101 108.07V112.908ZM157.756 108.07V112.908C157.756 113.273 157.459 113.57 157.093 113.57H152.252C151.887 113.57 151.589 113.273 151.589 112.908V108.07C151.589 107.705 151.887 107.407 152.252 107.407H157.093C157.459 107.407 157.756 107.705 157.756 108.07Z" fill="#CC9451"/>
<path d="M148.275 109.1H148.828V112.374H149.963V109.1H150.458L149.396 108.143L148.275 109.1Z" fill="#5D433D"/>
<path d="M146.151 112.374H147.285V109.1H147.78L146.718 108.143L145.598 109.1H146.151V112.374Z" fill="#5D433D"/>
<path d="M150.459 112.596H145.58V112.798H150.459V112.596Z" fill="#5D433D"/>
<path d="M150.44 107.407H145.598C145.233 107.407 144.936 107.705 144.936 108.07V112.908C144.936 113.273 145.233 113.57 145.598 113.57H150.44C150.805 113.57 151.102 113.273 151.102 112.908V108.07C151.102 107.704 150.805 107.407 150.44 107.407ZM150.881 112.908C150.881 113.152 150.684 113.35 150.44 113.35H145.599C145.355 113.35 145.157 113.152 145.157 112.908V108.07C145.157 107.826 145.355 107.628 145.599 107.628H150.44C150.684 107.628 150.881 107.826 150.881 108.07V112.908Z" fill="#5D433D"/>
<path d="M154.545 109.758V112.161C154.545 112.572 154.879 112.906 155.29 112.906C155.702 112.906 156.035 112.572 156.035 112.161V111.838C156.035 111.768 155.978 111.71 155.907 111.71C155.836 111.71 155.778 111.767 155.778 111.838V112.161C155.778 112.429 155.559 112.648 155.29 112.648C155.022 112.648 154.803 112.429 154.803 112.161V109.767C154.758 109.752 154.712 109.741 154.661 109.741C154.621 109.741 154.582 109.747 154.545 109.758Z" fill="#5D433D"/>
<path d="M152.443 109.741C152.597 109.741 152.733 109.82 152.811 109.939H152.815C152.893 109.82 153.028 109.741 153.182 109.741C153.336 109.741 153.472 109.82 153.55 109.939H153.553C153.632 109.82 153.768 109.741 153.921 109.741C154.076 109.741 154.21 109.82 154.29 109.939H154.295C154.353 109.851 154.442 109.786 154.546 109.757C154.583 109.747 154.623 109.741 154.663 109.741C154.713 109.741 154.759 109.752 154.804 109.767C154.897 109.799 154.978 109.858 155.031 109.939H155.04C155.118 109.82 155.254 109.741 155.408 109.741C155.562 109.741 155.697 109.82 155.776 109.939H155.78C155.859 109.82 155.994 109.741 156.148 109.741C156.302 109.741 156.437 109.82 156.515 109.939H156.529C156.608 109.82 156.743 109.741 156.897 109.741C157.048 109.741 157.181 109.817 157.26 109.933C157.046 108.909 155.808 108.201 154.675 108.201C153.549 108.201 152.38 108.872 152.09 109.919C152.17 109.812 152.299 109.741 152.443 109.741Z" fill="#5D433D"/>
<path d="M151.59 108.07V112.908C151.59 113.273 151.888 113.57 152.253 113.57H157.093C157.459 113.57 157.756 113.273 157.756 112.908V108.07C157.756 107.705 157.459 107.407 157.093 107.407H152.253C151.887 107.407 151.59 107.705 151.59 108.07ZM157.535 108.07V112.908C157.535 113.152 157.338 113.35 157.093 113.35H152.253C152.009 113.35 151.811 113.152 151.811 112.908V108.07C151.811 107.826 152.009 107.628 152.253 107.628H157.093C157.338 107.628 157.535 107.826 157.535 108.07Z" fill="#5D433D"/>
<path d="M134.517 91.4503L127.871 84.7227L133.256 94.9927H159.439V91.4503H134.517Z" fill="#A36C35"/>
<path d="M127.769 84.6172L127.737 84.585L122.61 94.4036H102.654V99.5893H109.017H116.368V99.6399C117.391 99.8796 118.163 100.958 118.163 102.254C118.163 103.55 117.391 104.628 116.368 104.867V104.918H117.564V104.968C118.587 105.208 119.359 106.287 119.359 107.583C119.359 108.879 118.587 109.958 117.564 110.197V110.247H116.606V110.298C117.628 110.538 118.4 111.616 118.4 112.912C118.4 114.052 117.801 115.023 116.961 115.403H127.769V84.6172Z" fill="#BA803F"/>
<path d="M122.318 91.4504H102.654V94.404H122.61L127.737 84.5853L127.729 84.5762L122.318 91.4504Z" fill="#A36C35"/>
<path d="M96.1895 91.1528L122.23 91.0587L127.364 84.5234H122.915H112.282H106.269H102.654L101.605 85.5994L96.2242 91.1168L96.1895 91.1528Z" fill="#D79A5C"/>
<path d="M127.364 84.5234L122.23 91.0587L96.1895 91.1528V91.4496H100.933H102.654H122.317L127.729 84.5753L127.677 84.5234H127.364Z" fill="#E3AA6D"/>
<path d="M159.197 84.5234H158.483H128.186L134.629 91.0587L167.309 91.1528L159.44 84.7222L159.197 84.5234Z" fill="#E3AA6D"/>
<path d="M134.629 91.0587L128.185 84.5234H127.768H127.676L127.727 84.5753L127.736 84.5845L127.768 84.6168L127.872 84.722L134.518 91.4496H159.44H167.309V91.1528L134.629 91.0587Z" fill="#ECB57F"/>
<path d="M118.399 112.912C118.399 111.616 117.628 110.538 116.605 110.298V110.879V110.965C117.285 111.239 117.774 112.006 117.774 112.912C117.774 113.818 117.285 114.586 116.605 114.86V114.945V114.969V115.526C116.728 115.497 116.846 115.455 116.96 115.403C117.8 115.023 118.399 114.052 118.399 112.912Z" fill="#386D9C"/>
<path d="M117.774 112.912C117.774 112.005 117.285 111.238 116.605 110.965V114.859C117.285 114.586 117.774 113.818 117.774 112.912Z" fill="#002539"/>
<path d="M109.254 114.944H94.3246H93.7553C93.5813 114.944 93.4395 115.085 93.4395 115.26C93.4395 115.434 93.5812 115.576 93.7553 115.576H109.254V114.944Z" fill="#4B7CB1"/>
<path d="M94.7141 110.247H93.7553C93.5813 110.247 93.4395 110.389 93.4395 110.563C93.4395 110.738 93.5812 110.879 93.7553 110.879H94.3246H109.254V110.247L94.7141 110.247Z" fill="#4B7CB1"/>
<path d="M116.606 114.968H109.406V114.944H109.254V115.576H116.606V115.526V114.968Z" fill="#386D9C"/>
<path d="M110.213 110.247H109.254V110.879H109.406H116.606V110.297V110.247H110.213Z" fill="#386D9C"/>
<path d="M109.253 114.944H109.405V110.879H109.253H94.3242V114.397V114.944H109.253Z" fill="#DEF2F7"/>
<path d="M109.406 110.879V114.944V114.968H116.607V114.944V114.859V110.965V110.879H109.406Z" fill="#ABD8E4"/>
<path d="M117.564 105.635C118.244 105.909 118.734 106.676 118.734 107.583C118.734 108.489 118.244 109.257 117.564 109.53V109.615V109.639V110.196C118.587 109.957 119.359 108.879 119.359 107.583C119.359 106.287 118.587 105.207 117.564 104.968V105.55V105.635Z" fill="#923B3F"/>
<path d="M118.734 107.583C118.734 106.676 118.244 105.909 117.564 105.635V109.53C118.244 109.257 118.734 108.489 118.734 107.583Z" fill="#542128"/>
<path d="M109.254 110.247H110.213V109.615H95.283H94.7142C94.629 109.615 94.5523 109.65 94.4955 109.705C94.4361 109.762 94.3984 109.842 94.3984 109.932C94.3984 109.984 94.4148 110.032 94.4379 110.076C94.4908 110.176 94.5929 110.247 94.7143 110.247H109.254Z" fill="#DA6361"/>
<path d="M110.213 105.55V104.917H109.017H94.7143C94.54 104.917 94.3984 105.059 94.3984 105.234C94.3984 105.409 94.54 105.55 94.7143 105.55H95.2831L110.213 105.55Z" fill="#DA6361"/>
<path d="M110.364 109.64V109.615H110.213V110.247H116.606H117.564V110.197V109.64H110.364Z" fill="#923B3F"/>
<path d="M110.213 104.917V105.55H110.364H117.564V104.967V104.917H116.368H110.213Z" fill="#923B3F"/>
<path d="M110.213 109.615H110.364V105.551H110.213H95.2832V109.615H110.213Z" fill="#DEF2F7"/>
<path d="M110.363 109.64H117.564V109.615V109.53V105.635V105.551H110.363V109.615V109.64Z" fill="#ABD8E4"/>
<path d="M116.369 100.306C117.049 100.579 117.539 101.347 117.539 102.254C117.539 103.16 117.049 103.928 116.369 104.201V104.286V104.31V104.867C117.392 104.628 118.164 103.55 118.164 102.254C118.164 100.958 117.392 99.8793 116.369 99.6396V100.221V100.306Z" fill="#318D68"/>
<path d="M116.369 104.201C117.049 103.928 117.539 103.161 117.539 102.254C117.539 101.348 117.049 100.58 116.369 100.307V104.201Z" fill="#165F42"/>
<path d="M109.016 104.918V104.286H94.086H93.5175C93.3427 104.286 93.2012 104.428 93.2012 104.602C93.2012 104.777 93.3427 104.918 93.5175 104.918H94.7133L109.016 104.918Z" fill="#41B085"/>
<path d="M93.5175 99.5879C93.3427 99.5879 93.2012 99.7298 93.2012 99.904C93.2012 100.025 93.2714 100.126 93.3713 100.179C93.4154 100.203 93.4636 100.22 93.5175 100.22H94.086H109.016V99.588H102.653H98.93L93.5175 99.5879Z" fill="#41B085"/>
<path d="M109.167 104.31V104.286H109.016V104.918H110.212H116.367V104.867V104.31H109.167Z" fill="#318D68"/>
<path d="M109.167 100.22H116.367V99.6385V99.5879H109.016V100.22H109.167Z" fill="#318D68"/>
<path d="M109.016 104.286H109.167V100.221H109.016H94.0859V100.285V103.496V103.654V104.286H109.016Z" fill="#DEF2F7"/>
<path d="M109.166 104.286V104.31H116.366V104.286V104.201V100.306V100.221H109.166V104.286Z" fill="#ABD8E4"/>
</g>
<defs>
<filter id="filter0_d_255_280157" x="0" y="0" width="207.309" height="155.576" filterUnits="userSpaceOnUse" color-interpolation-filters="sRGB">
<feFlood flood-opacity="0" result="BackgroundImageFix"/>
<feColorMatrix in="SourceAlpha" type="matrix" values="0 0 0 0 0 0 0 0 0 0 0 0 0 0 0 0 0 0 127 0" result="hardAlpha"/>
<feOffset/>
<feGaussianBlur stdDeviation="20"/>
<feComposite in2="hardAlpha" operator="out"/>
<feColorMatrix type="matrix" values="0 0 0 0 1 0 0 0 0 0.960784 0 0 0 0 0.00392157 0 0 0 1 0"/>
<feBlend mode="normal" in2="BackgroundImageFix" result="effect1_dropShadow_255_280157"/>
<feBlend mode="normal" in="SourceGraphic" in2="effect1_dropShadow_255_280157" result="shape"/>
</filter>
</defs>
</svg>
