<svg width="193" height="195" viewBox="0 0 193 195" fill="none" xmlns="http://www.w3.org/2000/svg">
<g filter="url(#filter0_d_254_84915)">
<path d="M60.1314 62.5195H56.6147V49.6283C56.6147 47.0066 55.3002 43.9337 52.3139 43.9337H45.5254V40.0064H52.3139C54.2977 39.9248 56.2332 40.6313 57.6978 41.9718C59.1625 43.3122 60.0373 45.1777 60.1314 47.1609V62.5195Z" fill="#444248"/>
<path d="M63.9198 132.606V51.8467H54.8467V132.606V141.943H60.4495H145.239V132.606H63.9198Z" fill="#444248"/>
<path d="M64.0757 143.111C64.0755 145.419 63.3908 147.676 62.1081 149.596C60.8255 151.515 59.0024 153.011 56.8695 153.894C54.7366 154.778 52.3897 155.009 50.1255 154.558C47.8613 154.108 45.7815 152.996 44.1491 151.364C42.5167 149.731 41.4051 147.651 40.9547 145.387C40.5044 143.123 40.7355 140.776 41.619 138.643C42.5024 136.51 43.9985 134.687 45.918 133.405C47.8375 132.122 50.0943 131.438 52.4028 131.438C53.9358 131.438 55.4537 131.74 56.8699 132.326C58.2862 132.913 59.573 133.773 60.6569 134.857C61.7408 135.941 62.6006 137.228 63.1872 138.644C63.7738 140.06 64.0757 141.578 64.0757 143.111Z" fill="#444248"/>
<path d="M58.239 143.111C58.2389 144.265 57.8966 145.394 57.2553 146.353C56.614 147.313 55.7024 148.061 54.636 148.503C53.5695 148.945 52.3961 149.06 51.264 148.835C50.1318 148.61 49.0919 148.054 48.2757 147.238C47.4595 146.421 46.9037 145.381 46.6785 144.249C46.4534 143.117 46.5689 141.944 47.0107 140.877C47.4524 139.811 48.2005 138.899 49.1603 138.258C50.12 137.617 51.2484 137.274 52.4027 137.274C53.9506 137.274 55.4351 137.889 56.5296 138.984C57.6241 140.079 58.239 141.563 58.239 143.111Z" fill="#CED1D7"/>
<path d="M132.572 71.25H73.8594V129.135H132.572V71.25Z" fill="#E5BE84"/>
<path d="M111.093 71.25H95.3389V86.1444H111.093V71.25Z" fill="#EAD1B7"/>
<path d="M111.093 114.241H95.3389V129.136H111.093V114.241Z" fill="#EAD1B7"/>
<path d="M91.9046 117.266H76.6729V126.469H91.9046V117.266Z" fill="#F7EEE5"/>
<path d="M78.9856 118.557H77.3691V125.179H78.9856V118.557Z" fill="#444248"/>
<path d="M80.5337 118.557H79.9668V125.179H80.5337V118.557Z" fill="#444248"/>
<path d="M84.1816 118.557H82.8564V125.179H84.1816V118.557Z" fill="#444248"/>
<path d="M81.9936 118.557H81.1855V125.179H81.9936V118.557Z" fill="#444248"/>
<path d="M85.7208 118.557H85.1729V125.179H85.7208V118.557Z" fill="#444248"/>
<path d="M88.8571 118.557H87.7617V125.179H88.8571V118.557Z" fill="#444248"/>
<path d="M89.7764 118.557H89.2324V125.179H89.7764V118.557Z" fill="#444248"/>
<path d="M87.2714 118.557H86.5205V125.179H87.2714V118.557Z" fill="#444248"/>
<path d="M91.168 118.557H90.3594V125.179H91.168V118.557Z" fill="#444248"/>
<path d="M125.019 46.7266H81.4141V71.2513H125.019V46.7266Z" fill="#E5BE84"/>
<path d="M109.066 46.7266H97.3662V52.2575H109.066V46.7266Z" fill="#EAD1B7"/>
<path d="M122.406 62.4365H111.094V69.2717H122.406V62.4365Z" fill="#F7EEE5"/>
<path d="M112.812 63.3945H111.611V68.3127H112.812V63.3945Z" fill="#444248"/>
<path d="M113.962 63.3945H113.541V68.3127H113.962V63.3945Z" fill="#444248"/>
<path d="M116.671 63.3945H115.687V68.3127H116.671V63.3945Z" fill="#444248"/>
<path d="M115.047 63.3945H114.446V68.3127H115.047V63.3945Z" fill="#444248"/>
<path d="M117.814 63.3945H117.407V68.3127H117.814V63.3945Z" fill="#444248"/>
<path d="M120.144 63.3945H119.33V68.3127H120.144V63.3945Z" fill="#444248"/>
<path d="M120.826 63.3945H120.422V68.3127H120.826V63.3945Z" fill="#444248"/>
<path d="M118.965 63.3945H118.407V68.3127H118.965V63.3945Z" fill="#444248"/>
<path d="M121.859 63.3945H121.259V68.3127H121.859V63.3945Z" fill="#444248"/>
<path d="M152.092 129.136H67.1641V145.539H152.092V129.136Z" fill="#444248"/>
</g>
<defs>
<filter id="filter0_d_254_84915" x="0.730469" y="0" width="191.361" height="194.783" filterUnits="userSpaceOnUse" color-interpolation-filters="sRGB">
<feFlood flood-opacity="0" result="BackgroundImageFix"/>
<feColorMatrix in="SourceAlpha" type="matrix" values="0 0 0 0 0 0 0 0 0 0 0 0 0 0 0 0 0 0 127 0" result="hardAlpha"/>
<feOffset/>
<feGaussianBlur stdDeviation="20"/>
<feComposite in2="hardAlpha" operator="out"/>
<feColorMatrix type="matrix" values="0 0 0 0 1 0 0 0 0 0.960784 0 0 0 0 0.00392157 0 0 0 1 0"/>
<feBlend mode="normal" in2="BackgroundImageFix" result="effect1_dropShadow_254_84915"/>
<feBlend mode="normal" in="SourceGraphic" in2="effect1_dropShadow_254_84915" result="shape"/>
</filter>
</defs>
</svg>
