<svg width="117" height="173" viewBox="0 0 117 173" fill="none" xmlns="http://www.w3.org/2000/svg">
<g filter="url(#filter0_d_201_422693)">
<path fill-rule="evenodd" clip-rule="evenodd" d="M75.6065 83.3766H41.4975V123.135C41.5093 124.986 42.1408 126.779 43.2912 128.23C44.4416 129.68 46.0447 130.703 47.8445 131.136C51.2697 131.995 54.7872 132.432 58.3185 132.437C62.0002 132.424 65.6669 131.965 69.2385 131.072C71.043 130.643 72.6513 129.62 73.8059 128.169C74.9605 126.717 75.5945 124.92 75.6065 123.066V83.3766ZM41.9645 78.7036C41.5941 78.7055 41.2396 78.854 40.9783 79.1167C40.7171 79.3793 40.5705 79.7346 40.5705 80.105C40.5705 80.4755 40.7171 80.8308 40.9783 81.0934C41.2396 81.356 41.5941 81.5046 41.9645 81.5066H75.1385C75.3232 81.5075 75.5062 81.472 75.6771 81.402C75.848 81.3321 76.0034 81.229 76.1343 81.0987C76.2653 80.9685 76.3692 80.8137 76.4401 80.6431C76.511 80.4726 76.5475 80.2897 76.5475 80.105C76.5475 79.9204 76.511 79.7375 76.4401 79.567C76.3692 79.3965 76.2653 79.2416 76.1343 79.1114C76.0034 78.9812 75.848 78.8781 75.6771 78.8081C75.5062 78.7381 75.3232 78.7026 75.1385 78.7036H41.9645ZM40.5635 75.4326C40.5634 75.2486 40.5997 75.0664 40.67 74.8964C40.7404 74.7264 40.8437 74.5719 40.9738 74.4418C41.1039 74.3117 41.2584 74.2085 41.4283 74.1381C41.5983 74.0677 41.7805 74.0315 41.9645 74.0316H75.1385C75.5102 74.0316 75.8667 74.1792 76.1295 74.442C76.3923 74.7049 76.54 75.0613 76.54 75.433C76.54 75.8047 76.3923 76.1612 76.1295 76.4241C75.8667 76.6869 75.5102 76.8346 75.1385 76.8346H41.9645C41.7804 76.8346 41.5982 76.7983 41.4281 76.7278C41.2581 76.6574 41.1036 76.5541 40.9735 76.4239C40.8433 76.2937 40.7401 76.1391 40.6698 75.969C40.5995 75.7989 40.5633 75.6166 40.5635 75.4326ZM75.0645 68.1836C74.208 65.1602 73.0756 62.2218 71.6815 59.4056C69.4353 54.8077 66.8696 50.3728 64.0034 46.1336V43.6386H61.6505C60.7034 43.1203 59.6411 42.8486 58.5615 42.8486C57.4818 42.8486 56.4196 43.1203 55.4725 43.6386H53.1105V46.1476C50.2479 50.3827 47.6849 54.8129 45.4404 59.4056C44.0468 62.222 42.9144 65.1603 42.0574 68.1836C41.689 69.2163 41.5069 70.3062 41.5195 71.4026C41.5035 71.7106 41.5034 72.0056 41.5164 72.2836H75.6064C75.6194 72.0056 75.6185 71.7106 75.6035 71.4026C75.6151 70.3062 75.4327 69.2164 75.0645 68.1836Z" fill="#F4F4F5"/>
<path d="M72.873 72.2832H43.916V74.0312H72.873V72.2832ZM72.873 76.8352H43.916V78.7042H72.873V76.8352ZM72.873 81.5072H43.916V83.3762H72.873V81.5072Z" fill="#BACBD4"/>
<path d="M63.149 49.9736C62.109 49.9736 60.3291 50.4006 58.401 50.4166H58.309C57.4258 50.4006 56.5444 50.3298 55.67 50.2046C54.9587 50.0949 54.242 50.0242 53.523 49.9926C53.065 49.9926 52.743 50.0646 52.621 50.2686C50.7813 53.3126 49.1082 56.4543 47.609 59.6796C46.2707 62.4848 45.187 65.4046 44.371 68.4036C44.0571 69.3233 43.9076 70.2911 43.929 71.2626C43.925 71.3546 43.921 71.4456 43.916 71.5346V72.2836H72.873V71.8546C72.8859 71.6286 72.885 71.3886 72.8779 70.8106C72.8589 69.9537 72.7005 69.1056 72.4089 68.2996C71.5964 65.3367 70.5219 62.452 69.1979 59.6796C67.6494 56.4499 65.9237 53.3081 64.0289 50.2686C63.8989 50.0506 63.591 49.9736 63.149 49.9736ZM72.873 74.0316H43.916V76.8356H72.873V74.0316ZM72.873 78.7046H43.916V81.5076H72.873V78.7046ZM72.873 83.3766H43.916V122.176C43.9164 123.458 44.3486 124.704 45.143 125.711C45.9508 126.737 47.0774 127.465 48.345 127.78C51.5541 128.593 54.8514 129.007 58.162 129.012C61.6244 128.998 65.0723 128.563 68.429 127.714C69.7001 127.401 70.8305 126.673 71.641 125.646C72.4381 124.638 72.8722 123.391 72.873 122.106V114.411C68.126 115.797 63.2206 116.569 58.277 116.707C53.4582 116.59 48.6778 115.817 44.0681 114.408V83.6107H72.8731L72.873 83.3766Z" fill="#CEE0EA"/>
<path fill-rule="evenodd" clip-rule="evenodd" d="M52.7668 41.1899C52.8175 40.8589 52.985 40.5569 53.239 40.3386C53.4931 40.1203 53.8169 40.0002 54.1518 40H62.7968C63.1318 40.0002 63.4555 40.1203 63.7096 40.3386C63.9636 40.5569 64.1311 40.8589 64.1818 41.1899L64.5598 43.6599C64.5794 43.7821 64.5739 43.907 64.5439 44.027C64.5138 44.1471 64.4597 44.2598 64.3848 44.3583C64.3099 44.4568 64.2158 44.5391 64.1082 44.6003C64.0007 44.6614 63.8818 44.7001 63.7588 44.7139C61.9273 44.9242 60.0862 45.0404 58.2428 45.062C56.5468 45.0476 54.853 44.9354 53.1698 44.726C53.0487 44.7109 52.9318 44.6715 52.8261 44.6102C52.7205 44.5489 52.6284 44.4669 52.5552 44.3691C52.482 44.2714 52.4293 44.1599 52.4002 44.0413C52.3711 43.9227 52.3662 43.7995 52.3858 43.679L52.7668 41.1899Z" fill="#264F36"/>
<path d="M72.8811 83.6099H72.873V114.41L72.8811 114.408V83.6099Z" fill="#6F8270"/>
<path d="M72.8734 83.6099H44.0684V114.408C48.6782 115.816 53.4586 116.589 58.2773 116.706C63.2209 116.568 68.1263 115.797 72.8734 114.41L72.8734 83.6099Z" fill="#637E6F"/>
</g>
<defs>
<filter id="filter0_d_201_422693" x="0.563477" y="0" width="115.984" height="172.437" filterUnits="userSpaceOnUse" color-interpolation-filters="sRGB">
<feFlood flood-opacity="0" result="BackgroundImageFix"/>
<feColorMatrix in="SourceAlpha" type="matrix" values="0 0 0 0 0 0 0 0 0 0 0 0 0 0 0 0 0 0 127 0" result="hardAlpha"/>
<feOffset/>
<feGaussianBlur stdDeviation="20"/>
<feComposite in2="hardAlpha" operator="out"/>
<feColorMatrix type="matrix" values="0 0 0 0 1 0 0 0 0 0.960784 0 0 0 0 0.00392157 0 0 0 1 0"/>
<feBlend mode="normal" in2="BackgroundImageFix" result="effect1_dropShadow_201_422693"/>
<feBlend mode="normal" in="SourceGraphic" in2="effect1_dropShadow_201_422693" result="shape"/>
</filter>
</defs>
</svg>
