<svg width="121" height="134" viewBox="0 0 121 134" fill="none" xmlns="http://www.w3.org/2000/svg">
<g filter="url(#filter0_d_379_23277)">
<path d="M80.0579 58.5103C80.051 58.5746 79.2107 66.6772 77.7779 74.8834C79.2186 66.644 80.0579 58.5103 80.0579 58.5103Z" fill="#F04A27"/>
<path d="M77.6227 58.5644L75.3997 58.6128C74.936 59.8395 74.3503 61.0166 73.6515 62.1263C72.3896 64.427 70.5617 66.3677 68.3406 67.765C66.1195 69.1623 63.5787 69.9698 60.9585 70.1114C58.3248 70.188 55.7271 69.486 53.4905 68.0932C50.2698 65.9287 47.7685 62.8522 46.3068 59.2577L43.8153 59.3129C44.0078 60.3289 44.1965 61.3019 44.3805 62.2416L45.2098 62.2233C46.9991 65.6905 49.6498 68.6396 52.9073 70.7871C55.3321 72.3234 58.1557 73.1113 61.0256 73.0524C71.5739 72.818 76.9216 61.5233 76.9216 61.5233L77.1872 61.5172C77.3298 60.5712 77.4748 59.5868 77.6227 58.5644Z" fill="#F04A27"/>
<path d="M77.1872 61.5154L76.9219 61.5215C76.9219 61.5215 71.5762 72.8174 61.0259 73.0506C58.156 73.1095 55.3324 72.3216 52.9076 70.7853C49.6501 68.6377 46.9994 65.6887 45.2101 62.2215L44.3808 62.2398C46.1463 72.7518 48.7708 83.1013 52.228 93.1844C55.1985 92.191 58.3006 91.6467 61.4318 91.5697C64.5703 91.5201 67.7005 91.9053 70.7335 92.7142C73.7367 82.5092 75.8951 72.0744 77.1872 61.5154ZM57.9109 87.7256C56.7165 86.9622 55.7736 85.8638 55.2003 84.5674C54.627 83.2709 54.4485 81.834 54.6875 80.4368C54.9389 78.5863 55.9145 76.9114 57.4 75.7797C58.8854 74.648 60.7593 74.1522 62.61 74.4011C63.4741 74.5385 64.3022 74.8459 65.0467 75.3056C66.2411 76.0693 67.1838 77.1683 67.7568 78.465C68.3299 79.7618 68.508 81.1988 68.2687 82.5962C68.0181 84.4466 67.0429 86.1217 65.5575 87.2532C64.0721 88.3847 62.1981 88.8799 60.3476 88.63C59.4833 88.4937 58.6549 88.1862 57.9109 87.7256Z" fill="#F04E27"/>
<path d="M61.4329 74C59.9628 74.0001 58.5257 74.4362 57.3034 75.253C56.081 76.0698 55.1283 77.2308 54.5657 78.5891C54.0032 79.9473 53.856 81.4419 54.1429 82.8838C54.4297 84.3257 55.1376 85.6501 56.1772 86.6897C57.2167 87.7292 58.5412 88.4372 59.9831 88.724C61.425 89.0109 62.9197 88.8637 64.2779 88.3011C65.6362 87.7386 66.7971 86.7859 67.6139 85.5636C68.4308 84.3412 68.8668 82.9042 68.8669 81.434C68.8671 80.4577 68.6749 79.491 68.3013 78.589C67.9278 77.687 67.3801 76.8675 66.6898 76.1771C65.9994 75.4868 65.1799 74.9392 64.2779 74.5657C63.376 74.1921 62.4092 73.9999 61.4329 74ZM65.8871 85.0185C65.86 85.0186 65.8335 85.0115 65.81 84.998C65.7866 84.9845 65.767 84.965 65.7535 84.9416L62.404 79.0777C62.1527 78.6365 62.0742 78.1178 62.1837 77.6219C62.2931 77.1261 62.5827 76.6886 62.9964 76.3941C63.0239 76.3751 63.0565 76.365 63.0899 76.3652C63.1173 76.365 63.1442 76.3721 63.1679 76.3858C63.1916 76.3995 63.2113 76.4193 63.2248 76.4431L66.5697 82.3059C66.8221 82.747 66.9013 83.2663 66.7918 83.7626C66.6823 84.2589 66.3919 84.6967 65.9773 84.9906C65.9508 85.0088 65.9193 85.0186 65.8871 85.0185ZM62.5421 85.0185C62.5151 85.0186 62.4885 85.0115 62.465 84.998C62.4416 84.9845 62.4221 84.965 62.4085 84.9416L59.0589 79.0777C58.8065 78.6368 58.7274 78.1176 58.8369 77.6215C58.9465 77.1254 59.2367 76.6879 59.6513 76.3941C59.6779 76.3751 59.7099 76.365 59.7426 76.3652C59.7698 76.3647 59.7965 76.3718 59.8198 76.3855C59.8432 76.3993 59.8624 76.4192 59.8752 76.4431L63.2246 82.3059C63.477 82.747 63.5561 83.2663 63.4466 83.7626C63.3371 84.2589 63.0469 84.6967 62.6322 84.9906C62.6057 85.0088 62.5743 85.0185 62.5421 85.0185ZM57.9711 85.0207C57.5731 85.0202 57.1843 84.9009 56.8545 84.6781C56.5248 84.4553 56.2692 84.1392 56.1202 83.7702C55.9154 83.2758 55.9141 82.7206 56.1166 82.2253C56.3191 81.73 56.709 81.3347 57.2016 81.1255C57.4451 81.0234 57.7065 80.9708 57.9707 80.9707C58.2348 80.9706 58.4964 81.0231 58.74 81.1251C58.9837 81.2271 59.2046 81.3765 59.3899 81.5647C59.5752 81.7529 59.7212 81.9761 59.8194 82.2213C60.0237 82.7158 60.0247 83.2709 59.822 83.7661C59.6194 84.2613 59.2295 84.6565 58.7372 84.8659C58.4946 84.9678 58.2342 85.0205 57.9711 85.0207Z" fill="white"/>
<path d="M63.0898 76.3652C63.0564 76.3652 63.0237 76.3753 62.9961 76.3942C62.5827 76.6888 62.2931 77.1263 62.1837 77.622C62.0743 78.1178 62.1527 78.6366 62.4038 79.0779L65.7533 84.9418C65.7669 84.9652 65.7864 84.9846 65.8099 84.9981C65.8334 85.0116 65.8599 85.0186 65.887 85.0186C65.9191 85.0186 65.9506 85.0089 65.9771 84.9908C66.3917 84.6968 66.682 84.2591 66.7916 83.7628C66.9011 83.2665 66.822 82.7471 66.5696 82.306L63.2245 76.4432C63.2111 76.4194 63.1915 76.3995 63.1678 76.3858C63.1441 76.3721 63.1172 76.365 63.0898 76.3652Z" fill="#EC7423"/>
<path d="M59.7428 76.3653C59.7101 76.3651 59.6781 76.3752 59.6515 76.3942C59.2369 76.6879 58.9467 77.1255 58.8371 77.6217C58.7276 78.1178 58.8067 78.6369 59.0591 79.0779L62.4086 84.9418C62.4221 84.9652 62.4417 84.9846 62.4651 84.9981C62.4886 85.0116 62.5151 85.0186 62.5422 85.0186C62.5744 85.0186 62.6059 85.009 62.6324 84.9908C63.047 84.6968 63.3373 84.259 63.4468 83.7627C63.5563 83.2664 63.4772 82.7472 63.2248 82.306L59.8752 76.4432C59.8625 76.4193 59.8434 76.3993 59.8201 76.3856C59.7967 76.3718 59.77 76.3648 59.7428 76.3653Z" fill="#EC7423"/>
<path d="M57.9669 80.9688C57.7037 80.9691 57.4433 81.0217 57.2006 81.1235C56.7082 81.3328 56.3183 81.728 56.1157 82.2232C55.913 82.7185 55.914 83.2737 56.1184 83.7682C56.2166 84.0133 56.3626 84.2365 56.5479 84.4247C56.7332 84.6129 56.9541 84.7623 57.1978 84.8643C57.4414 84.9663 57.703 85.0188 57.9672 85.0187C58.2313 85.0186 58.4927 84.966 58.7363 84.8639C59.2287 84.6546 59.6186 84.2594 59.8211 83.7641C60.0236 83.2688 60.0223 82.7136 59.8176 82.2192C59.668 81.8507 59.4122 81.5349 59.0826 81.3122C58.753 81.0896 58.3646 80.97 57.9669 80.9688Z" fill="#F04A27"/>
<path d="M80.0566 58.5093L77.6225 58.562L80.0566 58.5093Z" fill="#F1F1F1"/>
<path d="M80.0569 58.5108L77.6228 58.5633C77.4732 59.5864 77.3279 60.5706 77.187 61.516C75.8948 72.0751 73.7363 82.5099 70.7332 92.715C71.5566 92.937 72.0221 93.1003 72.0221 93.1003L74.331 91.2856C74.331 91.2856 76.3375 83.1215 77.7781 74.882C79.2098 66.6777 80.0499 58.5751 80.0569 58.5108Z" fill="#EE7951"/>
<path d="M41.6559 59.3593C41.6577 59.3604 42.8699 67.5378 44.6563 75.6178C42.87 67.5378 41.6559 59.3593 41.6559 59.3593Z" fill="#F1F1F1"/>
<path d="M43.8146 59.3123L41.6575 59.3609C41.6575 59.3609 42.8699 67.5382 44.6562 75.6181C46.4369 83.6946 48.8276 91.8485 48.8276 91.8485L51.2136 93.5627C51.2166 93.562 51.5772 93.4063 52.2281 93.1837C48.7692 83.1017 46.1443 72.7528 44.3797 62.241C44.1976 61.3025 44.0091 60.3261 43.8146 59.3123Z" fill="#EE7951"/>
<path d="M80.9634 47.0184C79.4573 46.6309 77.4866 47.0438 77.3664 47.5666C77.1657 48.4666 77.0347 48.9294 76.818 49.822C76.6783 49.6763 76.5202 49.5494 76.3475 49.4447C75.5181 49.0046 74.5995 48.7591 73.6611 48.7265C73.4404 51.2655 72.9968 53.7802 72.3355 56.2416C72.361 52.7919 72.6433 49.349 73.1801 45.9412C71.7709 45.6848 69.9531 45.9609 69.4151 46.9954C69.1242 48.8835 68.9298 50.7852 68.8323 52.693C68.6123 48.9969 68.4923 46.8568 68.0934 43.0221C66.3213 43.2045 64.6913 44.0693 64.4139 45.1836C64.4606 45.6877 64.5401 46.55 64.5804 47.0475C63.5083 47.0675 62.4655 47.4018 61.5818 48.009C61.096 50.7631 61.1183 52.3956 60.4331 55.222C60.2422 51.4738 60.4047 47.7159 60.9186 43.9982C60.9423 43.7257 60.447 43.2568 59.7687 42.8374C59.088 42.3977 58.3242 42.1028 57.5246 41.9708C57.2656 44.6084 57.0441 47.2421 56.8599 49.8718C56.6477 46.7751 56.3389 43.6608 55.9332 40.5292C55.2422 40.6445 54.5869 40.917 54.0179 41.3256C53.4489 41.7342 52.9814 42.268 52.6514 42.8859C53.1776 46.6381 53.4782 50.4186 53.5516 54.2068C52.9158 50.4518 52.6566 49.0666 52.1037 46.8087C50.6928 46.9452 48.706 48.5145 48.8237 49.0396C49.3358 51.3261 49.6415 53.6541 49.737 55.9953C48.9383 51.9896 48.4036 50.7212 47.4069 46.6744C47.3884 46.6351 47.3565 46.6036 47.3169 46.5857C46.1051 46.0653 44.7687 45.9061 43.4686 46.1272C44.3916 49.2348 45.116 52.3979 45.6375 55.5975C44.8053 53.5532 44.0266 51.463 43.3166 49.3112C41.9792 50.0741 40.9341 51.261 40.3466 52.6842C40.7693 53.8431 41.2614 54.9755 41.8201 56.0753C42.144 56.7432 42.4737 57.4224 42.7941 58.1617L43.5907 58.1436L47.4467 58.0553C48.8838 61.732 51.3803 64.8995 54.6194 67.156C56.5494 68.3704 58.7951 68.9873 61.0747 68.9292C70.6792 68.7211 74.2107 57.462 74.2107 57.462C74.2107 57.462 76.0164 57.4225 77.7941 57.3833C78.1587 57.3775 78.5205 57.3674 78.8676 57.3609C79.0747 56.6149 79.2645 55.914 79.4338 55.2411C80.1208 52.5362 80.6317 49.7895 80.9634 47.0184Z" fill="#FED600"/>
</g>
<defs>
<filter id="filter0_d_379_23277" x="0.34668" y="0.529297" width="120.617" height="133.033" filterUnits="userSpaceOnUse" color-interpolation-filters="sRGB">
<feFlood flood-opacity="0" result="BackgroundImageFix"/>
<feColorMatrix in="SourceAlpha" type="matrix" values="0 0 0 0 0 0 0 0 0 0 0 0 0 0 0 0 0 0 127 0" result="hardAlpha"/>
<feOffset/>
<feGaussianBlur stdDeviation="20"/>
<feComposite in2="hardAlpha" operator="out"/>
<feColorMatrix type="matrix" values="0 0 0 0 1 0 0 0 0 0.960784 0 0 0 0 0.00392157 0 0 0 1 0"/>
<feBlend mode="normal" in2="BackgroundImageFix" result="effect1_dropShadow_379_23277"/>
<feBlend mode="normal" in="SourceGraphic" in2="effect1_dropShadow_379_23277" result="shape"/>
</filter>
</defs>
</svg>
