<svg width="128" height="181" viewBox="0 0 128 181" fill="none" xmlns="http://www.w3.org/2000/svg">
<g filter="url(#filter0_d_175_543)">
<path d="M85.5563 78.5337C85.3963 81.5028 84.9823 87.1501 84.3142 95.4757C83.1302 110.227 81.8246 124.978 80.3972 139.729C69.031 141.201 57.5225 141.201 46.1562 139.729C43.9993 115.877 42.6752 100.894 42.1842 94.7817C41.7482 89.3657 41.4095 83.9497 41.1682 78.5337H85.5563Z" fill="#F4F4F5"/>
<path d="M81.3472 96.0562C80.3811 108.906 79.2741 122.709 78.0261 137.463C68.3928 138.841 58.6125 138.841 48.9791 137.463C47.149 115.145 46.025 101.127 45.6071 95.4072C45.1981 89.7822 44.8905 84.1579 44.6841 78.5342L82.4371 78.5332C82.4722 80.0342 82.1089 85.8752 81.3472 96.0562Z" fill="#FDB913"/>
<path d="M85.5563 78.5337H82.4373C82.4722 80.0357 82.1088 85.8764 81.3472 96.0557C80.3812 108.906 79.2743 122.708 78.0262 137.463C74.0592 138.066 70.0562 138.402 66.0442 138.47C65.7654 139.291 65.399 140.081 64.9512 140.824C70.0066 140.794 75.0551 140.444 80.0662 139.776C80.0852 139.773 80.1033 139.771 80.1212 139.768C80.1382 139.765 80.1563 139.763 80.1732 139.761L80.1832 139.759L80.2302 139.753L80.2393 139.751L80.2852 139.745L80.3013 139.743L80.3412 139.737L80.3971 139.729C81.8261 124.978 83.1317 110.227 84.3141 95.4757C84.9841 87.1507 85.3983 81.5034 85.5563 78.5337Z" fill="#E9E8E9"/>
<path d="M82.4377 78.5342L70.4526 78.5352C70.3586 110.55 68.8893 130.528 66.0447 138.469C70.0563 138.402 74.059 138.066 78.0256 137.463C79.2756 122.709 80.3827 108.907 81.3467 96.0562C82.1098 85.8762 82.4734 80.0355 82.4377 78.5342Z" fill="#F0C573"/>
<path d="M85.6731 70.7466C86.0012 70.7525 86.3158 70.8784 86.5575 71.1004C86.7992 71.3224 86.9512 71.6251 86.985 71.9516L87.5031 76.1976H40L40.5181 71.9516C40.552 71.6252 40.7041 71.3225 40.9458 71.1005C41.1875 70.8786 41.502 70.7527 41.8301 70.7466H48.671V70.7536H81.666V70.7466H85.6731Z" fill="#F4F4F5"/>
<path d="M63.7517 67.2422C67.8947 67.2422 72.039 67.4232 76.1847 67.7852C76.5678 67.8082 76.9321 67.959 77.2192 68.2136C77.5064 68.4681 77.6999 68.8116 77.7687 69.1892H49.7346C49.8037 68.8111 49.9979 68.4671 50.2859 68.2126C50.5738 67.958 50.9389 67.8075 51.3226 67.7852C55.4657 67.4232 59.6087 67.2422 63.7517 67.2422Z" fill="#F4F4F5"/>
<path d="M65.2972 78.5342H63.6233L54.1382 133.421L55.7693 133.92L65.2972 78.5342ZM62.4513 78.5342H60.7073L51.4053 132.584L53.0282 133.081L62.4513 78.5342Z" fill="#F9D48D"/>
<path d="M63.623 78.5337H62.451L53.0281 133.082L52.9971 133.262L54.1071 133.602L54.1381 133.422L63.623 78.5337Z" fill="#F3951F"/>
<path d="M66.6367 70.7466H64.9667L64.9657 70.7546H66.6356L66.6367 70.7466ZM63.7987 70.7466H62.0466L62.0447 70.7546H63.7977L63.7987 70.7466Z" fill="#E4E3E3"/>
<path d="M66.636 70.7549H64.9659L64.028 76.1979H62.856L63.797 70.7549H62.0449L61.1079 76.1979H65.699L66.636 70.7549Z" fill="#F3F3F3"/>
<path d="M64.9661 70.7466H63.7981L63.7971 70.7546H64.9651L64.9661 70.7466Z" fill="#E4A477"/>
<path d="M64.965 70.7549H63.797L62.856 76.1979H64.028L64.965 70.7549Z" fill="#F2B082"/>
<path d="M64.1429 67.2422C64.229 67.2432 64.316 67.2432 64.4019 67.2432H64.4178C64.3259 67.2432 64.2349 67.2432 64.1429 67.2422ZM63.342 67.2422C63.327 67.2432 63.311 67.2432 63.296 67.2432C63.312 67.2432 63.326 67.2432 63.342 67.2422ZM65.3669 67.2512C65.4269 67.2522 65.4869 67.2522 65.5479 67.2532C66.1089 67.2602 66.6703 67.2709 67.2319 67.2852V67.2842C66.6108 67.2692 65.9892 67.2582 65.3669 67.2512Z" fill="#E4E3E3"/>
<path d="M63.7516 67.2422H63.3986L63.3416 67.2432H63.2535L62.6456 67.2462L62.3147 69.1892H66.9056L67.2325 67.2852C66.6705 67.2712 66.1089 67.2605 65.5475 67.2532L65.5696 67.2542L65.2385 69.1882H64.0676L64.4016 67.2432H64.1437L64.1337 67.2422H63.7516Z" fill="#F3F3F3"/>
<path d="M64.4019 67.2437C64.7838 67.2457 65.1658 67.2491 65.5479 67.2537C65.4878 67.2527 65.4267 67.2517 65.3668 67.2517C65.0508 67.2477 64.7345 67.245 64.4178 67.2437L64.4019 67.2437Z" fill="#E4A477"/>
<path d="M64.402 67.2437L64.0669 69.1887H65.2389L65.5699 67.2537H65.548C65.1659 67.2486 64.7839 67.2453 64.402 67.2437Z" fill="#F2B082"/>
<path d="M67.3378 40L71.6987 41.3361L67.5017 65.734C66.2517 65.701 65.0017 65.6847 63.7517 65.6851C63.4757 65.6851 63.1948 65.686 62.9148 65.687L67.3378 40Z" fill="#F1F1F1"/>
<path d="M69.016 40.543L70.1299 40.882L65.839 65.7C65.449 65.694 65.0596 65.69 64.6709 65.688L69.016 40.543Z" fill="#EC7423"/>
</g>
<defs>
<filter id="filter0_d_175_543" x="0" y="0" width="127.503" height="180.833" filterUnits="userSpaceOnUse" color-interpolation-filters="sRGB">
<feFlood flood-opacity="0" result="BackgroundImageFix"/>
<feColorMatrix in="SourceAlpha" type="matrix" values="0 0 0 0 0 0 0 0 0 0 0 0 0 0 0 0 0 0 127 0" result="hardAlpha"/>
<feOffset/>
<feGaussianBlur stdDeviation="20"/>
<feComposite in2="hardAlpha" operator="out"/>
<feColorMatrix type="matrix" values="0 0 0 0 1 0 0 0 0 0.960784 0 0 0 0 0.00392157 0 0 0 1 0"/>
<feBlend mode="normal" in2="BackgroundImageFix" result="effect1_dropShadow_175_543"/>
<feBlend mode="normal" in="SourceGraphic" in2="effect1_dropShadow_175_543" result="shape"/>
</filter>
</defs>
</svg>
