<svg width="150" height="174" viewBox="0 0 150 174" fill="none" xmlns="http://www.w3.org/2000/svg">
<g filter="url(#filter0_d_254_43715)">
<path d="M74.0315 57.9304L44.1792 56.3633L49.8511 127.273C49.8511 127.273 53.3675 133.481 73.733 133.601V133.604C73.8338 133.604 73.9315 133.603 74.0315 133.602C74.1316 133.603 74.2292 133.604 74.3301 133.604V133.601C94.6955 133.481 98.212 127.273 98.212 127.273L103.884 56.3633L74.0315 57.9304Z" fill="#999999"/>
<path d="M74.0315 57.9304L44.1792 56.3633L44.4426 59.6566L62.6876 60.6144L92.5399 59.0473L87.3759 132.419C96.3326 130.587 98.212 127.273 98.212 127.273L103.884 56.3633L74.0315 57.9304Z" fill="#898787"/>
<path d="M44.1792 56.3633L44.486 60.1988C50.4358 61.7114 61.7045 62.694 74.6286 62.694C86.7247 62.694 97.3701 61.7737 103.563 60.3794L103.884 56.3634L74.0317 57.9306L44.1792 56.3633Z" fill="#696969"/>
<path d="M74.9273 129.726C73.9382 129.726 73.1362 128.925 73.1362 127.937V66.8005C73.1362 65.8124 73.9382 65.0112 74.9273 65.0112C75.9164 65.0112 76.7185 65.8124 76.7185 66.8005V127.937C76.7185 128.925 75.9164 129.726 74.9273 129.726Z" fill="#7C7C7C"/>
<path d="M64.391 129.397C63.4288 129.397 62.6335 128.634 62.6019 127.666L60.5991 66.5616C60.5668 65.574 61.3419 64.7471 62.3307 64.7148C63.3299 64.6827 64.1472 65.457 64.1795 66.4447L66.1823 127.549C66.2146 128.537 65.4395 129.364 64.4507 129.396C64.4306 129.397 64.4106 129.397 64.391 129.397Z" fill="#7C7C7C"/>
<path d="M54.6257 127.009C53.7059 127.009 52.9328 126.294 52.8742 125.364L49.1388 66.0606C49.0779 65.0933 49.8133 64.2597 50.7816 64.1989C51.7482 64.1376 52.5843 64.8727 52.6452 65.8401L56.3807 125.143C56.4416 126.111 55.7061 126.944 54.7378 127.005C54.7001 127.008 54.6629 127.009 54.6257 127.009Z" fill="#7C7C7C"/>
<path d="M84.3278 129.397C84.308 129.397 84.2882 129.396 84.2682 129.396C83.2795 129.363 82.5043 128.536 82.5366 127.549L84.5394 66.4441C84.5717 65.4565 85.3997 64.6757 86.3882 64.7143C87.3768 64.7465 88.1521 65.5734 88.1198 66.5611L86.117 127.666C86.0853 128.633 85.2901 129.397 84.3278 129.397Z" fill="#7C7C7C"/>
<path d="M94.093 127.009C94.0557 127.009 94.0185 127.007 93.9808 127.005C93.0125 126.944 92.2771 126.111 92.338 125.143L96.0735 65.84C96.1345 64.8726 96.9692 64.1384 97.9371 64.1988C98.9053 64.2596 99.641 65.0932 99.5799 66.0605L95.8444 125.364C95.7859 126.294 95.0127 127.009 94.093 127.009Z" fill="#7C7C7C"/>
<path d="M40 55.3189C40 58.1564 55.5038 60.3076 74.6288 60.3076C93.7538 60.3076 109.258 58.0073 109.258 55.1698V48.6089H40V55.3189Z" fill="#999999"/>
<path d="M74.6288 53.7472C93.7537 53.7472 109.258 51.447 109.258 48.6094C109.258 45.7719 93.7537 43.4717 74.6288 43.4717C55.5038 43.4717 40 45.7719 40 48.6094C40 51.447 55.5038 53.7472 74.6288 53.7472Z" fill="#B3B3B3"/>
<path d="M40 48.6094C40 49.075 40.4197 49.5258 41.2018 49.9546C47.1059 50.6487 54.5703 51.0632 62.6877 51.0632C81.8128 51.0632 97.3165 48.7629 97.3165 45.9254C97.3165 45.4599 96.8968 45.0091 96.1147 44.5803C90.2106 43.8862 82.7462 43.4717 74.6286 43.4717C55.5039 43.4717 40 45.772 40 48.6094Z" fill="#C9C9C9"/>
<g opacity="0.61">
<path d="M40 48.6958C40.1078 49.3147 42.242 53.2237 75.2098 53.2773C97.8772 53.3141 108.028 51.2497 109.252 48.6958C109.343 49.5235 105.936 54.3822 75.3375 54.4564C49.4974 54.5192 40.3303 51.1291 40 48.6958Z" fill="white"/>
</g>
<path d="M68.3203 49.4645H80.937V48.46H68.3547L68.3203 49.4645Z" fill="#999999"/>
<path d="M85.0773 49.4645H80.9374V42.3073H68.3207V49.4645H64.1807V48.3504H66.3097V40H82.9483V48.3504H85.0773V49.4645Z" fill="#696969"/>
<path d="M66.3093 40H82.9479V41.1536H66.27L66.3093 40Z" fill="#898787"/>
</g>
<defs>
<filter id="filter0_d_254_43715" x="0" y="0" width="149.257" height="173.604" filterUnits="userSpaceOnUse" color-interpolation-filters="sRGB">
<feFlood flood-opacity="0" result="BackgroundImageFix"/>
<feColorMatrix in="SourceAlpha" type="matrix" values="0 0 0 0 0 0 0 0 0 0 0 0 0 0 0 0 0 0 127 0" result="hardAlpha"/>
<feOffset/>
<feGaussianBlur stdDeviation="20"/>
<feComposite in2="hardAlpha" operator="out"/>
<feColorMatrix type="matrix" values="0 0 0 0 1 0 0 0 0 0.960784 0 0 0 0 0.00392157 0 0 0 1 0"/>
<feBlend mode="normal" in2="BackgroundImageFix" result="effect1_dropShadow_254_43715"/>
<feBlend mode="normal" in="SourceGraphic" in2="effect1_dropShadow_254_43715" result="shape"/>
</filter>
</defs>
</svg>
