<svg width="70" height="94" viewBox="0 0 70 94" fill="none" xmlns="http://www.w3.org/2000/svg">
<path d="M34.0318 17.9304L4.17944 16.3633L9.85134 87.2726C9.85134 87.2726 13.3678 93.4811 33.7332 93.6009V93.6038C33.8341 93.6038 33.9317 93.6026 34.0318 93.6023C34.1318 93.6026 34.2295 93.6038 34.3303 93.6038V93.6009C54.6958 93.4811 58.2122 87.2726 58.2122 87.2726L63.8841 16.3633L34.0318 17.9304Z" fill="#999999"/>
<path d="M34.0318 17.9304L4.17944 16.3633L4.44283 19.6566L22.6878 20.6144L52.5401 19.0473L47.3761 92.4192C56.3329 90.587 58.2122 87.2725 58.2122 87.2725L63.8841 16.3633L34.0318 17.9304Z" fill="#898787"/>
<path d="M4.17944 16.3633L4.48625 20.1988C10.436 21.7114 21.7047 22.694 34.6288 22.694C46.7249 22.694 57.3704 21.7737 63.563 20.3794L63.8843 16.3634L34.0319 17.9306L4.17944 16.3633Z" fill="#696969"/>
<path d="M34.9273 89.7261C33.9382 89.7261 33.1362 88.925 33.1362 87.9368V26.8005C33.1362 25.8124 33.9382 25.0112 34.9273 25.0112C35.9164 25.0112 36.7185 25.8124 36.7185 26.8005V87.9368C36.7185 88.925 35.9164 89.7261 34.9273 89.7261Z" fill="#7C7C7C"/>
<path d="M24.391 89.397C23.4288 89.397 22.6335 88.634 22.6019 87.6662L20.5991 26.5616C20.5668 25.574 21.3419 24.7471 22.3307 24.7148C23.3299 24.6827 24.1472 25.457 24.1795 26.4447L26.1823 87.5492C26.2146 88.5369 25.4395 89.3638 24.4507 89.3962C24.4306 89.3966 24.4106 89.397 24.391 89.397Z" fill="#7C7C7C"/>
<path d="M14.6259 87.0086C13.7062 87.0086 12.933 86.2936 12.8745 85.3638L9.13902 26.0606C9.07811 25.0933 9.81356 24.2597 10.7819 24.1989C11.7484 24.1376 12.5845 24.8727 12.6454 25.8401L16.3809 85.1434C16.4418 86.1107 15.7064 86.9443 14.7381 87.0051C14.7004 87.0075 14.6632 87.0086 14.6259 87.0086Z" fill="#7C7C7C"/>
<path d="M44.3278 89.397C44.308 89.397 44.2882 89.3967 44.2682 89.3961C43.2795 89.3637 42.5043 88.537 42.5366 87.5491L44.5394 26.4446C44.5717 25.4569 45.3997 24.6761 46.3882 24.7148C47.3768 24.747 48.1521 25.5739 48.1198 26.5616L46.117 87.6661C46.0853 88.6339 45.2901 89.397 44.3278 89.397Z" fill="#7C7C7C"/>
<path d="M54.093 87.0085C54.0557 87.0085 54.0185 87.0074 53.9808 87.005C53.0125 86.9442 52.2771 86.1106 52.338 85.1433L56.0735 25.84C56.1345 24.8726 56.9692 24.1384 57.9371 24.1988C58.9053 24.2596 59.641 25.0932 59.5799 26.0605L55.8444 85.3637C55.7859 86.2935 55.0127 87.0085 54.093 87.0085Z" fill="#7C7C7C"/>
<path d="M0 15.3189C0 18.1564 15.5038 20.3076 34.6288 20.3076C53.7538 20.3076 69.2575 18.0073 69.2575 15.1698V8.60889H0V15.3189Z" fill="#999999"/>
<path d="M34.6288 13.7472C53.7537 13.7472 69.2575 11.447 69.2575 8.60944C69.2575 5.77193 53.7537 3.47168 34.6288 3.47168C15.5038 3.47168 0 5.77193 0 8.60944C0 11.447 15.5038 13.7472 34.6288 13.7472Z" fill="#B3B3B3"/>
<path d="M0 8.60944C0 9.075 0.419734 9.52577 1.20178 9.95462C7.10589 10.6487 14.5703 11.0632 22.6877 11.0632C41.8128 11.0632 57.3165 8.76293 57.3165 5.92544C57.3165 5.45989 56.8968 5.00911 56.1147 4.58027C50.2106 3.88623 42.7462 3.47168 34.6286 3.47168C15.5039 3.47168 0 5.77195 0 8.60944Z" fill="#C9C9C9"/>
<g opacity="0.61">
<path d="M0 8.6958C0.107836 9.31468 2.24197 13.2237 35.2098 13.2773C57.8772 13.3141 68.0276 11.2497 69.2524 8.6958C69.3433 9.52347 65.9356 14.3822 35.3375 14.4564C9.49737 14.5192 0.330348 11.1291 0 8.6958Z" fill="white"/>
</g>
<path d="M28.3206 9.46447H40.9372V8.45996H28.3549L28.3206 9.46447Z" fill="#999999"/>
<path d="M45.0771 9.46455H40.9372V2.30727H28.3205V9.46455H24.1804V8.3504H26.3095V0H42.948V8.3504H45.0771V9.46455Z" fill="#696969"/>
<path d="M26.3096 0H42.9481V1.15356H26.2703L26.3096 0Z" fill="#898787"/>
</svg>
