<svg width="154" height="181" viewBox="0 0 154 181" fill="none" xmlns="http://www.w3.org/2000/svg">
<g filter="url(#filter0_d_289_121307)">
<path d="M79.5183 140.411L45.1469 128.902C41.7661 127.77 39.9262 124.078 41.0582 120.697L66.3553 45.147C67.4873 41.7662 71.1798 39.9262 74.5605 41.0582L108.932 52.5671C112.313 53.6991 114.153 57.3915 113.021 60.7723L87.7235 136.322C86.5915 139.703 82.8991 141.543 79.5183 140.411Z" fill="#254F36"/>
<path d="M110.512 60.58L85.8016 134.379C84.9633 136.883 82.2437 138.25 79.7591 137.418L46.7558 126.367C44.2713 125.535 42.924 122.806 43.7623 120.303L68.473 46.5037C69.3113 44 72.03 42.6329 74.5146 43.4648L107.518 54.5156C110.002 55.3474 111.351 58.0763 110.512 60.58Z" fill="#D3FBC0"/>
<path d="M107.518 54.5151L47.1642 126.503L46.7559 126.366C44.2714 125.535 42.9241 122.806 43.7624 120.302L68.4731 46.5033C69.3114 43.9996 72.0301 42.6325 74.5147 43.4644L107.518 54.5151Z" fill="#BDEEA6"/>
<path d="M96.9956 54.0441L83.2019 49.4255C82.0784 49.0493 81.4669 47.8222 81.8431 46.6986L81.9507 46.3774C82.3269 45.2538 83.554 44.6423 84.6775 45.0185L98.4712 49.6371C99.5947 50.0133 100.206 51.2405 99.83 52.3641L99.7225 52.6852C99.3463 53.8088 98.1191 54.4204 96.9956 54.0441Z" fill="#254F36"/>
<path d="M95.3442 91.9685C96.4403 88.6949 96.5256 85.1647 95.5894 81.8241C94.6531 78.4836 92.7373 75.4829 90.0843 73.2014C87.4313 70.9199 84.1602 69.4601 80.6846 69.0066C77.209 68.5531 73.6851 69.1263 70.5584 70.6536C67.4318 72.181 64.8429 74.594 63.119 77.5874C61.3952 80.5808 60.6139 84.0203 60.8739 87.4708C61.1339 90.9213 62.4236 94.2279 64.5798 96.9724C66.736 99.717 69.6619 101.776 72.9875 102.89C75.1957 103.629 77.5255 103.933 79.8441 103.784C82.1627 103.636 84.4245 103.037 86.5006 102.023C88.5766 101.009 90.4261 99.5991 91.9435 97.8739C93.4609 96.1487 94.6164 94.142 95.3442 91.9685Z" fill="#264F36"/>
<path d="M84.9432 78.0369C83.9023 78.3337 83.0159 79.0066 82.4595 79.9224C81.903 80.8383 81.717 81.9303 81.9383 82.9824L84.8748 96.9687C84.8845 97.0137 84.9036 97.0562 84.9308 97.0936C84.9581 97.1311 84.9928 97.1626 85.0328 97.1862C85.0729 97.2098 85.1174 97.225 85.1636 97.2308C85.2097 97.2366 85.2565 97.2329 85.3009 97.2199C86.3418 96.9231 87.2281 96.2502 87.7846 95.3343C88.3411 94.4184 88.5271 93.3264 88.3058 92.2742L85.3692 78.2883C85.3595 78.2433 85.3404 78.2008 85.3132 78.1633C85.286 78.1258 85.2513 78.0943 85.2112 78.0707C85.1712 78.047 85.1267 78.0318 85.0805 78.026C85.0344 78.0202 84.9876 78.0239 84.9432 78.0369Z" fill="#F47920"/>
<path d="M78.0916 75.7429C77.0508 76.0397 76.1644 76.7126 75.608 77.6285C75.0515 78.5443 74.8655 79.6364 75.0868 80.6884L78.0232 94.6748C78.033 94.7197 78.0521 94.7623 78.0793 94.7997C78.1065 94.8371 78.1413 94.8686 78.1813 94.8923C78.2214 94.9159 78.2659 94.9311 78.312 94.9369C78.3582 94.9427 78.4049 94.939 78.4494 94.926C79.4902 94.6292 80.3766 93.9562 80.9331 93.0404C81.4895 92.1245 81.6755 91.0324 81.4542 89.9803L78.5178 75.9944C78.5081 75.9494 78.489 75.9068 78.4618 75.8694C78.4345 75.8319 78.3998 75.8004 78.3597 75.7767C78.3197 75.7531 78.2752 75.7379 78.229 75.7321C78.1829 75.7263 78.1361 75.73 78.0916 75.7429Z" fill="#F47920"/>
<path d="M71.5917 83.7155C70.7806 83.4439 69.9084 83.4151 69.0854 83.6329C68.2625 83.8506 67.5258 84.3051 66.9684 84.9388C66.411 85.5725 66.0581 86.357 65.9541 87.193C65.8501 88.0291 65.9998 88.8791 66.3843 89.6357C66.7688 90.3923 67.3709 91.0215 68.1142 91.4436C68.8576 91.8657 69.7089 92.0619 70.5606 92.0073C71.4123 91.9526 72.226 91.6497 72.8989 91.1367C73.5718 90.6238 74.0737 89.9238 74.341 89.1254C74.6995 88.0548 74.6112 86.8834 74.0956 85.8688C73.58 84.8542 72.6793 84.0797 71.5917 83.7155Z" fill="#F04E23"/>
</g>
<defs>
<filter id="filter0_d_289_121307" x="0.724182" y="0.724121" width="152.63" height="180.021" filterUnits="userSpaceOnUse" color-interpolation-filters="sRGB">
<feFlood flood-opacity="0" result="BackgroundImageFix"/>
<feColorMatrix in="SourceAlpha" type="matrix" values="0 0 0 0 0 0 0 0 0 0 0 0 0 0 0 0 0 0 127 0" result="hardAlpha"/>
<feOffset/>
<feGaussianBlur stdDeviation="20"/>
<feComposite in2="hardAlpha" operator="out"/>
<feColorMatrix type="matrix" values="0 0 0 0 1 0 0 0 0 0.960784 0 0 0 0 0.00392157 0 0 0 1 0"/>
<feBlend mode="normal" in2="BackgroundImageFix" result="effect1_dropShadow_289_121307"/>
<feBlend mode="normal" in="SourceGraphic" in2="effect1_dropShadow_289_121307" result="shape"/>
</filter>
</defs>
</svg>
