<svg width="166" height="209" viewBox="0 0 166 209" fill="none" xmlns="http://www.w3.org/2000/svg">
<g filter="url(#filter0_d_585_1116)">
<path d="M81.3105 108.14C81.3105 108.14 74.2084 105.618 75.8333 99.8569C77.4582 94.0958 81.7504 94.4158 86.1819 95.7964C90.6134 97.1769 95.2423 97.3396 95.6481 97.1769C91.6692 105.46 92.1559 107.572 86.7965 108.14C81.4371 108.708 81.3105 108.14 81.3105 108.14Z" fill="#5CAA2E"/>
<path d="M79.4877 69.1604C79.4877 69.1604 74.1283 68.3483 66.8192 61.121C59.5102 53.8936 59.3482 45.2041 58.3734 43.0931C64.7886 42.6874 74.8587 42.6874 78.9193 53.9753C82.9798 65.2625 79.4877 69.1604 79.4877 69.1604Z" fill="#5CAA2E"/>
<path d="M79.9748 67.1614C79.9165 66.6278 79.713 65.9944 79.5048 65.4227C79.2825 64.8409 79.0315 64.2651 78.7449 63.7047C78.1779 62.5806 77.5278 61.4927 76.8228 60.4389C75.4128 58.3306 73.8046 56.3502 72.1201 54.4428C70.4276 52.5407 68.6387 50.7203 66.7165 49.0485C65.7571 48.2117 64.7623 47.4129 63.7151 46.6859C62.668 45.9655 61.5834 45.2732 60.3904 44.8159C61.5935 45.2484 62.6948 45.9199 63.7593 46.6202C64.8239 47.3272 65.8388 48.1072 66.819 48.9274C68.7826 50.565 70.6158 52.3546 72.3545 54.2285C74.0932 56.1025 75.7643 58.0487 77.2472 60.147C77.9891 61.1954 78.6793 62.2834 79.2912 63.4222C79.8864 64.5818 80.4568 65.7146 80.6885 67.1179L79.9748 67.1614Z" fill="#506815"/>
<path d="M63.6881 43.2344C64.3871 43.9099 64.906 44.7535 65.3237 45.6312C65.7261 46.5183 66.0147 47.457 66.1948 48.4144L66.2195 48.5469L66.0863 48.5161C65.6196 48.4083 65.1182 48.4378 64.6308 48.4934C64.1414 48.5523 63.654 48.6433 63.1699 48.7511C62.2032 48.9721 61.2444 49.2439 60.2991 49.5565C61.2237 49.185 62.1697 48.8656 63.1385 48.6206C63.6212 48.4913 64.1139 48.399 64.6114 48.3333C65.1081 48.2717 65.6176 48.2322 66.1278 48.3441L66.02 48.4458C65.9249 47.9745 65.8259 47.5038 65.6846 47.0439C65.5534 46.5806 65.3753 46.1333 65.1952 45.6881C65.003 45.2469 64.7868 44.8164 64.5364 44.4047C64.29 43.9916 64.0182 43.5892 63.6881 43.2344Z" fill="#506815"/>
<path d="M67.6714 44.229C68.286 44.535 68.7259 45.1061 69.0526 45.6999C69.3646 46.3085 69.5869 46.9653 69.706 47.6381C69.7837 47.9716 69.8071 48.3137 69.86 48.6518C69.8788 48.9925 69.9116 49.3333 69.9189 49.6741C69.9317 50.357 69.9029 51.0392 69.846 51.7195L69.8379 51.8179L69.7388 51.7964C69.0312 51.6425 68.3148 51.5079 67.587 51.4891C66.862 51.4483 66.1322 51.4878 65.4125 51.5902C64.6914 51.6873 63.9791 51.8513 63.2855 52.073C62.5892 52.2872 61.9069 52.5557 61.2635 52.9038C62.5276 52.1667 63.9436 51.6893 65.3957 51.4751C66.1208 51.3619 66.8579 51.3124 67.5931 51.3445C68.3302 51.3546 69.0586 51.4804 69.7797 51.6277L69.6726 51.7041L69.7449 50.6918C69.7643 50.3543 69.7589 50.0162 69.7676 49.6781C69.7656 49.34 69.7382 49.0033 69.7255 48.6652C69.6786 48.3311 69.6605 47.9916 69.5889 47.6622C69.4811 46.9954 69.2715 46.3467 68.9743 45.7428C68.677 45.1449 68.2706 44.5617 67.6714 44.229Z" fill="#506815"/>
<path d="M72.5756 46.0161C73.4239 47.3705 73.8169 48.9773 73.8872 50.5701C73.9019 51.3682 73.8778 52.1742 73.7259 52.9609C73.6007 53.7523 73.375 54.5235 73.1106 55.2794L73.0838 55.3557L73.0041 55.333C72.2449 55.1147 71.4281 55.1294 70.6334 55.1864C69.834 55.2513 69.04 55.3839 68.2526 55.5492C66.6806 55.8907 65.1274 56.3292 63.6002 56.8441C65.1059 56.2676 66.6505 55.7842 68.2279 55.4354C69.0165 55.26 69.8132 55.1174 70.6207 55.0417C71.4254 54.9755 72.2516 54.9467 73.053 55.1656L72.9465 55.2192C73.061 54.8409 73.2056 54.472 73.3114 54.091C73.3998 53.7061 73.5243 53.3285 73.5759 52.9355C73.7366 52.1595 73.77 51.3648 73.766 50.5748C73.7466 49.7834 73.6314 48.9954 73.4366 48.2282C73.2472 47.4596 72.9787 46.703 72.5756 46.0161Z" fill="#506815"/>
<path d="M77.5022 50.4702C77.5839 52.0201 77.5758 53.5761 77.4553 55.126C77.4011 55.9013 77.3094 56.6745 77.1708 57.4418C77.0255 58.205 76.8548 58.979 76.4732 59.68L76.4417 59.7382L76.3747 59.7221C75.6952 59.5615 74.9674 59.5909 74.2598 59.6579C73.5488 59.7288 72.8397 59.8386 72.1368 59.9772C70.7321 60.2624 69.3362 60.6052 67.9543 60.9982C69.3175 60.543 70.704 60.156 72.1133 59.8634C72.817 59.7141 73.528 59.5943 74.245 59.5132C74.9607 59.4376 75.6925 59.3927 76.4189 59.5534L76.3205 59.5956C76.6787 58.9254 76.8722 58.1675 77.0215 57.4137C77.1681 56.6565 77.2705 55.8879 77.3348 55.1166C77.4634 53.5734 77.5102 52.0215 77.5022 50.4702Z" fill="#506815"/>
<path d="M83.4264 88.9751C83.4264 88.9751 79.9228 78.2556 86.1814 74.3577C92.4399 70.4599 99.2616 74.114 103.647 70.9473C102.55 80.0834 100.955 81.6821 97.3796 84.2249C93.8044 86.7664 83.4264 88.9751 83.4264 88.9751Z" fill="#1C5E1C"/>
<path d="M78.5132 91.2897C78.5132 91.2897 68.565 92.0208 63.0831 82.641C57.6018 73.2612 63.936 65.1722 64.6665 60.6289C72.7059 63.3946 79.249 69.4818 80.8833 76.837C82.5175 84.1922 78.9604 90.4367 78.5132 91.2897Z" fill="#1C5E1C"/>
<path d="M78.2123 90.9738C77.6051 90.5506 77.1947 90.0853 76.7541 89.5926C76.327 89.1018 75.9407 88.5843 75.5711 88.0567C74.8347 87.0002 74.1839 85.8949 73.5733 84.7708C72.3695 82.5125 71.3566 80.1673 70.4353 77.7925C69.5121 75.4178 68.696 72.9995 68.0546 70.5337C67.7359 69.3011 67.456 68.0565 67.2599 66.7985C67.0691 65.5419 66.9151 64.2685 66.9927 62.9971C66.9398 64.2691 67.1193 65.5365 67.3342 66.7858C67.5544 68.0371 67.8584 69.2717 68.1998 70.4942C68.8881 72.9393 69.7484 75.3327 70.7152 77.68C71.688 80.024 72.7592 82.3298 74.0045 84.5318C74.6358 85.6271 75.3053 86.6996 76.0498 87.7119C76.4227 88.2167 76.811 88.7102 77.2315 89.1681C77.6426 89.6153 78.1119 90.0853 78.5585 90.3799L78.2123 90.9738Z" fill="#506815"/>
<path d="M64.4614 65.3583C64.6342 65.7989 64.8671 66.212 65.1202 66.6083C65.3673 67.0087 65.6424 67.3916 65.9404 67.7552C66.2443 68.1134 66.5576 68.4655 66.9038 68.7835C67.2412 69.1109 67.6101 69.4028 67.977 69.6954L67.8431 69.749C67.9335 69.2535 68.1511 68.809 68.3821 68.3818C68.6171 67.9554 68.8788 67.5463 69.16 67.1513C69.7144 66.3559 70.335 65.6108 70.9965 64.9058C70.3825 65.6516 69.7981 66.4215 69.2524 67.2149C68.9806 67.6126 68.7295 68.0237 68.5059 68.4475C68.2863 68.8706 68.0835 69.3131 68.0091 69.7744L67.9864 69.9143L67.8746 69.828C67.1214 69.2455 66.4425 68.5693 65.8493 67.8268C65.2642 67.0817 64.758 66.2595 64.4614 65.3583Z" fill="#506815"/>
<path d="M62.5094 68.0609C62.7839 68.8188 63.1976 69.5178 63.6683 70.1659C64.1363 70.8173 64.6712 71.4205 65.2671 71.9568C65.873 72.4797 66.5057 72.9778 67.2053 73.3708C67.5401 73.5911 67.9117 73.7484 68.2638 73.9372C68.6247 74.1106 69.0016 74.2472 69.3665 74.4125L69.254 74.4775C69.3899 73.7738 69.5479 73.0715 69.801 72.4007C70.034 71.7231 70.3453 71.0744 70.6975 70.4524C71.4025 69.2091 72.3257 68.0803 73.4451 67.1973C72.8995 67.6552 72.4168 68.1834 71.9789 68.7418C71.537 69.2968 71.134 69.8847 70.7952 70.508C70.4538 71.1286 70.1545 71.7747 69.9329 72.4475C69.6912 73.1144 69.5446 73.8093 69.4194 74.5049L69.4006 74.608L69.3062 74.5699C68.555 74.2673 67.8179 73.9251 67.129 73.4967C66.4267 73.0903 65.7927 72.5788 65.1874 72.0432C64.0091 70.9411 63.0182 69.5961 62.5094 68.0609Z" fill="#506815"/>
<path d="M61.9546 73.5887C62.533 74.289 63.1838 74.925 63.8687 75.5175C64.5503 76.1134 65.2747 76.6617 66.0446 77.1357C66.8125 77.6117 67.626 78.0175 68.4763 78.3187C69.3245 78.6281 70.213 78.8128 71.1081 78.8952L71.0184 78.9688C71.1235 78.1708 71.4395 77.4343 71.7843 76.7287C72.1391 76.0243 72.5482 75.3522 72.984 74.6987C73.8557 73.3912 74.8366 72.1606 75.8897 70.999C74.8841 72.2015 73.9401 73.4554 73.0778 74.7603C72.6513 75.4158 72.2523 76.09 71.9095 76.7909C71.5767 77.4919 71.2755 78.2243 71.1844 78.9889L71.175 79.0693L71.0947 79.0626C69.2623 78.9106 67.5175 78.2076 65.983 77.2341C64.4445 76.2573 63.0753 75.0181 61.9546 73.5887Z" fill="#506815"/>
<path d="M65.4625 81.0746C66.7466 81.7287 68.0549 82.3352 69.3905 82.8682C70.06 83.1299 70.7396 83.3683 71.4319 83.5531C72.1221 83.7338 72.8358 83.8778 73.5368 83.8309L73.4611 83.9026C73.6037 83.1346 73.9974 82.4725 74.3971 81.8385C74.8062 81.2058 75.2614 80.6073 75.7334 80.0234C76.6781 78.8565 77.7058 77.7598 78.7837 76.7188C77.75 77.804 76.7571 78.9268 75.8205 80.0937C75.3572 80.6802 74.9113 81.2821 74.5143 81.9135C74.1266 82.5428 73.749 83.2103 73.6265 83.9267L73.6151 83.9936L73.5508 83.9983C72.8084 84.0539 72.0893 83.8825 71.3924 83.6943C70.6947 83.4982 70.0152 83.2485 69.3463 82.9766C68.0093 82.4337 66.7138 81.7916 65.4625 81.0746Z" fill="#506815"/>
<path d="M86.6548 101.672C86.6548 101.672 89.4754 93.379 100.174 91.1676C107.815 89.5882 116.497 89.6451 119.116 91.9596C121.735 94.2741 122.892 98.964 124.11 99.0858C122.771 100.426 121.187 101.4 116.924 104.506C112.66 107.613 103.22 108.465 97.7994 107.369C92.3784 106.272 86.6548 101.672 86.6548 101.672Z" fill="#1C5E1C"/>
<path d="M78.513 106.76C78.5619 106.428 75.1835 98.0703 66.9004 95.7967C58.6173 93.523 50.3341 97.1772 48.5472 101.278C46.7603 105.379 46.923 107.409 44.7303 108.302C48.7909 109.196 48.4662 111.713 55.0434 113.743C61.622 115.774 76.7268 118.86 78.513 106.76Z" fill="#1C5E1C"/>
<path d="M77.9446 83.0467C77.9446 83.0467 69.7424 70.3782 60.4852 66.2367C51.2272 62.0951 43.3505 67.658 40.0002 72.6519C42.8631 72.7128 45.8471 74.8445 51.0244 78.7424C56.201 82.6409 71.5494 88.9343 77.9446 83.0467Z" fill="#347A34"/>
<path d="M87.4453 76.185C87.4453 76.185 90.7339 65.1 104.377 61.8114C118.02 58.5228 123.745 62.7862 125.085 66.1967C121.309 67.5363 118.263 70.8256 111.442 73.9924C104.621 77.1592 91.8915 77.3419 87.4453 76.185Z" fill="#388C38"/>
<path d="M78.514 127.467C78.514 127.467 82.6054 119.729 80.8841 101.671C79.1628 83.6148 78.4899 68.5817 80.6538 60.6279C80.625 70.459 80.1784 72.0015 80.5031 77.1581C80.8279 82.3146 82.2492 97.8251 83.1423 104.566C84.0355 111.306 82.7366 123.893 81.3561 128.035C79.0008 129.335 78.514 127.467 78.514 127.467Z" fill="#506815"/>
<path d="M80.3947 67.2116C80.3947 67.2116 75.6037 67.2116 73.3293 62.6643C71.0557 58.1164 74.1415 47.3159 79.8262 43.499C85.511 39.6822 89.0842 40.0069 89.0842 40.0069C89.0842 40.0069 95.4184 45.4413 94.1189 53.6059C92.8194 61.7705 87.0536 66.4805 80.3947 67.2116Z" fill="#388C38"/>
<path d="M80.8842 94.2127C80.8842 94.2127 75.7504 95.3086 75.0809 91.4108C74.412 87.5129 84.8878 85.9295 89.8823 86.1725C94.8769 86.4163 95.851 87.0503 97.3132 92.9453C94.8769 91.2883 93.5372 90.1923 90.7353 91.8975C87.9334 93.6034 86.0193 95.4513 80.8842 94.2127Z" fill="#388C38"/>
<path d="M79.6271 82.7105C80.948 81.1251 82.4075 79.7687 83.9501 78.4766C85.4866 77.1864 87.1195 76.0188 88.8047 74.9409C90.4791 73.8422 92.2486 72.9049 94.0275 71.9971C94.938 71.586 95.8345 71.1441 96.7564 70.7618C97.6877 70.4016 98.5962 69.9845 99.5449 69.6725C103.305 68.3376 107.146 67.2764 111.042 66.4576C112.994 66.0706 114.96 65.7466 116.941 65.5611C118.918 65.3917 120.924 65.2813 122.892 65.5872C120.92 65.3221 118.922 65.4727 116.954 65.6823C114.982 65.9079 113.03 66.2708 111.093 66.6959C107.232 67.5904 103.416 68.7292 99.7156 70.1292C98.7817 70.4572 97.8899 70.8897 96.976 71.2646C96.0708 71.6617 95.1931 72.1176 94.3013 72.5421C92.5613 73.476 90.8333 74.4368 89.2057 75.5535C87.5668 76.6495 85.984 77.8312 84.5031 79.1267C83.0255 80.4114 81.5954 81.8087 80.4017 83.3024L79.6271 82.7105Z" fill="#506815"/>
<path d="M118.588 62.5414C118.061 62.5722 117.576 62.8066 117.126 63.061C116.673 63.3174 116.245 63.6173 115.847 63.9548C115.447 64.2882 115.062 64.6397 114.696 65.0119C114.329 65.3842 113.987 65.7785 113.641 66.1708L113.581 65.9767C114.533 66.2538 115.417 66.6944 116.247 67.2099C117.076 67.7268 117.859 68.3126 118.589 68.9566C117.807 68.3789 116.99 67.8513 116.154 67.3659C115.312 66.8946 114.443 66.4554 113.519 66.2083L113.334 66.1588L113.458 66.0142C113.804 65.6138 114.163 65.2262 114.538 64.8532C114.917 64.4843 115.304 64.1228 115.729 63.8041C116.147 63.4794 116.597 63.1929 117.07 62.9525C117.545 62.7289 118.057 62.5307 118.588 62.5414Z" fill="#506815"/>
<path d="M113.55 61.8101C112.327 62.6202 111.184 63.5394 110.091 64.5088C109.549 64.9996 109.009 65.493 108.502 66.0179C107.984 66.5341 107.504 67.0838 107.022 67.6321L106.962 67.4379C107.625 67.6234 108.253 67.8812 108.877 68.1483C109.5 68.4168 110.116 68.7006 110.719 69.0079C111.932 69.6098 113.119 70.2612 114.285 70.9468C113.078 70.3362 111.863 69.7444 110.64 69.1726C109.413 68.6183 108.184 68.0325 106.9 67.6716L106.716 67.62L106.839 67.4774C107.801 66.3627 108.845 65.3183 109.965 64.3656C111.087 63.4155 112.276 62.5412 113.55 61.8101Z" fill="#506815"/>
<path d="M106.488 62.0142C105.734 62.3569 105.046 62.8303 104.416 63.3592C103.782 63.8848 103.209 64.482 102.718 65.1401C101.72 66.447 101.052 67.9848 100.714 69.5896L100.622 69.447C102.053 69.7885 103.393 70.4345 104.586 71.2714C105.781 72.1056 106.863 73.0958 107.789 74.2126C106.8 73.1528 105.682 72.2208 104.484 71.4221C103.883 71.023 103.251 70.6769 102.602 70.3716C101.951 70.067 101.266 69.8494 100.571 69.682L100.454 69.6539L100.479 69.5394C100.829 67.9052 101.525 66.3338 102.567 65.0223C103.605 63.7167 104.951 62.6408 106.488 62.0142Z" fill="#506815"/>
<path d="M98.6101 64.7749C98.0089 65.2884 97.4452 65.8441 96.9096 66.4232C96.3693 66.9977 95.8605 67.6009 95.4032 68.2403C94.4994 69.5036 93.7107 70.9518 93.6919 72.5091L93.6009 72.3926C94.6882 72.6865 95.7212 73.1551 96.6579 73.7657C97.5985 74.3696 98.4642 75.086 99.2207 75.9001C98.4046 75.1462 97.5055 74.4901 96.5621 73.9204C95.6154 73.3566 94.6065 72.892 93.5426 72.6255L93.4509 72.6028L93.4516 72.5091C93.4576 71.6936 93.6819 70.8996 94.0126 70.1718C94.3414 69.4407 94.7679 68.7591 95.2492 68.1258C96.214 66.8591 97.3595 65.7437 98.6101 64.7749Z" fill="#506815"/>
<path d="M82.3964 105.151C83.5171 103.519 85.0135 102.568 86.562 101.684C88.1213 100.837 89.7623 100.17 91.4407 99.6547C94.7963 98.6042 98.2717 98.0787 101.739 97.7412C105.207 97.4092 108.694 97.2418 112.177 97.3362C113.918 97.3824 115.659 97.4942 117.385 97.7232C119.107 97.9588 120.838 98.2527 122.468 98.8687C120.827 98.2869 119.094 98.0285 117.373 97.8289C115.647 97.6355 113.909 97.5598 112.174 97.5491C108.701 97.5257 105.232 97.7627 101.785 98.1637C98.3454 98.5815 94.9181 99.1968 91.6556 100.31C90.024 100.857 88.4447 101.55 86.9698 102.4C86.2246 102.814 85.5384 103.314 84.8782 103.833C84.5642 104.11 84.2476 104.383 83.9664 104.685C83.6919 104.975 83.4006 105.321 83.2399 105.603L82.3964 105.151Z" fill="#506815"/>
<path d="M118.906 95.0929C118.392 95.0166 117.877 95.1411 117.391 95.2924C116.903 95.4451 116.428 95.6439 115.975 95.8863C115.521 96.1233 115.077 96.3824 114.648 96.6636C114.218 96.9455 113.806 97.2534 113.392 97.5594L113.374 97.3599C114.238 97.8151 115.007 98.413 115.707 99.0731C116.407 99.734 117.05 100.452 117.63 101.216C116.986 100.506 116.3 99.8371 115.586 99.2057C114.865 98.5857 114.111 97.9926 113.268 97.5714L113.097 97.4864L113.248 97.3719C113.664 97.0586 114.09 96.7607 114.528 96.4788C114.969 96.203 115.417 95.9352 115.892 95.7169C116.362 95.4913 116.854 95.3098 117.359 95.1759C117.863 95.0601 118.397 94.9758 118.906 95.0929Z" fill="#506815"/>
<path d="M114.172 93.3789C112.83 93.9051 111.54 94.5512 110.289 95.2562C109.037 95.9612 107.833 96.7512 106.692 97.6209L106.673 97.4214C107.276 97.7314 107.834 98.1043 108.385 98.4846C108.935 98.8669 109.474 99.2612 109.998 99.6763C111.053 100.496 112.073 101.358 113.067 102.249C112.019 101.422 110.96 100.612 109.889 99.8196C108.812 99.0429 107.738 98.2362 106.567 97.633L106.399 97.5459L106.549 97.4334C108.862 95.6974 111.425 94.2714 114.172 93.3789Z" fill="#506815"/>
<path d="M107.295 92.1484C106.501 92.3225 105.744 92.6338 105.031 93.0094C104.314 93.3817 103.64 93.8349 103.032 94.3625C101.804 95.4069 100.846 96.7439 100.195 98.2148L100.136 98.0595C100.787 98.3735 101.417 98.7317 101.992 99.1669C102.564 99.6021 103.116 100.068 103.605 100.595C104.597 101.632 105.45 102.798 106.127 104.056C105.379 102.84 104.479 101.724 103.477 100.721C102.976 100.219 102.432 99.7621 101.865 99.341C101.296 98.9198 100.677 98.5757 100.04 98.2758L99.933 98.2256L99.9799 98.1198C100.647 96.6228 101.64 95.259 102.911 94.2186C104.178 93.1828 105.692 92.4343 107.295 92.1484Z" fill="#506815"/>
<path d="M99.118 93.1943C98.4357 93.5619 97.7816 93.9777 97.1489 94.4215C96.5129 94.8594 95.9003 95.3321 95.3306 95.8489C94.2044 96.8713 93.1466 98.0951 92.8172 99.5848L92.7529 99.4542C93.7438 99.953 94.6503 100.606 95.4357 101.378C96.2264 102.144 96.924 103.004 97.4971 103.937C96.8557 103.051 96.1145 102.242 95.3131 101.509C94.5084 100.78 93.6247 100.135 92.6505 99.6671L92.5662 99.627L92.5856 99.5366C92.755 98.7553 93.1319 98.0396 93.5985 97.4109C94.0645 96.7782 94.6135 96.2138 95.2054 95.7077C96.3924 94.6947 97.72 93.8638 99.118 93.1943Z" fill="#506815"/>
<path d="M82.7062 109.783C82.5422 109.557 82.2563 109.279 81.9852 109.058C81.7107 108.823 81.4054 108.616 81.0987 108.413C80.4734 108.02 79.812 107.673 79.1203 107.384C77.7425 106.794 76.2856 106.375 74.81 106.042C71.8448 105.413 68.7972 105.173 65.751 105.109C62.7007 105.052 59.6464 105.132 56.6075 105.421C55.0891 105.569 53.5733 105.761 52.0749 106.053C50.5806 106.349 49.0816 106.693 47.6736 107.29C49.0702 106.665 50.5652 106.292 52.0569 105.965C53.5532 105.643 55.069 105.421 56.5881 105.242C59.629 104.892 62.692 104.753 65.753 104.749C68.814 104.744 71.893 104.9 74.9265 105.467C76.439 105.768 77.9413 106.158 79.3895 106.736C80.1152 107.018 80.8209 107.364 81.4998 107.767C81.8352 107.977 82.1686 108.192 82.4819 108.445C82.8033 108.704 83.0899 108.943 83.3851 109.329L82.7062 109.783Z" fill="#506815"/>
<path d="M49.2786 103.511C50.412 103.454 51.5489 103.651 52.6408 103.965C53.7308 104.293 54.7779 104.762 55.7581 105.342L55.9074 105.43L55.756 105.517C55.2713 105.794 54.8609 106.205 54.4773 106.625C54.0943 107.05 53.7402 107.503 53.4 107.966C52.7245 108.897 52.0972 109.866 51.512 110.861C52.0349 109.831 52.6161 108.829 53.2748 107.877C53.5982 107.397 53.9557 106.939 54.34 106.502C54.7277 106.07 55.1381 105.645 55.657 105.341L55.6549 105.515C55.1682 105.235 54.6775 104.959 54.164 104.731C53.6565 104.487 53.1249 104.303 52.594 104.118C52.0597 103.943 51.5134 103.803 50.9597 103.7C50.406 103.592 49.8443 103.513 49.2786 103.511Z" fill="#506815"/>
<path d="M51.5114 100.223C53.4355 100.125 55.361 100.624 57.1004 101.444C57.9607 101.876 58.8083 102.351 59.5669 102.95C60.3455 103.523 61.0471 104.191 61.7113 104.891L61.7963 104.981L61.6872 105.046C60.9594 105.476 60.2411 105.929 59.5916 106.474C58.9268 107 58.3249 107.602 57.7652 108.238C57.2022 108.873 56.7074 109.566 56.2622 110.289C55.8129 111.009 55.4159 111.766 55.1247 112.567C55.659 110.947 56.5561 109.452 57.6635 108.151C58.2198 107.502 58.8197 106.886 59.4852 106.346C60.1346 105.786 60.8557 105.318 61.5881 104.872L61.5633 105.026C61.2205 104.694 60.9045 104.335 60.5537 104.012C60.1908 103.703 59.8521 103.363 59.4611 103.089C58.7186 102.487 57.8864 102.008 57.0395 101.57C56.1838 101.144 55.2787 100.822 54.3514 100.589C53.4268 100.352 52.4714 100.201 51.5114 100.223Z" fill="#506815"/>
<path d="M57.5204 97.2588C59.5838 97.8694 61.5495 98.8301 63.2996 100.095C65.0436 101.358 66.5855 102.972 67.5362 104.934L67.5784 105.022L67.4914 105.067C66.6732 105.488 65.9743 106.125 65.3228 106.787C64.6761 107.458 64.0822 108.182 63.5198 108.928C62.4064 110.43 61.3834 112.002 60.4428 113.623C61.3178 111.966 62.2993 110.362 63.4127 108.849C63.9684 108.092 64.5569 107.358 65.2023 106.671C65.8537 105.995 66.5514 105.34 67.3996 104.889L67.3554 105.021C66.8828 104.066 66.2936 103.167 65.5839 102.367C64.8816 101.562 64.0782 100.845 63.2172 100.208C62.3569 99.5693 61.4363 99.0116 60.481 98.5235C59.5296 98.0281 58.5441 97.5902 57.5204 97.2588Z" fill="#506815"/>
<path d="M67.4459 97.9082C68.7749 98.968 70.0403 100.11 71.2146 101.343C71.8024 101.958 72.3695 102.596 72.885 103.278C73.3911 103.961 73.8886 104.678 74.1396 105.521L74.1618 105.595L74.0914 105.636C73.3409 106.07 72.7464 106.762 72.1994 107.455C71.6538 108.156 71.1604 108.901 70.6917 109.659C69.7658 111.183 68.9115 112.753 68.1174 114.353C68.8445 112.721 69.6546 111.123 70.5779 109.589C71.0392 108.823 71.5252 108.069 72.0675 107.353C72.6145 106.647 73.1977 105.938 73.9957 105.46L73.9475 105.575C73.7051 104.783 73.2405 104.06 72.7451 103.381C72.2443 102.701 71.6899 102.058 71.1128 101.438C69.9519 100.203 68.72 99.0316 67.4459 97.9082Z" fill="#506815"/>
<path d="M79.8428 85.1539C74.6528 81.1121 68.8863 77.7706 62.7154 75.4233C56.5526 73.0814 49.9526 71.7504 43.3171 71.9064C49.9459 71.5843 56.6156 72.75 62.8862 74.9553C69.1668 77.1654 75.0812 80.3937 80.446 84.3599L79.8428 85.1539Z" fill="#506815"/>
<path d="M47.5633 68.6765C48.1016 68.6678 48.6158 68.8881 49.0904 69.1298C49.5611 69.3895 50.003 69.7002 50.4161 70.043C51.2422 70.7312 51.9593 71.5346 52.6301 72.3668L52.7453 72.5101L52.5679 72.5617C51.6446 72.8281 50.7856 73.2981 49.9548 73.7996C49.1306 74.3144 48.3285 74.8735 47.5626 75.4821C48.2723 74.8079 49.0382 74.1906 49.8543 73.6429C50.6698 73.0959 51.5462 72.6239 52.4996 72.3253L52.4373 72.5195C52.1012 72.1104 51.7698 71.698 51.4123 71.3077C51.0561 70.916 50.6792 70.5465 50.2875 70.1923C49.8965 69.8374 49.4767 69.5147 49.0275 69.2396C48.5823 68.9671 48.0982 68.71 47.5633 68.6765Z" fill="#506815"/>
<path d="M52.535 67.9014C53.8078 68.6887 54.9861 69.6233 56.0948 70.6316C57.2001 71.6439 58.2238 72.7466 59.1625 73.9176L59.2756 74.0588L59.0995 74.1117C57.8235 74.498 56.6116 75.1207 55.4012 75.7092C54.1954 76.3164 52.9983 76.9444 51.8099 77.5911C52.9541 76.8694 54.1204 76.1812 55.3155 75.5438C55.91 75.2191 56.5172 74.9178 57.1325 74.6319C57.7491 74.3481 58.3718 74.0742 59.0312 73.8754L58.969 74.0695C58.499 73.4931 58.029 72.916 57.5215 72.371C57.0241 71.8173 56.4925 71.2951 55.9602 70.7742C55.4266 70.254 54.8696 69.7586 54.2985 69.2792C53.7308 68.7965 53.1483 68.3278 52.535 67.9014Z" fill="#506815"/>
<path d="M59.5008 68.1162C60.2868 68.4557 61.0078 68.937 61.6673 69.4867C62.3174 70.0477 62.9173 70.6751 63.4181 71.3774C63.9128 72.081 64.3567 72.8295 64.6741 73.6329C65.0195 74.425 65.2478 75.2605 65.434 76.1021L65.4594 76.2152L65.3416 76.2454C64.6433 76.4248 63.959 76.6658 63.3103 76.9905C62.6649 77.3193 62.0416 77.6942 61.4484 78.116C60.2707 78.9683 59.1768 79.9511 58.218 81.0564C59.1111 79.8955 60.1649 78.8544 61.3386 77.966C62.5116 77.0782 63.8432 76.3753 65.2853 76.0064L65.1929 76.1496C65.0048 75.3248 64.7973 74.5 64.4625 73.7213C64.1619 72.928 63.722 72.1982 63.2581 71.4912C62.7847 70.7875 62.2116 70.1535 61.5843 69.5818C60.9596 69.0073 60.2687 68.4931 59.5008 68.1162Z" fill="#506815"/>
<path d="M67.2743 71.0454C68.5349 72.0959 69.6764 73.2996 70.6265 74.6507C71.1025 75.3249 71.5149 76.0486 71.8329 76.8159C72.1509 77.5811 72.3632 78.406 72.3685 79.2489L72.3692 79.3433L72.2775 79.3681C71.2116 79.6553 70.2107 80.1567 69.2774 80.7566C68.3475 81.3639 67.4671 82.0581 66.6724 82.8461C67.4041 81.9979 68.2484 81.244 69.1736 80.602C70.0955 79.9545 71.1219 79.4471 72.2139 79.1311L72.1228 79.2495C72.1081 77.6327 71.3549 76.1089 70.4645 74.7618C70.0166 74.081 69.5111 73.4362 68.9741 72.8189C68.4412 72.1976 67.8788 71.5998 67.2743 71.0454Z" fill="#506815"/>
<path d="M79.6871 70.5154C79.5284 69.7924 79.5425 69.1724 79.5538 68.5116C79.5733 67.8615 79.6409 67.2188 79.7272 66.5814C79.9033 65.306 80.1758 64.052 80.4905 62.8121C81.1392 60.3369 81.9875 57.9274 82.9228 55.5573C83.8567 53.1866 84.8992 50.8574 86.1016 48.6112C86.7048 47.4897 87.3435 46.3857 88.0539 45.3286C88.7662 44.2761 89.5181 43.2364 90.438 42.356C89.5362 43.2544 88.8071 44.3069 88.1168 45.3701C87.4292 46.4386 86.814 47.5513 86.2355 48.6815C85.0813 50.9437 84.0884 53.2857 83.2053 55.6658C82.3283 58.0472 81.5503 60.4675 80.9698 62.9299C80.6907 64.1625 80.4536 65.4044 80.3137 66.653C80.2454 67.277 80.1952 67.903 80.1932 68.5243C80.1912 69.1316 80.2173 69.7957 80.3452 70.3146L79.6871 70.5154Z" fill="#506815"/>
<path d="M86.9752 42.3706C86.8031 42.8111 86.694 43.2724 86.6103 43.7357C86.5199 44.1977 86.4623 44.6657 86.4342 45.135C86.4141 45.605 86.4054 46.0757 86.4436 46.5443C86.4697 47.0136 86.542 47.4783 86.613 47.9429L86.4784 47.8914C86.8814 47.5887 87.3427 47.4107 87.802 47.2533C88.264 47.1 88.734 46.9768 89.208 46.8777C90.1546 46.6702 91.1167 46.5436 92.0808 46.4754C91.1234 46.6066 90.1721 46.7746 89.2327 46.9869C88.7634 47.094 88.2994 47.2252 87.8482 47.3852C87.3996 47.5472 86.9497 47.734 86.5828 48.0226L86.471 48.1103L86.4476 47.971C86.2896 47.0317 86.2501 46.0743 86.3184 45.127C86.3954 44.1816 86.5815 43.2343 86.9752 42.3706Z" fill="#506815"/>
<path d="M83.7084 43.0308C83.3951 43.7739 83.2244 44.5679 83.1307 45.3633C83.0322 46.1587 83.0155 46.9655 83.0892 47.7635C83.1789 48.5589 83.3061 49.3543 83.5531 50.1175C83.6495 50.5071 83.8156 50.874 83.9461 51.2516C84.0934 51.6239 84.2775 51.9807 84.4335 52.349L84.307 52.3202C84.8848 51.8957 85.4766 51.4873 86.1187 51.1666C86.75 50.8272 87.4182 50.562 88.0997 50.3445C89.4615 49.9099 90.905 49.7078 92.327 49.8189C91.6153 49.7847 90.9023 49.845 90.202 49.9575C89.5003 50.0653 88.8061 50.2233 88.1339 50.4509C87.4617 50.6752 86.8036 50.9463 86.1843 51.2898C85.5543 51.6152 84.9752 52.0263 84.4108 52.4521L84.3271 52.515L84.2836 52.4233C83.9374 51.6908 83.6281 50.9397 83.4132 50.1577C83.1735 49.383 83.055 48.577 82.974 47.7729C82.8541 46.1647 83.0396 44.5043 83.7084 43.0308Z" fill="#506815"/>
<path d="M79.5488 46.7139C79.4986 47.6204 79.5442 48.5296 79.6453 49.4294C79.741 50.3299 79.901 51.2237 80.1447 52.0947C80.3857 52.9657 80.7071 53.816 81.1275 54.6141C81.5406 55.4168 82.0675 56.1559 82.6687 56.8241L82.5529 56.8174C83.1722 56.3032 83.904 55.9765 84.6364 55.692C85.3749 55.4155 86.1321 55.1992 86.8954 55.0158C88.4232 54.6469 89.9784 54.4092 91.5404 54.2706C89.9858 54.4714 88.4412 54.7513 86.9221 55.1242C86.1642 55.3164 85.4137 55.54 84.686 55.8225C83.9656 56.1117 83.2472 56.4452 82.6621 56.9446L82.6005 56.9975L82.5456 56.9379C81.303 55.5822 80.4989 53.8816 80.0322 52.1255C79.5656 50.3634 79.4015 48.5235 79.5488 46.7139Z" fill="#506815"/>
<path d="M77.0435 54.5918C77.5422 55.9435 78.0912 57.2772 78.7105 58.5747C79.0245 59.2214 79.3619 59.8575 79.7449 60.4634C80.1292 61.0646 80.555 61.6544 81.1027 62.0963L80.9982 62.0976C81.6242 61.6303 82.3627 61.4114 83.0864 61.2172C83.8162 61.0304 84.5567 60.8992 85.2998 60.7921C86.7855 60.5765 88.2845 60.4687 89.7828 60.4359C88.2871 60.531 86.7955 60.6816 85.3166 60.9026C84.5781 61.0191 83.8423 61.1583 83.1226 61.3525C82.4102 61.5513 81.6804 61.785 81.104 62.2282L81.0504 62.2697L80.9996 62.2295C80.4164 61.7662 80.0047 61.1523 79.621 60.5417C79.2421 59.9238 78.912 59.2797 78.6054 58.6256C77.9908 57.318 77.4753 55.967 77.0435 54.5918Z" fill="#506815"/>
<path d="M80.4265 86.969C80.8724 86.9222 81.1851 86.9248 81.5674 86.9135C81.9336 86.9108 82.2991 86.9068 82.6647 86.9155C83.3951 86.9302 84.1255 86.9663 84.8526 87.0293C86.3075 87.1491 87.7576 87.3654 89.1723 87.7289C90.5809 88.0978 91.9856 88.5504 93.2509 89.2869C94.517 90.0072 95.6632 90.9539 96.5 92.149C95.629 90.9774 94.4654 90.0722 93.1927 89.394C91.9213 88.7004 90.518 88.292 89.1161 87.9659C87.7074 87.6459 86.268 87.4718 84.8265 87.3942C84.1061 87.352 83.3837 87.3366 82.662 87.3419C82.3011 87.3433 81.9409 87.3573 81.5814 87.3701C81.2386 87.3861 80.8249 87.4122 80.5484 87.441L80.4265 86.969Z" fill="#506815"/>
<path d="M88.0962 91.5331C88.1759 90.634 88.3165 89.7315 88.6492 88.8732C88.7362 88.6603 88.828 88.446 88.9692 88.2539C89.0964 88.0604 89.2839 87.8683 89.5262 87.7872C90.007 87.644 90.4656 87.7002 90.9215 87.739C91.8274 87.8636 92.7124 88.0812 93.5687 88.3851C94.4043 88.7045 95.3054 89.0319 95.9087 89.7255C95.596 89.3967 95.1829 89.1972 94.7718 89.0238C94.3614 88.8451 93.9396 88.6904 93.5098 88.5625C92.6535 88.2994 91.7778 88.0825 90.8927 87.9801C90.4582 87.9319 89.9922 87.883 89.6026 87.9941C89.223 88.118 89.0101 88.5625 88.8213 88.9448C88.4698 89.7616 88.2629 90.6487 88.0962 91.5331Z" fill="#506815"/>
<path d="M82.6545 92.5073C82.6706 91.3625 82.8179 90.2069 83.2096 89.1129C83.4044 88.5679 83.6789 88.037 84.0886 87.6032C84.495 87.1553 85.0909 86.9203 85.6553 86.8091C86.8041 86.6023 87.9631 86.6103 89.1086 86.6846C90.2555 86.7596 91.3943 86.9122 92.5204 87.1258C91.3816 87.0013 90.2394 86.9136 89.0985 86.8721C87.9604 86.8359 86.8095 86.8292 85.7041 87.0475C85.1511 87.1519 84.6256 87.3528 84.2466 87.7578C83.8596 88.1522 83.5986 88.6617 83.383 89.1805C82.9719 90.233 82.759 91.3691 82.6545 92.5073Z" fill="#506815"/>
<path d="M56.8047 127.144L62.8751 168.486H99.4751L105.009 127.144H56.8047Z" fill="#D18133"/>
<path d="M104.086 134.041L105.009 127.144H56.8047L62.8751 168.486H70.9266C70.1667 148.667 81.0897 128.802 104.086 134.041Z" fill="#C46C23"/>
<path d="M104.117 130.324H57.6979C55.1203 130.324 53.0114 128.215 53.0114 125.637C53.0114 123.06 55.1203 120.951 57.6979 120.951H104.117C106.694 120.951 108.803 123.06 108.803 125.637C108.803 128.215 106.694 130.324 104.117 130.324Z" fill="#D18133"/>
<path d="M85.983 115.864C85.983 115.864 89.7182 108.671 96.3777 110.783C103.037 112.894 109.371 119.391 108.965 124.182C108.559 128.973 109.534 131.491 109.534 131.491C109.534 131.491 108.234 130.435 104.58 131.004C100.926 131.572 94.1851 130.76 89.5561 125.969C84.9272 121.178 84.5067 117.962 85.983 115.864Z" fill="#1C5E1C"/>
<path d="M82.0354 112.984C83.4527 112.657 84.7248 112.906 85.9935 113.202C87.2502 113.526 88.4546 113.996 89.6156 114.543C91.9327 115.652 94.0698 117.074 96.1138 118.594C98.1571 120.116 100.134 121.73 101.987 123.478C102.911 124.354 103.81 125.259 104.644 126.221C105.474 127.184 106.28 128.181 106.89 129.299C106.258 128.194 105.433 127.215 104.587 126.271C103.735 125.328 102.822 124.443 101.884 123.59C100.002 121.884 98.0012 120.314 95.9357 118.839C93.8676 117.373 91.7105 116.023 89.4094 114.991C88.2571 114.484 87.0708 114.056 85.8563 113.777C85.251 113.627 84.6344 113.546 84.0225 113.499C83.426 113.47 82.7632 113.483 82.2677 113.631L82.0354 112.984Z" fill="#506815"/>
<path d="M107.78 125.954C107.4 125.673 106.982 125.447 106.557 125.245C106.135 125.038 105.698 124.86 105.252 124.71C104.805 124.568 104.352 124.437 103.889 124.351C103.429 124.253 102.962 124.202 102.495 124.149L102.58 124.032C102.767 124.5 102.819 124.992 102.85 125.476C102.877 125.962 102.873 126.448 102.844 126.932C102.797 127.9 102.667 128.861 102.481 129.81C102.605 128.852 102.692 127.889 102.732 126.927C102.751 126.446 102.746 125.964 102.71 125.486C102.671 125.011 102.607 124.528 102.425 124.098L102.37 123.967L102.51 123.981C103.457 124.074 104.392 124.287 105.289 124.601C106.184 124.921 107.05 125.348 107.78 125.954Z" fill="#506815"/>
<path d="M107.998 122.628C107.363 122.132 106.641 121.759 105.898 121.461C105.156 121.157 104.382 120.93 103.592 120.793C102.802 120.672 102 120.586 101.199 120.625C100.798 120.616 100.401 120.681 100.002 120.708C99.604 120.753 99.2116 120.837 98.8146 120.892L98.8756 120.776C99.134 121.445 99.3737 122.124 99.5156 122.827C99.6783 123.524 99.7593 124.239 99.7914 124.954C99.8551 126.382 99.6723 127.828 99.1936 129.171C99.4125 128.493 99.5404 127.79 99.6154 127.084C99.695 126.379 99.7238 125.667 99.6796 124.959C99.6388 124.252 99.5491 123.546 99.3797 122.857C99.2304 122.164 98.9853 121.498 98.7216 120.842L98.6827 120.745L98.7825 120.727C99.5799 120.584 100.386 120.483 101.197 120.479C102.008 120.45 102.816 120.547 103.614 120.679C105.196 120.985 106.751 121.597 107.998 122.628Z" fill="#506815"/>
<path d="M105.53 117.651C104.669 117.365 103.779 117.171 102.884 117.033C101.991 116.89 101.085 116.811 100.181 116.818C99.2771 116.823 98.3726 116.911 97.4922 117.108C96.6098 117.297 95.7589 117.612 94.9561 118.018L94.993 117.908C95.3277 118.639 95.4516 119.431 95.5346 120.213C95.6082 120.997 95.6189 121.785 95.5969 122.57C95.5533 124.141 95.3759 125.705 95.1014 127.249C95.3143 125.695 95.4476 124.131 95.4851 122.568C95.4978 121.786 95.4777 121.003 95.396 120.227C95.3056 119.456 95.171 118.676 94.8423 117.98L94.8075 117.906L94.8791 117.869C96.5121 117.025 98.3639 116.693 100.181 116.702C102.003 116.712 103.822 117.035 105.53 117.651Z" fill="#506815"/>
<path d="M98.582 113.172C97.1466 113.3 95.7165 113.481 94.3018 113.74C93.5955 113.874 92.8932 114.033 92.209 114.244C91.5281 114.458 90.8472 114.715 90.2781 115.128L90.3042 115.028C90.5914 115.754 90.6095 116.524 90.6082 117.274C90.5981 118.027 90.5305 118.776 90.4401 119.521C90.26 121.012 89.9721 122.487 89.6119 123.942C89.9112 122.473 90.1556 120.994 90.329 119.508C90.41 118.765 90.4676 118.018 90.4682 117.273C90.4622 116.533 90.4281 115.768 90.1509 115.095L90.1248 115.032L90.177 114.994C90.7769 114.552 91.4765 114.315 92.1668 114.104C92.8624 113.9 93.5701 113.75 94.2818 113.626C95.7031 113.373 97.1412 113.229 98.582 113.172Z" fill="#506815"/>
</g>
<defs>
<filter id="filter0_d_585_1116" x="0.000244141" y="0" width="165.085" height="208.486" filterUnits="userSpaceOnUse" color-interpolation-filters="sRGB">
<feFlood flood-opacity="0" result="BackgroundImageFix"/>
<feColorMatrix in="SourceAlpha" type="matrix" values="0 0 0 0 0 0 0 0 0 0 0 0 0 0 0 0 0 0 127 0" result="hardAlpha"/>
<feOffset/>
<feGaussianBlur stdDeviation="20"/>
<feComposite in2="hardAlpha" operator="out"/>
<feColorMatrix type="matrix" values="0 0 0 0 1 0 0 0 0 0.960784 0 0 0 0 0.00392157 0 0 0 1 0"/>
<feBlend mode="normal" in2="BackgroundImageFix" result="effect1_dropShadow_585_1116"/>
<feBlend mode="normal" in="SourceGraphic" in2="effect1_dropShadow_585_1116" result="shape"/>
</filter>
</defs>
</svg>
